<?xml version="1.0" encoding="utf-8"?>
<!-- Generator: Adobe Illustrator 23.0.1, SVG Export Plug-In . SVG Version: 6.00 Build 0)  -->
<svg version="1.1" id="Capa_1" xmlns="http://www.w3.org/2000/svg" xmlns:xlink="http://www.w3.org/1999/xlink" x="0px" y="0px"
	 viewBox="0 0 506.1 408" style="enable-background:new 0 0 506.1 408;" xml:space="preserve">
<style type="text/css">
	.st0{fill-rule:evenodd;clip-rule:evenodd;fill:#106EA3;}
	.st1{fill-rule:evenodd;clip-rule:evenodd;fill:#0D1727;}
	.st2{fill-rule:evenodd;clip-rule:evenodd;fill:#483151;}
	.st3{fill-rule:evenodd;clip-rule:evenodd;fill:#67A6DA;}
	.st4{fill-rule:evenodd;clip-rule:evenodd;fill:#2C1921;}
	.st5{fill-rule:evenodd;clip-rule:evenodd;fill:#FFFFFF;}
	.st6{fill-rule:evenodd;clip-rule:evenodd;fill:#1A2B55;}
	.st7{fill-rule:evenodd;clip-rule:evenodd;fill:#7B5425;}
	.st8{fill-rule:evenodd;clip-rule:evenodd;fill:#B98595;}
	.st9{fill-rule:evenodd;clip-rule:evenodd;fill:#AF596C;}
	.st10{fill:#0D1727;}
	.st11{fill:none;stroke:#0D1727;stroke-width:2;stroke-miterlimit:10;}
</style>
<g>
	<path class="st0" d="M230.04,364.69c-13.37,0.55-26.67-0.38-39.96-1.73c-6.34-3.5-13.64-3.04-20.35-5.01
		c-10.03-5.43-20.66-9.17-31.83-11.38c-2.47-5.79-8.86-4.12-13.03-6.85c-17.41-11.42-34.68-23.04-50.32-36.83
		c-13.61-12.01-26.02-25.14-31.93-42.9c-3.54-10.63-7-21.59-2.53-32.65c8.14-20.12,30.49-28.96,50.79-21.59
		c21.56,7.83,40.48,19.78,58.33,33.89c20.08,15.87,42.25,26.97,68.52,27.65c0.85,0.1,1.71,0.19,2.56,0.29
		c5.2,1.07,10.41,1.13,15.63,0.2c1.49-0.01,2.99-0.03,4.48-0.04c22.66,1.46,45.02-1.05,67.24-5.22c6.17-1.16,8.98-1.3,6.22,6.96
		c-7.57,22.64-2.77,43.77,10.55,63.21c0.8,1.15,1.43,2.51,2.44,3.42c6.34,5.73,6.28,6.49-1.41,9.48c-5.83,2.27-11.69,4.39-17.9,5.57
		c-16.97,3.21-33.9,6.69-50.84,10.06l-0.25,0.06C247.54,361.62,238.71,362.55,230.04,364.69z"/>
	<path class="st0" d="M9.98,330.29c-1.59,0.34-3.18,0.68-4.77,1.02c-1.49-16.36,1.54-32.35,4.23-48.33
		c5.32-31.67,17.24-60.18,41.5-82.28c7.14-6.51,14.99-12.23,22.51-18.32c5-3.12,9.89-6.44,15.03-9.33
		c10.55-5.95,21.41-11.14,33.84-11.71c-7.59,10.82-13.68,22.53-18.34,34.78c-2.58,6.77-5.21,8.35-11.8,5.49
		c-20.1-8.72-36.25-1.57-50.72,12.92c-6.01,6.02-9.68,12.56-9.38,21.14c0.33,9.49,1.4,18.8,4.87,27.78
		c7.28,18.81,20.29,33.45,35.94,45.1c13.81,10.28,12.61,23.32,11.4,37.22c-14.58-4.18-27.28-13.29-42.42-16.04
		c-9.07-1.65-18.14-2.23-27.29-0.87C12.76,328.42,11.21,328.83,9.98,330.29z"/>
	<path class="st1" d="M84.28,345.77c1.21-13.91,2.41-26.95-11.4-37.22c-15.65-11.65-28.66-26.29-35.94-45.1
		c-3.47-8.97-4.55-18.29-4.87-27.78c-0.3-8.59,3.37-15.12,9.38-21.14c14.47-14.49,30.62-21.65,50.72-12.92
		c6.59,2.86,9.22,1.28,11.8-5.49c4.67-12.25,10.75-23.96,18.34-34.78c1.76-0.64,3.53-1.29,5.29-1.92
		c-3.06,11.16-10.49,20.14-15.2,30.53c-7.06,15.59-7.43,14.89,7.36,23.19c7.51,4.22,8.68,1.52,9.73-5.32
		c2.61-16.99,6.37-33.73,13.39-49.55c2.62-5.9,6.05-11.06,12.58-13.26c-0.16,1.65-0.33,3.3-0.49,4.96c-3.07,1.05-5.01,3.22-6.82,5.9
		c-6.7,9.86-7.74,21.44-10.4,32.48c-0.14,2.51-0.29,5.07-0.44,7.64c-4.13,7.53-5.48,15.75-4.22,24.03
		c0.82,5.42,6.15,6.84,10.82,8.28c0.37,0.11,0.41,1.06,0.79,1.42c18.49,17.17,39.25,29.99,64.79,33.55c2.75,1.35,5.5,2.7,8.25,4.05
		c-26.29-0.68-48.45-11.77-68.53-27.65c-17.85-14.11-36.77-26.06-58.33-33.89c-20.3-7.37-42.66,1.47-50.79,21.59
		c-4.47,11.06-1.01,22.02,2.53,32.65c5.91,17.77,18.32,30.89,31.93,42.9c15.63,13.79,32.9,25.4,50.32,36.83
		c4.17,2.74,10.57,1.07,13.03,6.85c-1.3,0.32-2.61,0.66-3.91,0.98c-10.21-5.04-10.21-5.04-10.1,2.34c-1.81,0.41-3.62,0.82-5.42,1.23
		c1.6-3.82,3.12-8.26-0.84-10.95c-8.63-5.85-17.76-10.96-26.96-16.55c-2.12,5.93,0.52,10.65,0.04,15.44
		C87.48,340.28,88.74,345.77,84.28,345.77z"/>
	<path class="st1" d="M73.45,182.38c-7.52,6.08-15.37,11.81-22.51,18.32c-24.26,22.1-36.17,50.6-41.5,82.28
		c-2.69,15.98-5.72,31.97-4.23,48.33c-4.44-1.23-2.62-4.93-2.79-7.62c-0.24-3.85,0.66-7.85-2.42-11.05
		c2.56-50.67,16.97-95.65,60.75-126.51c2.25-1.59,4.14-4.08,7.4-3.73C69.92,182.39,71.68,182.38,73.45,182.38z"/>
	<path class="st0" d="M277.56,374.07c2.51-11.67,12.64-18.49,24.86-16.9c2.73,0.36,3.25,2.09,3.11,4.19
		c-0.78,10.9-2.27,22.14-7.13,31.58c-4.11,7.99-4.79-3.56-8.25-3.52c-0.37-2.44-1.24-4.49-3.98-5.09l-0.23,0.03
		c0.39-1.61-0.3-2.64-1.75-3.26c-0.09-0.59-0.42-0.93-1.01-1.04c-0.23-1.26-0.86-2.03-2.26-1.9c0,0,0.1-0.09,0.1-0.1
		c0.21-1.24-0.32-1.82-1.56-1.76c0,0-0.17,0.09-0.17,0.09c0.15-1.46-0.55-2.2-1.96-2.34L277.56,374.07z"/>
	<path class="st0" d="M90.69,339.07c0.48-4.78-2.16-9.51-0.04-15.44c9.2,5.58,18.32,10.7,26.96,16.55
		c3.97,2.69,2.44,7.13,0.84,10.95c-9.66,2.74-19.19,4.81-26.8-4.52c0.64-1.6,0.31-3.09-0.49-4.53
		C91,341.08,90.85,340.07,90.69,339.07z"/>
	<path class="st0" d="M123.87,349.9c-0.11-7.38-0.11-7.38,10.1-2.34C131.01,350.1,127.42,349.89,123.87,349.9z"/>
	<path class="st2" d="M9.98,330.29c1.23-1.45,2.78-1.86,4.59-1.42C13.41,330.53,11.82,330.8,9.98,330.29z"/>
	<path class="st2" d="M91.15,342.08c0.8,1.44,1.13,2.93,0.49,4.53C90.67,345.19,90.01,343.73,91.15,342.08z"/>
	<path class="st2" d="M277.34,374.07c1.41,0.15,2.11,0.89,1.96,2.34C278.65,375.63,277.99,374.85,277.34,374.07z"/>
	<path class="st2" d="M279.47,376.32c1.25-0.06,1.77,0.52,1.56,1.76C280.51,377.5,279.98,376.91,279.47,376.32z"/>
	<path class="st2" d="M284.19,381.11c1.46,0.62,2.14,1.65,1.75,3.26C285.36,383.29,284.77,382.2,284.19,381.11z"/>
	<path class="st2" d="M280.92,378.18c1.39-0.13,2.03,0.64,2.26,1.9C282.43,379.44,281.68,378.81,280.92,378.18z"/>
	<path class="st1" d="M505.1,339.83c2.66,8.19,0.04,13.88-8.04,16.98c-3.06,1.17-4.95,3.29-6.67,6.17
		c-7.73,12.94-20.84,18.52-35.65,15.73c-1.91-0.36-4.26-1.03-5.8-0.29c-15.14,7.27-28.97,3.02-42.17-4.84
		c-7.03-4.19-11.17-3.02-13.31,4.88c-1.51,0.77-2.57,1.87-2.69,3.65l0.25-0.07c-3.9,0.96-7.81,1.92-11.72,2.88
		c-14.53-9.62-22.05-23.1-22.4-40.58c-0.05-2.7,0.53-6.13-4.12-5.49c-0.42-1.06-0.85-2.11-1.27-3.17c2.64-3.34,7.19-3.24,10.26-5.42
		c7.5-5.32,17.3-8.8,18.49-20.02c1.82-0.1,3.64-0.21,5.46-0.32c2.04,7.3,7.45,9.14,14.34,9.78c4.97,0.46,8.3-3.83,13.02-3.23
		c0.01,1.26,0.03,2.53,0.04,3.79c-7.32,4.73-15.39,4.66-23.04,2c-5.53-1.92-9.22-0.85-12.97,3c-3,3.07-5.85,6.59-9.49,8.64
		c-5.6,3.16-6.15,8-5.76,13.2c0.77,10.25,4.75,19.26,11.58,26.98c1.51,1.71,3.23,4.08,5.68,2.63c4.9-2.91,10.53-5.55,13.84-9.86
		c2.29-2.98-4.64-4.93-5.21-8.69c-0.06-0.42,0.46-0.94,1.19-2.29c10.19,8.31,21.24,15.04,33.15,20.33
		c9.22,4.09,22.37,1.23,26.8-6.26c1.69-2.86,2.68-6.06,0.2-8.76c-2.65-2.9-5.19-0.42-7.59,1c-8.65,5.12-8.65,5.12-11.77-4.03
		c3.95-0.4,7.9,0,11.87-1.03c11.29-2.91,15.2,0.51,13.52,11.91c-0.52,3.52-0.26,5.28,3.51,6.13c9.73,2.2,24.02-6.09,26.85-15.75
		c0.68-2.33,0.86-4.56-0.9-6.43c-1.9-2.03-4.21-1.36-6.38-0.51c-1.86,0.72-3.73,1.48-5.43,2.5c-14.46,8.68-8.47,6.83-22.33-3.7
		c9.99,5.4,18.58,1.44,27.36-2.86c4-1.96,8.89-1.67,11.81,2.21c4.36,5.79,6.73,1.34,9.25-1.38c2.08-2.24,1.5-5.39,1.57-8.23
		C501.97,340.6,503.53,340.22,505.1,339.83z"/>
	<path class="st0" d="M306.01,402.77c-2.3-3.45-1.41-7.17-0.8-10.8c0.98-5.92,3.63-11.98,2.98-17.68
		c-2.11-18.51,10.67-22.4,23.94-26.46c4.14-1.27,6.4-0.92,6.74,4.18c0.8,12.12,3.87,23.64,10.06,34.24
		c4.82,8.26-5.42,5.73-6.96,9.47c-7.03,2.94-14.4,5.07-20.77,9.46C315.41,409.17,310.14,409.4,306.01,402.77z"/>
	<path class="st3" d="M352.78,338.85c4.65-0.63,4.06,2.79,4.12,5.49c0.35,17.47,7.86,30.95,22.4,40.58
		c-7.38,2.17-14.81,4.01-22.58,3.85c-7.85-13.77-15.81-27.52-12.19-44.45C347.27,342.5,350.02,340.68,352.78,338.85z"/>
	<path class="st1" d="M305.97,15.68C284.4,4.76,261.4-0.42,237.31,0.03C220.86,0.34,204,0.6,189.82,10.61
		c-11.25,7.94-23.83,14.66-30.58,27.68c0.53,1.61,0.47,3.13-0.66,4.49c-0.45,0.04-0.91,0.08-1.36,0.12
		c0.14,1.24,0.05,2.51-0.28,3.71c1.17,0.55,1.45,1.89-0.52,5.25c0.27,1.8,0.98,3.72-1.31,4.82c0,0-0.18,0.41-0.17,0.4
		c-0.15,1.65-0.31,3.3-0.47,4.96c0.54,11.38-1.32,22.7,0.01,34.15c1.43,12.33-6.26,24.28-2.28,36.91c0.09,0.3-0.66,0.86-1.02,1.3
		c1.48,2.97,11.42-2.07,6.56,6.92c-0.76,1.23-1.52,2.45-2.27,3.67c-0.15,1.65-0.32,3.3-0.48,4.95c-0.76,2.24-1.52,4.48-2.27,6.73
		c0.81,1.23,1.62,2.47,2.43,3.7c2.84-6.74,5.82-13.43,8.46-20.25c1.53-3.95,6.46-1.83,8.41-5.06c-11.56-1.95-16.96-8.79-15.18-18.99
		c1.86-10.62,7.41-14.2,18.38-11.84c0.94-2.49-0.1-3.72-2.54-4.27c-3.45-0.79-8.1,0.57-9.68-3.95c-1.98-5.66-3.95-11.9-1.62-17.58
		c3.28-8,2.98-16.18,3.67-24.42c1.24-14.66,7.63-25.28,20.79-34.01c38.92-25.85,77.16-17.03,115.9-1.04
		c5.49,2.26,9.53,6.34,12.61,11.26c2.49,3.97,3.4,8.95-1.43,11.2c-4.99,2.33-7.21-2.75-8.13-6.4c-1.59-6.32-5.47-10.56-10.32-14.27
		c-1.65-1.26-3.5-1.82-5.53-0.38c0.43,4.98,6.76,5.46,7.3,10.08c-10.9,2.66-13.34,1.41-19.26-7.99c-3.23-5.12-7.88-8.6-14.86-7.76
		c0.76,3.84,3.83,4.64,5.98,6.34c2.15,1.7,3.68,3.81,3.15,6.6c-0.65,3.35-3.61,3.25-6.16,3.32c-6.95,0.19-13.56,0.05-18.47-6.51
		c-3.07-4.09-7.8-6.47-13.63-6.47c-0.26,3.91,2.92,4.06,4.75,5.39c1.59,1.15,4,1.96,3.44,4.33c-0.61,2.52-3.21,1.95-5.09,1.98
		c-11.48,0.23-22.86-1.05-34.2-2.59c-10.3-1.39-11.19-0.2-8.67,9.7c4.03,15.89,3.7,31.69-2.15,47.17c-1.44,3.82-2.41,7.05,3.78,5.68
		c0.54-1.11,1.07-2.22,1.61-3.33c-0.23-3.41-0.54-6.83,2.1-9.61c0.19-0.34,0.25-0.69,0.18-1.07c-0.07-0.36-0.19-0.72-0.19-1.08
		c0-0.12,0.29-0.23,0.46-0.35c0.31-1.73,0.61-3.46,0.92-5.19c-1.29-1.84-1.15-3.57,0.36-5.21c0.05-4.97,0.1-9.95,0.15-14.92
		c-0.07-0.82-0.13-1.65-0.2-2.47l0.02,0.01c-1.4-0.97-1.58-2.14-0.55-3.49c-0.2-0.93-0.4-1.86-0.59-2.78
		c-2.27-1.44-2.2-3.72-2.15-5.99c0.49-4.97,4.45-2.9,6.58-2.66c26.45,3.09,53.01,2.82,79.55,3.04c10.52,0.09,19.11,2.88,23.19,13.64
		c1.78-0.1,3.57-0.2,5.35-0.3c2.98-1.04,5.96-2.08,8.94-3.12c-0.05-0.35-0.01-0.7,0.14-1.02c-0.51-2.09-0.89-4.13,1.7-5.2l0.31-0.72
		c0.03-0.91,0.06-1.83,0.1-2.74C320.62,25.61,314.13,19.81,305.97,15.68z"/>
	<path class="st1" d="M73.45,182.38c-1.76,0-3.53,0.01-5.29,0.01c11.45-10.38,24.83-17.42,39.45-21.99
		c9.15-2.86,18.73-4.55,25.16-12.67c0.4,1.23,0.79,2.47,1.19,3.69c-2.12,2.66-4.25,5.32-6.37,7.99c-1.76,0.64-3.53,1.29-5.29,1.93
		c-12.43,0.57-23.29,5.77-33.83,11.71C83.34,175.94,78.45,179.26,73.45,182.38z"/>
	<path class="st1" d="M133.97,151.42c-0.4-1.23-0.8-2.46-1.19-3.69c4.19-7.13,10.76-10.97,18.41-13.32
		c1.48,2.97,11.41-2.06,6.55,6.92c-0.41-5.18-3.48-3.69-6.6-2.79C143.73,140.65,140.34,148,133.97,151.42z"/>
	<path class="st1" d="M275.67,200.39c1,0.99,2.51,1.8,2.91,2.98c4.77,14.37,16.38,24.43,23.41,37.2
		c5.84,10.61,10.83,17.46,25.01,15.86c6.16-0.69,13.75-4.02,20.45-0.01c-1.28,2.57-3.78,3.06-6.22,3.64
		c-1.04,0.54-2.09,1.08-3.13,1.62c-14.95-0.23-21.35,4.09-23.07,15.35c-2.78,18.23,1.14,35.04,10.39,50.79
		c0.14,1.23,0.29,2.46,0.43,3.68c-0.48,0.39-0.96,0.78-1.45,1.17c-13.32-19.44-18.12-40.57-10.55-63.21
		c2.76-8.26-0.06-8.12-6.22-6.96c-22.22,4.17-44.58,6.68-67.23,5.22c0.46-1,0.91-1.99,1.36-2.99c11.38,0,22.77,0.38,34.05-1.72
		c3.04-0.56,6.77-0.15,6.94-4.62c0.6-15.19,0.3-30.3-5.05-44.82c-0.61-1.66-1.59-3.36-3.55-3.17c-2.37,0.23-1.94,2.43-1.97,4.02
		c-0.14,7.13,0.34,14.32-0.4,21.39c-0.87,8.34-2.76,16.58-4.21,24.87c-0.72-0.13-1.45-0.26-2.17-0.39
		c-0.74-8.02,3.29-15.93,1.04-24.38c-3.94,1.03-6.18,3.94-8.52,6.75c-1.68,2.02-3.54,3.96-6.51,3.18c-3.12-0.82-3.15-3.58-3.63-6.13
		c-0.47-2.47,1.23-6.16-3.32-6.63c-0.05-4.36,1.87-7.71,5.23-10.35c0.47,4.81,0.85,9.63,1.44,14.42c0.22,1.75-1.08,4.41,1.81,4.94
		c2.1,0.38,3.57-1.36,5.05-2.71c7.97-7.28,10.85-16.26,9-26.82C271.13,209.4,271.04,203.22,275.67,200.39z M287.49,230.64l0.08-0.08
		c0.09,7.69,0.07,15.38,0.32,23.06c0.08,2.38-1.03,6.34,1.98,6.68c4.32,0.49,9.44,0.71,12.94-2.41c2.06-1.83,0.91-5.71-0.52-7.77
		C297.68,243.41,294.34,235.67,287.49,230.64z"/>
	<path class="st1" d="M241.77,264.75c-0.45,1-0.9,1.99-1.36,2.99c-1.5,0.01-3,0.03-4.49,0.04c-5.19-1.46-10.4-1.5-15.63-0.2
		c-0.86-0.1-1.71-0.19-2.56-0.29c-2.74-1.35-5.49-2.7-8.24-4.05c10.96-12.04,13.82-25.74,8.49-41.13c0.31-0.9,0.14-1.59-0.86-1.9
		c-0.63-0.17-1.26-0.34-1.89-0.51c-0.31-1.16-0.63-2.32-0.94-3.49c1.13-2.07,4.72-3.68,1.23-6.61c0.04-0.89,0.09-1.77,0.13-2.66
		c7.28,1.59,14.56,3.18,21.84,4.76c2.35,1.25,4.75,1.87,7.3,0.57c1.54,0.03,3.08,0.05,4.62,0.07c0.08,1.13,0.15,2.26,0.23,3.38
		c-2.49,2.36,0.75,4.68,0.06,7.03c-3.35,2.64-5.28,5.99-5.23,10.35C240.98,243.43,241.46,254.1,241.77,264.75z"/>
	<path class="st2" d="M220.29,267.58c5.23-1.3,10.44-1.26,15.63,0.2C230.7,268.71,225.49,268.65,220.29,267.58z"/>
	<path class="st1" d="M325.86,331.51c-0.15-1.23-0.29-2.46-0.43-3.68c7.65-0.54,14.32-4.42,21.57-6.32
		c1.04,0.48,2.08,0.96,3.11,1.44c-1.81,1.31-3.62,2.61-5.43,3.92c-1.06,0.13-2.12,0.26-3.19,0.39c-4.42,0.98-8.91,1.8-12.74,4.47
		C327.79,331.66,326.82,331.59,325.86,331.51z"/>
	<path class="st1" d="M352.78,338.85c-2.76,1.82-5.51,3.65-8.26,5.48c-2.86-1.66-7.18-1.93-6.56-6.9c0.66-0.69,1.32-1.38,1.97-2.07
		c1.48,0.2,2.96,0.4,4.44,0.61c1.24,0.66,2.47,1.31,3.71,1.97l0.52,0.22l0.22-0.51c0.89-0.66,1.79-1.31,2.68-1.96
		C351.93,336.74,352.35,337.8,352.78,338.85z"/>
	<path class="st0" d="M339.93,335.36c-0.66,0.69-1.32,1.38-1.97,2.07c-3.73-0.83-6.3-3.53-9.21-5.7c3.83-2.67,8.32-3.49,12.74-4.47
		C340.97,329.96,340.45,332.66,339.93,335.36z"/>
	<path class="st3" d="M215.51,209.59c3.49,2.93-0.1,4.54-1.23,6.6c-6.92,6.14-9.56,15.57-16.55,21.69
		c-16.52-3.83-28.66-14.82-41.17-25.19c-6.15-8.2-15.84-13.65-18.81-24.31c2.67-11.09,3.71-22.67,10.41-32.53
		c1.82-2.68,3.75-4.85,6.82-5.9c-0.76,2.24-1.52,4.48-2.27,6.72c-3.14,5.56-1.32,10.3,2.29,14.88
		C170.67,191.42,191.56,202.92,215.51,209.59z"/>
	<path class="st3" d="M215.22,219.69c0.63,0.17,1.26,0.34,1.89,0.51c0.29,0.63,0.57,1.27,0.86,1.9c5.34,15.39,2.47,29.1-8.49,41.13
		c-25.55-3.56-46.3-16.38-64.79-33.55c-0.38-0.35-0.42-1.3-0.79-1.42c-4.67-1.44-10-2.86-10.82-8.28
		c-1.26-8.29,0.09-16.5,4.21-24.03c4.41,7.46,11.06,12.82,17.36,18.52c7.88,6.03,15.48,12.49,23.74,17.95
		c6.54,4.32,13.57,8.29,21.97,7.95C207.57,235.1,210.04,226.42,215.22,219.69z"/>
	<path class="st0" d="M133.97,151.42c6.38-3.42,9.77-10.78,17.17-12.9c3.12-0.89,6.18-2.38,6.6,2.79c-0.76,1.23-1.52,2.45-2.27,3.67
		c-6.52,2.2-9.96,7.36-12.57,13.26c-7.02,15.82-10.78,32.57-13.39,49.55c-1.05,6.84-2.22,9.54-9.73,5.32
		c-14.79-8.3-14.43-7.6-7.36-23.19c4.71-10.39,12.13-19.37,15.2-30.53C129.72,156.75,131.84,154.08,133.97,151.42z"/>
	<path class="st1" d="M154.65,214.48c-6.3-5.69-12.95-11.06-17.36-18.51c0.17-2.57,0.32-5.13,0.46-7.64
		c2.96,10.71,12.66,16.16,18.81,24.36C155.93,213.28,155.29,213.88,154.65,214.48z"/>
	<path class="st1" d="M332.08,143.12c-6.35-6.38-2.15-15.01-4.74-22.18c-0.71-0.89-1.42-1.79-2.13-2.68
		c-2.89-1.64-5.12-3.98-7.2-6.49c-1.17,0.67-2.59,1.07-4.26,1.07c-1.37,0-2.56-0.26-3.59-0.72c2.46,2.51,4.9,5.03,7.4,7.5
		c3.84,3.79,5.33,8.52,3.3,13.32c-1.74,4.11-6.22,4.47-10.35,4.56c-1.96,0.04-3.92,0.34-7,0.63c4.13,2.92,7.74,2.83,11.37,2.45
		c7.11-0.74,16.81,7.43,16.97,14.65c0.13,6.08-4.84,7.24-9.22,8.35c-9.36,2.38-18.79,1.02-28.14-0.26
		c-24.46-3.35-47.77-10.27-69.77-21.79c-6.62-3.46-9.09,4.33-13.52,7.53c12.28-3.94,22.22,3,32.81,6.23
		c15.04,4.59,29.91,9.73,45.6,11.89c2.34,0.32,5.81-0.11,6.02,3.43c0.2,3.49-2.34,6.93-5.32,6.91
		c-17.25-0.13-20.33,13.67-24.47,25.33c-3.15,8.86-10.02,8-16.4,9.52c0.07,1.13,0.15,2.26,0.23,3.38l17.36-3.14
		c4.14-3.18,4.05-9.36,8.68-12.19c1.6-8.88,3.28-17.32,15.2-18.02c3.17-0.19,7.63-3.08,8.92-5.91c4.04-8.85,11.51-7.54,18.65-7.88
		c1.13-0.05,2.27-0.21,3.4-0.38C338.95,165.58,342.42,157.07,332.08,143.12z"/>
	<path class="st4" d="M341.23,260.07c2.44-0.58,4.94-1.07,6.22-3.64c1.73,0.27,3.46,0.55,5.18,0.82c1.01,0.92,1.87,0.48,2.67-0.35
		c29.5-4.4,58.65-3.77,87.14,6.18c4.05,1.41,8.22,2.58,11.07,6.14c-0.59,0.7-1.18,1.41-1.76,2.11c-0.52,0.05-0.92-0.14-1.2-0.58
		c-0.75-0.51-1.51-1.02-2.26-1.53c-24.94-10.86-51.28-12.28-77.82-10.59c-9.42,0.6-19.16,2.05-27.74,6.99
		C341.51,263.96,341,262.12,341.23,260.07z"/>
	<path class="st1" d="M313.34,61.06c3,2.29,5.01,5.69,1.37,7.72c3.38,0.1,7.41,0.13,9.29-1.59c0.08-0.07,0.17-0.13,0.25-0.2
		c-0.69-1.94-1.38-3.87-2.07-5.81c-0.87-1.48-1.74-2.96-2.62-4.44c-0.46-0.26-0.83-0.2-1.13,0.2c-2.34-1.04-2.56-2.99-2.21-5.18
		c-2.17-0.56-3.67-1.9-4.62-3.91c-1.78,0.09-3.57,0.2-5.35,0.3C306.79,53.46,308.8,57.6,313.34,61.06z"/>
	<path class="st1" d="M455.78,270.52c8.29,6.73,12.39,21.28,9.07,32.48c-3.15,10.64-5.06,21.4-3.4,32.54
		c-2.31,0.03-4.61,0.07-6.9,0.1c0.63-8.78,0.48-17.65,2.95-26.21c3.56-12.34,2.51-24.13-4.07-35.29
		C454.21,272.94,454.99,271.73,455.78,270.52z"/>
	<path class="st4" d="M454.55,335.65c2.29-0.04,4.59-0.07,6.9-0.1c8.25,4.67,16.67,4.19,25.44,1.5c6.32-1.93,13.22-4.99,18.22,2.79
		c-1.57,0.38-3.13,0.77-4.7,1.16l-0.04-0.14c-0.54-0.49-1.08-0.98-1.61-1.47c-2.77-1.13-5.69-1.11-8.27,0.1
		c-9.8,4.6-19.67,3.12-29.86,1.57C456.46,340.42,455.97,338.09,454.55,335.65z"/>
	<path class="st2" d="M355.3,256.9c-0.8,0.82-1.66,1.27-2.67,0.35C353.53,257.13,354.42,257.02,355.3,256.9z"/>
	<path class="st4" d="M390.76,382.11c0.13-1.79,1.19-2.89,2.69-3.65C393.92,380.68,393.11,381.97,390.76,382.11z"/>
	<path class="st4" d="M453.51,269.22c0.62,0.47,1.23,0.94,1.85,1.42c-0.73,0.72-1.47,1.43-2.2,2.14c-0.47-0.48-0.94-0.97-1.41-1.45
		C452.34,270.63,452.92,269.92,453.51,269.22z"/>
	<path class="st4" d="M455.78,270.52c-0.78,1.21-1.56,2.42-2.35,3.63c-0.33-0.41-0.42-0.87-0.27-1.37c0.74-0.71,1.47-1.42,2.2-2.14
		C455.36,270.64,455.78,270.52,455.78,270.52z"/>
	<path class="st5" d="M453.16,272.78c-0.15,0.51-0.06,0.97,0.27,1.37c6.58,11.16,7.63,22.95,4.07,35.29
		c-2.47,8.56-2.32,17.43-2.95,26.21c1.42,2.44,1.91,4.77,6.07,5.41c10.2,1.54,20.06,3.02,29.86-1.57c2.58-1.21,5.5-1.23,8.27-0.1
		c0.54,0.49,1.08,0.98,1.62,1.47l0.04,0.14c-0.07,2.84,0.51,5.99-1.57,8.23c-2.52,2.72-4.89,7.17-9.25,1.38
		c-2.92-3.88-7.81-4.16-11.81-2.21c-8.78,4.3-17.37,8.26-27.36,2.86c13.86,10.53,7.87,12.38,22.33,3.7c1.7-1.02,3.58-1.78,5.43-2.5
		c2.18-0.84,4.48-1.51,6.38,0.51c1.76,1.87,1.58,4.1,0.9,6.43c-2.83,9.66-17.12,17.95-26.85,15.75c-3.77-0.85-4.03-2.61-3.51-6.13
		c1.68-11.4-2.23-14.82-13.52-11.91c-3.98,1.02-7.92,0.62-11.87,1.03c3.12,9.14,3.12,9.14,11.77,4.03c2.41-1.42,4.94-3.9,7.59-1
		c2.47,2.7,1.49,5.9-0.2,8.76c-4.42,7.49-17.58,10.36-26.8,6.26c-11.92-5.29-22.96-12.02-33.15-20.33
		c-0.73,1.35-1.25,1.86-1.19,2.29c0.57,3.77,7.5,5.71,5.21,8.69c-3.3,4.31-8.93,6.95-13.84,9.86c-2.46,1.46-4.17-0.92-5.68-2.63
		c-6.83-7.72-10.81-16.73-11.58-26.98c-0.39-5.19,0.16-10.03,5.76-13.2c3.63-2.05,6.49-5.57,9.49-8.64c3.75-3.84,7.44-4.92,12.97-3
		c7.66,2.66,15.72,2.73,23.04-2c1.63,0.07,3.27,0.15,4.9,0.23c8.85,0.35,12.95,3.78,14.32,13.74c1.55,11.31,15.78,15.67,22.85,8.64
		c-14.53-2.44-18.55-5.92-19.32-16.71c-0.14-1.98-0.19-3.96-0.28-5.95l0.02-0.03c0.52-0.64,1.03-1.28,1.55-1.91
		c1.98-1.65,3.97-3.29,5.95-4.94c5.42-2.39,7.43-6.73,7.8-14.57c-4.32,5.46-7.34,9.28-10.36,13.09c-7.23,4.48-14.38,9.03-23.16,3.25
		c-1.08-0.71-3.37-0.66-4.31,1.38c-4.71-0.59-8.06,3.7-13.02,3.23c-6.88-0.64-12.3-2.48-14.34-9.78c2.15-0.74,4.3-1.47,6.45-2.21
		c8.2,4.87,9.4-1.93,12.26-7.14c-5.84-1.65-8.24,3.93-12.48,4.68c-17.78,4.61-34.21-3.88-51.37-5.26l0.17,0.43
		c0.61-11.6-1.13-23.34,1.99-34.79c8.58-4.94,18.32-6.39,27.74-6.99c26.54-1.69,52.89-0.28,77.82,10.59
		c0.75,0.51,1.51,1.02,2.26,1.53c0.28,0.44,0.68,0.63,1.2,0.58C452.22,271.82,452.69,272.3,453.16,272.78z"/>
	<path class="st0" d="M348.09,337.93c-1.24-0.66-2.47-1.31-3.71-1.97c2.01-2.97,2.2-5.99,0.3-9.09c1.81-1.31,3.62-2.62,5.42-3.92
		c5.64-3.11,8.84-7.53,7.65-14.3c7.5,0.53,15,1.06,22.49,1.59c-1.19,11.23-10.98,14.71-18.49,20.02c-3.08,2.18-7.62,2.08-10.26,5.42
		c-0.89,0.65-1.78,1.3-2.67,1.95c0.01,0-0.46-0.08-0.46-0.08L348.09,337.93z"/>
	<path class="st1" d="M380.25,310.24c-7.5-0.53-15-1.06-22.49-1.59c-0.93-1.49-2.38-2.03-4.03-2.22c-2.47-2.49-5.7-1.61-8.66-1.93
		c-1.13,0.05-2.27,0.11-3.4,0.17c-0.7,0.42-1.41,0.83-2.12,1.25c-0.64-2.14-2.94-4.57,1.01-5.92c17.16,1.38,33.6,9.87,51.38,5.26
		c0.07,0.82,0.14,1.64,0.21,2.47c-2.15,0.74-4.3,1.47-6.45,2.21C383.89,310.03,382.07,310.14,380.25,310.24z"/>
	<path class="st4" d="M443.09,313.33c-1.98,1.65-3.97,3.29-5.95,4.94c-0.51,0.64-1.03,1.27-1.54,1.91l-0.02,0.03
		c-5.85,0.09-11.71,0.19-17.56,0.28c-1.64-0.08-3.27-0.15-4.9-0.23c-0.02-1.26-0.03-2.53-0.04-3.79c0.94-2.04,3.22-2.09,4.31-1.38
		c8.78,5.78,15.93,1.23,23.16-3.25C441.39,312.34,442.24,312.83,443.09,313.33z"/>
	<path class="st5" d="M314.87,140.56c-3.63,0.38-7.24,0.47-11.37-2.45c3.08-0.29,5.04-0.59,7-0.63c4.13-0.09,8.62-0.45,10.35-4.56
		c2.03-4.8,0.54-9.53-3.3-13.32c-2.5-2.47-4.94-4.99-7.4-7.5c-0.64-0.29-1.21-0.65-1.72-1.08c-4.41,5.06-15.14,3.23-15.32-5.51
		c-0.05-2.36-0.87-4.63-1.82-6.89c-0.5,3.17-1.56,6.23-3.33,8.97c-8.14,12.63-28.61,21.3-42.68,13.06
		c-12.87-7.54-20.94-25.72-13.36-39.74c6.02-11.12,19.57-18.66,32.02-16.98c-0.06-0.89-0.09-1.78-0.06-2.7
		c0.36-11.06,17.55-11.09,17.19,0c-0.25,7.53,4.91,13.62,7.87,20.33c1.02-3.09,2.93-5.84,5.84-7.98c4.68-3.44,10.53-4.52,16.23-4.85
		c0.98-0.06,2.27,0,3.69,0.04c3.64-2.04,1.63-5.43-1.37-7.72c-4.54-3.47-6.55-7.6-7.08-12.91c-4.08-10.76-12.67-13.55-23.19-13.64
		c-26.54-0.22-53.11,0.05-79.55-3.04c-2.14-0.25-6.09-2.31-6.58,2.66c3.3,1.07,2.84,3.49,2.15,5.99c0.2,0.93,0.4,1.86,0.59,2.78
		c0.18,1.16,0.37,2.33,0.55,3.49l-0.02-0.01c1.14,0.74,1.14,1.56,0.2,2.47c-0.05,4.98-0.1,9.95-0.15,14.93
		c1.43,1.85,1.24,3.58-0.36,5.21c-0.31,1.73-0.61,3.46-0.92,5.19c0.1,0.38,0.24,0.75,0.28,1.14c0.01,0.08-0.35,0.2-0.54,0.3
		c0.07,0.37,0.01,0.73-0.18,1.07c1.03,3.58,0.5,6.82-2.1,9.61c-0.54,1.11-1.07,2.22-1.61,3.34c-0.62,5.61-4.05,9.83-7.49,13.78
		c-3.46,3.97-7.75,5.79-12.13,0.8c-10.96-2.36-16.52,1.22-18.38,11.84c-1.78,10.19,3.62,17.03,15.18,18.99
		c-1.95,3.23-6.89,1.12-8.41,5.06c-2.64,6.82-5.62,13.51-8.46,20.25c2.38,10.47,9.97,17.05,17.77,23.35
		c12.81,10.34,27.42,17.45,42.74,23.21c7.28,1.59,14.56,3.18,21.84,4.76c2.49-0.58,4.93-0.43,7.3,0.57
		c1.54,0.03,3.08,0.05,4.62,0.07c6.38-1.52,13.25-0.66,16.4-9.52c4.14-11.66,7.22-25.46,24.47-25.33c2.98,0.02,5.52-3.41,5.32-6.91
		c-0.2-3.54-3.67-3.11-6.02-3.43c-15.68-2.15-30.55-7.3-45.6-11.89c-10.59-3.23-20.53-10.17-32.81-6.23c4.43-3.2,6.9-11,13.52-7.53
		c22,11.51,45.31,18.43,69.77,21.79c9.35,1.28,18.78,2.64,28.14,0.26c4.38-1.11,9.36-2.27,9.22-8.35
		C331.68,147.99,321.98,139.81,314.87,140.56z M169.79,125.5c-5.08-0.3-8.06-2.52-9.72-6.42c-1.36-3.19,0.73-5.47,2.79-7.51
		c3.54-3.49,7.09-2.34,11.26-0.11C164.32,115.43,163.26,118.69,169.79,125.5z"/>
	<path class="st6" d="M194.83,89.64c-0.62,5.61-4.05,9.83-7.49,13.78c-3.46,3.97-7.75,5.79-12.13,0.8c0.94-2.49-0.1-3.72-2.54-4.27
		c-3.45-0.79-8.1,0.57-9.68-3.95c-1.98-5.66-3.95-11.9-1.62-17.58c3.28-8,2.98-16.18,3.67-24.42c1.24-14.66,7.63-25.28,20.79-34.01
		c38.92-25.85,77.16-17.03,115.9-1.04c5.49,2.26,9.53,6.34,12.61,11.26c2.49,3.97,3.4,8.95-1.43,11.2c-4.99,2.33-7.21-2.75-8.13-6.4
		c-1.59-6.32-5.47-10.56-10.32-14.27c-1.65-1.26-3.5-1.82-5.53-0.38c0.43,4.98,6.76,5.46,7.3,10.08
		c-10.9,2.66-13.34,1.41-19.26-7.99c-3.23-5.12-7.88-8.6-14.86-7.76c0.76,3.84,3.83,4.64,5.98,6.34c2.15,1.7,3.68,3.81,3.15,6.6
		c-0.65,3.35-3.61,3.25-6.16,3.32c-6.95,0.19-13.56,0.05-18.47-6.51c-3.07-4.09-7.8-6.47-13.63-6.47c-0.26,3.91,2.92,4.06,4.75,5.39
		c1.59,1.15,4,1.96,3.44,4.33c-0.61,2.52-3.21,1.95-5.09,1.98c-11.48,0.23-22.86-1.05-34.2-2.59c-10.3-1.39-11.19-0.2-8.67,9.7
		c4.03,15.89,3.7,31.69-2.15,47.17C189.61,87.78,188.65,91.02,194.83,89.64z"/>
	<path class="st1" d="M155.14,160.37c2.38,10.47,9.97,17.05,17.77,23.35c12.81,10.34,27.42,17.45,42.74,23.21
		c-0.04,0.89-0.09,1.77-0.13,2.66c-23.95-6.67-44.84-18.17-60.51-38.04c-3.62-4.59-5.43-9.32-2.29-14.88
		C153.51,157.9,154.32,159.14,155.14,160.37z"/>
	<path class="st7" d="M198.98,74.19c0.1,0.38,0.24,0.75,0.28,1.14c0.01,0.08-0.35,0.2-0.54,0.3c-0.07-0.36-0.19-0.73-0.19-1.09
		C198.52,74.43,198.82,74.31,198.98,74.19z"/>
	<path class="st3" d="M340.57,299.99c-3.95,1.35-1.65,3.78-1.02,5.91c-0.56,6.65,7.38,9.25,7.45,15.61
		c-7.25,1.9-13.93,5.78-21.57,6.32c-9.25-15.75-13.17-32.56-10.39-50.79c1.72-11.26,8.11-15.58,23.07-15.36
		c-0.91,10.8-3.08,21.51-2.25,32.44c0.24,3.16-1.22,7.68,4.89,6.3L340.57,299.99z"/>
	<path class="st3" d="M241.77,264.75c-0.31-10.65-0.79-21.32,2.69-31.65c4.55,0.47,2.85,4.16,3.32,6.63
		c0.48,2.55,0.51,5.31,3.63,6.13c2.97,0.78,4.82-1.16,6.51-3.18c2.34-2.81,4.59-5.72,8.52-6.75c2.25,8.45-1.78,16.36-1.04,24.38
		c0.72,0.13,1.45,0.26,2.17,0.39c1.45-8.28,3.34-16.52,4.21-24.87c0.74-7.07,0.26-14.26,0.4-21.39c0.03-1.6-0.39-3.79,1.97-4.02
		c1.97-0.19,2.94,1.5,3.55,3.17c5.35,14.52,5.65,29.63,5.05,44.82c-0.18,4.47-3.9,4.06-6.94,4.62
		C264.54,265.13,253.15,264.75,241.77,264.75z"/>
	<path class="st3" d="M249.63,215.72c5.79-1.05,11.57-2.09,17.36-3.14c1.84,10.57-1.03,19.54-9,26.82
		c-1.48,1.35-2.95,3.09-5.05,2.71c-2.89-0.53-1.6-3.19-1.81-4.94c-0.59-4.79-0.97-9.61-1.44-14.42
		C250.39,220.4,247.14,218.09,249.63,215.72z"/>
	<path class="st0" d="M287.49,230.64c6.84,5.03,10.19,12.77,14.81,19.48c1.42,2.07,2.58,5.94,0.52,7.77
		c-3.51,3.12-8.62,2.9-12.94,2.41c-3-0.34-1.9-4.3-1.98-6.68c-0.25-7.68-0.23-15.37-0.32-23.06L287.49,230.64z"/>
	<path class="st1" d="M340.74,300.42c-6.11,1.38-4.65-3.14-4.89-6.3c-0.84-10.92,1.34-21.64,2.25-32.44
		c1.04-0.54,2.09-1.08,3.13-1.62c-0.23,2.05,0.29,3.9,1.5,5.55C339.61,277.08,341.35,288.82,340.74,300.42z"/>
	<path class="st8" d="M287.58,230.57c0,0-0.08,0.08-0.08,0.08L287.58,230.57z"/>
	<path class="st1" d="M215.22,219.69c-5.19,6.73-7.65,15.41-14.87,20.69c-0.88-0.84-1.75-1.67-2.62-2.51
		c6.99-6.12,9.63-15.54,16.55-21.69C214.6,217.36,214.91,218.53,215.22,219.69z"/>
	<path class="st1" d="M237.48,211.69c2.49-0.58,4.93-0.43,7.3,0.57C242.23,213.56,239.83,212.94,237.48,211.69z"/>
	<path class="st9" d="M217.98,222.1c-0.29-0.63-0.57-1.27-0.86-1.9C218.12,220.51,218.28,221.2,217.98,222.1z"/>
	<path class="st1" d="M347,321.51c-0.07-6.36-8.01-8.96-7.45-15.61c0.71-0.4,1.42-0.82,2.12-1.23c0.4,0.49,0.79,0.99,1.19,1.49
		c0.82,1.81,1.53,3.68,2.5,5.41c1.07,1.9,1.66,4.71,4.55,4.4c3-0.33,2.78-3.15,3.19-5.32c0.26-1.39,0.42-2.81,0.63-4.21
		c1.64,0.19,3.1,0.73,4.02,2.22c1.18,6.77-2.02,11.2-7.66,14.3C349.07,322.47,348.04,321.99,347,321.51z"/>
	<path class="st1" d="M344.68,326.87c1.9,3.1,1.7,6.13-0.3,9.09c-1.48-0.2-2.96-0.4-4.44-0.61c0.52-2.7,1.04-5.4,1.56-8.1
		C342.56,327.13,343.62,327,344.68,326.87z"/>
	<polygon class="st2" points="348.09,337.93 348.37,337.55 348.83,337.64 348.61,338.16 	"/>
	<path class="st1" d="M197.73,237.87c0.87,0.84,1.75,1.67,2.62,2.51c-8.39,0.33-15.43-3.63-21.96-7.95
		c-8.26-5.46-15.86-11.92-23.74-17.95c0.63-0.6,1.27-1.2,1.91-1.8C169.08,223.05,181.21,234.05,197.73,237.87z"/>
	<path class="st7" d="M450.55,270.75c-0.75-0.51-1.5-1.02-2.26-1.53C449.04,269.73,449.8,270.24,450.55,270.75z"/>
	<path class="st5" d="M308.16,93.91c0-4.69,3.91-8.6,8.6-8.6h0.86c3.89,0,7.2,2.7,8.23,6.29c0.08-0.46,0.17-0.92,0.24-1.38
		c0.28-1.95,0.42-3.99,0.39-6c-5.73,1.21-11.81,0.54-18.08,2.01c-1.18,0.28-2.23,0.44-3.24,1.03c0.44,1.7,0.98,3.33,1.66,4.95
		c0.71,1.68,1.34,3.32,1.89,4.98c0.03-0.02,0.06-0.04,0.1-0.07C308.4,96.13,308.16,95.04,308.16,93.91z"/>
	<path class="st7" d="M500.36,340.85c-0.54-0.49-1.08-0.98-1.62-1.47C499.28,339.87,499.82,340.36,500.36,340.85z"/>
	<path class="st1" d="M418.01,320.49c5.85-0.09,11.71-0.19,17.56-0.28c0.09,1.98,0.14,3.97,0.28,5.95
		c0.76,10.8,4.79,14.27,19.32,16.71c-7.07,7.03-21.3,2.67-22.85-8.64C430.97,324.28,426.87,320.84,418.01,320.49z"/>
	<path class="st1" d="M443.09,313.33c-0.85-0.49-1.7-0.98-2.56-1.48c3.02-3.82,6.03-7.63,10.36-13.09
		C450.52,306.6,448.51,310.94,443.09,313.33z"/>
	<path class="st1" d="M392.16,307.72c-0.07-0.82-0.14-1.65-0.21-2.47c4.24-0.75,6.64-6.33,12.47-4.68
		C401.56,305.79,400.36,312.59,392.16,307.72z"/>
	<path class="st7" d="M435.59,320.18c0.52-0.64,1.03-1.27,1.54-1.91C436.63,318.9,436.11,319.54,435.59,320.18z"/>
	<path class="st6" d="M353.74,306.43c-0.21,1.4-0.37,2.82-0.63,4.21c-0.41,2.17-0.19,4.99-3.19,5.32c-2.9,0.31-3.49-2.5-4.55-4.4
		c-0.97-1.73-1.68-3.6-2.5-5.41c0.74-0.55,1.48-1.1,2.21-1.65C348.04,304.81,351.26,303.94,353.74,306.43z"/>
	<path class="st1" d="M345.08,304.5c-0.74,0.55-1.47,1.1-2.21,1.65c-0.4-0.49-0.79-0.99-1.19-1.48
		C342.81,304.61,343.94,304.55,345.08,304.5z"/>
	<path class="st1" d="M174.13,111.46c-9.81,3.97-10.87,7.23-4.34,14.04c-5.08-0.3-8.06-2.52-9.72-6.42
		c-1.36-3.19,0.73-5.47,2.79-7.51C166.41,108.08,169.96,109.24,174.13,111.46z"/>
	<path class="st5" d="M260.96,105.96c9.59-2.22,16.88-8.69,11.63-18.97c-0.36-0.7-0.72-1.4-1.08-2.09
		c-1.59,0.14-3.33-0.32-5.08-1.61c-6.68-4.93-20.39-0.2-20.1,9.29C246.58,100.76,252.3,107.96,260.96,105.96z"/>
	<g>
		<g>
			<path class="st10" d="M310.95,55.01c0.02,1.95,0.87,3.56,2.56,4.57c2.01,1.21,4.71,0.46,5.88-1.54c1.19-2.04,0.47-4.68-1.54-5.88
				c1.18,3.25,1.75,4.21,1.7,2.85c-0.02-2.34-1.94-4.3-4.3-4.3C312.93,50.71,310.93,52.67,310.95,55.01L310.95,55.01z"/>
		</g>
	</g>
	<g>
		<g>
			<path class="st10" d="M312.24,54.8c5.54,0,5.54-8.6,0-8.6S306.7,54.8,312.24,54.8L312.24,54.8z"/>
		</g>
	</g>
	<g>
		<g>
			<path class="st10" d="M313.96,56.3c5.54,0,5.54-8.6,0-8.6C308.42,47.7,308.42,56.3,313.96,56.3L313.96,56.3z"/>
		</g>
	</g>
	<g>
		<g>
			<path class="st10" d="M192.1,32.01c0.15,11.56,1.98,23.06,1.92,34.61c-0.02,4.89-7.58,36.41-15.01,32.6
				c-4.92-2.53-9.27,4.89-4.34,7.42c13.46,6.91,20.36-10.21,23.12-20.35c2.07-7.63,4.8-14.45,4.84-22.48
				c0.05-10.6-1.8-21.19-1.93-31.81C200.63,26.47,192.03,26.47,192.1,32.01L192.1,32.01z"/>
		</g>
	</g>
	<g>
		<g>
			<path class="st10" d="M176.27,99.44c-4.75-0.66-9.89-1.29-14.23-3.44c-4.95-2.45-9.31,4.97-4.34,7.42
				c5.11,2.53,10.69,3.52,16.29,4.3c2.32,0.32,4.61-0.52,5.29-3C179.83,102.69,178.59,99.76,176.27,99.44L176.27,99.44z"/>
		</g>
	</g>
	<g>
		<g>
			<path class="st10" d="M313.14,46.05c1.79,5.39,3.51,10.79,5.91,15.95c0.59,1.26,2.44,0.16,1.86-1.08
				c-2.32-4.98-3.97-10.22-5.7-15.43C314.78,44.17,312.71,44.74,313.14,46.05L313.14,46.05z"/>
		</g>
	</g>
	<g>
		<g>
			<path class="st10" d="M314.61,45.98c-0.08,7.71,4,14.29,7.87,20.67c0.72,1.18,2.58,0.1,1.86-1.08
				c-3.67-6.04-7.66-12.27-7.58-19.58C316.77,44.6,314.62,44.6,314.61,45.98L314.61,45.98z"/>
		</g>
	</g>
	<g>
		<g>
			<path class="st10" d="M315.68,44.91c0.03,4.38,0.7,8.26,2.4,12.32c0.45,1.08,2.06,1,2.11-0.29c0.15-4.24-0.59-8.44-0.64-12.68
				c-0.02-1.38-2.17-1.39-2.15,0c0.06,4.24,0.8,8.44,0.64,12.68c0.7-0.09,1.41-0.19,2.11-0.29c-1.62-3.88-2.3-7.55-2.33-11.75
				C317.82,43.52,315.67,43.52,315.68,44.91L315.68,44.91z"/>
		</g>
	</g>
	<g>
		<g>
			<path class="st10" d="M318.79,43.09c2.23,2.26,4.06-0.18,4.83-2.37c1.29-3.69-0.79-7.36-2.17-10.71
				c-0.52-1.26-2.6-0.71-2.07,0.57c0.82,1.99,1.71,3.94,2.3,6.01c0.3,1.07,0.27,2.01,0.02,3.06c-0.12,0.49-0.66,2.64-1.38,1.91
				C319.34,40.58,317.82,42.1,318.79,43.09L318.79,43.09z"/>
		</g>
	</g>
	<g>
		<g>
			<path class="st10" d="M320.02,36.89c-0.47,1.38-0.46,3.34-1.44,4.47c0.56,0.43,1.13,0.87,1.69,1.3c0.93-1.24,1.54-2.66,2.15-4.08
				c-0.66-0.09-1.31-0.17-1.97-0.26c0.22,1.01,0.37,2.11-0.34,2.96c-0.71,0.84-1.87,1.33-2.82,1.84c-1.22,0.66-0.14,2.51,1.08,1.86
				c1.28-0.69,2.71-1.38,3.58-2.59c1-1.39,0.91-3.04,0.56-4.64c-0.18-0.85-1.59-1.12-1.97-0.26c-0.61,1.42-1.21,2.84-2.15,4.08
				c-0.73,0.98,0.89,2.22,1.69,1.3c1.33-1.53,1.36-3.58,1.99-5.42C322.55,36.14,320.47,35.58,320.02,36.89L320.02,36.89z"/>
		</g>
	</g>
	<g>
		<g>
			<path class="st10" d="M160.61,36.84c-2.23,2.87-2.8,6.44-3.33,9.96c-0.72,4.76-2.03,9.45-2.58,14.22c-0.16,1.38,1.99,1.36,2.15,0
				c0.44-3.84,1.65-7.54,2.19-11.37c0.51-3.69,0.71-8.24,3.09-11.29C162.97,37.28,161.46,35.75,160.61,36.84L160.61,36.84z"/>
		</g>
	</g>
	<g>
		<g>
			<path class="st10" d="M160.23,37.06c-3.76,6.43-4.4,13.87-4.23,21.17c0.03,1.38,2.18,1.39,2.15,0
				c-0.16-6.93,0.36-13.98,3.94-20.09C162.78,36.95,160.93,35.86,160.23,37.06L160.23,37.06z"/>
		</g>
	</g>
	<g>
		<g>
			<path class="st10" d="M159.75,36.84c-6.3,6.02-5.09,16.06-5.04,23.97c0.01,1.39,2.16,1.39,2.15,0
				c-0.04-7.29-1.39-16.91,4.41-22.45C162.28,37.4,160.75,35.89,159.75,36.84L159.75,36.84z"/>
		</g>
	</g>
	<g>
		<g>
			<path class="st10" d="M160.63,39.65c1.54-1.96,3.19-3.84,4.73-5.8c0.73-0.93-0.16-2.29-1.3-1.69c-2.96,1.55-4.48,4.07-5.76,7.05
				c-0.54,1.26,1.31,2.35,1.86,1.08c1.14-2.64,2.35-4.9,4.99-6.28c-0.43-0.56-0.87-1.12-1.3-1.69c-1.54,1.96-3.19,3.84-4.73,5.8
				C158.26,39.21,159.77,40.74,160.63,39.65L160.63,39.65z"/>
		</g>
	</g>
	<g>
		<g>
			<path class="st10" d="M320.45,42.04c-0.43,2.03-3.36,2.12-4.88,3.01c-1.19,0.7-0.11,2.56,1.08,1.86c2.19-1.29,5.23-1.29,5.87-4.3
				C322.81,41.26,320.74,40.69,320.45,42.04L320.45,42.04z"/>
		</g>
	</g>
	<g>
		<g>
			<path class="st10" d="M322.6,332.76c1.57,4.23,4.66,7.44,8.01,10.36c1.05,0.92,2.41-0.46,1.52-1.52
				c-2.99-3.55-5.54-8.27-5.7-12.99c-0.54,0.31-1.08,0.62-1.62,0.93c4.9,2.47,6.42,8.48,12.58,8.74c1.39,0.06,1.38-2.09,0-2.15
				c-5.28-0.23-7.16-6.27-11.49-8.45c-0.69-0.35-1.65,0.07-1.62,0.93c0.19,5.32,2.96,10.51,6.33,14.51
				c0.51-0.51,1.01-1.01,1.52-1.52c-3.04-2.64-6.03-5.56-7.46-9.41C324.19,330.9,322.11,331.45,322.6,332.76L322.6,332.76z"/>
		</g>
	</g>
	<g>
		<g>
			<path class="st10" d="M325.18,330.18c1.68,4.56,4.74,7.85,7.42,11.86c0.77,1.15,2.52,0.14,1.86-1.08
				c-1.71-3.16-3.58-6.23-5.16-9.46c-0.56,0.44-1.13,0.87-1.69,1.3c3.12,2.63,6.68,4.43,10.19,6.5c6.06,3.58,2.1,11.8,2.86,17.1
				c0.18,1.23,2.1,0.89,2.11-0.29c0.03-4.52,1.46-8.32,2.54-12.61c-0.7-0.1-1.41-0.19-2.11-0.29c0.6,6.51-1.9,11.61-0.02,18.13
				c2.11,7.36,6.36,13.79,10.04,20.42c1.53,2.06,2,4.4,1.4,7c-1.93,1.18-3.56,0.9-4.91-0.86c-1.04-3.73-2.91-7.34-4.55-10.84
				c-4.47-9.55-4.33-17.2-4.11-27.42c0.03-1.39-2.12-1.38-2.15,0c-0.13,6.1-0.71,12.1,0.24,18.16c1.27,8.09,7.05,15.49,9.25,23.39
				c0.17,0.61,0.74,0.85,1.32,0.75c2.88-0.49,5.43-1.1,8.17-2.15c0.5-0.19,0.98-0.74,0.75-1.32c-2.43-6.21-5.89-11.83-9.12-17.64
				c-2.19-3.94-3.7-8.11-4.94-12.43c-1.46-5.08,1.24-10.08,0.77-15.22c-0.11-1.15-1.8-1.53-2.11-0.29
				c-1.13,4.47-2.58,8.54-2.62,13.18c0.7-0.1,1.41-0.19,2.11-0.29c-0.46-3.16,3.01-10.46,0.93-13.69
				c-3.41-5.3-9.85-6.91-14.53-10.86c-0.94-0.79-2.24,0.18-1.69,1.3c1.58,3.23,3.45,6.29,5.16,9.46c0.62-0.36,1.24-0.72,1.86-1.08
				c-2.51-3.77-5.61-7.01-7.2-11.35C326.78,328.32,324.7,328.87,325.18,330.18L325.18,330.18z"/>
		</g>
	</g>
	<g>
		<g>
			<path class="st10" d="M340.65,363.7c1.67,9.04,4.77,17.95,9.13,26.04c0.44,0.82,1.74,0.63,1.97-0.25
				c0.97-3.83,0.2-7.11-0.86-10.89c-0.32-1.15-2.19-0.95-2.11,0.29c0.24,3.73,1.11,7.26,3.15,10.43c0.62,0.97,1.87,0.48,2-0.54
				c0.32-2.41,0.28-4.46,0-6.88c-0.67,0.18-1.33,0.36-2,0.54c0.77,1.56,1.31,3.2,1.61,4.9c0.27,1.16,2.25,0.93,2.11-0.29
				c-0.29-2.55-0.27-2.51-0.9-5.01c-0.3-1.2-2.09-0.91-2.11,0.29c-0.09,1.66-0.36,3.28-0.82,4.87c0.69,0,1.38,0,2.07,0
				c-1.61-4.63-3.06-9.2-5.27-13.58c-0.62,0.36-1.24,0.73-1.86,1.08c1.77,1.95,2.59,4.35,2.43,7.2c0.61-0.25,1.22-0.51,1.83-0.76
				c-1.61-1.7-2.66-3.69-3.16-5.97c-0.33-1.17-2.1-0.93-2.11,0.29c-0.06,6.22,2.67,10.29,8.27,12.96c0-0.62,0-1.24,0-1.86
				c-1.79,0.88-1.45,1-2.11,2.54c-0.53,1.26,1.31,2.36,1.86,1.08c1.7-3.94-0.51-7.59-2.39-11.09c-3.98-7.42-5.01-15.81-7.82-23.69
				c-0.32-0.91-1.87-1.14-2.07,0c-1.5,8.46,0.55,15.83,5.86,22.54c0.7,0.89,2.05-0.08,1.8-1.04c-1.35-5.16-1.59-10.78-5-15.09
				c-0.57-0.72-1.92-0.13-1.83,0.76c0.23,2.3,0.81,4.48,1.33,6.73c0.29,1.26,2,0.85,2.11-0.29c0.21-1.15,0.21-2.29,0-3.44
				c-0.13-1.36-2.16-1.41-2.15,0c0.02,2.41,0.23,4.41,0.9,6.73c0.36,1.25,1.96,0.85,2.11-0.29c0.17-1.28,0.17-1.26-0.04-2.43
				c-0.24-1.36-2.31-0.79-2.07,0.57c-0.01,0.62-0.03,1.24-0.04,1.86c0.7-0.1,1.41-0.19,2.11-0.29c-0.59-2.06-0.8-4.02-0.82-6.16
				c-0.72,0-1.43,0-2.15,0c0.21,1.15,0.21,2.29,0,3.44c0.7-0.1,1.41-0.19,2.11-0.29c-0.47-2.05-1.04-4.06-1.25-6.16
				c-0.61,0.25-1.22,0.51-1.83,0.76c3.09,3.91,3.24,9.5,4.45,14.14c0.6-0.35,1.2-0.7,1.8-1.05c-4.79-6.05-6.66-12.82-5.31-20.44
				c-0.69,0-1.38,0-2.07,0c2.11,5.91,3.4,12.04,5.16,18.05c1.28,4.4,7.29,10.39,5.27,15.08c0.62,0.36,1.24,0.73,1.86,1.08
				c0.75-1.78,0.23-1.22,1.33-1.76c0.69-0.34,0.71-1.52,0-1.86c-4.86-2.31-7.26-5.52-7.2-11.11c-0.7,0.09-1.41,0.19-2.11,0.29
				c0.76,2.67,1.93,4.8,3.71,6.92c0.59,0.7,1.9,0.14,1.83-0.76c-0.23-3.22-0.75-5.64-2.73-8.28c-0.82-1.1-2.49-0.18-1.86,1.08
				c2.12,4.21,3.51,8.63,5.05,13.07c0.33,0.96,1.79,1.08,2.07,0c0.51-1.98,0.87-3.4,0.9-5.44c-0.7,0.09-1.41,0.19-2.11,0.29
				c0.27,1.48,0.55,2.96,0.82,4.44c0.7-0.1,1.41-0.19,2.11-0.29c-0.45-1.94-1.01-3.61-1.83-5.42c-0.43-0.95-2.13-0.5-2,0.54
				c0.28,2.42,0.32,4.47,0,6.88c0.67-0.18,1.33-0.36,2-0.54c-1.85-2.86-2.65-5.96-2.86-9.34c-0.7,0.09-1.41,0.19-2.11,0.29
				c0.93,3.31,1.77,6.11,0.86,9.75c0.66-0.09,1.31-0.17,1.97-0.26c-4.28-7.94-7.28-16.67-8.92-25.53
				C342.47,361.77,340.4,362.35,340.65,363.7L340.65,363.7z"/>
		</g>
	</g>
	<g>
		<g>
			<path class="st10" d="M343.62,355.25c0-0.04,0-0.07,0-0.11c0-1.39-2.15-1.39-2.15,0c0,1.47,0,2.94,0,4.41
				c0,1.38,2.15,1.38,2.15,0c0-1.47,0-2.94,0-4.41c0-1.39-2.15-1.39-2.15,0c0,0.04,0,0.07,0,0.11
				C341.47,356.64,343.62,356.64,343.62,355.25L343.62,355.25z"/>
		</g>
	</g>
	<g>
		<g>
			<path class="st10" d="M338.89,350.95c0,3.59-0.02,7.18-0.43,10.75c0.72,0,1.43,0,2.15,0c0.08-1.01,0.35-1.99,0.43-3.01
				c-0.67,0.18-1.33,0.36-2,0.54c0.36,0.8,0.64,1.59,0.71,2.47c0.12,1.36,2.12,1.4,2.15,0c0.04-2.02,0.3-4.05,1.14-5.91
				c0.57-1.25-1.28-2.34-1.86-1.08c-1,2.22-1.39,4.57-1.44,6.99c0.72,0,1.43,0,2.15,0c-0.11-1.27-0.48-2.4-1.01-3.55
				c-0.48-1.06-1.93-0.41-2,0.54c-0.08,1.01-0.35,1.99-0.43,3.01c-0.11,1.4,1.99,1.35,2.15,0c0.41-3.57,0.43-7.16,0.43-10.75
				C341.04,349.57,338.89,349.57,338.89,350.95L338.89,350.95z"/>
		</g>
	</g>
	<g>
		<g>
			<path class="st10" d="M341.16,350.19c-8.06-7.3-22.97,1.1-29.9,6.3c-3.67,2.75-5.4,5.57-5.63,10.12
				c-0.23,4.49,1.75,9.23,2.3,13.64c0.77,6.14-2.5,13.18-4.24,18.99c-0.4,1.33,1.67,1.89,2.07,0.57c1.75-5.81,3.62-11.43,4.34-17.48
				c0.79-6.65-4.7-13.77-1.36-20.21c3.88-7.47,23.79-16.87,30.9-10.41C340.66,352.64,342.19,351.13,341.16,350.19L341.16,350.19z"/>
		</g>
	</g>
	<g>
		<g>
			<path class="st10" d="M309.67,366c-0.18-3.19,0.6-5.9,2.43-8.49c0.7-0.99-0.91-2.24-1.69-1.3c-3.67,4.42-1.78,10.45-3.71,15.52
				c0.66-0.09,1.31-0.17,1.97-0.26c-0.7-1.82-0.67-3.55,0.11-5.19c-0.69,0-1.38,0-2.07,0c0.67,3.88,0.26,7.77,1.29,11.61
				c0.34,1.25,1.99,0.86,2.11-0.29c0.36-3.29,0.43-6.58,0.43-9.89c0-1.39-2.15-1.39-2.15,0c0,3.31-0.07,6.59-0.43,9.89
				c0.7-0.1,1.41-0.19,2.11-0.29c-1.02-3.8-0.63-7.75-1.29-11.61c-0.19-1.14-1.75-0.91-2.07,0c-0.89,2.51-1.17,4.46,0.11,6.84
				c0.48,0.89,1.66,0.55,1.97-0.25c1.73-4.54-0.04-10.71,3.16-14.57c-0.56-0.43-1.13-0.87-1.69-1.3c-2.07,2.92-2.92,6.01-2.73,9.57
				C307.59,367.38,309.74,367.38,309.67,366L309.67,366z"/>
		</g>
	</g>
	<g>
		<g>
			<path class="st10" d="M333.74,341.07c-0.71,3.03-1,3.46-0.86,1.29c-0.67,0.18-1.33,0.36-2,0.54c0.58,0.81,1.44,1.07,2.36,1.35
				c0.85,0.26,1.45-0.55,1.32-1.32c-0.25-1.45-0.47-1.66-1.78-2.36c-0.51-0.27-1.18-0.14-1.47,0.39
				c-7.4,13.32-30.87,9.07-43.2,14.12c-1.26,0.52-0.71,2.6,0.57,2.07c8.31-3.4,17.91-3.44,26.66-5.12
				c1.62-0.32,20.6-5.73,17.4-10.21c-0.59-0.83-2-0.59-2,0.54c0,0.86,0,1.72,0,2.58c0,0.57,0.49,1.1,1.07,1.07
				c3.34-0.12,4.22-1.67,4.08-4.94C335.83,339.69,333.68,339.68,333.74,341.07L333.74,341.07z"/>
		</g>
	</g>
	<g>
		<g>
			<path class="st10" d="M289.68,357.19c3.5,0.4,14.48-2.15,15.3,3.51c0.16,1.1,1.81,0.95,2.07,0c1.51-5.37,1.27-6.59,7.04-9.55
				c5.96-3.06,12.07-5.69,17.82-9.15c-0.53-0.4-1.05-0.81-1.58-1.21c-2.25,7.05-8.65,8.24-14.55,10.96
				c0.36,0.62,0.72,1.24,1.08,1.86c4.46-2.89,9.12-5.23,13.11-8.77c0.91-0.81-0.28-2.35-1.3-1.69c-2.42,1.57-4.45,3.58-6.88,5.16
				c0.43,0.56,0.87,1.13,1.3,1.69c1.43-1.35,2.59-2.8,3.87-4.3c0.68-0.79,0.05-2.09-1.05-1.8c-3.02,0.8-5.59,1.85-7.52,4.36
				c-0.84,1.1,1.03,2.17,1.86,1.08c1.61-1.91,3.69-3.04,6.23-3.38c-0.35-0.6-0.7-1.19-1.05-1.8c-1.27,1.49-2.44,2.95-3.87,4.3
				c-0.88,0.84,0.27,2.36,1.3,1.69c2.42-1.57,4.45-3.58,6.88-5.16c-0.43-0.56-0.87-1.12-1.3-1.69c-3.88,3.44-8.37,5.64-12.68,8.43
				c-1.18,0.77-0.16,2.43,1.08,1.86c6.66-3.07,13.11-4.63,15.54-12.25c0.29-0.91-0.79-1.69-1.58-1.22
				c-8.2,4.93-17.16,8.4-25.36,13.32c-0.41,0.25-0.63,0.75-0.49,1.22c0,1.81,0,3.63,0,5.45c0.69,0,1.38,0,2.07,0
				c-1.14-7.85-12.05-4.48-17.37-5.09C288.3,354.88,288.32,357.03,289.68,357.19L289.68,357.19z"/>
		</g>
	</g>
	<g>
		<g>
			<path class="st10" d="M332.05,343.79c-0.25,1.03-0.18,1.68-1.23,2.36c0.49,0.49,0.98,0.98,1.47,1.47
				c0.43-0.57,0.86-1.15,1.29-1.72c0.49-0.65-0.17-1.65-0.93-1.61c-3.65,0.17-7.02,1.32-9.79,3.75c-0.77,0.68-0.09,1.76,0.76,1.84
				c1.3,0.11,2.57,0.34,3.87,0.43c-0.1-0.7-0.19-1.41-0.29-2.11c-0.77,0.13-1.53,0.26-2.29,0.39c0.1,0.7,0.19,1.41,0.29,2.11
				c3.26-0.9,6.32-2.22,9.75-1.29c0.1-0.7,0.19-1.41,0.29-2.11c-1,0-2.01,0-3.01,0c0.1,0.7,0.19,1.41,0.29,2.11
				c1.98-0.32,3.47-0.32,5.45,0c0.1-0.7,0.19-1.41,0.29-2.11c-0.82-0.24-1.64-0.48-2.47-0.72c-0.18,0.67-0.36,1.34-0.54,2
				c1.86-0.17,3.54-0.35,5.3,0.39c0.19-0.69,0.38-1.38,0.57-2.07c-1.74-0.29-3.01-0.57-4.47-1.61c-1.01-0.72-2.16,0.86-1.3,1.69
				c0.59,0.57,1.18,1.12,1.94,1.46c0.18-0.67,0.36-1.33,0.54-2c-1.77-0.01-3.22-0.22-4.87-0.82c-0.19,0.69-0.38,1.38-0.57,2.07
				c0.59,0.09,1.16,0.24,1.72,0.43c0.52,0.16,1.22-0.18,1.32-0.75c0.23-1.31,0.43-1.5,1.66-2.37c0.66-0.47,0.72-1.4,0-1.86
				c-1.19-0.75-2.37-1.34-3.69-1.83c-0.99-0.36-1.87,1.12-1.05,1.8c1.59,1.31,3.2,1.91,5.2,2.42c0.36,0.09,0.79,0.01,1.05-0.28
				c0.61-0.68,0.58-1.04,1.03-1.94c-0.62,0-1.24,0-1.86,0c0.53,0.81,0.86,1.39,1.18,2.32c0.6-0.35,1.2-0.7,1.8-1.05
				c-0.64-0.71-1.16-1.49-1.55-2.36c-0.59-1.13-2.21-0.32-1.97,0.83c0.35,1.62,0.63,3.08,1.4,4.55c0.56-0.43,1.13-0.87,1.69-1.3
				c-2.64-2.51-8.7-5.61-9.14-9.55c-0.26,0.35-0.53,0.69-0.79,1.04c2.65-0.55,4.59,0.97,6.09,2.95c0.49-0.49,0.98-0.98,1.47-1.47
				c-2.23-0.96-4.35-2.04-6.7-2.69c-0.93-0.25-1.65,0.76-1.21,1.58c1.4,2.62,3.07,4.74,5.54,6.4c0.9,0.61,2.03-0.58,1.47-1.47
				c-1.04-1.67-1.92-3.42-3.18-4.95c-0.43,0.56-0.87,1.13-1.3,1.69c1.8,0.84,3.4,1.51,4.94,2.84c0.59,0.51,1.59,0.36,1.8-0.47
				c0.14-0.57,0.29-1.15,0.43-1.72c-0.69,0-1.38,0-2.07,0c0.4,1.02,0.43,2.35,0.97,3.26c0.69,1.18,1.54,1.75,2.04,3.18
				c0.4,1.17,2.02,0.93,2.11-0.29c0.07-0.98,0.21-2.03,0.71-2.9c-0.66-0.08-1.31-0.17-1.97-0.25c0.4,1.06-0.71,2.23-1.18,3.04
				c-0.7,1.2,1.16,2.28,1.86,1.08c0.94-1.61,2.11-2.81,1.4-4.69c-0.32-0.83-1.46-1.12-1.97-0.26c-0.7,1.21-0.9,2.61-1.01,3.98
				c0.7-0.1,1.41-0.19,2.11-0.29c-0.81-2.33-2.11-4.15-3.01-6.45c-0.36-0.93-1.79-1.12-2.07,0c-0.14,0.57-0.29,1.15-0.43,1.72
				c0.6-0.16,1.2-0.32,1.8-0.48c-1.65-1.42-3.4-2.26-5.38-3.18c-1.13-0.52-2.09,0.73-1.3,1.69c1.13,1.37,1.9,3.01,2.84,4.51
				c0.49-0.49,0.98-0.98,1.47-1.47c-2.16-1.45-3.55-3.36-4.77-5.63c-0.4,0.53-0.81,1.05-1.21,1.58c2.16,0.59,4.14,1.59,6.19,2.47
				c0.85,0.37,2.21-0.5,1.47-1.47c-2.14-2.82-4.88-4.69-8.52-3.93c-0.43,0.09-0.84,0.59-0.79,1.04c0.56,5,6.47,7.94,9.77,11.07
				c0.9,0.86,2.25-0.22,1.69-1.3c-0.68-1.32-0.88-2.62-1.18-4.04c-0.66,0.28-1.31,0.55-1.97,0.83c0.55,1.06,1.12,1.89,1.89,2.8
				c0.69,0.82,2.14-0.05,1.8-1.04c-0.36-1.05-0.79-1.91-1.4-2.84c-0.41-0.63-1.47-0.76-1.86,0c-0.88,1.77-2.43,0.57-3.9-0.65
				c-0.35,0.6-0.7,1.2-1.05,1.8c1.19,0.44,2.13,0.94,3.18,1.61c0-0.62,0-1.24,0-1.86c-2.47,1.75-2.21,1.18-2.64,3.65
				c0.44-0.25,0.88-0.5,1.32-0.75c-0.56-0.19-1.13-0.34-1.72-0.43c-1.37-0.29-1.87,1.6-0.57,2.07c1.86,0.68,3.48,0.89,5.44,0.9
				c1.01,0.01,1.55-1.55,0.54-2c-0.61-0.27-1.03-0.67-1.5-1.12c-0.43,0.56-0.87,1.13-1.3,1.69c1.61,1.14,3.04,1.5,4.98,1.83
				c1.39,0.23,1.84-1.54,0.57-2.07c-2.12-0.89-3.66-0.67-5.87-0.47c-0.96,0.09-1.6,1.5-0.54,2c1.21,0.57,2.22,0.86,3.55,1.01
				c1.2,0.13,1.48-1.91,0.29-2.11c-2.26-0.37-4.33-0.37-6.59,0c-1.22,0.2-0.9,2.11,0.29,2.11c1,0,2.01,0,3.01,0
				c1.22,0,1.46-1.79,0.29-2.11c-3.85-1.04-7.17,0.26-10.89,1.29c-1.13,0.31-0.95,2.26,0.29,2.11c0.97-0.11,1.9-0.31,2.86-0.47
				c1.26-0.21,0.85-2.04-0.29-2.11c-1.3-0.09-2.57-0.32-3.87-0.43c0.25,0.61,0.51,1.22,0.76,1.83c2.32-2.05,5.2-2.98,8.27-3.12
				c-0.31-0.54-0.62-1.08-0.93-1.62c-0.43,0.57-0.86,1.15-1.29,1.72c-0.66,0.88,0.61,2.04,1.47,1.47c1.57-1.02,1.78-1.88,2.21-3.65
				C334.46,343.02,332.39,342.44,332.05,343.79L332.05,343.79z"/>
		</g>
	</g>
	<g>
		<g>
			<path class="st10" d="M326.07,349.41c5.11-1.59,8.36-5.69,13.15-7.85c-0.54-0.31-1.08-0.62-1.62-0.93
				c0.03,4.44-10.41,6.31-13.57,7.3c-5.7,1.79-10.46,5.67-16.15,7.57c0.4,0.53,0.81,1.05,1.21,1.58c3.19-4.53,8.05-7.37,13.11-9.39
				c1.26-0.5,0.81-2.39-0.57-2.07c-6.31,1.46-15.09,5.64-17.09,12.36c-0.15,0.51,0.18,1.24,0.75,1.32c3.25,0.46,5.04-0.19,6.8-3.07
				c0.47-0.77-0.31-1.9-1.21-1.58c-2.65,0.96-4.06,2.3-5.37,4.79c-0.64,1.23,1.21,2.31,1.86,1.08c1.36-1.27,2.72-2.54,4.09-3.8
				c-0.4-0.52-0.81-1.05-1.21-1.58c-3.33,2.16-3.69,1.98-1.11-0.52c1.46-1.53,3.39-2.65,5.19-3.73c2.44-1.46,5.12-2.55,7.89-3.2
				c-0.19-0.69-0.38-1.38-0.57-2.07c-5.63,2.24-10.86,5.36-14.4,10.38c-0.54,0.77,0.35,1.87,1.21,1.58
				c4.41-1.46,8.34-3.8,12.42-5.99c3.26-1.75,7-2.54,10.48-3.74c3.35-1.16,8.44-2.97,8.42-7.2c-0.01-0.88-0.89-1.25-1.62-0.93
				c-4.6,2.06-7.74,6.1-12.64,7.63C324.18,347.75,324.74,349.83,326.07,349.41L326.07,349.41z"/>
		</g>
	</g>
	<g>
		<g>
			<path class="st10" d="M316,348.9c-0.77,0.79-1.47,1.89-2.53,2.3c-1.08,0.42-1,2.11,0.29,2.11c0.43,0,0.86,0,1.29,0
				c-0.31-0.54-0.62-1.08-0.93-1.62c-0.56,0.96-1.62,1.61-2.41,2.36c-1,0.96,0.52,2.48,1.52,1.52c0.94-0.9,2.08-1.65,2.75-2.8
				c0.41-0.7-0.11-1.61-0.93-1.61c-0.43,0-0.86,0-1.29,0c0.1,0.7,0.19,1.41,0.29,2.11c1.5-0.58,2.4-1.73,3.48-2.85
				C318.48,349.43,316.96,347.91,316,348.9L316,348.9z"/>
		</g>
	</g>
	<g>
		<g>
			<path class="st10" d="M312.03,350.31c-6.05,0.17-11.81,2.43-17.48,4.33c-1.16,0.39-0.94,2.05,0.29,2.11
				c3.86,0.17,7.48-1.89,11.32-1.33c0.1-0.7,0.19-1.41,0.29-2.11c-1.26,0.01-2.4,0.04-3.55,0.57c-1,0.47-0.47,2,0.54,2
				c1.15,0,2.29,0,3.44,0c1.22,0,1.46-1.79,0.29-2.11c-1.14-0.31-2.3-0.55-3.44-0.86c0,0.69,0,1.38,0,2.07
				c0.51-0.11,0.88,0.08,1.1,0.58c0.95,1.02,2.46-0.5,1.52-1.52c-1.05-1.13-1.67-1.47-3.19-1.13c-1.06,0.24-1,1.8,0,2.07
				c1.14,0.31,2.3,0.55,3.44,0.86c0.1-0.7,0.19-1.41,0.29-2.11c-1.15,0-2.29,0-3.44,0c0.18,0.67,0.36,1.33,0.54,2
				c0.81-0.22,1.63-0.32,2.47-0.28c1.17-0.01,1.51-1.93,0.29-2.11c-4.12-0.6-7.8,1.44-11.89,1.25c0.1,0.7,0.19,1.41,0.29,2.11
				c5.47-1.84,11.07-4.09,16.91-4.26C313.41,352.42,313.42,350.27,312.03,350.31L312.03,350.31z"/>
		</g>
	</g>
	<g>
		<g>
			<path class="st10" d="M88.34,338.2c-0.41,2.39-0.07,4.76-0.04,7.16c0.01,0.55,0.48,1.12,1.07,1.07c0.65-0.06,1.27-0.18,1.63-0.79
				c0.32-0.54,0.07-1.16,0.27-1.72c0.46-1.31-1.62-1.87-2.07-0.57c-0.1,0.29-0.14,0.55-0.17,0.85c-0.1,0.86,0.07,0.1,0.35,0.08
				c0.36,0.36,0.72,0.72,1.07,1.07c-0.03-2.19-0.41-4.42-0.04-6.59C90.64,337.42,88.57,336.84,88.34,338.2L88.34,338.2z"/>
		</g>
	</g>
	<g>
		<g>
			<path class="st10" d="M89.04,340.74c-2,1.68-3.13,3.75-3.32,6.35c-0.03,0.43,0.35,0.97,0.79,1.04c0.59,0.09,1.15,0.25,1.72,0.43
				c0.73,0.24,1.29-0.38,1.36-1.04c0.3-2.63-0.28-5.29,0.39-7.88c-0.53,0.21-1.05,0.43-1.58,0.64c1.96,1.09,3.12,2.5,2.52,4.81
				c0.66-0.09,1.31-0.17,1.96-0.26c-1.71-3.52-2.95-7.21-4.19-10.92c-0.44-1.31-2.51-0.75-2.07,0.57c1.29,3.88,2.62,7.74,4.41,11.43
				c0.41,0.86,1.74,0.6,1.96-0.25c0.85-3.24-0.69-5.67-3.5-7.23c-0.6-0.33-1.4-0.04-1.58,0.64c-0.73,2.8-0.14,5.61-0.47,8.45
				c0.45-0.35,0.91-0.69,1.36-1.04c-0.57-0.18-1.13-0.34-1.72-0.43c0.26,0.35,0.53,0.69,0.79,1.04c0.15-2.05,1.17-3.55,2.69-4.83
				C91.63,341.37,90.1,339.85,89.04,340.74L89.04,340.74z"/>
		</g>
	</g>
	<g>
		<g>
			<path class="st10" d="M84.32,346.56c2.34,2.99,6.13,2.81,9.24,4.47c0.76,0.41,1.93-0.27,1.58-1.21c-1.08-2.88-3.3-4.81-5.43-6.92
				c-0.81-0.8-1.99,0.03-1.8,1.05c0.55,2.92,2.16,5.35,5.34,5.52c1.39,0.07,1.38-2.08,0-2.15c-2.18-0.11-2.91-2.08-3.26-3.94
				c-0.6,0.35-1.2,0.69-1.8,1.04c1.82,1.8,3.95,3.51,4.88,5.97c0.53-0.41,1.05-0.81,1.58-1.22c-2.88-1.53-6.68-1.41-8.81-4.13
				C84.98,343.95,83.47,345.48,84.32,346.56L84.32,346.56z"/>
		</g>
	</g>
	<g>
		<g>
			<path class="st10" d="M89.16,333.33c0.17,5.63,2.43,10.97,4.34,16.19c0.47,1.29,2.55,0.73,2.07-0.57
				c-1.83-5.02-4.09-10.21-4.26-15.62C91.27,331.95,89.12,331.94,89.16,333.33L89.16,333.33z"/>
		</g>
	</g>
	<g>
		<g>
			<path class="st10" d="M91.27,334.33c-0.79-3.87-0.83-8.12,1.18-11.64c0.69-1.21-1.17-2.29-1.86-1.08
				c-2.31,4.03-2.31,8.85-1.4,13.29C89.47,336.26,91.55,335.69,91.27,334.33L91.27,334.33z"/>
		</g>
	</g>
	<g>
		<g>
			<path class="st10" d="M305.8,360.84c0.02,4.52-1.13,8.03-3.29,11.92c0.66,0.28,1.31,0.55,1.97,0.83
				c0.76-4.46,2.24-8.65,2.62-13.18c-0.72,0-1.43,0-2.15,0c-0.36,12.81-5,24.22-10.6,35.56c-0.32,0.65-0.04,1.34,0.64,1.58
				c3.16,1.08,6.31,1.51,9.2,3.33c0.56,0.35,1.44,0.03,1.58-0.64c1.19-5.98,1.18-12.1,2.58-18.05c1.05-4.46,1.07-8.96,0.43-13.47
				c-0.19-1.37-2.26-0.79-2.07,0.57c1.01,7.1-1.04,13.64-1.8,20.61c-0.09,0.84-0.46,8.37-1.57,7.95c-1.33-0.5-7.01-1.05-5.94-3.21
				c5.34-10.81,9.36-22.09,9.7-34.24c0.04-1.4-2.04-1.36-2.15,0c-0.36,4.35-1.81,8.35-2.54,12.61c-0.19,1.14,1.33,1.96,1.97,0.83
				c2.34-4.22,3.61-8.16,3.58-13.01C307.94,359.45,305.79,359.45,305.8,360.84L305.8,360.84z"/>
		</g>
	</g>
	<g>
		<g>
			<path class="st10" d="M305.8,370.3c-0.12,6.79-1.28,13.36-2.97,19.92c0.7,0.09,1.41,0.19,2.11,0.29
				c0.77-7.56,4.78-14.2,4.73-21.92c-0.01-1.43-1.98-1.33-2.15,0c-0.56,4.31,0.52,8.72-1.57,12.78c0.66,0.09,1.31,0.17,1.97,0.26
				c-0.65-4.22-0.45-8.37-0.39-12.61c0.02-1.18-1.92-1.5-2.11-0.29c-0.66,4.14-0.2,8.32-0.86,12.47c0.7,0.09,1.41,0.19,2.11,0.29
				c-0.37-2.86-0.49-5.74-0.86-8.6c-0.11-0.82-1.15-1.57-1.83-0.76c-2.88,3.41-3.95,7.74-4.57,12.08c-0.17,1.14,1.3,1.95,1.97,0.83
				c1.66-2.82,2.63-5.71,3.55-8.85c-0.7-0.1-1.41-0.19-2.11-0.29c0.23,2.19-0.1,4.09-0.82,6.16c0.7,0.09,1.41,0.19,2.11,0.29
				c-0.28-2.18,0.24-4.15,1.57-5.91c-0.62-0.36-1.24-0.72-1.86-1.08c-1.74,3.25-3.01,6.58-3.98,10.14
				c-0.31,1.14,1.46,1.97,1.97,0.83c0.84-1.91,1.39-3.79,1.83-5.84c0.24-1.13-1.41-1.98-1.97-0.83c-1.64,3.41-3.09,6.91-4.73,10.32
				c-0.59,1.24,1.16,2.3,1.86,1.08c0.8-1.4,1.46-2.84,2.15-4.3c0.58-1.24-1.12-2.28-1.86-1.08c-1.66,2.7-2.92,5.45-3.98,8.42
				c-0.44,1.24,1.29,1.72,1.97,0.83c0.59-0.62,1.02-1.34,1.29-2.15c-0.67-0.18-1.33-0.36-2-0.54c0,0.29,0,0.57,0,0.86
				c0,1.07,1.46,1.46,2,0.54c1.54-2.62,2.6-5.41,3.87-8.17c-0.67-0.18-1.33-0.36-2-0.54c-0.25,2.54-1.14,4.96-1.68,7.45
				c-0.26,1.18,1.3,1.88,1.97,0.83c2.15-3.44,4.3-6.88,6.45-10.32c0.68-1.09-0.8-2.06-1.69-1.3c-3.09,2.66-4.37,5.97-5,9.93
				c-0.18,1.11,1.38,2,1.97,0.83c2.43-4.89,4.58-9.69,5.3-15.15c0.14-1.07-1.55-1.46-2-0.54c-1.14,2.31-1.84,4.7-2.69,7.14
				c0.7,0.09,1.41,0.19,2.11,0.29c0.13-0.91,0.26-1.82,0.39-2.72c-0.7-0.1-1.41-0.19-2.11-0.29c0,2.29,0,4.58,0,6.88
				c0.67-0.18,1.33-0.36,2-0.54c-0.1-0.25-0.19-0.5-0.28-0.75c-0.11-1.37-2.26-1.38-2.15,0c0.12,1.58,0.32,3.14,0.43,4.73
				c0.07,1.1,1.38,1.42,2,0.54c0.53-0.66,0.96-1.37,1.29-2.15c-0.67-0.18-1.33-0.36-2-0.54c0,1.43,0,2.86,0,4.3
				c0.67-0.18,1.33-0.36,2-0.54c-0.57-0.86-1.15-1.72-1.72-2.58c-0.44-0.66-1.44-0.73-1.86,0c-1.04,1.82-2.06,3.41-2.69,5.42
				c0.7,0.09,1.41,0.19,2.11,0.29c0.06-1.39,0.34-2.72,0.82-4.01c-0.69,0-1.38,0-2.07,0c0.13,0.86,0.3,1.72,0.43,2.58
				c0.11,0.77,1.32,1.07,1.8,0.47c0.54-0.67,0.77-1.51,1.29-2.15c-0.6-0.16-1.2-0.32-1.8-0.47c0,0.95,0,1.91,0,2.87
				c0.69,0,1.38,0,2.07,0c-0.14-0.72-0.29-1.43-0.43-2.15c-0.2-1-1.93-1.06-2.07,0c-0.08,1.33-0.37,2.62-0.86,3.87
				c0.69,0,1.38,0,2.07,0c-0.54-1.72-1.3-2.54-2.42-3.91c-0.56-0.68-1.54-0.2-1.8,0.48c-0.35,0.84-0.64,1.7-0.86,2.58
				c0.66-0.09,1.31-0.17,1.97-0.26c-0.29-0.43-0.57-0.86-0.86-1.29c-0.4,0.53-0.81,1.05-1.21,1.58c1.01,0.19,1.28,0.19,2.29,0
				c0.68-0.13,0.98-1.02,0.64-1.58c-0.28-0.51-0.54-1.03-0.76-1.57c-0.22-0.53-0.7-0.93-1.32-0.75c-0.58,0.17-1.15,0.35-1.71,0.54
				c0.4,0.53,0.81,1.05,1.21,1.58c0.26-0.75,0.43-0.88,0.52-0.36c0.42,0.2,0.96,0.21,1.3-0.17c0.53-0.58,0.74-0.91,1.19-1.62
				c0.74-1.18-1.12-2.26-1.86-1.08c-0.23,0.16-0.45,0.32-0.68,0.47c-0.55-0.26-1.12-0.13-1.47,0.39c-0.29,0.43-0.57,0.86-0.86,1.29
				c-0.52,0.78,0.34,1.86,1.21,1.58c1.5-0.08,1.66-0.45,0.47-1.09c0.39,0.93,0.23,0.81,0.89,1.89c0.21-0.52,0.43-1.05,0.64-1.58
				c-0.38,0-0.77,0-1.15,0c-0.85-0.16-1.78,0.73-1.21,1.58c0.29,0.43,0.57,0.86,0.86,1.29c0.51,0.77,1.69,0.67,1.97-0.25
				c0.22-0.88,0.51-1.74,0.86-2.58c-0.6,0.16-1.2,0.32-1.8,0.47c0.79,0.87,1.42,1.86,1.87,2.97c0.32,1.02,1.76,1.03,2.07,0
				c0.49-1.25,0.78-2.54,0.86-3.87c-0.69,0-1.38,0-2.07,0c0.14,0.72,0.29,1.43,0.43,2.15c0.2,1.02,1.88,1.04,2.07,0
				c0.4-2.12,0.4-1.89,0-4.01c-0.14-0.75-1.3-1.09-1.8-0.48c-0.54,0.67-0.77,1.51-1.29,2.15c0.6,0.16,1.2,0.32,1.8,0.48
				c-0.13-0.87-0.3-1.72-0.43-2.58c-0.17-1.13-1.78-0.92-2.07,0c-0.5,1.58-0.77,2.95-0.9,4.58c-0.1,1.25,1.76,1.4,2.11,0.29
				c0.58-1.86,1.53-3.26,2.47-4.9c-0.62,0-1.24,0-1.86,0c0.57,0.86,1.15,1.72,1.72,2.58c0.58,0.87,2,0.57,2-0.54
				c0-1.43,0-2.87,0-4.3c0-1.04-1.5-1.51-2-0.54c-0.33,0.78-0.76,1.49-1.29,2.15c0.67,0.18,1.33,0.36,2,0.54
				c-0.1-1.59-0.31-3.15-0.43-4.73c-0.72,0-1.43,0-2.15,0c0.07,0.84,0.14,1.09,0.58,1.83c0.54,0.93,2,0.53,2-0.54
				c0-2.29,0-4.59,0-6.88c0-1.19-1.84-1.49-2.11-0.29c-0.36,1.61-0.41,1.75-0.47,3.29c-0.05,1.27,1.73,1.38,2.11,0.29
				c0.78-2.25,1.41-4.47,2.47-6.62c-0.67-0.18-1.33-0.36-2-0.54c-0.68,5.07-2.75,9.53-5.01,14.07c0.66,0.28,1.31,0.55,1.97,0.83
				c0.57-3.55,1.65-6.57,4.45-8.98c-0.56-0.43-1.13-0.87-1.69-1.3c-2.15,3.44-4.3,6.88-6.45,10.32c0.66,0.28,1.31,0.55,1.97,0.83
				c0.58-2.69,1.48-5.27,1.76-8.02c0.1-1.05-1.56-1.5-2-0.54c-1.26,2.75-2.33,5.55-3.87,8.17c0.67,0.18,1.33,0.36,2,0.54
				c0-0.29,0-0.57,0-0.86c0-1-1.55-1.56-2-0.54c-0.27,0.81-0.7,1.53-1.29,2.15c0.66,0.28,1.31,0.55,1.97,0.83
				c1-2.8,2.21-5.39,3.76-7.91c-0.62-0.36-1.24-0.72-1.86-1.08c-0.69,1.46-1.34,2.9-2.15,4.3c0.62,0.36,1.24,0.73,1.86,1.08
				c1.64-3.41,3.09-6.9,4.73-10.32c-0.66-0.28-1.31-0.55-1.97-0.83c-0.4,1.87-0.83,3.56-1.61,5.33c0.66,0.28,1.31,0.55,1.97,0.83
				c0.92-3.38,2.1-6.53,3.76-9.63c0.65-1.22-1.13-2.27-1.86-1.08c-1.38,2.27-2.02,4.33-1.87,6.99c0.07,1.23,1.71,1.44,2.11,0.29
				c0.82-2.36,1.16-4.24,0.9-6.73c-0.12-1.17-1.76-1.52-2.11-0.29c-0.85,2.92-1.78,5.7-3.33,8.34c0.66,0.28,1.31,0.55,1.97,0.83
				c0.56-3.9,1.41-8.04,4.02-11.13c-0.61-0.25-1.22-0.51-1.83-0.76c0.37,2.86,0.49,5.74,0.86,8.6c0.14,1.08,1.9,1.6,2.11,0.29
				c0.66-4.14,0.2-8.33,0.86-12.47c-0.7-0.1-1.41-0.19-2.11-0.29c-0.06,4.44-0.21,8.78,0.47,13.18c0.14,0.93,1.56,1.04,1.97,0.25
				c2.29-4.44,1.24-9.07,1.87-13.86c-0.72,0-1.43,0-2.15,0c0.05,7.69-3.96,14.37-4.73,21.92c-0.13,1.23,1.82,1.43,2.11,0.29
				c1.74-6.76,2.92-13.5,3.05-20.49C307.97,368.91,305.82,368.91,305.8,370.3L305.8,370.3z"/>
		</g>
	</g>
	<g>
		<g>
			<path class="st10" d="M413.76,314.24c-2.14-0.46-3.86,0.47-5.08,2.21c-0.79,1.14,1.07,2.21,1.86,1.08
				c0.64-0.92,1.51-1.47,2.65-1.23C414.54,316.6,415.11,314.53,413.76,314.24L413.76,314.24z"/>
		</g>
	</g>
	<circle class="st6" cx="262.27" cy="97.39" r="3"/>
	<circle class="st11" cx="310.53" cy="90.58" r="21.6"/>
	<circle class="st11" cx="257.52" cy="90.71" r="21.6"/>
	<circle class="st6" cx="313.96" cy="97.39" r="3"/>
	<g>
		<g>
			<path class="st10" d="M320.63,71.56c5.54,0,5.54-8.6,0-8.6S315.08,71.56,320.63,71.56L320.63,71.56z"/>
		</g>
	</g>
</g>
</svg>
