<?xml version="1.0" encoding="utf-8"?>
<!-- Generator: Adobe Illustrator 23.0.1, SVG Export Plug-In . SVG Version: 6.00 Build 0)  -->
<svg version="1.1" id="Capa_1" xmlns="http://www.w3.org/2000/svg" xmlns:xlink="http://www.w3.org/1999/xlink" x="0px" y="0px"
	 viewBox="0 0 740.57 1080" style="enable-background:new 0 0 740.57 1080;" xml:space="preserve">
<style type="text/css">
	.st0{opacity:0.06;}
	.st1{clip-path:url(#SVGID_2_);}
	.st2{fill:#FFFFFF;}
</style>
<g class="st0">
	<defs>
		<rect id="SVGID_1_" class="st0" width="740.57" height="1080"/>
	</defs>
	<clipPath id="SVGID_2_">
		<use xlink:href="#SVGID_1_"  style="overflow:visible;"/>
	</clipPath>
	<g class="st1">
		<g>
			<path class="st2" d="M872.66-155.76c0.53,3.9,3.67,8.45,9.63,9.17c0.76,0.07,1.52,0.09,2.28,0.12v-17.74
				C878.82-163.27,873.81-160.01,872.66-155.76z"/>
			<path class="st2" d="M846.21,86.16c-7.38,7.14-21.63,8.72-27.87,16.56c-4.7,5.15,2.03,12.24,10.24,12.08
				c7.1-0.65,12.99-4,16.62-8.27c6.04-6.82,14.81-11.95,22.76-17.53c5.42-4.11,11.06-8.08,16.61-12.11V56.36
				c-0.47,0.39-0.94,0.77-1.39,1.17C871.93,67.78,857.12,75.69,846.21,86.16z"/>
			<path class="st2" d="M860.44,679.75c-23.09-1.8-43.62-10.1-65.59-14.81c-10.28-2.13-16.92-8.39-24.71-13.14
				c-5.88-3.77-16.22-2.43-19.5,2.75c-3.69,4.72,0.16,11.15,6.95,13.18c8.66,2.73,18.83,2.41,26.92,6.21
				c8.49,3.83,16.6,8.28,26.27,10.52c19.8,4.75,40.32,8.28,61.21,9.27c4.21,0.21,8.41,0.24,12.59,0.13v-13.97
				C876.53,680.16,868.46,680.11,860.44,679.75z"/>
			<path class="st2" d="M867.43-125.37c-1.44-5.03-1.93-11.13-8.6-14.19c-7.42-4.37-20.74,0.55-19.07,7.56
				c-0.53,4.69,4.64,8.08,8.29,11.49c8.98,7.53,11.43,17.66,19.1,25.77c6.46,6.89,12.19,14.1,17.42,21.49v-27.35
				c-2.85-3.4-5.72-6.78-8.64-10.14C872.03-115.26,868.65-120.1,867.43-125.37z"/>
			<path class="st2" d="M853.51,387.04c-5.53,4.8-12.75,9.48-13.62,16.05c-1.08,6.28,3.38,12.04,8.01,17.11
				c12.28,13.19,19.27,28.99,19.03,44.86c-0.2,9,2.68,17.8,3.75,26.73c0.89,8.35-4.15,16.12-8.53,23.64
				c-2.13,4.86-2.63,12.67,5.78,14.56c6.92,2.16,14.28-1.57,16.63-6.27v-64.25c-2.41-8.54-1.64-17.47-5.78-25.76
				c-4.2-9.33-16.24-16.15-17.31-26.34c0.26-5.91,4.36-11.62,10.54-15.53c3.95-2.58,8.25-4.9,12.54-7.22v-18.66
				C874.51,373.22,862.46,378.99,853.51,387.04z"/>
			<path class="st2" d="M878.38,11.93c-11.54,6.73-21.47,14.7-32.15,22.11c-12.99,9.04-25.46,18.43-38.09,27.74
				c-15.3,11.63-30.24,23.7-48.4,33.15c-11.88,6.24-24.93,11.22-37.03,17.23c-19.79,9.06-36.67,20.88-56.15,30.26
				c-7.82,3.72-14.62,8.35-22.24,12.27c-6.91,3.62-15.52,4.7-23.09,7.35c-6.27,2.21-8.41,8.19-5.92,12.64
				c2.15,3.06,7.28,4.39,11.8,4.59c6.85-1.06,12.18-4.56,16.36-8.38c5.29-4.83,13.22-7.49,20.51-10.46
				c13.34-5.15,24-13.01,36.3-19.25c14.55-7.44,27.81-16.21,43.56-22.39c14.05-5.63,28.44-11.26,39.91-19.5
				c8.25-5.87,16.62-11.66,24.49-17.78c9.69-7.63,20.88-14.21,30.5-21.9c12.97-10.42,26.35-20.66,41.53-29.46
				c1.51-0.9,2.93-1.87,4.31-2.86V7.17C882.81,8.92,880.78,10.54,878.38,11.93z"/>
			<path class="st2" d="M856.41,266.73c-13.97,0.66-28.09,1.38-42.02-0.1c-15.95-1.6-32.15,0.37-48.1-1.05
				c-12.67-0.84-20.65-11.58-34.15-9.17c-8.07,0.76-9.26,7.79-7.1,12.29c2.58,5.35,11.51,6.98,18.59,7.03
				c16.03,0.42,31.4,4.77,47.53,4.1c21.71,0.39,43.42,1.69,65.15,1.27c9-0.51,18-2.14,27.04-1.04c0.4,0.05,0.81,0.11,1.22,0.17
				V267.3C875.22,267.81,865.77,267,856.41,266.73z"/>
			<path class="st2" d="M838.53,303.03c-26.45,1.42-52.58-3.42-79.03-2.55c-8.21,0.34-16.01-1.61-23.96-2.65
				c-8.13-1.17-16.72,3.59-17.06,9.5c0.42,6.41,10.15,10.77,18.56,9.18c38.67-7.35,78.4,4.22,117.36-0.77
				c6.77-0.7,13.72-2.14,20.53-0.76c3.16,0.55,6.39,1.1,9.64,1.5v-15.78c-1.12,0.24-2.24,0.46-3.33,0.62
				C867.45,304.84,852.76,302.22,838.53,303.03z"/>
			<path class="st2" d="M876.45,166.38c0.01,3.98,3.48,7.33,8.12,9.13V155.5C879.16,157.49,875.37,162.03,876.45,166.38z"/>
			<path class="st2" d="M848.6,173.14c-3.2-9.19-0.16-19.68,9.3-26.54c6.1-4.7,14.55-7.63,19.78-12.93
				c1.93-3.77,1.62-8.62-2.13-11.83c-5.29-2.49-13.17-2.42-18.1,0.55c-4.93,3.96-6.99,9.18-10.54,13.74
				c-4.2,5.62-10.64,10.14-15.55,15.42c-6.31,6.43-6.27,15.05-3.33,22.35c9.93,20.16,35.68,34.2,43.7,55.03
				c1.89,5.55-0.22,11.69,3.77,16.87c1.59,2.71,5.16,4.42,9.09,5.02v-35.69c-1.25-3.14-2.6-6.25-4.73-9.16
				C871.77,193.89,854.6,186.05,848.6,173.14z"/>
			<path class="st2" d="M866.87,971.99c0.14-12.22,0.04-24.45,0.08-36.67c-0.2-16.91,2.58-33.73,2.09-50.64
				c4.07-18.22-1.12-37,5.37-55.01c1.6-5.04,6.89-10.72,1.86-15.58c-2.8-3.11-8.88-6.55-14.09-4.11c-4.52,1.56-8.62,4.63-8.59,8.45
				c-0.73,12.35,0.85,24.77-1.06,37.12c-1.3,7.41-0.57,14.94-2.17,22.35c-1.82,9.42,0.31,18.98-1.58,28.4
				c-1.83,9.3-1.71,18.77,0.26,28.05c2.82,13.87-6.16,27.53-2.49,41.38c2.7,10.21,6.36,20.33,11.51,30.06
				c3.75,7.45,11.23,13.74,13.64,21.57c1.7,4.28,2.03,8.97,5.23,12.9c1.63,2,4.5,3.36,7.65,3.96v-28.92
				c-2.85-3.74-5.08-7.72-7.38-11.65C871.49,993.59,866.42,982.99,866.87,971.99z"/>
			<path class="st2" d="M810.07-202.92c-8.35,5.46-21.12,7.04-27.22,14.31c-4.04,5.6,3.34,13.08,12.12,11.97
				c8.74-0.22,12.77-6.35,17.39-10.67c5.63-5.89,14.92-9.01,22.13-13.73c7.15-4.83,13.79-10.01,20-15.45H828.6
				C822.68-211.79,816.54-207.23,810.07-202.92z"/>
			<path class="st2" d="M863.91,1183.14c7.07-8.03,14.91-16.09,20.66-24.73v-67.29c-0.23-0.03-0.47-0.06-0.7-0.09
				c-6.99,0.76-13.48,5.28-13.12,10.53c0.31,4.78,2.96,9.28,3.69,14.03c1.22,7.91-0.87,15.81-2.55,23.61
				c-3.42,14.47-13.46,27.77-26.71,38.88c-5.48,4.54-10.96,9.09-16.6,13.55h25.85C857.65,1188.82,860.79,1185.97,863.91,1183.14z"/>
			<path class="st2" d="M865.16-197.48c-5.76,6.49,2.25,15.64,12.81,15.36c2.31,0.3,4.55,0.06,6.6-0.54v-19.73
				C877.51-204.33,868.34-202.85,865.16-197.48z"/>
			<path class="st2" d="M861.35-44.01c-4.29,6.03-3.65,13.32-8.88,19.1c-15.29,16.47-36.95,29.11-55.58,43.54
				c-11.15,10.24-25.01,18.71-37.7,27.95c-6.87,5-14.49,9.41-21.87,13.98c-10.91,6.56-23.57,11.34-35.17,17.18
				c-21.16,10.56-40.03,23.2-60.74,34.17c-21.61,11.52-43.16,23.4-67.44,31.99c-18.85,6.74-40.58,7.06-61.23,6.56
				c-7.62-0.07-15.67-1.37-22.96,0.83c-9.1,2.65-9.31,13.94,0.34,16.18c7.34,2.58,14.98-1.27,22.13-2.48
				c11.57-3.09,24-1.68,36.02-2.31c16.74-1.58,33.04-5.53,47.61-11.63c31.21-13.84,60.62-29.63,88.94-46.3
				C711.1,89,742.41,77.88,766.77,60.4c16.9-12.35,34.62-24.13,51.16-36.72c12.4-10.35,27.24-19.05,39.16-29.7
				c6.79-6.56,11.23-14.24,18.91-20.35c4.19-3.3,8.16-7.5,8.58-11.97v-1.39c-0.08-1.04-0.35-2.09-0.88-3.15
				C879.76-48.88,866.32-49.53,861.35-44.01z"/>
			<path class="st2" d="M816.38,384.61c5.96-7.72,16.01-13.07,24.32-19.39c5.63-3.96,9.97-8.97,16.95-11.83
				c6.47-2.86,14.35-4.82,18.47-9.7c0.89-2.54,1.05-5.32-0.28-7.77c-2.27-4.47-10.01-4.49-15.42-3.58
				c-6.53,1.69-10.74,5.89-15.04,9.53c-7.19,6.52-16.52,11.66-23.66,18.22c-4.91,4.45-10.17,8.9-17.11,11.8
				c-5.21,2.38-11.29,3.9-15.81,7.01c-3.3,2.13-3.22,5.55-2.92,8.48c0.4,6.06,11.41,9.59,18.45,6.76
				C810.3,392.55,813.13,388.16,816.38,384.61z"/>
			<path class="st2" d="M875.97,549.9c-1.24-2.7-3.77-5.28-7.68-6.19c-9.69-3.55-22.32,3.98-20.7,11.38
				c0.91,5.38,8.11,10.43,16.07,9.48C873.11,563.96,879.17,556.06,875.97,549.9z"/>
			<path class="st2" d="M869.96,659.13c5.53-5.31,1.54-11.91-0.14-17.61c-2.01-5.28,0.61-10.62,0.91-15.9
				c0.75-7.53-0.77-15.07,0.12-22.58c0.85-6.44,6.16-12.83,3.02-19.34c-2.58-6.07-15.34-7.7-20.17-2.15
				c-7.7,8.09,1.72,17.46-0.95,26.18c-2.51,9.64-1,19.45-0.95,29.18c0.23,5.76-3.16,11.14-3.99,16.81c0.67,3.21,2.76,6.63,6.97,8.26
				C860.02,662.74,866.97,663.02,869.96,659.13z"/>
			<path class="st2" d="M871.95,1068.11c-4.62-6.34-12.99-10.77-17.86-17.03c-11.23-13.94-21.1-28.54-27.47-44.02
				c-4.95-10.41-7.02-21.73-15.51-31.12c-3.71-4.41-10.11-7-16.03-9.63c-14.37-6.07-28.84-12.05-42.44-18.97
				c-18.24-9.49-30.32-23.43-46.31-34.54c-28.84-17.01-60.79-31.02-91.96-45.66c-8.92-4.84-16.12-11.04-24.04-16.66
				c-10.34-7.65-21.42-14.79-31.48-22.64c-4.5-3.59-11.31-6.38-18.26-5.27c-6.85,0.99-11.19,6.65-8.41,11.29
				c2.53,5.45,11.11,6.79,17.57,8.97c6.73,1.84,11.48,5.89,15.89,9.77c8.07,7.36,17.29,14.22,28.36,19.29
				c13.44,6.18,24.79,14.42,38.71,20.13c16.4,6.77,30.99,15.45,46.48,23.18c18.36,9.81,32.94,22.6,47.61,35.06
				c9.59,8.04,22.19,14.11,35.86,18.07c11.35,3.45,23.13,7.47,30.5,14.86c10.34,9.57,11.31,22.11,16.9,33.15
				c6.95,13.45,13.97,27.21,26.47,38.63c6.79,5.9,9.02,13.43,12.79,20.39c2.59,5.36,13.2,8.25,19.46,4.2
				C874.3,1077.26,873.43,1071.83,871.95,1068.11z"/>
			<path class="st2" d="M860.1,790.16c4.66-4.52,2.75-10.28,1.68-15.36c-1.89-7.59,2.72-14.93,3.12-22.45
				c0.77-7.77-1.54-15.87,2.56-23.32c1.66-4.15,5-8.68,2.64-12.98c-2.23-3.15-6.65-5.69-11.7-6c-8.13,0.84-13.7,6.91-12.43,12.59
				c1.03,5.39,2.45,10.87,1.01,16.32c-2.19,8.59-0.83,17.33-1.24,26c-0.24,8.29-10.46,15.21-7.46,23.78
				C840.11,795.78,856.12,796.32,860.1,790.16z"/>
			<path class="st2" d="M856.87-74.9c-3.08-5.27-12.3-8.65-19.93-6.44c-5.43,2.3-10.01,6.45-8.67,11.22
				c0.08,7.74,13.58,13.15,22.78,8.98C858.31-63.51,858.37-70.13,856.87-74.9z"/>
			<path class="st2" d="M764.81-93.91c-1.11-15.14,11.19-29.7,28.56-37.93c11.76-5.5,23.17-11.43,32.41-19.06
				c7.13-6.21,19.17-7.54,26.76-13.25c4.35-2.63,3.22-7.18,2.49-10.73c-3.2-4.53-11.63-3.7-17.33-2.65
				c-8.59,3.1-10.99,10.76-18.67,14.71c-9.45,4.99-19.91,9.08-28.24,15.11c-10.76,7.88-25.14,13.02-34.26,22.08
				c-6.59,6.94-6.63,15.72-10.94,23.33c-2.19,4.59-6.28,8.93-6.06,13.94c-0.41,5.51,8.43,9.97,15.57,8.01
				C763.45-81.65,765.11-88.79,764.81-93.91z"/>
			<path class="st2" d="M847.19,238.99c-4.3-7.97-15.79-12.46-20.23-20.45c-6.45-10.01-17.07-18.25-23.78-28.13
				c-5.7-7.58-8.23-16.17-14.47-23.55c-4.99-6.08-14.07-9.98-17.94-16.6c-3.53-5.59-6.04-12.97-15.93-14.25
				c-10.8-1.99-17.14,8.16-11.49,13.97c4.98,4.83,12.89,7.62,17.84,12.49c14.03,14.78,19.72,32.77,34.46,47.24
				c8.7,8.98,20.63,16.93,23.9,28.01c1.88,5.62,5.84,12.63,15.1,13.28C843.52,251.62,850.33,244.82,847.19,238.99z"/>
			<path class="st2" d="M845.44,491.03c-2.62-6.62-13.18-8.05-20.9-10.42c-15.24-3.66-24.1-13.83-36.56-20.41
				c-19.86-13.04-38.27-27.15-57.53-40.64c-12.89-8.8-31.56-9.63-47.55-13.87c-10.42-2.46-19.74-7.59-24.97-14.52
				c-4.97-7.32-6.02-15.55-8.76-23.35c-3.06-8.84-6.67-17.68-7.46-26.82c0.57-17.52,8.47-34.4,9.95-51.86
				c2.45-12.18,1.12-24.49,1.48-36.73c0.39-10.88-2.65-21.6-6.47-32.06c-3.18-8.1,1.99-17.93-6.83-24.67
				c-5.94-4.59-17.51-2.19-19.3,3.83c-2.86,8.59,7.03,15.56,8.21,23.82c2.49,13.45,4.03,26.99,6.4,40.47
				c1.56,8.19-1.62,16.3-2.55,24.44c-1.4,11.53-2.64,23.18-7.28,34.34c-4.68,10.69-4.54,22.33-0.44,33.12
				c4.44,11.94,8.55,23.95,12.69,35.95c2.05,6.07,5.72,12.09,12.45,16.26c21.87,13.77,55.21,12.56,75.87,27.61
				c19.32,13.91,38.45,28.01,58.98,41.03c9.36,6.17,22.7,8.79,30.28,16.37c4.97,4.28,10.34,10.34,19.26,9.72
				C842.4,502.57,847.83,496.29,845.44,491.03z"/>
			<path class="st2" d="M841.65,451.51c-2.09-4.21-7.32-6.98-11.21-10.31c-7.3-5.79-10.54-13.7-18.83-18.93
				c-7.38-4.73-16.42-7.9-23.8-12.62c-5.29-3.08-13.03-6.67-19.68-3.41c-7.42,2.32-6.45,9.53-2.51,13.56
				c4.03,2.77,9.83,3.53,14.92,4.93c11.61,2.51,18.99,9.93,27.1,15.85c8.01,5.79,6.97,16,17.33,20.25
				C833.1,464.81,845.08,458.21,841.65,451.51z"/>
			<path class="st2" d="M835.57,1147.56c1.2-7.97,6.61-15.36,6.41-23.45c0.04-5.48,0.42-11-0.83-16.4
				c-1.46-6.01-4.84-11.7-9.55-16.74c-18.45-20.15-38.53-40.02-49.58-62.99c-4.48-10.25-11.07-20.08-12.95-30.82
				c-1.05-5.13-4.62-12.5-13.46-12.12c-5.29-0.62-9.73,2.27-11.76,5.49c-2.25,5.77,3.63,10.7,7.34,15.42
				c5.41,6.14,6.2,13.53,8.94,20.37c6.71,17.13,19.72,32.46,32.31,47.64c7.67,9.33,18.71,17.12,25.05,27.02
				c7.32,11.04,5.92,23.8,2.8,35.47c-1.88,7.6-10.88,13.49-11.29,21.33c-0.28,6.72,13.18,10.51,19.58,5.62
				C835.04,1159.47,834.09,1152.93,835.57,1147.56z"/>
			<path class="st2" d="M835.45,524.74c-2.88-6.84-15.38-9.26-23.29-5.21c-12.41,4.52-7.52,20.33,6.61,20.29
				C830.1,541.01,839.69,532.33,835.45,524.74z"/>
			<path class="st2" d="M802.98-19.37c5.13-7.24,17.6-8.83,24.63-14.7c2.17-2.58,4.97-5.6,3.99-8.7
				c-1.78-4.86-10.06-9.22-16.78-6.17c-9.39,2.27-11.09,10.07-15.97,15.34c-6.14,8.94-24.14,9.52-28.82,19.22
				c-4.26,6.28,6.77,14.28,15.61,11C795.82-5.55,798.13-13.65,802.98-19.37z"/>
			<path class="st2" d="M831.96,807.68c-1.18-3.1-4.17-5.7-7.74-7.55c-5.92-1.07-13.84-1.52-18.16,2.26
				c-3.48,2.74-3.06,6.76-2.63,10.21c0.87,6.29,11.84,10.56,19.74,7.84C830.64,818.96,833.78,812.65,831.96,807.68z"/>
			<path class="st2" d="M829.81-107.5c-1.05-6.42-10.37-9.97-18.77-8.79c-13.11,1.08-16.36,15.6-5.29,20.2
				C816.07-90.2,832.71-98.84,829.81-107.5z"/>
			<path class="st2" d="M829.97,855.61c-1.84-6.51-10.36-9.77-17.63-12.89c-15.04-6.32-25.32-16.64-38.33-24.7
				c-7.52-4.56-15.1-9.07-22.88-13.39c-14.39-8.05-30.69-14.12-47.15-19.7c-21.93-6.65-45.52-9.93-68.88-12.84
				c-15.3-1.96-27.65-8.94-40.48-14.65c-8.47-4-18.87-3.34-28.5-3.32c-24.99-0.48-49.05,5.14-73.48,7.96
				c-9.06,0.46-18-1.78-27.12-1.02c-8.37,0.21-14.37,8.19-8.9,13.06c4.81,5.62,15.18,5.66,23,3.76c14.68-3.31,30.28-2.99,45.1-5.8
				c17.05-3.26,34.86-5.62,52.46-3.55c16.76,3.27,29.9,12.17,46.28,16.1c15.67,3.72,32.55,3.1,48.44,6.13
				c26.43,5.63,50.65,15.54,72.95,26.99c11.03,5.62,19.87,13,29.62,19.66c8.37,5.74,19.99,9.25,25.56,16.88
				c4.15,5.04,8.84,12.31,18.73,11.42C826.02,866.23,831.6,860.33,829.97,855.61z"/>
			<path class="st2" d="M824.42,605.64c-0.02-7.77-6.16-15.39-2.66-23.16c2.05-6.55,8.05-12.84,6.2-19.74
				c-1.74-8.71-19.93-9.08-24.22-1.42c-2.84,9.63,5.59,19.26,0.99,28.77c-2.52,5.55-6.45,11.07-5.31,17.11
				c-0.27,4.49,5.43,8.22,11.59,8.22C818.52,616.13,823.49,610.27,824.42,605.64z"/>
			<path class="st2" d="M827.72,639.81c-0.63-5.86-8.23-11.5-16.8-10.78c-9.85,0.46-17.05,9.79-11.13,15.7
				c3.12,3.92,9.59,6.38,15.89,5.44C822.66,649.56,827.72,644.67,827.72,639.81z"/>
			<path class="st2" d="M763.07,753.41c12.35-7.11,23.47-15.26,35.96-22.25c7.54-4.21,17.43-5.87,24.16-10.84
				c4.64-2.66,3.67-7.44,2.74-11.11c-3.26-3.56-10.03-5.93-15.69-3.79c-7.2,2.69-11.04,8.1-16.21,12.32
				c-7.21,6.36-18.44,9.24-26.81,14.67c-7.5,4.55-13.52,10.13-19.84,15.49c-6.91,5.96-18.69,8.14-24.37,14.88
				c-1.48,3.59-1.18,8.04,2.59,10.9c3.51,2,8.62,3.48,12.83,1.62C751.09,770.95,752.36,759.28,763.07,753.41z"/>
			<path class="st2" d="M825.8,940.15c-4.87-8.28-18.53-10.24-27.69-15.35c-11.35-6.44-24.28-11.81-32.98-20.31
				c-4.32-4.05-9.51-8.91-17.45-8.81c-7.77-0.8-14.45,5.9-11.07,10.94c2.41,4.62,8.74,7.13,14.27,9.59
				c12.73,5.21,22.24,13.52,35.11,18.6c11.07,4.18,14.92,14.46,27.18,17.37C822.07,953.09,829.31,945.98,825.8,940.15z"/>
			<path class="st2" d="M823.88,889.49c-2.94-3.12-7.34-6.32-13.05-6.13c-9.47-0.95-17.47,6.03-15.38,12.52
				c-1.2,8.29,14.98,14.32,23.63,8.7C826.23,901.41,826.08,894.57,823.88,889.49z"/>
			<path class="st2" d="M796.8,781.53c5.15-7.25,15.75-11.17,22.68-17.35c3.69-3.07,4.16-7.6,2.25-11.26
				c-3.69-3.94-11.88-5.91-17.39-2.6c-8.74,4.87-8.7,13.97-16.16,19.57c-5.63,4.15-13.62,6.11-19.46,10.1
				c-4.7,3.41-5.59,9.24-1.01,12.95c3.12,3.49,9.69,2.92,14.59,2.27C790.21,792.8,792.88,786.44,796.8,781.53z"/>
			<path class="st2" d="M811.41,140.17c4.62-3.25,4.36-8.48,2.84-12.62c-3.14-8.18-20.21-10.1-27.04-3.35
				c-6.77,6.36-1.05,16.43,9.26,18.7C801.66,144.85,807.74,143.07,811.41,140.17z"/>
			<path class="st2" d="M801.17,349.83c6.71-1.07,11.82-6.27,9.48-11.08c-1.98-2.56-4.99-5.6-9.61-5.41
				c-9.39-0.89-17.27,3.55-26.07,4.94c-9.99,1.51-20.51,1.77-30.41-0.2c-6.46-1.08-13.56-3.17-20.05-1.25
				c-5.09,2.63-10.46,7.93-5.64,12.19c3.53,5.07,12.02,5.72,19.03,5C758.85,351.66,780.5,353.81,801.17,349.83z"/>
			<path class="st2" d="M790.83-61.88c7.48-2.94,18.16-7.44,15.45-14.6c-1.46-5.07-9.69-8.73-16.34-5.83
				c-9.93,2.62-10.38,11.35-16.64,16.43c-6.21,3.58-14.51,5.32-19.32,10.14c-5.31,4.37-3.02,12.48,4.78,14.5
				c5.31,1.96,11.23-0.61,14.96-3.28C780.15-49.95,780.99-58.51,790.83-61.88z"/>
			<path class="st2" d="M802.43,1176.67c-4.17-5.69-14.23-5.44-21.77-6.96c-8.51-1.11-15.69-4.7-22.72-8.07
				c-13.88-6.7-29.09-11.82-43.21-18.24c-17.17-7.77-29.13-19.8-41.61-30.95c-11.88-10.7-21.39-23.08-36.83-31.5
				c-13.42-7.69-26.59-15.93-36.3-26.15c-11.51-11.89-22.25-24.25-36.01-34.89c-13.81-11.39-29.41-22.36-49.11-28.37
				c-15.55-4.94-31.86-12.2-49.6-9.45c-23.61,2.24-39.28,16.95-61.34,21.98c-17.41,3.99-35.17,7.23-52.21,12.01
				c-12.41,3.49-23.57,9.3-31.9,16.74c-14.98,13.31-27.73,27.87-43.8,40.57c-9.95,7.72-14.96,18.03-25.76,25.28
				c-7.17,4.78-11.39,13.14-5.47,19.43c5.56,3.05,14.63,2.73,19.54-0.92c3.85-4.15,3.89-9.36,5.86-14
				c1.95-5.82,8.13-10.14,13.5-14.45c11.15-8.17,19.7-17.87,29.7-26.73c12.75-11.4,23.73-24.77,42.32-31.85
				c16.27-6.66,35.51-7.65,52.33-13.36c11.05-3.81,22.78-6.73,33.12-11.53c9.81-4.32,19.95-9.66,32.11-9.15
				c14.86-0.6,28.6,4.56,40.46,10.42c20.98,10.07,38.39,23.51,52.94,38.19c9.71,9.17,17.76,19.15,27.39,28.36
				c7.88,7.61,19.07,12.79,29.55,18.34c16.18,8.42,25.26,21.49,37.03,32.67c8.66,8.73,19.28,16.32,30.2,23.6
				c12.81,8.33,29.15,12.94,43.4,19.78c8.19,4,17.33,6.73,26.45,9.44c7.9,2.31,14.03,6.63,20.69,10.31
				c4.8,2.58,11.84,4.27,17.09,1.31C804.7,1186.39,804.44,1180.61,802.43,1176.67z"/>
			<path class="st2" d="M792.6,237.47c-6.3-8.33-22.5-7.94-29.82-15.54c-8.48-7.82-11.82-17.53-15.77-26.78
				c-3.73-9.29-13.96-16.5-16.6-26.09c-1.46-6-6.33-12.49-15.81-13.02c-6.02,1.37-13,5.03-11.53,10.15
				c1.88,7.34,12.06,11.25,16.27,17.74c7.28,11.86,11.84,24.43,17.57,36.68c4.7,9.65,18.47,14.11,27.61,21.21
				c4.82,3.68,10.88,7.14,18.24,7.28C789.56,247.95,797.02,242.64,792.6,237.47z"/>
			<path class="st2" d="M787.63,1145.4c6.2-7.22-2.63-15.63,1.44-23.19c2.15-5.18,6.73-10.59,3.93-16.08
				c-2.52-6.96-17.02-7.63-21.28-1.32c-4.52,7.76,4.22,16.5-1.68,24.12c-2.61,5.15-8.27,11.15-3.04,16.43
				C770.81,1151.02,783.74,1150.95,787.63,1145.4z"/>
			<path class="st2" d="M790.45,502.3c-4.58-5.77-17.13-7.67-23.47-2.34c-5.47,3.24-5.43,9.31-2.29,13.5
				c4.16,4.73,13.3,5.03,20.17,3.79C792.44,514.65,793.72,507.2,790.45,502.3z"/>
			<path class="st2" d="M776.5,587.49c-0.81-9.53-4.72-19.42,0.35-28.7c2.07-5.73,8.07-11.34,6.55-17.35
				c-2.45-3.74-6.97-8.49-13.66-7.29c-9.22,0.62-13.54,8.01-12.38,13.88c2.09,9.87,3.26,20.26-1.79,29.81
				c-1.72,5-6.81,10.59-2.43,15.58c2.35,3.01,6.91,5.84,12.04,5.36C771.96,597.46,777.26,592.57,776.5,587.49z"/>
			<path class="st2" d="M781.15,866.75c-3.12-5.31-13.5-7.99-20.59-5.14c-9.16,2.84-10.34,13-3.12,17.49
				c5.13,4.44,15.06,3.93,21.04,0.69C783.01,876.38,783.15,870.94,781.15,866.75z"/>
			<path class="st2" d="M778.51,619.06c-3.71-7.9-20.88-8.88-26.11-1.34c-7.32,6.63,0.83,18.17,13.03,16.98
				C776.1,634.9,783.64,625.63,778.51,619.06z"/>
			<path class="st2" d="M778.55,693.77c-4.48-7.55-22.05-7.96-26.65-0.32c-5.41,6.11,0.97,15.77,11.59,15.52
				C774.62,710.8,784.49,700.59,778.55,693.77z"/>
			<path class="st2" d="M768.09-156.97c3.57-3.07,2.92-7.41,2.25-11.08c-2.74-6.93-18.08-8.29-24.32-3.18
				c-6.85,3.91-5.92,12.29,0.3,16.26C752.95-152.28,763.19-152.18,768.09-156.97z"/>
			<path class="st2" d="M766.53-204.61c-1.46-3.31-5.06-6.11-9.3-7.74c-5.49-0.72-11.84-0.39-16.18,2.37
				c-6.87,5.86-3.89,17.94,8.65,18.14C759.58-190.09,769.45-197.69,766.53-204.61z"/>
			<path class="st2" d="M766.39,1082.46c-4.28-7.63-15.18-12-20.17-19.35c-6.63-9.57-14.72-18.87-17.76-29.46
				c-4.18-14.9-7.09-29.95-9.67-45c-2.84-14.94-17.11-26.75-32.21-36.49c-9.34-5.73-10.68-16.8-23.21-19.88
				c-7.44-2.45-15.57,3.38-16.05,8.53c1.46,5.2,6.75,9.22,12.97,11.88c11.66,5.23,19.17,13.66,27.4,21.29
				c16.5,16.82,18.93,38.22,19.7,58.13c1.6,14.53,12.43,27.22,24.32,38.63c7.6,6.77,6.57,17.66,18.14,22.18
				C758.63,1096.86,770.32,1089.17,766.39,1082.46z"/>
			<path class="st2" d="M764.34,8.06c-5.51-6.83-21.65-6.32-26.53,0.69c-6.12,6.45,2.9,16.93,13.8,15.39
				C763.21,24.74,768.52,14.65,764.34,8.06z"/>
			<path class="st2" d="M762.52,382.31c-1.19-10.66-22.76-12.33-28.99-3.31c-6.63,5.87-3.22,16.86,8.27,17.73
				C753.54,398.49,762.2,389.8,762.52,382.31z"/>
			<path class="st2" d="M717.48,496.93c8.54-3.04,18.34-2.92,27.41-4.58c6.57-1.17,11.8-6.46,9.87-11.25
				c-1.44-3.45-5.82-6.34-11.09-6.13c-8.03-0.72-14.19,3.55-20.43,6.41c-9.71,4.86-22.54,4.58-32.27,9.46
				c-6.81,3.38-14.13,6.22-22.13,7.93c-6.89,1.58-15,5.42-14.09,11.29c-0.49,4.49,6.55,7.27,11.98,7.66
				c12.26-1.51,18.1-10.63,29.31-13.6C703.33,501.94,710.39,499.4,717.48,496.93z"/>
			<path class="st2" d="M746.91-20.54c-0.91-5.28-6.34-9.15-11.19-12.81c-7.48-5.48-8.35-13.47-10.48-20.57
				c-2.19-9.63-5.57-19.11-8.94-28.55c-4.75-12.93-5.23-26.83,0.14-39.7c3-7.87,13.74-12.97,15.57-21.16
				c0.12-4.47-5.09-9.45-11.94-8.8c-8.82-0.42-14.57,5.62-15.85,11.2c-2.09,8.04-7.16,15.41-10.13,23.25
				c-1.52,9.14-1.06,18.5,1.58,27.53c3.47,12.97,6.04,26.06,10.15,38.95c2.56,8.32,8.88,15.73,11.59,24.02
				c2.15,5.64,4.21,12.83,13.05,14.98C738.34-9.59,746.73-14.92,746.91-20.54z"/>
			<path class="st2" d="M746.91,846.91c-0.83-5.5-7.76-8.98-14.67-10.42c-8.82-2-16.72-5.49-23.77-9.74
				c-11.92-7.28-28.91-8.39-39.97-16.57c-5.74-4.52-18.57-6.22-23.19-0.01c-2.39,2.38-2.98,5.89-0.1,8.22
				c4.64,5.23,13.96,5.8,21.56,7.37c10.01,1.77,17.57,7.1,26.35,10.63c7.7,3.35,16.7,5.44,22.94,10.31
				c5.6,3.86,10.95,9.29,19.6,9.29C741.48,855.14,746.99,851.26,746.91,846.91z"/>
			<path class="st2" d="M746.79,1116.21c-2.35-7.43-16.6-11.62-24.87-6.33c-6.26,5.47-4.86,16.36,5.74,18.64
				C737.83,1131.95,750.66,1123.85,746.79,1116.21z"/>
			<path class="st2" d="M691.31,544.5c10.27-2.73,19.11-7.84,29.96-9.44c7.36-1.34,16.19-1.41,21.3-6.05
				c3.87-2.41,3.77-6.63,2.09-9.79c-2.33-2.69-6.16-4.99-10.88-4.47c-7.32-0.65-12.52,3.61-17.69,6.58
				c-9.69,6.34-23.03,8.02-34.6,11.91c-7.66,2.58-16.01,3.67-24.41,3.94c-6.53,0.13-12.95,2.46-15.93,6.75
				c-4.16,4.25,1.38,10.08,7.62,11.27c6.77,1.76,13.54-1.16,19.34-3.37C675.4,548.7,683.39,546.6,691.31,544.5z"/>
			<path class="st2" d="M734.36,731.46c5.01-2.96,6.95-8.03,4.68-12.36c-4.62-8.27-23.68-8.76-28.34-0.34
				c-4.05,5.21,0.24,12.6,7.86,14.64C723.79,733.74,730.49,734.71,734.36,731.46z"/>
			<path class="st2" d="M729.82,691.48c3.41-4.14,0.51-8.81-0.85-13.03c-5.25-11.7-1.18-24.09-3.14-36.06
				c-2.07-11.66-2.27-23.5,0.14-35.13c1.54-8.01-0.75-15.97-1.62-23.93c-0.79-7.81,7.91-14.49,7.22-22.14
				c-1.7-3.31-4.95-6.62-9.75-7.81c-6.1-0.56-13.19,2.01-14.53,6.55c-1.44,5.03,0,10.18,0.99,15.19
				c2.53,10.31-4.86,20.39-2.13,30.71c1.76,8.91,0.85,17.94-0.91,26.81c-2.47,15.78,6.97,31.36,2.41,47.09
				c-0.37,4.27-2.41,9.25,0.97,13.12C713.28,698.49,726.77,697.7,729.82,691.48z"/>
			<path class="st2" d="M592.93,111.01c19.19-10.15,38.55-20.21,56.49-31.47c15.55-9.08,28.66-20.25,45.71-27.99
				c7.62-3.66,17.07-3.8,25.46-5.97c5.64-1.31,8.96-5.68,8.39-9.77c-0.52-4.08-5.92-6.61-11-7.65c-9.51,1.11-16.76,6.03-25.05,9.16
				c-9.2,3.69-20.02,5.77-27.36,11.49c-4.7,3.69-8.78,7.77-13.8,11.27c-9.97,7.58-22.6,12.94-33.49,19.78
				c-11.65,7.27-23.37,14.59-36.93,20.02c-11.82,4.65-21.36,12.29-34.78,14.74c-6.26,1.55-14.6,2.63-16.87,7.83
				c-4.12,5.18,3.28,10.98,10.52,11.67c7.46-0.86,12.6-5.07,18.12-8.31C568.67,119.51,582.19,116.89,592.93,111.01z"/>
			<path class="st2" d="M729.36,879.56c-2.63-5.65-10.74-8.02-17.98-9.76c-12.55-2.88-21.14-10.46-32.33-15.04
				c-8.31-3.72-18.16-5.39-25.94-9.76c-5.74-2.92-9.93-7.35-16.54-9.36c-5.44-1.06-12.91-0.62-16.01,3.25
				c-0.81,2.72-0.83,5.62,0.12,8.35c4.6,5.48,14.19,6.1,21.83,8.13c9.24,2.15,16.32,7.1,24.28,10.86
				c10.62,5.22,23.67,7.94,32.35,15.03c5.57,3.66,10.44,9.44,18.95,9.25C725.91,891.26,733.09,884.73,729.36,879.56z"/>
			<path class="st2" d="M722.33-176.94c1.14-2.09,2.49-4.41,1.14-6.6c-1.64-8.49-18.32-11.49-26.07-5.48
				c-5.53,3.55-5.73,10.6-0.53,14.36C703.05-168.84,718.55-169.94,722.33-176.94z"/>
			<path class="st2" d="M700.88-209.86c7.66,3.5,17.82-0.94,20.57-6.63h-28.91C694.11-213.7,697.27-211.24,700.88-209.86z"/>
			<path class="st2" d="M721.76,1186.52c-1.46-2.97-3.55-6.11-7.78-7.48c-7.26-3.21-17.84-0.9-21,4.83
				c-1.98,2.5-1.84,5.27-0.43,7.76h28.9C722.26,1189.98,722.47,1188.22,721.76,1186.52z"/>
			<path class="st2" d="M716.08,455.41c-3.02-4.8-11.13-5.43-17.43-6.53c-14.94-1.79-27.38-8.37-41.05-12.56
				c-10.46-3.18-20.66-6.79-30.83-10.45c-15.24-5.51-32.25-7.51-48-12.07c-19.78-5.77-42.14-4.31-61.66-10.7
				c-11.01-3.25-20.55-8.81-27.55-15.67c-7.48-7.82-9.61-17.38-12.39-26.43c-2.86-8.68,0.49-17.97-4.54-26.35
				c-2.47-4.57-9.08-6.77-13.76-10.01c-0.59-3.89,2.68-7.53,3.51-11.34c2.35-5.22-0.34-11.45-7.22-14.18
				c-9.95-5.08-23.53,4.01-20.43,11.7c1.6,7.46,13.2,9.67,19.38,14.76c-0.95,4.8-4.85,9.6-2.66,14.52c3,7.25,7.82,14.38,6.89,22.16
				c-1.26,13.52,6.55,26.73,18.24,37.12c9.85,8.57,24.18,13.57,38.21,17.8c15.14,4.58,31.9,3.97,47.63,6.83
				c19.13,2.82,36.2,9.83,54.12,15.02c19.09,6.18,38.8,11.29,57.79,17.59c8.92,2.83,15.95,7.91,24.83,10.76
				c4.6,1.58,10.62,1.25,14.17-1.5C717.85,463.45,717.18,458.87,716.08,455.41z"/>
			<path class="st2" d="M711.16,9.54c4.82-2.72,4.72-7.79,2.76-11.55c-3.36-4.24-11.37-3.24-16.99-2.63
				c-7.38,2.41-12.93,7.25-21.04,8.63c-8.15,1.38-16.66,0.9-24.97,0.6c-13.74-1.03-27.61-1.8-40.95-4.5
				c-9.91-2.03-20.21-2.9-29.95-5.32c-8.05-1.97-14.63-7.35-23.74-6.68c-8.88-0.56-14.39,7.41-10.18,12.52
				c5.61,5.15,15.65,5.08,23.92,5.69c8.47,0.33,15.85,3.58,23.8,5.31c11.96,2.85,24.77,2.41,36.93,4.55
				c9.34,1.41,18.46,4,28.13,3.83c10.97,0.28,20.09-4.9,30.63-6.11C696.73,12.61,705.3,13.33,711.16,9.54z"/>
			<path class="st2" d="M713.51,1090.86c-2.76-5.55-9.87-9.01-14.43-13.7c-5.47-5.64-9.14-12.09-15.2-17.44
				c-6.18-5.99-15.32-9.79-23.73-13.94c-8.19-3.9-15.3-8.86-21.75-14.14c-14.17-12.6-22.64-28.33-39.83-39.19
				c-6.75-4.24-12.12-9.39-16.86-14.8c-3.77-4.47-11.72-8.14-18.97-5.55c-6.59,2.38-7.93,8.58-5.09,13
				c5.15,4.9,13.4,7.3,19.76,11.25c25.13,16.79,37.19,41.33,64.35,56.8c15.1,8.35,30.04,17.32,40.18,29.05
				c4.09,4.93,5.53,10.72,9.51,15.7c2,2.82,6.57,4.27,10.86,4.32C710.49,1103.44,717.12,1095.84,713.51,1090.86z"/>
			<path class="st2" d="M710.08,378.17c-3.22-6.25-9.91-11.31-12.61-17.73c-4.25-10.84-5.15-22.32-2.61-33.43
				c0.61-11.54,1.82-23.11,4.98-34.47c2.66-8.98,0.55-18.18,1.64-27.25c1.1-7.67,3.61-15.21,5.17-22.84
				c1.56-8.1-1.5-16.12-4.28-23.9c-3.08-8.74-10.42-16.52-11.9-25.58c-1.1-5.49-1.4-12.74-9.59-15.42
				c-6.93-2.94-17.03,1.54-16.5,7.27c-0.85,8.1,9.3,13.6,12.04,20.98c3.29,8.15,6.51,16.35,8.78,24.69
				c2.78,19.43-3.02,38.75-3.77,58.15c-1.27,18.07-8.41,35.78-7.24,53.95c0.79,12,8.55,22.99,10.26,34.88
				c0.69,5.22,4.66,11.18,12.37,12.45C705.63,391.13,713.83,384.11,710.08,378.17z"/>
			<path class="st2" d="M704.12,749.9c-1.8-9.19-20-11.6-27.77-4.87c-6.42,6.28-0.99,16.61,10.22,17.52
				C696.32,763.87,706.45,756.8,704.12,749.9z"/>
			<path class="st2" d="M679.72-149.65c6.53-1.25,9.55-6.8,7.64-11.17c-1.93-2.65-5.13-5.04-9.12-6.07
				c-12.42-1.32-24.69,1.59-37.13,1.23c-20.47-0.42-41.01,1.28-61.35-1.11c-13.23-0.11-26.21-1.87-38.65-5.07
				c-7.38-2.36-16.66,0.82-19.13,6.18c-2.11,6.49,8.13,11.56,16.4,10.95c25.26-0.79,50.29,2.24,75.36,3.86
				c13.12,0.21,25.92-3.55,39.08-2.35C661.82-152.25,670.38-147.67,679.72-149.65z"/>
			<path class="st2" d="M687.14,713.54c-1.14-3.27-2.9-6.39-4.28-9.6c-4.4-9.28-1.83-19.27-5.25-28.68
				c-3.32-8.8,5.7-17.53,1.34-26.22c-3.44-5.79-15.55-6.53-20.43-1.27c-7.07,5.36-1.4,12.56,0.43,18.56
				c3.14,6.53,0,13.39,1.26,20.07c0.59,4.8,2.57,9.43,3.73,14.18c1.64,5.97-2.03,11.86-1.24,17.85c0.99,3.41,4.14,6.66,8.66,8.13
				c4.62,0.73,9.85,0.01,13.3-2.35C688.28,721.32,688.38,717.11,687.14,713.54z"/>
			<path class="st2" d="M579.41,616.65c20.51-12.03,47-16.14,70.54-24.04c8.29-2.38,17.45-2.2,25.88-4.18
				c6-1.21,10.14-5.99,9.49-10.27c-1.28-4.13-6.61-7.41-12.67-7.03c-10.52-0.79-16.95,6.44-26.05,8.84
				c-14.61,4.14-29.75,7.28-44.75,10.63c-11.09,2.39-20.76,7.28-28.48,13.39c-7.4,6.42-20.63,7.36-27.36,14.28
				c-4.07,5.13,1.5,12.77,10.2,12.29C568.02,630.78,572.03,621.45,579.41,616.65z"/>
			<path class="st2" d="M683.33-27.15c-1.76-4.65-4.99-8.94-6.41-13.65c-2.17-7.25-2.41-14.73-4.82-21.94
				c-2.17-7.45-6.57-14.83-4.95-22.57c1.11-5.46,0.65-12.29-7.01-15.28c-6.1-3.65-15.91,0.1-16.66,5.43
				c-1.5,5.58,1.93,10.8,4.64,15.87c3.39,6.1,3.08,12.77,4.6,19.17c1.38,8.97,7.16,17.47,6.04,26.67
				c0.65,6.14-3.14,14.52,5.92,18.33C674.82-9.93,688.13-19.48,683.33-27.15z"/>
			<path class="st2" d="M618.43,643.14c9.26-5.07,20.09-8.35,30.47-12.04c8.08-3.03,17.47-2.87,25.86-5.17
				c5.33-2.1,10.94-6.27,8.82-11c-1.7-5.25-11.04-8.18-17.65-5.64c-8.7,2.91-15.16,8.49-24.44,10.72
				c-11.15,2.84-21.59,7.01-33.02,9.34c-6.81,1.45-15.14,2.83-18.08,8.1c-4.04,5.1,3.44,11.86,11.23,11.07
				C608.15,648.74,613.4,645.62,618.43,643.14z"/>
			<path class="st2" d="M683.51,1017.67c-3.02-5.81-9.71-10.12-13.32-15.73c-5.15-7.83-9.81-15.96-17.64-22.66
				c-9.22-8.36-22.03-14.45-29.96-23.57c-4.24-4-8.76-9.89-16.99-9.15c-7.32-0.78-14.19,4.69-12.38,9.82
				c1.83,5.68,9.73,8.78,16.24,11.52c11.47,4.23,17.75,12.66,25.88,19.42c8.92,8.98,19.58,17.74,22.74,28.82
				c1.72,4.98,3.89,11.11,11.68,12.83C678.57,1030.9,686.91,1023.65,683.51,1017.67z"/>
			<path class="st2" d="M675.2,1177.91c3.92-2.34,3.45-6.39,2.25-9.55c-2.78-5.28-10.72-7.46-16.7-10.53
				c-8.11-3.46-13.19-9.29-19.28-14.26c-7.84-7.05-18.51-13.23-21.4-22.42c-2.49-5.62-2.75-13.38-11.57-15.98
				c-9.12-2.52-18.52,5.17-14.69,11.42c4.18,7.04,12.04,12.69,15.38,20.07c5.15,10.62,19.15,16.64,30.24,23.8
				c8.79,5.39,9.69,15.25,20.23,19.43C664.78,1181.15,671.57,1181.28,675.2,1177.91z"/>
			<path class="st2" d="M673.56-204.58c-3.59-5.43-13.78-8.46-21.48-5.62c-6.67,2.15-10.24,7.96-8.43,12.97
				c2.41,7.25,15.67,11.63,24.56,7.27C675.89-192.61,675.28-199.59,673.56-204.58z"/>
			<path class="st2" d="M664.32-127.32c-3.14-7.69-18.12-10.15-27.22-6.32c-6.55,1.89-8.65,7.67-6.87,12.19
				c3.58,4.81,11.15,7.55,18.59,7.79C657.73-114.46,667.05-120.43,664.32-127.32z"/>
			<path class="st2" d="M663.89,476.87c-1.6-3.59-5.96-6.66-11.29-7.11c-10.48-0.8-21.38,0.96-31.5-1.66
				c-15.22-3.35-27.87-10.49-42.18-15.25c-9.18-2.94-15.57-8.7-24-12.42c-5.33-2.49-13.07-2.11-17.45,1.29
				c-2.86,2.76-3.39,7.18,0.24,9.73c4.2,3.73,10.89,4.99,16.89,6.59c14.61,3.62,25.01,12.25,38.22,17.61
				c7.95,3.65,17.13,5.66,26.5,6.31c9.79,0.6,18.85,3.38,28.25,5.18C655.74,488.88,665.81,482.91,663.89,476.87z"/>
			<path class="st2" d="M652.19,741.5c-1.2-5.25-7.13-9.87-15.04-9.43c-7.5-0.95-14.72,3.03-16.9,7.98
				c-2.27,7.01,7.14,13.73,16.91,12.92C645.91,753.48,653.61,747.64,652.19,741.5z"/>
			<path class="st2" d="M588.08,729.7c10.75-2.18,17.88-9.03,28.28-11.74c6.53-1.96,14.05-2.58,19.6-5.94
				c3.26-2.62,4.84-6.6,2.81-9.91c-1.93-4.21-9.67-6.69-15.32-4.7c-10.66,2.58-15.65,10.97-26.19,13.7
				c-11.39,3.11-23,6.21-35.21,7.12c-12.1,0.54-24.2,1.41-36.26,2.38c-20.61,1.49-41.47,5.41-62.11,1.87
				c-11.63-0.82-19.62-9.21-31.7-8.36c-9.47,0.01-14.07,9.49-7.66,14.08c4.85,4.1,12.85,4.35,19.72,5.25
				c8.17,0.68,15.93,2.62,23.9,3.89c31.03,2.59,61.38-4.26,92.25-5.08C569.56,732.07,579.04,731.55,588.08,729.7z"/>
			<path class="st2" d="M636.79,917.45c-2.83-4.17-8.57-7.57-15.42-6.63c-7.6-0.79-12.95,4.35-14,9.18
				c-1.1,6.91,8.11,13.17,17.88,11.66C635.35,931.76,640.34,923.45,636.79,917.45z"/>
			<path class="st2" d="M634.64,37.46c-2.09-4.38-9.44-5.62-15.22-5.28c-8.47,0.1-14.49,6.15-14.65,11.8
				c1.2,3.56,4.54,6.77,8.96,8.65c6.22,0.77,13.5,0.85,18.58-2.21C636.43,46.88,636.89,41.63,634.64,37.46z"/>
			<path class="st2" d="M581.86,690.52c10.05-2.7,18.81-7.68,29.57-9c5.73-0.96,11.8-1.14,17.15-3c5.25-2.25,9.24-7.35,6.08-11.56
				c-3.12-5.25-13.38-6.37-19.76-3.59c-7.28,3.03-13.42,7.48-21.54,9.49c-10.68,2.75-21.24,5.8-32.16,8.12
				c-11.43,2.49-23.51,1.25-35.17,2.69c-11.63,0.55-23.31,0.51-34.94,1.24c-14.43-1.12-29.84,0.28-43.15-4.7
				c-6.99-2.19-15.12-6.63-22.76-3.15c-6.16,2.03-6.51,7.44-4.97,11.53c2.39,3.69,8.37,4.94,13.62,5.03
				c9.12,0.24,18.16,1.23,26.9,3.06c17.55,3.94,36.3,2.84,54.3,1.45C537.57,697.34,560.62,696.42,581.86,690.52z"/>
			<path class="st2" d="M632.7,512.03c-1.6-3.64-4.8-7.15-9.85-8.7c-7.09-2.59-16.78,0.77-18.44,6.31
				c-3.65,7.55,2.27,18.97,15,19.19C630.93,529.15,636.57,518.76,632.7,512.03z"/>
			<path class="st2" d="M630.65-28.66c-2.29-5.3-5.98-10.39-6.36-16.03c-0.12-15.85-7.48-31.04-9.71-46.73
				c-1.44-11.53-10.94-21.25-15.18-32.2c-2.19-4.86-4.3-10.96-12.1-12.63c-7.2-2.55-17.55,0.97-17.37,7.03
				c-0.89,6.18,7.07,9.93,11.98,14.09c5.94,4.48,8.39,10.53,10.22,16.39c5.35,17.59,10.76,35.2,14.23,53.03
				c1.24,8.24-0.63,16.57,0.85,24.78c2.88,4.52,10.8,8.41,17.64,5.72C631.7-17.61,633.44-23.94,630.65-28.66z"/>
			<path class="st2" d="M565.75-190.36c10.72,1.76,22.14,0.21,32.51,3.2c5.7,1.32,11.23,3.48,17.33,3.59
				c7.28-0.94,15.71-7.18,10.94-12.5c-9.28-9-26.84-3.56-39.81-6c-17.67-3.61-36.1-1.56-54.16-2.55
				c-13.15-0.52-24.77,4.55-37.4,6.18c-6.79,1.1-14.69,2.14-18.69,6.69c-2.45,4.48-0.75,11.18,7.01,12.12
				c11.67,2.04,19.32-5.96,29.25-8.52C529.67-192.33,548.21-193.02,565.75-190.36z"/>
			<path class="st2" d="M623.47,554.05c-2.39-5.35-11.94-7.75-18.85-5.35c-10.31,2.59-12.46,12.87-6.3,18.66
				c4.22,3.18,11.29,3.2,16.82,2.11C623.29,566.89,626.11,559.79,623.47,554.05z"/>
			<path class="st2" d="M623.33,1177.97c-1.54-4.42-5.9-8.23-11.49-10.36c-7.32-2.51-18.36-0.69-20.76,5.42
				c-5.76,9.5,11.49,20.67,24.32,15.83C621.1,1187.29,624.59,1182.1,623.33,1177.97z"/>
			<path class="st2" d="M619.01,807.75c-5.84-7.2-23.84-5.73-27.59,2.11c-5.61,6.77,2.53,17.26,14.13,15.98
				C618.02,825.8,624.1,814.96,619.01,807.75z"/>
			<path class="st2" d="M610.22,265.85c-3.3-4.67-12.5-7.07-18.85-4c-10.38,3.55-10.62,15.78-0.1,19.3
				C603.04,286.08,618.04,273.77,610.22,265.85z"/>
			<path class="st2" d="M610.38,389.65c-2.92-5.63-9.16-10.12-11.25-16.01c-2.45-6.72-3.14-13.79-7.14-20.19
				c-4.15-7.28-12.16-12.94-16.84-20.01c-3.04-4.3-6.49-9.15-13.2-10.94c-7.46-1.7-16.3,3.01-15.14,8.69
				c-0.1,6.39,8.82,9.52,14.41,13.43c9.1,6.63,12.14,16,17.39,24.22c5.21,7.98,5.73,16.85,7.78,25.39c1.2,5.45,9.63,8.95,16.93,7.86
				C609.77,399.87,613.01,394.45,610.38,389.65z"/>
			<path class="st2" d="M606.38,303.82c-3.73-7.01-19.15-8.95-25.07-2.51c-2.8,3.05-4.22,7.03-1.86,10.47
				c2.55,7.1,17.27,9.03,23.78,3.68C607.76,312.53,607.44,307.74,606.38,303.82z"/>
			<path class="st2" d="M600.06,232.01c-6.99-10.11-10.24-21.63-8.21-32.85c1.15-6.07,6.26-11.77,5.01-18
				c-2.25-3.59-6.59-7.86-12.83-7.38c-5.55,0.06-10.36,3.28-11.8,7c-1.09,6.05,1.86,12,1.74,18.07c0.79,13.43-2.21,27.2,2.92,40.34
				c2.23,6.08,12.65,7.81,20.05,5.7C602.21,241.87,601.85,236.19,600.06,232.01z"/>
			<path class="st2" d="M474.69,137.82c5.27-5.66,14.35-8.45,20.96-13.14c9.3-6.08,15.49-14.16,24.93-20.15
				c13.56-8.38,29.18-14.8,43.23-22.73c8.13-4.3,18.87-4.76,27-9.01c2.77-2.22,5.25-5.49,3.93-8.51c-2.62-7.65-17.27-7.73-23.9-2.82
				c-7.15,4.9-15.04,9.2-23.58,12.79c-24.56,11.03-46.25,25.01-65.97,40.13c-4.6,3.77-8.57,8.14-14.75,10.74
				c-6.28,3.04-14.11,4.56-19.2,8.79c-6.65,5.01,0.14,14.77,9.83,13.96C465.37,147.27,470.34,142.24,474.69,137.82z"/>
			<path class="st2" d="M594.77,893.73c-2.63-2.86-6.63-5.14-11.29-6.04c-8.86-1.41-18.1,4.55-17.27,10.97
				c0.83,5.22,6.81,9.79,13.98,10.94c4.42,0.06,8.68-1.49,11.82-3.63C596.92,902.99,595.48,897.74,594.77,893.73z"/>
			<path class="st2" d="M582.92,33.42c-4.22-7.59-16.82-7.79-26.49-8.27c-9.63-0.3-16.56-5.51-24.1-9.1
				c-13.93-7.1-30.95-10.24-44.92-17.31c-10.25-5.26-20.79-10.7-27.49-18.52c-4.36-5-11.47-10.79-20.71-8.76
				c-7.7,0.69-9.3,7.31-7.48,11.74c3.15,4.73,10.14,7.11,15.73,10.12c6.3,2.97,11.33,7.01,16.81,10.65
				c6.83,4.43,15.49,6.93,23.59,9.93c9.39,3.42,17.76,8.08,26.96,11.77c10.89,4.42,24.34,4.9,34.31,10.6
				c6.87,3.56,13.64,8.83,22.84,8.42C579.59,44.56,585.96,38.62,582.92,33.42z"/>
			<path class="st2" d="M542.26,963.34c10.27-8.18,21.51-15.77,34.03-22.18c5.57-2.72,8.9-7.66,7.07-12.43
				c-1.84-3.17-6.14-6.16-11.33-5.55c-8.01-0.54-12.97,4.62-16.32,9.02c-5.86,7.65-13.96,14.35-23.39,19.87
				c-5.74,3.11-12.79,4.74-18.32,8.1c-6.99,4.63-4.46,16.15,6.85,15.6C531.57,976.33,536.42,968.26,542.26,963.34z"/>
			<path class="st2" d="M544.42,804.62c9.59-2.1,19.7,2.36,29.07-0.66c4.42-1.14,7.24-4.51,7.32-7.78c-0.14-3.55-3.2-6.86-7.92-8.1
				c-6.29-2.39-13.16,0.24-19.19,1.79c-7.44,2.31-15.51,3.1-23.43,4.14c-10.5,1.26-20.13,4.76-30.61,6.11
				c-6.77,1.06-14.23,1.29-20,4.38c-6.94,4.06-4.81,13.48,4.17,15.18c7.52,2.21,14.76-1.35,20.76-4.23
				C516.31,809.47,530.68,807.11,544.42,804.62z"/>
			<path class="st2" d="M522.37,611.28c9.71-8.5,20.43-16.43,31.68-23.89c7.77-5.41,13.8-12.29,15.38-20.05
				c2.13-16.26,12.87-31.75,9.93-48.33c-1.84-9.14,0.51-19.86-9.59-26.98c-12.99-8.76-29.92-14.04-42.36-23.3
				c-11.13-8.16-20.59-17.91-24.49-29.08c-1.8-4.25-3.83-9.39-10.44-10.97c-6.83-2.83-18.59,0.42-17.05,6.84
				c-0.99,5.38,5.01,9.14,9.45,12.81c7.09,5.66,10.4,13.02,16.48,19.16c10.86,11.94,27.77,20.01,43.82,28.04
				c8.11,4.01,13.32,10.4,15.58,17.18c3.04,7.13-0.55,14.42-2.09,21.5c-3.79,12.21-3.33,25.34-12.06,36.54
				c-7.18,10.39-21.57,16.64-31.13,25.76c-6.22,5.95-14.53,11.12-24.77,13.09c-12.71,2.25-26.27-0.14-37.24-4.96
				c-10.68-4.75-22.13-9.8-28.01-18.05c-3.26-4.06-5.59-8.97-11.49-11.48c-6.85-3.31-17.96,0.84-17.43,6.86
				c-1.15,6.07,5.76,10.59,12.08,13.76c11.74,5.62,19.84,14.24,31.8,19.66c16.68,8.39,38.15,9.33,57.79,7.8
				C508.22,621.83,516.23,616.83,522.37,611.28z"/>
			<path class="st2" d="M577.6-32.28c0.83-6.39-5.43-12.45-2.75-18.85c0.73-3.73,3.63-7.52,2.13-11.28
				c-1.72-5.87-12.75-10.15-19.07-5.03c-6.53,3.98-4.74,10.25-3.08,15.46c2.35,6.6-2.76,13.02-1.89,19.64
				c1.46,3.73,5.41,8.13,11.35,8.37C571.12-23.28,575.66-28.28,577.6-32.28z"/>
			<path class="st2" d="M564.25,1173.22c2.53-11.31,15.35-21.18,10.93-33.18c-1.91-8.11-5.15-16.12-5.03-24.4
				c-0.16-6.56,0.57-13.15-0.28-19.68c-1.24-6.52-4.78-12.76-9.65-18.31c-10.84-12.64-23.25-24.58-36.87-35.76
				c-7.95-6.65-19.26-10.56-27.61-16.88c-4.34-3.07-8.13-6.62-13.22-9.08c-5.25-1.18-11.84-0.94-16.09,1.84
				c-4.85,4.24-2.39,11.35,4.46,13.73c9.75,3.53,20.78,6.07,27.93,12.36c9.12,8.01,20.11,14.87,28.23,23.48
				c12,11.17,22.62,23.94,23.59,38.35c0.49,13.69,4.78,27.22,4.07,40.93c-0.93,7.13-2.35,14.86-9.22,20.46
				c-4.24,3.91-9.61,7.9-10.17,13.09c1.5,5.63,11.43,11.22,18.95,7.13C561.53,1184.62,562.71,1178.33,564.25,1173.22z"/>
			<path class="st2" d="M563.74,661.87c6.16-1.08,10.11-6.2,7.82-10.46c-1.26-3.1-5.19-5.44-9.73-5.72
				c-9.19-0.69-18.41,0.9-27.63,0.17c-13.28-0.93-26.68-0.85-39.93,0.38c-14.8,1.69-30.24,0.07-43.92-4.25
				c-5.35-1.68-11.52-2.9-17.25-1.42c-7.1,1.75-10.01,8.8-4.93,12.93c4.6,5.25,14.07,4.54,21.51,4.49
				c12.71-0.62,24.75,3.28,37.46,2.8c17.19,0.65,34.19-2.58,51.36-1.27C546.92,660.19,555.15,663.08,563.74,661.87z"/>
			<path class="st2" d="M565.79-96.34c-3.12-8.86-22.19-10.5-28.27-2.55c-6.1,6.55,1.8,15.28,11.47,16.95
				C559.58-80.85,569.45-89.01,565.79-96.34z"/>
			<path class="st2" d="M556.67,303.26c7.44-7.87-0.81-17.01-0.08-25.52c-0.43-8.24,8.67-15.32,7.31-23.5
				c-1.05-2.34-2.51-4.82-5.51-6.17c-7.5-3.84-18.1,1.68-19.05,7.5c-0.51,6.04,2.33,11.93,1.99,17.98
				c0.67,9.08-7.91,17.21-5.94,26.36C537.21,306.46,551.33,309.03,556.67,303.26z"/>
			<path class="st2" d="M556.1,379.54c-3.27-6.24-13.38-8.42-18.27-13.84c-9.73-10.77-14.31-23.42-17.43-35.91
				c-2.64-11.02-9.28-21.33-11.57-32.4c-1.72-14.21-1.54-28.87,5.21-42.45c3.61-9.18,11.63-16.9,19.01-24.67
				c6.46-6.65,7.66-14.9,8.43-22.73c0.67-6.36,5.96-12.05,5.69-18.49c0.06-3.41-2.08-7.24-6.93-8.41
				c-5.67-2.62-13.58,0.24-15.67,4.51c-2.94,5.31-0.34,11.07-0.61,16.59c0.98,7.74-4.64,14.66-8.76,21.53
				c-7.42,11.94-18.32,22.86-22.82,35.68c-3.48,8.87-3.51,18.11-3.75,27.26c-0.47,18.95,10.2,36.72,15.93,54.96
				c2.68,8.45,4.1,17.41,10.8,24.85c4.88,5.45,10.01,10.8,14.17,16.57c3.2,3.96,7.54,9.03,14.88,8.79
				C553.06,392.28,559.44,385.02,556.1,379.54z"/>
			<g>
				<path class="st2" d="M361.09,953.87c15.2-3.15,31.44-6.2,47.17-3.12c16.84,2.38,31.52,10.91,49.3,9.87
					c15.83,1.04,29.57-5.9,39.99-13.61c11.94-8.41,23.19-17.36,33.12-27.01c9.52-9.43,11.75-21.15,14.59-32.26
					c0.85-3.66,2.35-7.41,1.18-11.08c-2.96-11.81-17.81-18.56-29.23-26.11c-6.65-4.65-15.02-7.83-23.8-9.93
					c-17.6-4.28-35.63-7.63-53.67-10.84c-11.92-2.1-23.43-5.47-35.65-6.63c-12.71-0.53-25.72-0.66-38.04,1.99
					c-20.92,4.18-41.98,8.1-62.69,12.89c-14.88,3.21-31.22,5.18-43.13,12.93c-7.66,5.28-15.3,10.62-22.74,16.08
					c-8.01,6.04-7.42,15.01-5.82,22.67c2.39,9.53,3.12,19.55,9.39,28.32c9.91,13.94,23.23,26.4,36.28,38.88
					c5.67,5.81,15.48,10.13,25.66,8.9C322.8,962.98,341.89,958.15,361.09,953.87z M281.15,938.77
					c-11.39-13.06-23.23-26.25-29.41-41.13c-4.34-10.36-1.2-22.58,9.99-30.18c10.42-7.79,25.26-10.93,38.92-14.72
					c15.89-4.39,32.61-6.93,49.07-9.91c12.85-2.23,25.21-6.59,38.7-6.28c14.98-0.73,28.88,3.8,43.25,5.92
					c25.68,4,51.69,8.97,74.39,18.71c11.68,4.66,19.34,13.34,21.33,22.68c1.19,4.99-1.36,9.91-3.63,14.56
					c-7.16,13.73-21.08,24.78-34.46,35.6c-8.55,6.9-20.33,12.87-33.73,12.76c-14.86-0.87-27.71-7.11-42.24-9.07
					c-20.65-3.48-42.14-0.66-62.16,3.48c-14.07,2.82-26.82,9.05-41.67,9.74C297.52,951.62,287.09,945.76,281.15,938.77z"/>
			</g>
			<path class="st2" d="M543.77-132.82c-4.01-4.27-11.98-6.84-18.95-4.79c-9.38,1.3-12.49,9.41-10.11,15.22
				c4.42,5.28,14.72,8.22,22.5,4.87C545.03-120.06,547.28-127.67,543.77-132.82z"/>
			<path class="st2" d="M534.86,526.77c0.89-3.41,1.6-7.36-0.67-10.53c-3-3.12-7.87-5.91-13.52-5.55
				c-8.61-0.14-14.74,6.18-14.09,11.91c1.68,4.94,7.42,8.97,14.29,10.24C526.55,532.59,531.75,530.08,534.86,526.77z"/>
			<path class="st2" d="M469.49-44.7c13.34,0.44,23.98-7.32,37.31-6.84c6.45-0.09,13.3,0.15,19.14-2.14
				c4.84-1.34,7.56-5.46,6.93-8.94c-1.05-3.12-3.83-6.42-8.74-6.81c-13.29-1.97-23.05,6.61-35.75,7.51
				c-16.62,1.35-32.92,6.45-49.86,4.29c-13.44-1.31-26.92-2.65-39.93-5.46c-5.63-1.52-12.06-0.21-16.19,2.81
				c-7.36,4.32-1.74,14.62,7.9,14.17c12.71,0.36,25.52-0.65,38.13,0.9C442.08-44.32,455.81-44.9,469.49-44.7z"/>
			<path class="st2" d="M443.42,108.65c6.57-3.76,12.71-7.87,18.51-12.21c9.35-7.01,20.98-12.19,30.49-19.09
				c4.98-3.51,9.63-7.43,15.95-9.73c6.28-2.28,13.34-3.32,19.35-5.98c4.93-2.37,7.82-7.62,4.32-11.41
				c-2.17-3.77-7.8-4.98-13.07-4.38c-7.89-0.11-12.23,5.2-16.72,8.99c-7.26,6.86-19.22,9.6-28.09,15.15
				c-7.66,4.85-14.13,10.59-22.42,14.94c-7.84,4.24-14.94,9.14-20.61,14.9c-4.81,5.07-12.26,8.24-19.09,11.77
				c-6.63,3.32-8.76,11.67-1.64,15.36c3.24,2.39,8.71,1.93,12.77,1.07C433.12,123.4,434.24,113.77,443.42,108.65z"/>
			<path class="st2" d="M527.5-28.49c-6.26-8.49-28.11-7.93-30.61,2.18c-3.06,7.59,7.54,14.57,17.9,13.3
				C525.51-12.72,533.32-21.97,527.5-28.49z"/>
			<path class="st2" d="M525.55,553.03c-2.61-3.39-7.56-5.7-12.77-6.53c-10.1,0.28-19.01,8.08-15.02,15.14
				c2.37,5.66,12.49,8.45,19.64,5.58C525.69,565.31,527.26,558.31,525.55,553.03z"/>
			<path class="st2" d="M349.92-195.96c11.51,6.89,27.02,11.18,42.1,9.17c16.7-2.17,30.61-9.5,46.03-14.07
				c14.87-4.26,28.81-9.89,42.64-15.63h-39.92c-6.77,2.53-13.71,4.83-20.74,6.98c-8.73,2.69-17.11,6.13-26.45,7.63
				c-11.33,1.35-23.74,0.63-33.22-4.39c-5.68-2.9-10.48-6.38-14.66-10.22h-23.64c1.88,2.21,3.93,4.35,6.21,6.39
				C334.39-204.59,342.54-200.54,349.92-195.96z"/>
			<path class="st2" d="M517.83,1158.71c5.88-11.81,4.44-24.57,3.52-36.84c-1.86-10.99-4.98-22.08-12.02-32.03
				c-8.25-10.98-20.1-20.25-31.44-29.6c-6.75-5.65-16.27-9-23.69-14.1c-7.1-4.99-8.43-13.62-18.2-16.64
				c-8.31-4.21-21.57,2.78-17.76,9.77c2.27,6.2,11.51,8.35,18.56,11.08c7.32,2.45,11.94,7.38,16.5,11.94
				c8.52,8.83,21.49,14.88,29.86,23.84c12.04,11.41,16.5,25.77,18.87,39.69c1.4,13.01,1.99,27.05-7.36,38.8
				c-7.7,10.17-23.37,14.97-36.91,20.26c-5.62,2.3-11.28,4.58-17.01,6.75h40.06c5.87-2.47,11.68-5.01,17.42-7.59
				C509.4,1177.96,513.45,1167.78,517.83,1158.71z"/>
			<path class="st2" d="M324.44,1162.58c-5.43-9.94-14.31-19.16-15.38-30.07c-1.85-8.42,9.16-15.35,6.36-23.72
				c-1.89-4.99-11.45-7.42-16.91-3.81c-9.71,5.54-6.59,15.55-8.78,23.28c-3.77,12.04,7.31,22.49,13.09,33.15
				c6.13,9.99,11.26,20.84,19.28,30.24h23.64C336.37,1183,330.21,1172.63,324.44,1162.58z"/>
			<path class="st2" d="M511.87-96.14c-6.81-6.79-17.57-10.97-24.14-17.94c-7.36-7.93-18.95-12.86-29.43-18.38
				c-16.03-8.45-33.51-15.38-49.2-24.16c-10.24-5.89-23.25-9.07-36.4-9.15c-12.24,0.16-23.75,3.66-34.36,7.74
				c-16.48,6.3-33.89,11.29-51.81,15.08c-22.76,4.7-46.88,5.3-69.24,11.08c-9.42,2.39-18.28,6.17-28.38,6.94
				c-6.75,0.75-14.88-0.27-20.04,3.72c-5.72,3.66-5.82,12.76,2.57,14.6c8.33,3.14,16.89-1.11,23.9-4.13
				c10.01-4.86,21.71-7.31,33.16-9.82c16.26-3.6,33.47-3.71,49.98-6.51c17.23-2.91,34.19-6.95,49.91-12.79
				c14.43-5.15,29.14-11.55,45.81-11.35c15.95,0.35,28.4,8.25,41,14.24c21.67,10.05,43.03,20.6,61.88,33.28
				c7.54,5.07,7.78,13.46,15.6,18.38c4.3,3.36,12.18,2.65,17.15,0.44C512.97-88.11,512.96-92.41,511.87-96.14z"/>
			<path class="st2" d="M500.74-144.75c1.82-2.41,4.01-5.14,3.36-7.96c-1.2-7.28-13.32-12.26-22.52-8.62
				c-12.1,3.52-10.13,17.87,2.21,20.26C489.66-140.52,497.42-140.55,500.74-144.75z"/>
			<path class="st2" d="M475.3,505.3c7.25-0.35,15.65,1.32,21.89-2.11c4.98-2.38,3.93-7.25,3.24-10.88
				c-2.9-3.69-8.94-6.03-14.84-4.72c-10.38,2.11-19.01,7.94-30.32,7.93c-10.36-0.28-20.84-0.93-30.99-2.62
				c-27.71-5.93-49.76-20.82-65.45-37.71c-4.22-4.82-4.81-10.63-7.54-15.87c-1.82-3.69-6.71-6.67-12.26-6.98
				c-6.59-0.65-12.87,4.13-11.98,8.79c-0.89,5.44,5.31,9.18,9.69,12.96c7.07,5.69,10.12,13.19,16.48,19.23
				c20.73,18.4,50.17,32.42,83.22,36.06C449.85,510.73,461.89,504.41,475.3,505.3z"/>
			<path class="st2" d="M476.28,229.02c5.33-9.45,10.74-18.94,18.14-27.68c2.25-3.15,5.43-6.7,3.98-10.36
				c-2.01-4.31-8.94-8.65-15.51-6.42c-7.3,1.41-9.34,7.22-10.46,11.88c-1.88,9.73-6.57,19.12-12.97,27.8
				c-4.54,5.96-14.12,10.8-12.79,18.31c-0.1,7,13.77,9.74,19.9,4.94C473.3,242.56,472.87,235.11,476.28,229.02z"/>
			<path class="st2" d="M482.48,902.37c7.32-5.86,20.05-12.26,15.45-21.25c-3.49-5.24-14.01-7.17-19.95-2.92
				c-7.45,5.77-5.94,14.56-11.96,20.91c-5.27,5.18-13.58,8.14-19.5,12.89c-3.55,2.73-4.8,6.89-2.96,10.42
				c2.88,4.17,11.23,6.83,16.88,3.75C472.39,920.79,472.69,909.15,482.48,902.37z"/>
			<path class="st2" d="M490.26,578.18c-2.11-4.49-9.39-5.55-14.51-7.69c-14.51-4.52-24.93-13.31-35.73-21.19
				c-8.17-5.73-6.33-15.08-13.72-21.06c-3.61-3.28-10.18-2.59-15.26-2.03c-3.81,1.55-5.35,4.82-5.71,7.79
				c0.2,6.01,6.14,10.79,11.27,15.17c6.04,4.66,10.83,10.04,16.8,14.76c8.45,6.76,20.78,10.4,28.36,17.8
				c4.75,4.37,10.66,9.79,19.42,8.97C489.64,590.39,493.61,583.24,490.26,578.18z"/>
			<path class="st2" d="M486.51,530.32c-2.84-6.93-15.85-9.57-23.69-5.25c-5.62,2.77-5.15,8.36-4.12,12.62
				c2.33,5.98,12.59,7.25,19.93,5.81C486.27,542.05,489.27,535.21,486.51,530.32z"/>
			<path class="st2" d="M484.67,37.3c-0.97-6.94-12.42-13.13-21.67-9.28c-11.55,2.89-11.82,16.55-0.02,19.35
				C472.51,51.61,485.17,44.7,484.67,37.3z"/>
			<path class="st2" d="M474.41,1148.25c-3.85-15.59-10.42-30.85-12.73-46.64c-0.57-4.41-4.58-8.39-10.54-9.78
				c-4.96-2.06-10.92,1.1-13.5,4.15c-3.61,4.93,0.41,10.27,3.52,14.75c5.68,7.52,9.53,15.9,9.73,24.5
				c0.38,5.63-1.01,11.32,0.23,16.92c1.38,4.94,9.55,7.48,15.95,6.1C471.98,1156.21,475,1152.27,474.41,1148.25z"/>
			<path class="st2" d="M468.84,462.74c-1.72-2.08-4.82-3.44-8.11-3.85c-10.62-1.31-21.99-0.79-31.84-4.39
				c-15.85-5.69-27.59-16.46-32.94-28.42c-2.13-4.55-4.62-9.96-11.55-11.79c-6.97-2.7-16.5,1.55-16.72,7.13
				c-1.5,6.38,6.53,10.6,11.94,14.71c10.18,6.77,13.03,17.53,24.28,23.64c10.94,6.46,25.54,7.69,37.74,12.46
				c7.19,2.28,15.91,6.48,23.43,2.49C471.33,472.61,471.01,466.64,468.84,462.74z"/>
			<path class="st2" d="M459.05,280.27c5.47-2.29,6.77-7.97,3.77-11.69c-2.23-2.07-5.19-4.29-9.22-4.03
				c-10.32-0.38-18.41,5.21-28.09,6.9c-10.36,2.73-21.4,0.69-32.08,1.11c-6.61,0.17-13.93,3.08-14.23,8.29
				c-1.34,5.42,6.77,8.91,13.18,9.82c13.72-1.28,25.27-8.45,39.44-8.15C440.87,282.05,451.02,284.12,459.05,280.27z"/>
			<path class="st2" d="M460.67-89.04c-5.25-6.86-21.28-7.7-26.72-0.59c-7.14,6.7,2.94,16.45,13.76,16.12
				C458.16-73.24,466.1-82.69,460.67-89.04z"/>
			<path class="st2" d="M461.18,171.31c-4.12-5.15-12.41-6.91-19.78-8.68c-12.02-2.81-20.67-9.77-31.03-14.6
				c-10.88-5.2-21.45-10.86-29.61-18.24c-11.09-9.69-25.1-18.49-29.86-30.98c-5.51-13.76-5.17-28.42-12.24-41.9
				c-4.44-10.94-15.46-19.77-19.68-30.75c-1.97-4.24-3.95-9.45-10.54-11.12c-7.32-2.89-17.27,2.04-16.1,7.87
				c-0.02,4.7,5.19,8.11,8.74,11.67c8.63,7.31,12.38,16.64,18.1,25.11c6.91,10.5,9.57,22.12,10.05,33.64
				c0.32,8.6,4.76,16.9,11.8,23.83c10.77,10.49,22.05,20.85,35.84,29.46c13.03,7.77,25.98,15.81,41.04,21.56
				c11.07,4.04,17.62,12.84,29.9,15.36C457.06,184.91,465.55,177.29,461.18,171.31z"/>
			<path class="st2" d="M457.63-167.5c1.24-3.38,1.54-7.27-0.43-10.5c-5.88-6.83-23.15-6.94-27.46,1.04
				c-4.16,5.68,1.23,12.62,9.16,14.71C445.92-159.9,453.7-163.36,457.63-167.5z"/>
			<path class="st2" d="M243.65,502.48c7.2-6.41,0.95-14.86,4.66-21.97c5.23-11.42,15.2-21.56,27.28-29.82
				c13.38-9.24,26.43-18.7,39.51-28.15c10.16-7.46,22.07-13.57,34.29-19.18c15.16-6.95,34.56-10.18,52.09-6.31
				c9.81,1.64,17.41,6.96,23.01,12.67c6.22,6.41,5.21,14.63,8.88,21.71c2.23,4.46,9.85,7.14,16.1,5.45c5.8-0.94,8.41-5.67,7.76-9.52
				c-1.58-5.94-7.26-10.69-10.8-16.05c-4.76-6.48-6.95-14.25-14.86-19.31c-8.86-5.34-20.62-6.96-31.64-8.72
				c-6.79-0.86-13.72-2.23-20.65-1.24c-13.7,1.67-27.32,4.35-39.77,8.87c-20.17,7.94-35.61,20.36-51.75,31.82
				c-15.41,11.49-32.67,21.85-45.85,34.78c-6.36,6.12-9.73,13.45-12.44,20.74c-2.39,6.65-7.8,13.14-6.14,20.22
				C225.87,504.3,237.51,507.63,243.65,502.48z"/>
			<path class="st2" d="M457.41,797.79c-1.54-4.46-7.23-7.87-13.72-7.94c-8.65-0.77-16.48,4.53-17.64,10.45
				c0.06,4.28,3.73,8.56,9.34,10.25C445.95,814.91,461.84,806.16,457.41,797.79z"/>
			<path class="st2" d="M416.36,915.76c6.67-5.14,6.85-12.64,11.01-18.73c4.64-8.35,15.42-13.49,23.37-20.05
				c3.96-2.97,5.3-7.87,2.57-11.47c-4.03-5.35-15.14-5.52-20.65-1.34c-6.95,6.53-7.54,15.33-14.47,21.9
				c-6.24,6.72-15.49,11.76-21.36,18.64c-4.24,4.31-1.42,10.25,4.42,12.97C406.27,918.36,412.75,918.95,416.36,915.76z"/>
			<path class="st2" d="M440.12,69.6c3.77-2.89,6.2-7.35,3.81-11.15c-2.74-5.46-11.6-9.73-19.62-7.12
				c-11.27,2.87-13.46,15.45-2.81,19.74C427.29,72.85,435.66,73.37,440.12,69.6z"/>
			<path class="st2" d="M440.65,203.76c-2.19-6.56-14.19-9.49-21.97-5.94c-12.18,4.13-7.76,19.05,5.31,20.14
				C434.99,219.68,444.5,211.14,440.65,203.76z"/>
			<path class="st2" d="M402.01,791.51c5.23-10.41,17.45-17.66,29.37-24.14c5.15-2.68,9.69-6.84,7.5-11.63
				c-2.72-7.17-17.21-7.77-22.81-2.17c-5.45,5.59-9.44,11.88-15.61,17.13c-7.76,7.52-18.85,12.93-26.61,20.43
				c-6.71,6.31,4.3,16.14,14.43,13.17C396.68,803.03,398.67,796.23,402.01,791.51z"/>
			<path class="st2" d="M436.75,24.89c-0.99-3.06-3.16-5.86-5.88-8.31c-12.02-9.94-23.15-21.21-27.04-34.26
				c-1.58-4.36-3.91-9.66-10.86-10.9c-8.41-2.97-18.54,3.58-16.68,9.88c1.5,6.22,9.2,10.07,13.82,15.07
				c8.23,8.86,15.65,18.3,19.17,28.73c1.95,4.72,6.75,10.7,14.75,10.09C431.38,35.69,437.67,29.79,436.75,24.89z"/>
			<path class="st2" d="M434.4,1164.14c-3.77-5.63-10.68-10.22-11.79-16.69c-2.45-10.45-5.5-21-12.65-30.39
				c-4.64-5.8-6.87-12.28-9.35-18.64c-1.5-4.69-7.3-8.48-14.09-8.79c-6.06,0.63-11.98,4.34-11.29,9.03c-0.43,4.8,4.9,8.28,8.77,11.7
				c9.77,7.42,10.66,18.07,15.14,27.27c3.02,8.29,11.33,15.52,10.95,24.39c0.04,5.58,0.95,12.32,8.55,15.39
				c4.86,1.03,10.48,0.45,14.39-1.92C436.11,1172.22,435.98,1167.76,434.4,1164.14z"/>
			<path class="st2" d="M432.84,354.4c-1.88-7.27-13.11-12.95-22.91-9.13c-10.05,4.31-10.32,15.73-0.32,20.16
				C419.48,372.1,435.78,362.84,432.84,354.4z"/>
			<path class="st2" d="M432.94,1072.56c-2.66-6.82-15.73-10.31-23.31-5.21c-8.71,4.59-5.96,14.97,3.87,17.64
				C423.96,1088.51,436.57,1080.32,432.94,1072.56z"/>
			<path class="st2" d="M355.07-69.86c15-5.44,31.32-9.72,43.58-18.24c6.04-4.32,13.58-7.22,20.45-10.76
				c5.49-2.92,5.31-8.51,4.11-12.83c-2.74-3.04-8.41-4.75-13.32-3.58c-5.13,1-8.29,4.39-11.15,7.35
				c-9.42,12.38-28.9,17.76-45.73,23.57c-16.13,3.86-29.96,12.36-47.41,13.17c-5.29,0.52-11.37-0.16-15.79,2.46
				c-7.54,3.42-7.18,13.76,2.15,15.52c8.07,3.1,16.32-1.48,22.96-4.48C326.85-63.96,342.16-64.98,355.07-69.86z"/>
			<path class="st2" d="M422.99,240.39c-3.46-3.84-9.89-5.34-15.38-7.22c-12.93-3.82-21.08-12.64-33.53-17.02
				c-17.51-6.2-34.44-13.38-49.25-22.53c-27.71-15.01-44.23-37.81-70.78-53.68c-11.27-7.48-23.17-14.45-34.58-21.81
				c-10.34-7.18-20.51-14.49-30.73-21.76c-9.16-6.66-19.86-12.09-29.67-18.25c-15.38-8.69-28.09-19.39-42.28-28.99
				c-12.26-9.07-26.01-17.21-36.4-27.5C70.44,11.98,63.78,0.87,54.13-8.92c-9.12-9.77-22.7-16.74-32.79-25.94
				C9.7-43.56-0.43-53.18-10.55-62.78c-6-5.96-14.65-10.32-20.09-16.6c-2.9-3.17-5.07-6.66-8.19-9.74
				c-4.18-4.32-13.34-5.44-19.56-2.76c-4.84,3.42-5.03,9.28-0.47,12.9c6.33,4.93,15.83,7.44,20.92,13.28
				c10.26,10.82,22.09,20.83,33.04,31.29C9.5-20.85,30.31-11.31,43.02,3.25c8.25,8.98,11.23,20.13,21.75,28.13
				c11.11,8.48,23.21,16.27,34.5,24.62c18.91,14.24,38.51,28.05,60.04,40.26c18.08,9.98,32.85,22.53,49.5,33.61
				c13.01,8.1,26.57,15.77,38.43,24.76c12.3,8.25,22.01,18.13,32.8,27.35c17.71,13.67,36.48,27.01,59.18,36.47
				c14.68,5.96,29.94,11.26,43.88,18.11c7.5,3.58,11.84,9.36,17.88,13.97c5.23,4.1,15.65,4.56,21.12,0.54
				C424.57,247.84,424.25,243.81,422.99,240.39z"/>
			<path class="st2" d="M368.93,639.77c6.95-1.72,13.92-3.9,21.42-3.8c6.45-0.24,13.05,0.48,19.38-0.55
				c4.1-2.13,8.56-5.65,7.82-9.46c-1.64-4.25-7.15-7.63-13.34-7.94c-5.76,0.37-10.82,2.63-15.91,4.44
				c-11.61,4.77-25.4,4.56-38.04,7.1c-10.91,2.11-22.78-0.39-33.34,2.96c-4.64,1.27-6.53,5.15-7.03,8.41
				c1.17,4.52,6.91,8.44,13.36,8.73c6.24-0.76,12.04-2.67,17.96-4.14C350.26,643.12,359.87,642.09,368.93,639.77z"/>
			<path class="st2" d="M238.11,1071.68c15.59-11.63,28.13-25.08,41.71-37.88c10.54-9.84,16.24-22.55,30.73-30.04
				c15.28-7.25,33.91-8.81,50.98-12.89c10.15-2.14,19.94-5.95,30.79-5.64c7.48,0.07,15.58,0,21.77-3.39
				c2.88-2.62,3.38-6.42,1.6-9.44c-2.63-3.49-9.2-5.93-14.6-4.36c-9.3,2.17-17.92,5.77-27.69,6.91c-19.36,2.52-37.97,7.14-57,10.69
				c-8.86,1.72-18.08,4.02-24.44,9.02c-5.01,4.12-8.74,8.95-12.67,13.61c-11.09,13.71-24,26.66-38.04,38.91
				c-9.63,8.14-16.22,18.35-29.21,24.23c-6.47,3.35-15.61,9.03-10.48,15.29c2.72,5.61,12.87,5.46,19.13,3.39
				C229.28,1085.5,230.88,1077.12,238.11,1071.68z"/>
			<path class="st2" d="M411.23,313.58c-5.58-7.17-21.28-8.34-28.99-2.24c-3.81,3.29-3.73,8.1-2.33,12.05
				c5.27,6.87,18.45,7.8,27.41,4.39C412.76,324.41,414.15,318.21,411.23,313.58z"/>
			<path class="st2" d="M370.11,677.21c8.19-3.41,18.04-3.07,26.92-4.94c5.56-1.37,10.4-5.27,10.16-9.62
				c0.02-4.24-4.66-7.95-10.81-7.59c-9.83-1.1-17.01,4.48-24.34,8.12c-10.34,5.77-23.82,6.96-35.17,11.32
				c-6.2,2.14-9.69,7.87-6.79,12.46c2.05,5.14,11.88,6.96,17.82,4.18C356.39,687.42,361.59,680.9,370.11,677.21z"/>
			<path class="st2" d="M405.5,699.35c-2.84-6.93-15.77-9.69-23.41-5.08c-9.2,5.11-5.47,17.6,6.53,18.77
				C399.01,714.57,409.71,706.59,405.5,699.35z"/>
			<path class="st2" d="M-93.43-146.72c31.76-4.83,62.94,6.13,94.78,4.21c12.61-0.94,24.79-4.93,37.64-3.84
				c7.93,0.77,15.65,2.62,22.68,5.34c7.5,2.86,12.83,7.73,19.42,11.46c8.35,4.8,15.63,10.43,23.25,15.8
				c15.32,10.7,27.95,23.21,43.43,33.78c19.94,13.66,50.74,10.41,72.95,21.12c26.41,11.31,43.4,30.12,65.63,44.78
				c13.09,8.94,31.7,11.65,45.87,19.45c11.76,6.32,20.07,15.28,25.84,24.84c8.9,13.55,11.8,28.49,17.86,42.71
				c3.4,7.81-0.91,16.38,3.57,23.99c2.55,4.52,10.2,6.76,16.56,5.14c4.72-1.96,7.88-5.87,7.4-9.77c-1.89-7.58-9.28-13.81-10.8-21.47
				c-2.35-10.63-3.4-21.5-8.64-31.7c-6.04-11.94-13.4-23.7-23.77-34.08c-7.62-7.98-20.27-12.19-31.88-16.52
				c-17.39-6.28-31.88-15.74-46.34-24.87c-10.88-6.9-18.18-16.07-28.52-23.3c-6.47-4.66-15-7.36-23.37-9.84
				c-12.63-3.72-24.41-8.93-37.62-11.65c-11.86-2.56-24.77-4.35-34.15-10.6c-12.39-7.25-19.83-17.67-31.58-25.36
				c-11.45-7.79-22.07-16.21-33.97-23.66c-10.74-5.49-21.3-11.23-32.59-16.16c-14.17-5.82-30.59-2.42-45.71-1.2
				c-18.63,1.37-37.58,1.42-56.08-0.97c-11.29-1.6-22.92-0.77-34.24-2.2c-7.25-0.59-14.15-2.39-21.38-3.06
				c-1.73-0.2-3.47-0.14-5.14,0.12v17.81C-99.36-146.27-96.25-146.58-93.43-146.72z"/>
			<path class="st2" d="M402.05,742.2c0.89-3,0.99-6.22-0.32-9.14c-4.88-9.01-27.34-6.18-26.55,3.74
				c-2.01,6.21,5.41,11.11,13.44,11.96C394.13,748.14,399.7,745.94,402.05,742.2z"/>
			<path class="st2" d="M402.01,870.2c1.03-2.94,0.91-6.14-0.57-8.97c-1.92-4.46-8.86-6.24-14.8-6.52
				c-8.8,1.17-17.05,7.32-14.98,14.04c1.44,5.08,8.25,8.14,14.88,9.28C392.89,877.28,399.68,874.73,402.01,870.2z"/>
			<path class="st2" d="M399.94,186.72c-2-5.11-9.52-6.98-15.66-8.83c-16.66-4.42-28.05-14.65-40.7-23.01
				c-16.74-11.26-26.8-26.67-44.39-37.34c-12.69-7-28.12-11.38-39.26-19.84c-14.31-10.93-24.61-24.67-42.22-33.28
				c-11.9-5.46-24.69-10.19-34.72-17.46c-10.62-7.03-19.09-15.45-29.51-22.62c-9.24-7.91-19.74-15.05-28.3-23.37
				c-13.07-12.06-22.66-25.8-36.02-37.71C73.1-51.01,55.39-64.29,38-77.72C29.44-85.18,18.88-91.32,10.65-99
				c-9.71-7.55-16.84-17.55-30.71-21.69c-11.23-3.91-24.14-1.12-35.72-3.97c-8.64-1.84-17.33-5.34-26.65-3.75
				c-8.19,1.83-10.84,10.31-4.5,14.49c6.24,4.76,16.03,3.11,23.96,2.27c13.58-1.8,27.36,1.42,39,6.27
				c13.11,5.62,20.57,15.49,30.4,23.46c20.19,16.59,41.55,32.4,61.56,49.09c19.95,16.63,32.67,37.08,54.04,52.92
				c9.3,8.35,20.61,15.39,30,23.67c8.57,7.04,18.12,13.42,28.56,19.01c12.06,6.89,25.64,12.49,36.26,20.6
				c10.5,7.1,18.81,15.66,29.41,22.7c13.1,9.6,29.59,16.33,43.5,25.27c7.72,4.93,13.7,11,19.94,16.84
				c10.14,9.52,20.96,18.74,33.65,26.6c8.33,4.94,18.39,8.27,26.01,13.83c4.3,3,8.03,6.67,13.62,8.51
				c4.15,0.45,8.49,0.52,12.55-0.27C400.88,195.27,401.59,190.17,399.94,186.72z"/>
			<path class="st2" d="M360.92,1077.63c8.9-6.8,17.8-13.81,28.93-18.79c5.49-2.29,9.91-7.18,7.97-11.73
				c-2.47-6.8-16.6-7.94-21.97-2.5c-5.15,4.32-9.04,9.39-14.82,13.36c-7.8,5.27-13.5,11.93-21.87,16.78
				c-5.37,3.21-11.53,6-15.38,10.29c-1.09,3.39-0.95,7.44,2.37,10.24c4.01,2.89,10.66,3.47,15.34,1.02
				C350.87,1091.86,353.57,1083.39,360.92,1077.63z"/>
			<path class="st2" d="M392.1,1176.66c-2.39-4.6-7.44-8.02-11.51-11.86c-4.36-4.05-6.14-9.11-8.49-13.84
				c-3.14-6.82-7.76-13.36-8.65-20.59c-1.04-4.39-0.79-9.01-3.08-13.18c-3.65-6.15-20.21-6.28-21.75,1
				c-2.88,8.55,6.73,15.56,9,23.56c2.49,7.91,6.3,15.6,12.37,22.49c6.32,7.05,4.14,17.96,15.95,22.2
				C384.23,1190.2,395.91,1183.04,392.1,1176.66z"/>
			<path class="st2" d="M272.43-86.66c11.05-1.03,21.36-4.2,31.7-6.97c14.31-4.11,29.17-7.51,42.2-13.53
				c8.65-4.05,18.71-5.77,28.44-7.96c5.78-1.18,9.77-5.32,8.88-9.62c-0.08-3.54-3.77-7.34-9.26-6.85
				c-13.03-1.49-20.04,8.17-31.03,11.07c-27.32,7.82-53.82,18.62-83.71,20.35c-10.26,0.72-19.88-4.72-29.98-2.97
				c-8.94,1.08-11.86,10.71-4.36,14.3c5.78,4.01,14.17,2.75,21.28,1.9C255.22-88.11,263.82-85.62,272.43-86.66z"/>
			<path class="st2" d="M371.51,607.72c6.71-8.04-1.34-17.31,1.44-25.8c2.65-9.87,8.59-19.36,8.33-29.54
				c0.26-7.2-1.66-14.56,1.24-21.57c1.9-5.1,4.64-10.83,1.32-15.88c-5.17-6.15-18.4-4.01-21.52,2.31
				c-2.05,7.82,2.92,15.56,1.25,23.42c-2.23,10.91-5.76,21.78-5.53,32.89c0.14,6.67-2.55,13.15-5.92,19.33
				c-1.9,4.14-5.08,8.77-1.56,12.97C353.81,611.86,366.44,613.24,371.51,607.72z"/>
			<path class="st2" d="M286.27,633.77c2.73-6.27-4.22-11.57-8.62-16.43c-5.94-5.87-5.82-13.45-9.77-19.93
				c-2.47-4.41-6.79-8.11-11.51-11.38c-8.57-5.93-15.63-13.11-19.48-21.22c-5.13-10.29-5.23-21.5-10.79-31.71
				c-6.59-11.98-20.37-21.05-27.22-32.95c-5.74-9.62-9.39-20.7-4.14-30.87c6.24-12.26,18.1-22.6,30.45-32.02
				c16.66-12.06,33.62-23.91,50.13-36.08c9.73-8.04,20.11-15.69,30.85-23.05c9.69-6.63,22.74-9.7,35.04-13.02
				c10.58-2.97,22.52,0.22,32.94-3.2c4.7-1.68,8.55-5.32,8.15-9.16c-0.69-5.14-7.9-9.28-15.08-8.34
				c-8.35,1.31-14.62,6.04-22.91,7.53c-10.64,1.96-22.17,1.56-32.18,5.2c-10.9,3.92-20.33,9.76-28.09,16.46
				c-8.63,7.88-19.52,14.3-28.23,22.16c-16.2,12.35-33.57,23.91-50.11,36.03c-18.24,13.02-33.22,29.85-34.6,48.67
				c3.16,20.09,21.2,36.54,33.12,54.28c7.7,10.73,10.86,22.66,15.1,34.22c2.17,6.11,5.72,12.11,11.68,16.86
				c9.73,7.83,18.97,16.18,24.93,25.81c3.55,5.66,3.47,11.93,4.4,17.98c0.65,5.23,6.99,9.16,13.84,10.33
				C279.22,639.27,283.64,636.88,286.27,633.77z"/>
			<path class="st2" d="M373.33,905.19c-6.55-7.88-16.38-14.39-20.76-23.19c-3.42-5.81-3.89-13.09-11.21-17.3
				c-5.86-3.73-17.01-2.1-19.05,3.64c-3.51,5.6,2.88,10.52,8.11,14.11c10.09,6.88,16.38,16.16,18.53,25.96
				c1.11,5.76,6.36,12.45,15.56,12.34C374.67,920.16,378.62,910.71,373.33,905.19z"/>
			<path class="st2" d="M369.62,253.19c-7.36-6.45-20.88-4.31-30.59-7.73c-26.25-9.38-47.21-24.47-70.33-37.12
				c-15.14-9.21-24.67-21.9-36.87-32.89c-5.55-4.97-12.69-8.8-19.36-12.94c-8.17-5.11-10.89-14.28-22.16-16.79
				c-8.51-2.89-18.14,4.48-14.85,10.52c3.1,7.9,16.11,9.35,23.55,14.52c15.12,10.11,26.86,22.43,38.21,34.72
				c9.38,10.22,24.46,16.4,37.5,23.91c11.81,6.53,21.99,14.48,34.43,20.46c10.6,5.21,23.62,7.01,34.26,12.19
				c6.41,3.23,14.39,5.35,22.19,3.63C370.63,262.79,373.84,257.3,369.62,253.19z"/>
			<path class="st2" d="M366.11,757.11c-5.33-9.61-29.71-7.22-29.41,3.63c-1.6,7.24,7.82,14.25,18.08,12.73
				C365.36,772.73,371.28,763.52,366.11,757.11z"/>
			<path class="st2" d="M361.66-38.33c-1.58-10.45-24.63-13.03-30.3-3.44c-5.07,5.77,0.89,13.7,9.51,15.47
				C350.91-23.33,363.6-30.87,361.66-38.33z"/>
			<path class="st2" d="M361.51,288.49c-4.84-6.08-15.87-5.84-24.42-5.72c-11.86,0.56-23.17-2.63-33.58-6.36
				c-8.41-3.11-14.92-8.11-22.16-12.35c-6.79-4.52-15-8.21-19.74-14.09c-4.48-4.68-8.25-11.38-17.27-12.03
				c-9.26-1.07-16.78,6.34-12.75,12.36c6.49,7.72,19.84,10.07,28.23,16.43c10.28,7.66,18.93,16.66,31.3,22.73
				c12.04,5.52,27.2,3.11,40.09,6.83c7.46,1.99,15.06,5.46,23.35,3.96C361.03,298.35,363.91,293.09,361.51,288.49z"/>
			<path class="st2" d="M357.72,714.95c-3.77-4.18-11.94-7.98-18.77-5.03c-7.99,2.45-12.83,10.17-7.76,15.67
				c4.24,6.08,16.97,7.13,23.82,2.8C359.22,724.7,359.12,719.37,357.72,714.95z"/>
			<path class="st2" d="M177.59,418.8c16.56-11.66,35.9-21.32,50.65-34.27c11.29-8.36,21.93-17.17,32.61-25.92
				c8.23-6.58,13.74-14.55,21.49-21.35c6.1-5.44,16.24-6.93,25.4-7.77c10.95-0.46,21.34,2.66,32.01,3.86
				c7.95,1.21,16.68-4.28,16.32-9.94c-2.17-4.77-9.42-8.73-16.64-7.52c-10.8,1.25-21.89,1.62-32.74,0.38
				c-8.21-0.76-17.19-1.89-24.89,0.99c-8.87,2.83-13.48,9.26-18.69,14.7c-15.42,16.8-33.89,31.99-53.2,46.53
				c-11.82,11.31-28.92,18.77-42.87,28.57c-7.6,5.32-18.59,8.38-23.71,15.36c-4.26,5.72,2.45,14.15,12.06,12.86
				C167.7,434.41,170.03,424.09,177.59,418.8z"/>
			<path class="st2" d="M352.03,797.95c-2.44-7.41-16.7-8.45-24.41-4.69c-7.99,4.66-6.95,16.18,4.11,18.22
				C343.25,815.03,355.98,806.31,352.03,797.95z"/>
			<path class="st2" d="M322.7,599.18c-3.49-10.15,2.92-20.01,4.54-29.99c3.91-16.5,3.32-33.33,7.14-49.83
				c1.5-9.27,16.6-15.49,11.8-25.56c-2.78-3.46-8.55-6.4-14.27-4.62c-9.06,1.9-10.38,9.59-10.64,15.29
				c-0.38,10.27-9.4,19.22-9.45,29.51c-0.24,6.59,0.43,13.18-0.18,19.78c-1.19,10.46-6.04,20.5-7.76,30.92
				c-1.42,8.33-5.17,16.66-3.43,25.13c1.11,5.51,11.9,8.96,18.16,5.35C326.13,611.71,323.47,604.44,322.7,599.18z"/>
			<path class="st2" d="M193.4-148.65c22.6-5.72,45.38-11.46,69.18-14.07c11.05-1.18,21.87-3.3,32.12-6.49
				c10.09-3.46,21.93-0.48,31.94-3.98c4.22-1.89,8.31-5.32,7.54-9.08c-0.87-3.79-4.78-7.87-10.88-7.03
				c-11.57-1.17-19.36,6.28-29.92,7.97c-11.07,1.78-22.5,2.25-33.55,4.2c-16.6,2.94-33.54,5.18-49.56,9.6
				c-15.26,4.39-31.05,7.74-46.62,11.52c-11.65,2.75-27.22-0.75-35.9,6.89c-2.07,3.82-2.38,9.62,3.36,12.01
				c7.06,3.72,16.26,1.1,22.87-1.83C165.92-144.39,180.33-145.24,193.4-148.65z"/>
			<path class="st2" d="M328.88,920.33c-3.14-6.63-12.77-9.89-17.86-15.58c-6.34-5.99-5.73-13.82-8.45-20.7
				c-2.35-4.44-9.79-8.8-16.62-6.49c-6.85,1.32-8.92,7.32-7.09,11.7c3.28,7.83,13.46,12.91,17.27,20.59
				c3.59,6.14,4.32,13.64,11.68,18.31c3.75,2.18,9.38,4.21,13.9,2C326.59,928.37,330.52,924.33,328.88,920.33z"/>
			<path class="st2" d="M319.21,738.59c-4.07-6.24-15.22-6.49-23.57-6.42c-10.03,0.4-19.32-2.61-28.86-4.36
				c-23.82-4.61-49.07-5.09-72.12-11.74c-8.59-2.55-18.18-4.23-25.01-9.01c-5.09-3.45-10.11-7.34-16.95-8.98
				c-5.27-1.21-10.84,1.15-13.86,4.18c-0.91,3.53-1.88,8.27,2.59,10.84c7.8,4.2,18.35,4.08,26.41,7.91c7.18,3.28,13.26,7.9,21.41,10
				c8.86,2.28,18.28,3.11,27.55,4.07c21.22,1.9,41.81,6.18,62.93,8.48c11.6,1.1,21.41,8.66,33.59,6.14
				C320.17,748.61,320.89,742.54,319.21,738.59z"/>
			<path class="st2" d="M286.46,560.79c-2.17-7.08-7.6-13.67-7.5-21.08c0-12.5,4.15-24.91,11.39-36.27
				c5.15-7.86,7.34-17.15,16.96-23.08c6.53-4.42,13.68-10.83,9.38-17.57c-3.22-4.68-12.41-5.94-17.9-2.59
				c-7.97,4.38-8.11,12.2-12.25,18.22c-4.98,7.32-10.82,14.35-14.63,22.07c-4.7,9.63-13.12,18.75-12.63,29.33
				c-0.38,8.73,5.72,17.12,3.37,25.88c-1.72,5.75,0.65,13.48,9.51,15.38C280.52,573.1,288.4,566.48,286.46,560.79z"/>
			<path class="st2" d="M-10.47,845.07c14.78-12.46,29.65-25.53,50.1-33.45c19.78-8.05,39.93-15.98,61.78-20.76
				c19.01-4.28,39.71-2.21,58.33-7.55c16.5-4.09,30.73-13.52,49.09-12.94c21.87-0.92,41.63,7.08,63,8.76
				c11.23,0.75,21.1,4.98,31.96,6.67c9.08,1.08,16.94-5.83,13.28-11.91c-1.54-3.48-6.51-5.81-11.53-5.84
				c-9.32-0.42-18.91,0.69-27.99-1.31c-23.74-5.18-48.04-9.5-72.85-10.87c-12.53-0.35-24.08,3.76-34.34,8.47
				c-10.96,5.14-23.78,7.82-36.75,8.83c-13.97,1.02-27.71,3.21-41.27,5.77c-15.18,2.73-28.99,8.16-42.99,13.01
				c-19.96,7.63-39.3,16.6-54.91,28.43c-6.24,4.46-12.89,8.76-17.39,14.26c-4.52,5.56-9.95,10.69-16.03,15.43
				c-5.43,4.07-6.38,11.86,0.55,15.36c3.36,2.44,9.44,2.1,12.75-0.18C-16.75,860.27-17.56,851.03-10.47,845.07z"/>
			<path class="st2" d="M313.27,663.98c-4.19-5.44-13.74-5.86-21.46-5.63c-16.78,0.73-32.04-4.89-47.41-8.77
				c-17.09-5.07-35.41-7.28-52.98-11.29c-16.22-3.39-31.98-8.04-48.83-9.67c-11.94-0.94-20.92-7.58-32.47-9.19
				c-4.84,0.92-10.52,2.56-11.9,6.42c-2.37,4.62,2.58,9.18,8.35,10.93c9.63,2.72,20.43,0.98,30.02,3.8c11,3.03,22.44,5,33.83,7.04
				c24.93,5.25,49.72,10.88,74.25,17.01c9.79,2.45,20.01,3.72,30.04,5.48c10.68,1.86,20.53,7.45,32.05,5.59
				C313.21,673.89,315.46,668.37,313.27,663.98z"/>
			<path class="st2" d="M313.7,705.62c0.38-2.1,0.59-4.38-0.81-6.3c-4.09-4.7-12.71-5.9-19.88-4.98c-9,1.35-17.82-1.03-26.35-2.78
				c-15.85-3.39-32.31-5.21-47.82-9.41c-11.39-3.1-22.99-5.76-34.72-8.18c-10.56-2.13-18.34-8.31-28.88-10.42
				c-4.95-0.11-10.11,1.83-12.81,4.83c-0.77,3.59-0.97,8.03,3.22,10.67c6.08,3.46,14.29,3.32,21.61,4.03
				c7.76,0.66,14.51,3.62,21.4,5.97c9.83,3.49,20.45,5.56,30.83,7.95c16.27,3.42,32.61,6.89,49.5,8.35
				c10.01,0.8,18.77,4.55,28.32,6.44C303.75,713.19,312.71,710.84,313.7,705.62z"/>
			<path class="st2" d="M305.43,83.86c-3.26-7.77-14.27-11.76-19.6-18.61c-6.95-8.66-11.49-18.21-14.76-27.87
				c-3.06-8.05-0.32-16.52-2.88-24.61c-1.27-4.59-3.63-9.05-7.52-12.86c-9.65-9.39-21.38-17.55-32.96-25.7
				c-7.7-5.31-16.95-9.48-23.33-15.74c-4.56-4.34-10.38-9.7-19.03-8.78c-7.5,0.18-12.14,6.9-8.51,11.39
				c4.13,7,16.39,7.94,23.35,13.05c11.03,7.62,22.01,15.3,32.63,23.22c14.39,10.97,21.4,26.1,21.14,40.99
				c0.04,6-0.83,12.28,2.61,17.95c4.64,9.14,16.68,15.07,21.26,24.23c3.04,4.55,4.76,10.66,12.08,12.69
				C297.54,96.21,307.11,89.27,305.43,83.86z"/>
			<path class="st2" d="M302.93,811.9c-1.97-6.06-11.21-8.39-19.05-8.13c-14.59,0.42-27.57-5.12-41.75-6.6
				c-11.8-0.96-21.12-8.03-33.3-7.33c-5.63-0.17-10.15,3.8-10.8,7.52c-1.28,4.53,4.38,9.38,10.9,9.17c9.44,0.3,19.09-0.1,28.16,2.14
				c15.75,3.94,31.66,7.6,46.72,12.8C292.68,824.9,305.57,819.38,302.93,811.9z"/>
			<path class="st2" d="M285.46-197.26c7.7-0.24,13.05-6.79,10.22-11.77c-1.43-2.78-3.76-5.16-6.28-7.46h-22.9
				c1.67,4.37,2.72,8.88,4.81,13.16C273.32-199.27,279.52-196.68,285.46-197.26z"/>
			<path class="st2" d="M280.48,1182.83c-4.36-5.96-7.08-12.6-7.1-19.34c-0.3-3.86,0.53-8.22-3.26-11.38
				c-3.55-3.37-10.15-4.08-15.54-2.89c-6.45,2.82-7.99,8.86-5.43,13.67c4.9,9.67,12.99,18.42,17.19,28.3
				c0.06,0.14,0.11,0.29,0.17,0.44h22.86C286.25,1188.78,282.83,1186.05,280.48,1182.83z"/>
			<path class="st2" d="M175.69,1069.44c15.79-11.9,29.45-25.11,43.5-38.02c13.16-11.96,25.86-24.21,36.26-37.5
				c3.91-4.74,5.47-10.46,3.95-15.88c-3-7.66-11.19-13.48-17.16-19.99c-7.95-8.78-20.35-15.36-25.48-25.4
				c-2.86-5.07-8.78-10.86-17.55-9.46c-6.36-0.43-9.36,4.33-10.25,8.08c0.38,6.27,7.82,10.25,13.8,14.07
				c8.57,5.25,14.23,12.32,21.83,18.19c5.55,4.29,10.99,8.99,12.99,14.81c3.26,7.41-2.78,14.78-8.55,20.7
				c-10.4,9.52-20.47,19.22-30.55,28.94c-10.8,10.49-22.92,20.25-33.65,30.78c-5.78,5.91-15.71,8.44-22.76,13.37
				c-4.95,3.08-5.6,9.45-0.59,12.66c3.61,3.11,10.13,2.66,15,1.73C165.57,1082.61,168.67,1074.75,175.69,1069.44z"/>
			<path class="st2" d="M177.88,371.16c5.11-7.39,15.91-11.25,22.58-17.73c8.71-7.89,17.09-15.94,25.9-23.77
				c9.89-8.7,15.63-19.25,22.03-29.36c2.9-4.64,5.25-9.97,2.86-14.98c-2.49-5.94-13.56-9.24-20.41-4.7
				c-9.14,6.38-1.17,16.08-6.47,23.53c-11.43,18.42-33.04,32.19-47.98,49.06c-5.74,7.16-16.42,10.73-24.91,15.89
				c-3.3,3-7.05,7.56-3.53,11.23c2.63,3.79,8.56,6.67,14.59,5.11C171.37,383.42,173.41,376.13,177.88,371.16z"/>
			<path class="st2" d="M243.87-209.08c-3.02-4.98-12-8.63-19.32-6.2c-8.52,2.01-12.51,9.87-9.44,15.63
				c2.79,6.17,14.33,10.27,22.31,6.31C245.09-196.44,245.63-203.62,243.87-209.08z"/>
			<path class="st2" d="M-58.3,1061.58c4.66-5.61,10.8-10.53,14.61-16.48c7.68-12.56,13.26-25.69,18.69-38.79
				c4.42-10.79,13.72-20.64,27-26.83c8.92-4.05,19.15-6.69,27.02-11.83c25.48-18.07,41.96-42.34,72.16-57
				c13.98-7.05,27.93-14.22,43.11-19.91c14.72-5.58,26.72-13.97,40.92-20.11c11.33-4.86,20.11-11.98,28.33-19.24
				c6.55-5.8,17.8-6.66,25.46-11.36c4.89-2.58,3.85-7.5,2.96-11.22c-6.89-7.12-21.1-3.63-27.18,2.27
				c-6.95,6.77-16.74,11.56-24.81,17.57c-5.9,4.22-11.67,8.57-17.74,12.69c-10.17,6.79-23,10.94-34.66,16.21
				c-22.7,10.29-46.78,19.49-66.51,32.71c-15.63,13.27-30.81,26.8-46.6,39.98c-13.22,9.56-28.74,17.36-44.61,24.53
				c-6.77,3.06-12.04,7.7-14.76,13.09c-3.93,7.72-7.12,15.64-11.78,23.19c-8.41,13.76-13.42,28.57-24.06,41.64
				c-4.66,5.84-13.05,9.5-18.32,15.01c-4.19,4.48-2.05,11.02,4.72,13.54c5.07,0.72,11.19,0.56,15.06-2.18
				C-64.04,1073.78-62.94,1067.08-58.3,1061.58z"/>
			<path class="st2" d="M-35.11-214.35c7.88,2.15,16.25-0.07,24.04-1.27c2.5-0.48,5.03-0.73,7.58-0.87h-35.75
				C-38.22-215.51-36.91-214.73-35.11-214.35z"/>
			<path class="st2" d="M173.5-211.01c6.33,0.65,10.75-2.21,14.49-5.47h-24.3C165.01-213.36,168.41-210.84,173.5-211.01z"/>
			<path class="st2" d="M1.53,1191.47c19.78,0.97,38.82-4.1,56.15-10.36c9.95-3.45,19.74-7.34,27.79-12.8
				c17.61-11.2,27.55-27,44.19-38.81c8.52-6.45,19.14-11.6,31.07-14.22c15.55-2.87,32.92,0.66,44.09,8.86
				c5.59,4.59,7.66,10.8,8.35,16.73c-0.49,11.14-11.55,19.66-20.23,28.19c-6.14,6.35-17.35,8.07-25.42,12.73
				c-4.18,2.26-5.23,6.34-3.8,9.84h24.25c3.46-2.96,6.38-6.32,10.32-8.93c6.18-4.07,13.84-7.07,18.69-12.08
				c5.37-5.42,6.87-12.12,10.09-18.22c2.68-5.89,7.03-11.89,5.51-18.25c-1.91-7.38-9.26-13.07-15.63-18.7
				c-9.97-9.31-26.59-14.97-43.01-14.52c-14.78,1.52-31.34,2.13-42.81,9.89c-12.02,8.3-26.37,15.19-35.31,25.52
				c-8.45,9.62-16.36,20.16-30.55,26.14c-17.88,7.76-38.04,12.88-58.44,16.07c-11.58,1.95-23.11-0.66-34.62-1.39
				c-7.56-0.4-13.8,3.56-14.8,8.84c0.74,1.92,1.77,4.02,3.49,5.63h34.84C-2.35,1191.47-0.42,1191.39,1.53,1191.47z"/>
			<path class="st2" d="M230.41,33.18c-2.41-4.58-8.06-7.62-12.69-11.03c-5.39-3.73-9.42-8.28-13.86-12.56
				c-10.3-10.34-24.65-18.08-36.3-27.56c-9.85-8.28-15.53-18.43-21.81-28.19c-4.76-7.42-12.93-13.22-20.98-18.84
				c-14.82-11.5-29.92-22.8-44.29-34.58c-8.33-7.26-19.97-12-28.82-18.87c-3.87-2.84-7.26-6.05-11.7-8.47
				c-3.95-2.51-10.05-2.31-14.67-0.9c-5.62,1.84-5.92,7.31-3.97,10.94c4.72,6.08,15.33,7.04,22.42,11.14
				c24.5,15.43,43.86,34.37,67.29,50.55c19.42,14.31,27.14,34.3,45.85,48.99c5.09,3.87,10.21,7.73,14.94,11.83
				c7.5,6.38,16.64,11.63,24.24,17.93c7.22,6.08,8.31,15.57,18.91,19.56C223.54,45.48,232.82,39.31,230.41,33.18z"/>
			<path class="st2" d="M230.33,613.26c-3.06-4.21-9.28-6.46-15.55-7.36c-26.49-4.51-52.05-11.39-78.54-15.84
				c-9.83-1.72-19.82-7.35-30.16-4.05c-8.39,2.03-8.68,10.93-1.68,14.19c5.88,3.93,14.43,2.43,21.67,2.73
				c9.97-0.32,18.99,3.07,28.38,4.89c13.82,3.06,28.27,4.68,41.71,8.56c8.88,2.55,15.38,9.93,25.93,8.69
				C229.24,624.09,233.13,617.93,230.33,613.26z"/>
			<path class="st2" d="M183.75,312c3.73-6.14,2.31-13.21,6.37-19.28c5.35-8.17,11.57-16.14,14.37-25
				c3.41-8.66,2.82-17.71,5.15-26.49c1.7-7.75,3.97-15.9,0.75-23.57c-3.46-6.1-11.29-10.14-15.51-15.93
				c-4.3-5.6-6.16-12.84-14.49-16.32c-3.83-1.01-8.23-0.8-12.14-0.04c-6.42,2.27-6.87,8.69-4.02,12.83
				c6.12,6.42,17.74,9.28,22.28,16.62c6.69,8.69,6.89,18.94,5.15,28.51c-3.87,15.08-10.26,29.82-19.09,43.81
				c-3.65,5.65-10.13,10.22-12.75,16.22c-0.65,3.49-1.44,7.77,2.17,10.65C167.15,319.16,180.37,317.76,183.75,312z"/>
			<path class="st2" d="M208.89,893.46c-2.78-3.44-7.7-6.76-13.72-5.99c-8.96-0.06-15.81,6.46-14.52,12.59
				c0.53,6.93,12.87,11.52,21.1,7.83C209.68,905.82,211.36,898.53,208.89,893.46z"/>
			<path class="st2" d="M107.5,1098.72c-0.28-11.14,2.43-22.29,7.7-32.77c5.6-10.69,19.05-17.57,29.76-25.52
				c11.8-7.67,20.69-17.21,30.02-26.36c7.5-7.38,12.55-16.09,22.34-22.21c5.88-4.1,13.56-10.41,9.18-16.5
				c-3.06-3.11-8.63-5.48-14.03-4.17c-6.45,0.7-9.18,5.48-11.29,9.31c-2.54,5.22-6.06,10.22-11.13,14.45
				c-10.56,9.12-18.44,19.6-28.46,28.99c-8.35,8.59-20.76,14.31-31.32,21.32c-12.02,7.8-17.07,19.47-18.49,30.69
				c-0.85,7.65-5.23,14.69-8.47,21.91c-3.65,6.27,6.43,14.17,15.47,11.25C104.99,1107.86,107.95,1103.01,107.5,1098.72z"/>
			<path class="st2" d="M128.6-173.68c11.41-2.79,22.7-6.49,34.8-7.24c9.65-0.82,20.25,3.66,28.99-0.83
				c5.09-2.03,4.26-6.69,3.63-10.15c-1.34-3.31-6.89-4.53-11.11-5.3c-6.08-0.06-11.75,1.9-17.62,2.81
				c-8.31,1.83-17.14,0.54-25.58,1.78c-12.95,1.73-21.99,9.7-34.74,11.86c-7.93,1.73-18.77,1.63-22.46,8.07
				c-5.25,6.37,5.82,14.53,15,11.98C110.78-163.12,117.45-171.06,128.6-173.68z"/>
			<path class="st2" d="M194.58,577.33c2.88-5.67-3.39-10.69-7.72-14.95c-7.13-6.55-9.63-14.8-14.43-22.19
				c-8.33-12.43-16.84-24.84-23.9-37.67c-3.28-5.67-7.36-11.48-14.47-15.18c-6.14-3.25-13.13-5.56-19.62-8.42
				c-8.67-3.55-16.58-8-25.56-11.17c-14.33-4.63-30.35-5.39-45.87-5.08c-13.08-0.41-27.57-0.79-38.35-6.8
				c-11.86-7.52-13.85-19.64-23.35-28.39c-6.39-5.77-13.76-11.65-23.82-14.07c-7.44-1.96-15.47-3.34-21.71-7.04
				c-5.74-3.01-11.27-7.55-19.07-7.1c-11.63-0.9-16.22,11.84-7.46,16.24c7.68,4.21,18.14,2.47,26.82,4.75
				c16.17,4.25,30.18,13,37.27,24.3c7.03,9.82,10.86,22.76,26.9,27.19c18.08,4.05,37.39,4.25,56.18,5.07
				c10.99,0.84,21.57,3.43,31.38,7.01c13.16,4.72,27.2,9.11,37.11,17.16c7.7,6.2,11.47,14.15,14.88,21.93
				c6.91,16.08,24.36,29.1,27.81,46.07c1.2,6.41,6,13.24,15.71,14.58C187.99,582.72,193.42,581.04,194.58,577.33z"/>
			<path class="st2" d="M186.27,810.52c-2.74-6.73-14.86-8.98-23.03-6.11c-5.58,2.79-9.53,8.22-6.32,12.97
				c2.79,7.03,15.59,11.53,24.06,6.47C187.34,821.01,187.48,815.21,186.27,810.52z"/>
			<path class="st2" d="M28.33-195.13c-18.08,1.11-36.16,2.36-54.36,1.9c-10.22,0.32-19.72-2.77-29.63-4.06
				c-6.35-0.8-15.04,0.16-17.11,5.3c-3.93,6.53,6.12,12.9,15.04,12.03c11.43-0.93,23.04-1.54,34.46-0.31
				c12.26,1.44,24.73,0.96,36.97-0.23c15.4-0.69,31.34-1.15,45.51-5.93c12.4-4.15,23.8-9.64,35.94-14.14
				c11.53-4.7,24.33-8.77,33.31-15.92H95.46c-7.2,3.15-14.85,5.87-22.03,9C59.62-201.48,44.46-196.73,28.33-195.13z"/>
			<path class="st2" d="M129.11,1191.08c14.68-12.95,22.17-31.07,44.19-39.05c5.9-2.09,10.25-6.17,10.78-10.9
				c-0.28-6.9-11.84-9.69-19.26-6.33c-7.82,4.42-11.82,11.22-18.87,16.18c-7.01,5.01-13.01,10.7-18.16,16.77
				c-8,9.55-18.86,18.08-32.25,23.88h32.85C128.63,1191.44,128.88,1191.27,129.11,1191.08z"/>
			<path class="st2" d="M119.9,1009.97c3.12-8.53,11.47-15.21,18.16-22.37c8.01-7.8,13.4-17.52,25.56-22.63
				c6.47-2.67,12.52-6.88,12.91-12.52c-1.09-5.3-9.83-10.55-17.14-7.32c-8.11,2.08-10.77,8.46-14.82,13.28
				c-5.52,7.93-16.24,13-22.85,20.38c-6.75,6.8-10.46,14.83-16.86,21.79c-5.33,5.66-13.7,11.54-10.7,19.05
				c1.86,5.22,11.09,4.79,16.78,3.51C116.99,1020.21,117.63,1014.49,119.9,1009.97z"/>
			<path class="st2" d="M-60.7,47.5c10.66-4.05,23.15-1.74,33.45,1.68c21.79,7.55,48.28,6.55,67.78,17.7
				c17.7,10.82,32.33,24.01,50.57,34.43c11.45,7.83,23.47,15.24,36.2,21.98c8.15,4.1,12.34,10.88,19.92,15.36
				c5.01,3.3,13.72,3.21,18.53-0.2c2.47-2.79,2.8-6.42,1.17-9.46c-2.25-4.89-9.62-6.66-15.32-8.96c-7.62-2.69-13.58-7.12-19.7-11.22
				c-11.15-7.57-23.41-14.28-34.24-22.09c-18.04-11.03-33-24.38-51.42-35.11C38.02,47,27.6,45.25,17.4,44.42
				c-16.46-1.46-32.2-5.56-47.15-10.56c-8.06-2.45-16.64-5.44-25.64-4.16c-10.01,1.92-17.83,7.04-25.13,12.04
				c-7.57,4.62-15.32,9.17-21.8,14.61v20.55c5.92-4.24,11.75-8.53,16.94-13.24C-77.82,57.83-70.48,51.52-60.7,47.5z"/>
			<path class="st2" d="M166.46,916.27c-3.42-8.69-22.62-9.63-27.89-1.52c-6.26,6.57,2.31,16.03,13.05,15.59
				C161.66,930.87,170.17,923,166.46,916.27z"/>
			<path class="st2" d="M134.78,280.01c16.4-7.87,19.11-22.91,23.65-35.5c1.76-6.08,8.07-11.94,6.14-18.26
				c-1.74-5.28-11.13-9.56-17.69-5.53c-9.49,4.63-5.74,13.56-6.81,20.43c-1.52,7.98-4.58,16.36-12.02,22.63
				c-8.43,6.73-22.19,5.04-33.44,4.91c-12.61-0.17-22.7-8.14-35.49-6.65c-4.56,1.73-8.51,4.93-9.47,8.63
				c1.09,4.6,6.55,8.62,13.14,9.07c8.59,0.68,17.12-1.98,25.58-0.35C103.4,281.62,120.25,285.41,134.78,280.01z"/>
			<path class="st2" d="M158.58,334.61c-3.1-5.03-10.42-7.55-15.79-11.15c-7.77-4.79-10.97-12.62-20.17-16.36
				c-12.69-5.18-27.87-4.48-41.92-5.63c-9.65-0.76-17.75-6-27.75-5.29c-6.31-0.41-11.98,3.87-11.21,8.35
				c-0.89,5.37,7.13,8.75,13.62,9.45c8.08,0.08,16.17-2.08,24.2-0.44c16.11,2.62,33.83,5.21,45.65,14.13
				c7.62,6.13,6.75,18.19,20.61,19.56C155.54,349,162.92,340.53,158.58,334.61z"/>
			<path class="st2" d="M157.24,740.04c-1.26-3.56-5.29-6.31-10.21-7.28c-9.47-2.69-22.56,3.39-20.55,11.04
				c-0.97,7.21,11.47,10.65,19.8,9.19C154.59,752.17,159.96,745.65,157.24,740.04z"/>
			<path class="st2" d="M86.76,873.73c7.52-3.24,15.79-5.49,23.17-8.9c8.35-3.58,15.85-8.48,25.48-10.22
				c6.93-1.58,15.28-2.14,19.82-6.72c2.66-2.11,3.28-5.2,1.95-7.82c-1.16-4.34-8.03-5.69-13.4-5.08
				c-7.26,0.42-12.02,4.76-17.23,7.85c-7.85,4.99-18.49,6.46-27.49,10.05c-10.07,3.7-17.96,9.97-28.64,12.9
				c-5.94,1.83-12.63,2.9-17.53,6.11c-4.4,2.54-3.91,7.11-3,10.69c2.88,3.25,8.68,6.18,14.21,4.66
				C73.79,884.78,78.19,877.38,86.76,873.73z"/>
			<path class="st2" d="M108.25,235.83c3.71-12.31,16.11-21.84,23.31-33.05c5.68-8.42,6.41-18.42,15.1-25.78
				c5.68-4.53,10.15-10.89,6.1-16.88c-5.09-5.91-18.08-4.79-21.97,1.29c-3.98,7.32-3.14,15.62-8.11,22.76
				c-7.94,11.64-16.62,23.02-23.94,34.86c-3.57,5.91-10.3,10.35-15.51,15.49c-3.79,3.27-3.53,7.91-2.33,11.83
				c3.49,3.45,10.2,6.04,15.83,3.48C104.92,247.78,106.38,241.04,108.25,235.83z"/>
			<path class="st2" d="M148.89,452.97c-2.15-5.48-9.55-8.74-17.09-9.52c-8.96-0.1-19.46,5.76-15.79,12.73
				c3.04,8.69,19.44,12.32,29.25,7.2C148.54,460.57,151.46,456.56,148.89,452.97z"/>
			<path class="st2" d="M138.14,564.85c0.65-2.6,0.71-5.39-0.79-7.83c-6.04-7.39-20.23-5.73-30.4-6.86
				c-31.14-4.04-59.47-16.35-91.52-17.32c-13.54,0.11-26.21,4.03-38.68,7.36c-6.12,1.82-13.29,3.71-16.34,8.28
				c-4.38,5.63,1.72,14.25,11.43,13.33c12.14-1.06,16.76-11.46,28.44-13.39c14.7-3.76,30.26-0.58,44.43,2.79
				c16.66,3.89,33.58,7.11,50.57,10.15c9.39,1.56,17.45,5.51,26.31,8.07C127.71,571.38,135.17,568.94,138.14,564.85z"/>
			<path class="st2" d="M69.37,840.09c9.93-3.66,20.03-7.1,29.35-11.52c8.35-4.04,18.83-4.07,27.83-6.93
				c5.23-1.45,7.99-5.99,6.87-9.73c-1.6-3.58-6.22-6.38-11.39-6.94c-8.19,0.94-14.31,5.3-20.86,8.55c-7.38,3.77-16.5,5-24.46,7.99
				c-9.49,3.32-17.01,9.18-27.36,11.29c-5.57,1.48-12.18,1.95-16.32,5.31c-3.06,2.49-6.02,6.14-3.55,9.45
				c1.89,5.28,11.25,7.35,17.49,4.59C54.94,848.62,60.9,843.12,69.37,840.09z"/>
			<path class="st2" d="M81.07,441.33c11.29-1.97,19.86-8.11,26.65-14.5c8.63-8.33,17.05-17.43,18.89-27.96
				c0.63-5.93,0.47-11.93-0.73-17.81c-1.81-8-3.31-16.3-8.96-23.49c-5.9-7.75-15.77-13.9-27.48-16.78
				c-10.2-2.41-19.32-6.55-29.25-9.41c-7.99-2.59-17.07,2.67-18.39,8.33c2.15,7.58,13.54,9.98,23.03,10.07
				c16.54,0.03,31.76,8.1,38.45,18.67c5.83,8.03,4.5,17.35,3.99,26.05c-1.98,9.72-8.17,19.14-17.88,26.15
				c-12.61,8.17-32.47,10.18-47.69,4.62c-7.03-2.31-16.98-4.91-23.29-0.32c-7.09,4.07-2.9,12.7,4.99,14.62
				c8.17,2.59,16.93-0.13,25.34,0.06C59.5,440.2,70.29,443.55,81.07,441.33z"/>
			<path class="st2" d="M59.08,1143.91c4.8-7.07,1.64-15.17,2.27-22.68c1.3-15.3-9.2-30.1-4.76-45.41
				c2.09-12.59,11.82-23.72,14.09-36.26c1.1-11.73-0.45-23.48,0.45-35.22c1.83-11.46,8.09-22.61,18.24-31.62
				c7.1-6.27,12.63-13.43,20.84-19.01c4.62-3.39,9.93-6.35,13.74-10.25c1.58-2.81,1.62-6.33-0.08-9.09
				c-2.37-2.77-6.55-5.04-11.35-4.23c-7.88,0.51-11.84,5.97-14.55,10.6c-5.39,9.55-17.03,16.09-25.28,24.27
				c-6.69,6.64-13.99,13.32-16.94,21.39c-4.24,10.44-1.14,21.38-2.54,32.04c-1.66,10.53-2.55,21.25-7.11,31.41
				c-3.79,9.62-11.01,18.85-10.16,29.13c-0.26,10.07,5.37,19.6,6,29.63c0.36,6.36,1.4,12.91-1.15,19.15
				c-1.38,3.84-3.73,7.54-4.3,11.56c0.89,2.89,2.49,5.82,5.54,7.93C47.83,1148.01,55.99,1148.33,59.08,1143.91z"/>
			<path class="st2" d="M113.17,720.78c4.54-5.55-0.57-11.87,0.16-17.77c0.61-6.97,2.05-13.9,2.57-20.87
				c0.85-7.98,7.62-15.88,4.18-23.86c-3.99-6.27-17.67-6.22-21.49,0.13c-3.77,7.17,1.84,14.74-0.22,22.09
				c-1.99,8.93-2.09,18.12-6.04,26.8c-1.72,4.57-4.16,9.95-0.51,14.38C95.99,727.37,109.95,726.75,113.17,720.78z"/>
			<path class="st2" d="M114.86,143.37c-2.9-4.08-9.4-5.63-14.65-7.76c-6.46-2.17-11.51-5.84-16.62-9.31
				c-15.69-10.39-32.61-19.84-47.98-30.5C25.43,88.16,13.23,81.78-0.54,77.85c-11.9-3.46-25.11-3.08-37.31-5.84
				c-6.99-1.09-14.68-4.15-21.57-1.11c-8.43,2.03-9.33,10.8-3.57,14.91c6.65,2.79,14.8,1.39,22.03,0.87
				c14.13-2.31,28.01,2.28,40.44,6.6c15.75,6.69,28.28,16.49,41.57,25.38c11.35,6.97,23.03,13.67,35.03,20.08
				c7.68,4,11.86,10.27,18.44,15c4.16,3.09,10.83,2.9,16.14,1.83C116.13,153.03,118.3,147.41,114.86,143.37z"/>
			<path class="st2" d="M112.79,519.45c-3.99-4.62-11.31-6.72-18.38-8.01c-11.33-2.15-20.94-7.25-32.11-9.72
				c-10.14-2.31-20.76-3.32-31.3-4.31c-9.91-0.87-20.08,0.38-29.86-1.34c-5.59-0.75-11.21-2.28-16.95-1.58
				c-5.82,1.44-12.79,4.86-11.76,9.88c0.04,3.21,2.09,6.74,6.47,8.08c5.92,2.41,12.77,0.51,18.81-0.55
				c9.39-2.1,19.34-1.44,28.98-0.87c16.06,1.43,32.17,3.75,47.15,8.22c10.05,2.79,16.11,10.24,26.76,12.11
				C109.16,531.91,116.5,525.28,112.79,519.45z"/>
			<path class="st2" d="M105.17,748.65c-2.09-6.24-12.51-11.45-21.22-8.38c-11.84,2.34-12.53,15.76-1.77,19.42
				C92.44,764.55,107.5,757.1,105.17,748.65z"/>
			<path class="st2" d="M22.75,329.55c-0.06-8.07-7.48-15.39-5.69-23.63c3.2-15.07,1.97-31.19,12.16-45.06
				c6-9.03,16.29-16.15,22.4-25.15c8.68-12.5,17.76-24.87,26.02-37.53c3.75-5.87,10.28-10.41,15.75-15.42
				c2.8-2.38,3.44-5.73,1.96-8.62c-1.78-5.47-10.54-7.45-17.11-4.98c-6.44,2.37-8.29,7.73-10.17,12.29
				c-1.93,5.21-5.37,10.04-9.28,14.63c-11.86,13.97-20.86,29.05-32.23,43.23c-6.31,8.02-15.81,14.71-20.58,23.37
				c-4.01,7.63-4.24,15.88-5.78,23.88c-1.78,9.96,0.47,20.05-1.5,30.02c-0.91,5.52-2.81,11.43-0.04,16.81
				C4.08,340.93,22.18,337.91,22.75,329.55z"/>
			<path class="st2" d="M72.64,394.46c2.67-5.73,10.34-11.17,7.25-17.56c-2.47-4.58-10.21-6.52-16.27-4.38
				c-6.87,2.93-7.64,9.04-10.46,13.84c-2.53,4.88-7.96,8.87-9.36,14.07c-0.16,5.28,7.22,10.28,14.77,8.56
				C68.54,407.95,69.35,399.79,72.64,394.46z"/>
			<path class="st2" d="M69.17,687.75c1.44-8.7-1.92-17.56,0.85-26.2c6.43-20.15,4.56-40.91,4.83-61.38
				c-0.27-6.94,5.69-13.67,2.92-20.53c-1.66-3.48-5.92-6.06-10.92-6.8c-6.61,0.52-13.1,4.15-13.38,9.18
				c-0.16,5.72,3.54,11.05,3.91,16.76c1.11,8.49-2.15,16.85-1.91,25.34c0.1,5.39-0.16,10.8-1.28,16.15
				c-1.6,8.35,0.63,16.91-2.05,25.18c-1.96,7.36-7.94,14.25-6.5,21.98c-0.22,2.96,2.96,5.3,6.46,6.53
				C58.59,697.08,68.48,693.1,69.17,687.75z"/>
			<path class="st2" d="M65.93,716.3c-4.6-8.25-23.41-8.39-28.13-0.23c-6.2,8.11,7.76,19.12,19.7,15.5
				C65.97,729.61,69.49,721.82,65.93,716.3z"/>
			<path class="st2" d="M58.73,155.69c-1.09-2.72-3.38-5.36-7.24-6.39c-8.61-2.73-18.56-3.7-25.72-8.44
				c-9.59-6.29-19.48-12.36-29.25-18.51c-7.46-4.63-11.43-11.46-19.13-15.93c-2.96-1.98-7.36-1.36-11.05-1.38
				c-5.68-0.07-7.91,4.74-9.08,7.98c1.5,5.93,8.75,9.28,15.46,12.05c11.66,4.74,17.82,13.67,27.67,19.84
				c8.76,5.76,20.53,8.46,29.25,14.26c5,3.04,10.11,7.2,17.37,6.63C54.45,166.83,60.84,160.46,58.73,155.69z"/>
			<path class="st2" d="M56.5,759.83c-5.29-6.41-16.3-8.1-23.71-12.86c-9.71-6.21-17.69-13.76-28.34-19.21
				c-6.08-3.23-12.75-5.84-18.61-9.27c-7.58-4.58-9.75-12.95-19.58-15.7c-8.9-3.63-20.21,4.76-16.14,11.12
				c4.12,7.52,16.44,9.22,24.4,14.01c14.09,8.24,27,17.49,42.16,24.77c8.82,3.84,11.78,11.28,18.33,16.56
				c3.71,3.21,10.19,3.48,15.46,2.56C56.95,770.04,59.44,764.11,56.5,759.83z"/>
			<path class="st2" d="M-25.46,955.46c4.36-4.49,6.93-9.83,12.16-13.88c4.48-3.42,10.05-5.96,14.76-9.17
				c9.04-5.73,16.13-13.07,26.63-17.54c5.11-2.54,11.78-4.59,13.64-9.21c0.57-2.62,0.87-5.48-0.75-7.91
				c-2.98-3.49-9.97-3.94-15.1-3.02c-6.55,2.41-9.93,7.34-14.05,11.45c-8.93,9.55-24.08,14.59-34.8,22.91
				c-5.65,4.44-12.4,8.03-18.57,12.07c-6.08,4.14-8.49,13.18-0.02,16.56C-36.53,960.54-28.87,959.06-25.46,955.46z"/>
			<path class="st2" d="M37.14,361.18c-4.17-5.73-15.12-8.02-22.31-3.66c-6.93,2.89-6.65,9.25-4.99,14.14
				c2.78,2.8,6.91,5.21,11.72,5.84c4.6,0.09,8.92-1.56,12.5-3.46C38.62,370.79,39.45,365.27,37.14,361.18z"/>
			<path class="st2" d="M3.62,227.14c1.2-13.32,11.62-25.38,25.76-33.78c6.08-3.07,6.28-8.79,4.68-13.49
				c-5.13-4.62-16.27-4.37-21.2,0.32c-2.84,2.94-4.38,6.39-6.41,9.66c-4.11,7.34-13.5,12.37-17.41,19.8
				c-4.38,8.08-10.94,16.39-8.43,25.36c3.08,3.35,10.1,6.56,15.29,3.63C2.12,236.58,3.46,231.52,3.62,227.14z"/>
			<path class="st2" d="M32.14,572.68c-1.76-3.35-6.55-5.44-11.05-6.65c-9.67-1.79-18.99,4.82-19.19,11.54
				c1.46,7.21,14.19,13.37,23.37,8.56C32.56,583.73,33.88,577.73,32.14,572.68z"/>
			<path class="st2" d="M-6.58,627.99c10.19-4.27,22.94-3.06,33.16-7.14c5.63-2.27,6.99-7.38,5.53-11.53
				c-2.07-5.32-11.76-5.98-18.04-4.6c-9.45,3.27-16.05,9.64-25.66,12.8c-9.3,3.44-20.39,3.35-29.53,7.06
				c-6.61,2.59-6.99,8.76-4.76,13.32c4.36,4.44,14.01,4.87,19.72,1.55C-19.55,635.69-14.14,630.84-6.58,627.99z"/>
			<path class="st2" d="M-16.14,673.45c7.36-3.31,14.35-7.31,22.84-9.03c7.11-1.73,15.34-2.27,20.84-6.25
				c4.38-2.61,3.53-7.25,2.45-10.77c-3.26-5.38-13.3-6.03-19.42-2.82c-7.66,3.86-12.99,9.97-22.09,12.41
				c-11.49,3.18-22.64,6.97-33.08,11.67c-17.18,7.93-37.48,10.55-57.72,11.19v13.98c8.72-0.17,17.39-0.94,25.92-2.5
				C-55.26,687.49-34.45,682.02-16.14,673.45z"/>
			<path class="st2" d="M-38.99,1156.37c-0.26-6.17-4.26-11.96-3.97-18.18c0.1-16.29,1.64-33.87,15.63-47.5
				c8.71-9.63,23.21-15.87,30.49-26.2c9.56-13.12,13.98-27.74,17.51-42.19c1.95-8.33,13.03-15.29,9.28-24.19
				c-2.66-3.45-8.1-5.81-13.66-4.53c-4.13,1.75-8.13,4.43-8.92,7.98c-2.11,7.04-2.01,14.41-5.74,21.21
				c-6.1,11.69-7.78,24.61-17.35,35.32c-11.61,13.16-27.32,24.3-37.94,37.95c-8.73,13.08-8.9,27.95-8.43,42.15
				c0.59,6.41-3.43,12.57-2.65,18.96c0.39,5.7,9.34,9.32,16.66,8.08C-43.61,1163.27-40,1160.06-38.99,1156.37z"/>
			<path class="st2" d="M-73.63-38.98c8.13,8.65,19.42,15.64,26.23,24.94c5.23,6.61,8.41,14.15,15.75,19.8
				c8.15,5.91,20.29,7.63,28.7,13.33c5.49,3.15,10.32,8.48,18.32,7.8c7.26,0.25,13.3-5.49,10.89-10.41
				C22.53,8.33,8.54,8.37-0.39,4.63c-18.1-7.86-27.51-21.99-38.8-34.19C-52.06-43.73-69.9-55.5-79.79-71.03
				C-86.23-81.3-94.17-91-102.32-100.61v27.45c2.98,4.3,5.96,8.61,9.58,12.66C-86.36-53.33-80.32-46-73.63-38.98z"/>
			<path class="st2" d="M26.36,693.69c-2.19-6.97-14.61-12.46-23.68-8.14c-10.32,4.11-9.51,16.8,1.95,19.67
				C15.29,709.26,27.7,701.62,26.36,693.69z"/>
			<path class="st2" d="M26.38,866.94c-2.15-3.7-7.7-6.21-13.1-6.9c-9.55,0.48-18.2,7.34-15.24,14.31c2.11,6.33,13.5,9.31,21.16,6.1
				C26.24,878.13,27.82,871.86,26.38,866.94z"/>
			<path class="st2" d="M18.6,397.97c-2.13-8.25-18-11.35-25.98-5.49c-8.8,4.93-5.29,16.94,5.82,18.7
				C9.4,414.19,22.29,406.18,18.6,397.97z"/>
			<path class="st2" d="M12.76,1146.96c-5.53-11.8-5.07-24.97,1.22-36.57c1.5-3.52,4.2-7.31,2.35-11
				c-2.37-5.65-12.73-7.83-18.93-3.92c-6.36,4.44-5.49,11.45-5.55,17.29c0.39,12.74-1.34,25.46-3.67,38.07
				c-1,6.45,7.15,12.74,16.44,10.79C13.77,1160.61,15.82,1152.2,12.76,1146.96z"/>
			<path class="st2" d="M14.59,778.29c-6.87-8.84-24.49-6.94-32.11-15.14c-5.15-5.35-8.33-12.14-16.76-15.45
				c-3.97-0.69-8.98-1.08-12.2,1.16c-7.05,3.62-5.49,11.29-0.39,15.5c6.69,4.22,15.89,5.39,23.35,8.7
				c8.07,4.21,10.85,11.79,19.02,15.95c4.74,2.45,11.43,2.46,16.15,0C16.07,786.47,15.5,781.84,14.59,778.29z"/>
			<path class="st2" d="M-9.05,172.75c-3.12-5.8-10.93-9.15-16.72-13.47c-15.89-12.42-31.5-25.36-42.06-40.52
				c-4.42-6.36-2.66-13.9-6.81-20.31c-4.38-6.08-18.99-6.43-22.82,0.18c-4.16,5.59,2.25,11.15,6.69,15.47
				c7.82,6.63,9.32,15.55,15.24,22.92c8.7,10.8,21.69,19.33,32.57,28.95c6.46,5.48,6.87,14.29,16.26,17.9
				C-17.54,188.15-4.91,179.5-9.05,172.75z"/>
			<path class="st2" d="M-26.2,373.15c2.8-6.66,11.01-11.03,15.3-17.08c1.75-3.21,1.87-6.98-0.02-10.15
				c-3.04-3.32-9.75-5.94-14.78-3.05c-10.8,3.98-8.65,13.66-12.04,20.66c-2.88,7.22-13.9,10.45-17.96,17.12
				c-1.14,3.55-1.95,8.25,2.45,10.9c4.4,3.41,12.57,3.34,17.01,0.01C-28.45,387.09-29.15,379.33-26.2,373.15z"/>
			<path class="st2" d="M-18.23,902.98c2.27-2.82,4.68-6.14,3.77-9.46c-1.18-8.15-16.17-12.76-24.53-6.74
				c-8.62,5.14-7.18,15.35,2.01,19.66C-30.63,907.54-21.88,907.65-18.23,902.98z"/>
			<path class="st2" d="M-16.41,586.57c-2.86-5.86-12.99-10.86-21.35-7.2c-12.02,3.24-12.36,17.66,0.06,20.7
				C-26.6,604.71-12.27,594.78-16.41,586.57z"/>
			<path class="st2" d="M-24.64,797.88c-3.49-6.8-16.84-8.84-24.32-4.15c-4.62,2.39-4.24,6.9-3.83,10.52
				c0.44,4.8,7.05,8.08,13.09,9.14C-28.45,814.59-19.93,804.86-24.64,797.88z"/>
			<path class="st2" d="M-96.06,381.21c18.28-9.73,26.15-25.56,38.29-38.72c8.05-9.87,20.27-18.33,23.88-29.8
				c4.64-14.49,5.09-29.46,5.35-44.23c-0.43-8.8-5.78-16.84-10.7-24.73c-6.77-10.81-6.75-22.84-9.87-34.29
				c-1.8-6.76-1.42-13.87-4.97-20.36c-1.99-4.06-7.82-6.28-13.42-7.04c-6.65,0.49-11.76,5.14-11.86,9.77
				c1.82,7.19,9.47,12.83,11.07,20.11c3,12.01,5.51,24.15,11.19,35.73c5.51,11.22,12.56,22.88,9.83,35.06
				c-2.74,11.66-2.47,24.04-10.16,34.81c-5.15,8.02-14.02,14.35-20.51,21.78c-7.11,7.72-11.11,16.87-20.33,23.56
				c-1.3,1.07-2.66,2.1-4.05,3.1v18.68C-100.17,383.5-98.05,382.38-96.06,381.21z"/>
			<path class="st2" d="M-100.59,508.62c-0.55-8.07,4.18-15.77,3.69-23.83c-1.12-8.59-3.49-17.07-5.42-25.58v64.39
				C-99.88,518.98-100.77,513.46-100.59,508.62z"/>
			<path class="st2" d="M-66.43,578.55c1.44-5.77-0.34-11.6-0.22-17.4c1.16-17.67,16.32-33.26,16.4-51.05
				c0.73-7.38,2.6-14.69,4.99-21.88c1.34-4.67,3.69-9.56,1.4-14.28c-2.43-6.62-7.36-12.6-9.47-19.28c-1.6-4.2-2.17-8.81-5.9-12.39
				c-3.87-2.87-10.3-3.97-15.51-2.39c-4.26,1.31-5.8,4.99-5.92,8.05c1.5,7.42,11.55,11.93,13.9,19.12c5.84,15.04,0.3,30.6-3.3,45.55
				c-3.12,13.94-12.12,26.92-13.18,41.13c-0.42,6.62-4.72,12.57-7.24,18.83c-1.89,4.42,0.49,9.48,5.74,12.18
				C-77.54,586.47-68.56,584.01-66.43,578.55z"/>
			<path class="st2" d="M-64.52,999.52c2.09-8.33-1.75-16.6-2.78-24.85c-1.15-13.6-4.9-27.37-0.89-40.93
				c2.29-7.52,3.1-15.28,1.36-22.9c-2.76-12.89-0.63-25.89-1.06-38.85c0.06-11.38-1.58-23.46,6-33.92
				c3.42-4.47,5.03-9.72,3.12-14.69c-3.51-5.33-15.14-6.69-20.09-1.74c-6.43,4.83-4.12,11.95-4.5,17.98
				c0.69,9.46-3.36,18.66-3.75,28.08c-0.16,21.16,0.3,42.34-0.16,63.51c-2.31,14.26-3.2,28.84,0.99,42.99
				c2.21,6.28-0.1,12.62-0.93,18.91c-0.65,4.03,1.08,9.13,7.07,10.61C-74.42,1006.01-67.4,1003.24-64.52,999.52z"/>
			<path class="st2" d="M-63.96,618.28c1.74-2.39,3.97-5.03,3.39-7.8c-1.3-6.48-12.04-12.46-20.88-9.04
				c-5.66,1.55-10.28,5.53-9.71,10.05c-0.55,4.45,4,8.15,8.86,10.48C-76.02,622.75-67.44,622.92-63.96,618.28z"/>
			<path class="st2" d="M-62.32,647.12c-0.83-2.34-2.53-4.52-4.93-6.21c-4.22-3.41-11.47-2.42-17.09-1.94
				c-5.25,2.51-9.61,6.93-8.57,11.66c1.36,5.63,9.55,9.69,17.43,8.77C-67.28,658.92-61.65,652.6-62.32,647.12z"/>
			<path class="st2" d="M-79.38-212.39c5.02,0.19,9.46-1.51,12.36-4.09h-23.12C-87.67-214.1-83.92-212.44-79.38-212.39z"/>
			<path class="st2" d="M-64.57,1180.94c-2.84-7.48-18-9.2-24.95-3.66c-4.6,4.04-4.97,10.26-0.76,14.35h23.21
				C-63.68,1188.76-62.2,1184.78-64.57,1180.94z"/>
			<path class="st2" d="M-80.82,10.55c6.89-4.6,16.42-10.41,12.22-17.98c-1.95-6.04-12.06-7.25-18.83-4.9
				c-7.38,3.96-7.85,11.1-12.14,16.5c-0.8,1.07-1.75,2.05-2.75,3v20.11C-94.87,21.91-88.82,15.57-80.82,10.55z"/>
			<path class="st2" d="M-76.16,798.3c1.4-8.83-0.44-17.83,1.91-26.63c1.28-11.6-0.47-23.33,2.6-34.84
				c0.87-6.43,4.86-12.71,3.48-19.23c-1.56-3.66-6.31-6.31-11.39-7.21c-6.47,0.06-12.1,3.94-13.28,8.39
				c-0.49,4.42,1.76,8.68,2.72,13c1.81,5.83-0.79,11.7-1.44,17.52c-2.01,8-1.13,16.12-1.38,24.19c-0.02,7.08-4.74,13.49-7.17,20.22
				c-1.64,3.79,1.96,7.73,6.16,9.86C-87.53,807.27-78.86,802.79-76.16,798.3z"/>
			<path class="st2" d="M-79.45,282.42c6.51-1.46,9.35-6.74,7.46-11.21c-3.47-5.84-13.4-6.41-20.94-4.94
				c-3.11,0.54-6.24,0.86-9.38,1.03v12.93C-94.71,281.32-87.29,283.69-79.45,282.42z"/>
			<path class="st2" d="M-86.09,316.45c5.82-2.07,8.07-7.15,6.18-11.43c-2.13-3.21-6.91-5.08-11.57-5.86
				c-3.7,0.14-7.28,0.77-10.84,1.48v15.85C-96.92,317.16-91.45,317.4-86.09,316.45z"/>
			<path class="st2" d="M-88.28,175.77c7.64-2.41,7.99-9.48,6.43-14.49c-2.7-3.39-7.22-7.11-13.24-6.76
				c-2.54-0.23-5.02,0.17-7.23,0.98v20.01C-98.05,177.16-92.79,177.51-88.28,175.77z"/>
			<path class="st2" d="M-95.82,250.77c4.52-2.31,9.42-6.24,7.94-10.49c-1.64-4.48-5.15-8.41-8.15-12.46
				c-3.04-3.97-4.57-8.34-6.28-12.66v35.66C-100.17,251.14-97.92,251.14-95.82,250.77z"/>
			<path class="st2" d="M-90,1041.86c4.01-2.61,3.33-6.96,2.35-10.35c-3.49-5.96-10.36-10.46-14.67-16.08v28.78
				C-97.94,1045.07-93.05,1044.46-90,1041.86z"/>
			<path class="st2" d="M-94.69,1140.98c3.34-10.79,0.33-21.91,3.14-32.74c0.71-3.92,1.7-8.07-0.41-11.84
				c-1.43-3.09-5.88-5.07-10.35-5.2v67.21C-98.57,1152.91-95.68,1147.17-94.69,1140.98z"/>
			<path class="st2" d="M-93.94-196.24c-1.27-3.04-4.52-5.1-8.38-6.16v19.77C-95.27-184.64-90.59-191.12-93.94-196.24z"/>
			<path class="st2" d="M-102.32-39.79v1.5C-102.27-38.78-102.28-39.28-102.32-39.79z"/>
		</g>
	</g>
</g>
</svg>
