<?xml version="1.0" encoding="utf-8"?>
<!-- Generator: Adobe Illustrator 23.0.2, SVG Export Plug-In . SVG Version: 6.00 Build 0)  -->
<svg version="1.1" id="Capa_1" xmlns="http://www.w3.org/2000/svg" xmlns:xlink="http://www.w3.org/1999/xlink" x="0px" y="0px"
	 viewBox="0 0 1080 1920" style="enable-background:new 0 0 1080 1920;" xml:space="preserve">
<style type="text/css">
	.st0{fill:#1B75BB;}
	.st1{opacity:6.000000e-02;}
	.st2{clip-path:url(#SVGID_2_);fill:#FFFFFF;}
</style>
<rect class="st0" width="1080" height="1920"/>
<g class="st1">
	<defs>
		<rect id="SVGID_1_" class="st1" width="1080" height="1920"/>
	</defs>
	<clipPath id="SVGID_2_">
		<use xlink:href="#SVGID_1_"  style="overflow:visible;"/>
	</clipPath>
	<path class="st2" d="M787.1,1368.4c193.4-154.6,529.6-323.9,408.1-561c-92.2-138.4-370-189.3-526.9-77
		c-196.6,152.4-157,384.4-315.9,552.1c-139.2,136.9-358.6,214.9-514.9,340.3c-93.8,72.2-126.7,181.8-78.2,275.1
		c76.1,110.1,296.6,180.4,445.7,99C520.7,1854.8,528.5,1547.3,787.1,1368.4z"/>
	<path class="st2" d="M-51.9,1276.6C124.2,1140.9,129,942.7,238.9,782C361.4,561.6,646,425.8,856.1,252.5
		c104.7-78.4,140.1-207.8,67.8-303C817.5-191.9,524-196.3,378.6-85.8C195.1,86.7,179.5,319.1-3.5,492.4
		c-164.7,177.4-409.2,310.5-564,492.3c-112.1,113.7-37.6,270.7,116.8,342.4C-318.3,1345.1-147.3,1360.6-51.9,1276.6z"/>
</g>
</svg>
