<?xml version="1.0" encoding="utf-8"?>
<!-- Generator: Adobe Illustrator 23.0.1, SVG Export Plug-In . SVG Version: 6.00 Build 0)  -->
<svg version="1.1" id="Capa_1" xmlns="http://www.w3.org/2000/svg" xmlns:xlink="http://www.w3.org/1999/xlink" x="0px" y="0px"
	 viewBox="0 0 1920 1080" style="enable-background:new 0 0 1920 1080;" xml:space="preserve">
<style type="text/css">
	.st0{opacity:0.06;}
	.st1{fill:#FFFFFF;}
</style>
<g class="st0">
	<g>
		<path class="st1" d="M82.82,10.12c5.32-0.58,11.52-4.04,12.5-10.59c0.1-0.84,0.12-1.67,0.16-2.51H71.29
			C72.58,3.34,77.02,8.85,82.82,10.12z"/>
		<path class="st1" d="M412.72,39.2c9.74,8.11,11.89,23.78,22.58,30.64c7.02,5.17,16.69-2.23,16.47-11.26
			c-0.89-7.81-5.45-14.28-11.28-18.27c-9.3-6.64-16.3-16.28-23.91-25.03c-5.6-5.96-11.02-12.16-16.51-18.26h-28
			c0.53,0.52,1.05,1.03,1.6,1.53C387.65,10.92,398.44,27.2,412.72,39.2z"/>
		<path class="st1" d="M1222.19,23.55c-2.45,25.39-13.77,47.96-20.2,72.12c-2.9,11.3-11.44,18.6-17.92,27.17
			c-5.14,6.47-3.31,17.83,3.75,21.44c6.44,4.06,15.21-0.18,17.97-7.64c3.72-9.52,3.29-20.7,8.47-29.6
			c5.22-9.34,11.29-18.25,14.35-28.88c6.48-21.77,11.29-44.33,12.64-67.3c0.29-4.63,0.33-9.25,0.18-13.84h-19.05
			C1222.75,5.86,1222.68,14.74,1222.19,23.55z"/>
		<path class="st1" d="M124.26,15.87c-6.86,1.58-15.18,2.12-19.35,9.46c-5.96,8.16,0.75,22.8,10.31,20.97
			c6.4,0.58,11.02-5.1,15.67-9.12c10.27-9.87,24.08-12.57,35.14-21c9.4-7.1,19.23-13.4,29.31-19.15h-37.3
			c-4.64,3.13-9.25,6.29-13.83,9.5C138.05,10.81,131.45,14.53,124.26,15.87z"/>
		<path class="st1" d="M823.03,31.17c6.55,6.08,12.93,14.02,21.89,14.98c8.56,1.19,16.42-3.72,23.33-8.81
			c17.99-13.5,39.53-21.19,61.17-20.92c12.27,0.22,24.27-2.95,36.45-4.12c11.39-0.98,21.98,4.56,32.24,9.38
			c6.63,2.34,17.28,2.89,19.86-6.36c2.95-7.61-2.14-15.7-8.55-18.29H921.8c-11.65,2.65-23.82,1.8-35.13,6.36
			c-12.72,4.62-22.02,17.86-35.92,19.03c-8.06-0.29-15.85-4.79-21.18-11.59c-3.52-4.34-6.68-9.07-9.85-13.79h-25.45
			C804.18,8.08,812.05,21.33,823.03,31.17z"/>
		<path class="st1" d="M311.49,3.83c9.18,12.69,20.05,23.61,30.15,35.35c12.33,14.28,25.13,27.99,37.83,41.88
			c15.86,16.82,32.32,33.25,45.21,53.22c8.51,13.06,15.3,27.41,23.5,40.72c12.36,21.76,28.47,40.32,41.27,61.74
			c5.07,8.6,11.39,16.08,16.73,24.45c4.94,7.6,6.41,17.06,10.02,25.39c3.01,6.89,11.17,9.25,17.24,6.51c4.17-2.36,5.99-8,6.26-12.97
			c-1.45-7.53-6.22-13.39-11.43-17.99c-6.59-5.82-10.21-14.54-14.26-22.55c-7.02-14.67-17.74-26.39-26.25-39.91
			c-10.15-16-22.11-30.58-30.53-47.9c-7.68-15.45-15.36-31.27-26.59-43.88c-8-9.07-15.9-18.27-24.25-26.93
			C395.97,70.3,387,57.99,376.51,47.41c-14.21-14.26-28.17-28.97-40.17-45.66c-1.23-1.66-2.55-3.22-3.9-4.74H305
			C307.39-1.04,309.6,1.19,311.49,3.83z"/>
		<path class="st1" d="M658.96,27.99c0.9,15.36,1.88,30.89-0.14,46.2c-2.18,17.54,0.5,35.35-1.43,52.89
			c-1.15,13.93-15.79,22.71-12.51,37.55c1.04,8.87,10.62,10.18,16.76,7.81c7.3-2.84,9.52-12.66,9.59-20.44
			c0.57-17.63,6.5-34.53,5.59-52.26c0.53-23.87,2.3-47.74,1.73-71.64c-0.7-9.9-2.92-19.79-1.42-29.73c0.07-0.44,0.15-0.89,0.23-1.34
			h-17.63C660.43,7.3,659.33,17.69,658.96,27.99z"/>
		<path class="st1" d="M708.46,47.64c1.94,29.08-4.66,57.81-3.48,86.9c0.46,9.03-2.2,17.6-3.61,26.35
			c-1.6,8.94,4.9,18.38,12.95,18.76c8.74-0.46,14.69-11.16,12.52-20.41c-10.02-42.52,5.75-86.2-1.05-129.04
			c-0.95-7.44-2.92-15.09-1.04-22.57c0.75-3.47,1.5-7.03,2.05-10.6h-21.52c0.33,1.23,0.63,2.46,0.85,3.66
			C710.93,15.85,707.36,32,708.46,47.64z"/>
		<path class="st1" d="M522.11,5.95c5.43-0.01,10-3.83,12.45-8.93h-27.29C509.99,2.97,516.18,7.14,522.11,5.95z"/>
		<path class="st1" d="M531.33,36.57c-12.53,3.52-26.84,0.18-36.19-10.23c-6.41-6.71-10.4-16-17.63-21.75
			c-5.14-2.12-11.75-1.78-16.13,2.34c-3.4,5.82-3.3,14.48,0.75,19.9c5.4,5.42,12.52,7.69,18.74,11.59
			c7.66,4.62,13.83,11.7,21.03,17.1c8.77,6.94,20.52,6.89,30.48,3.66c27.49-10.92,46.64-39.23,75.04-48.05
			c7.57-2.08,15.94,0.24,23.01-4.15c3.7-1.75,6.03-5.67,6.85-9.99h-48.67c-4.28,1.37-8.52,2.86-12.49,5.2
			C559.63,11.1,548.94,29.98,531.33,36.57z"/>
		<path class="st1" d="M1620.71,16.48c-16.66-0.15-33.34-0.04-50.01-0.09c-23.06,0.22-46-2.84-69.06-2.3
			c-24.85-4.48-50.46,1.23-75.02-5.9c-6.87-1.76-14.62-7.58-21.25-2.05c-4.24,3.08-8.93,9.76-5.6,15.49
			c2.13,4.97,6.31,9.48,11.52,9.45c16.84,0.8,33.78-0.93,50.62,1.17c10.1,1.43,20.37,0.63,30.48,2.39c12.85,2,25.88-0.34,38.73,1.74
			c12.68,2.01,25.6,1.88,38.25-0.29c18.91-3.1,37.54,6.77,56.43,2.74c13.92-2.97,27.72-6.99,40.99-12.66
			c10.16-4.12,18.74-12.35,29.41-15c5.84-1.87,12.23-2.23,17.59-5.75c2.73-1.79,4.58-4.95,5.4-8.41h-39.44
			c-5.1,3.13-10.53,5.59-15.89,8.11C1650.17,11.4,1635.71,16.98,1620.71,16.48z"/>
		<path class="st1" d="M18.51,78.94c7.45,9.18,9.6,23.22,19.51,29.93c7.64,4.44,17.84-3.67,16.32-13.33
			c-0.3-9.61-8.66-14.04-14.55-19.12c-8.03-6.19-12.29-16.41-18.72-24.33C14.48,44.23,7.42,36.92,0,30.1v28.47
			C6.41,65.07,12.63,71.82,18.51,78.94z"/>
		<path class="st1" d="M1908.65,19.74c-10.95-7.77-21.94-16.39-33.72-22.72h-91.76c-0.04,0.25-0.08,0.52-0.12,0.77
			c1.04,7.69,7.2,14.82,14.36,14.43c6.52-0.34,12.66-3.25,19.13-4.06c10.79-1.34,21.56,0.96,32.2,2.8
			c19.73,3.76,37.87,14.8,53.02,29.37c6.19,6.03,12.4,12.05,18.48,18.25V30.16C1916.4,26.62,1912.51,23.17,1908.65,19.74z"/>
		<path class="st1" d="M25.92,18.36c8.85,6.33,21.33-2.47,20.95-14.09c0.41-2.54,0.08-5-0.74-7.26H19.23
			C16.58,4.78,18.6,14.87,25.92,18.36z"/>
		<path class="st1" d="M235.21,22.55c8.22,4.72,18.16,4.01,26.05,9.76c22.46,16.81,39.7,40.63,59.37,61.11
			c13.96,12.26,25.51,27.5,38.11,41.45c6.82,7.55,12.83,15.93,19.06,24.05c8.95,12,15.46,25.92,23.43,38.67
			c14.4,23.27,31.64,44.01,46.6,66.79c15.71,23.76,31.91,47.46,43.62,74.15c9.19,20.73,9.63,44.62,8.95,67.32
			c-0.1,8.38-1.87,17.23,1.13,25.25c3.61,10.01,19.01,10.24,22.06-0.37c3.52-8.07-1.73-16.47-3.38-24.33
			c-4.21-12.72-2.29-26.39-3.15-39.61c-2.15-18.41-7.54-36.33-15.86-52.35c-18.87-34.32-40.41-66.65-63.14-97.79
			c-21.48-28.9-36.64-63.32-60.48-90.11c-16.84-18.58-32.91-38.07-50.07-56.25c-14.11-13.63-25.98-29.95-40.5-43.06
			c-8.95-7.47-19.42-12.35-27.75-20.79c-4.5-4.61-10.23-8.97-16.32-9.43h-1.9c-1.42,0.09-2.85,0.38-4.3,0.97
			C228.57,2.31,227.68,17.09,235.21,22.55z"/>
		<path class="st1" d="M819.71,72c-10.53-6.55-17.82-17.6-26.44-26.74c-5.4-6.19-12.23-10.96-16.13-18.64
			c-3.9-7.11-6.57-15.78-13.23-20.31c-3.46-0.98-7.25-1.15-10.6,0.31c-6.1,2.5-6.12,11.01-4.88,16.95c2.3,7.18,8.03,11.81,13,16.54
			c8.89,7.91,15.9,18.16,24.85,26.02c6.07,5.4,12.14,11.18,16.09,18.81c3.25,5.73,5.32,12.41,9.56,17.38
			c2.9,3.63,7.57,3.54,11.56,3.21c8.26-0.44,13.08-12.55,9.22-20.29C830.54,78.68,824.55,75.57,819.71,72z"/>
		<path class="st1" d="M1045.11,6.48c-3.68,1.36-7.2,4.15-8.44,8.44c-4.84,10.65,5.43,24.54,15.52,22.76
			c7.34-1,14.22-8.92,12.93-17.67C1064.29,9.62,1053.52,2.96,1045.11,6.48z"/>
		<path class="st1" d="M1194.07,13.09c-7.24-6.08-16.24-1.69-24.01,0.15c-7.2,2.21-14.48-0.67-21.68-1
			c-10.27-0.82-20.55,0.85-30.79-0.13c-8.78-0.93-17.5-6.77-26.37-3.32c-8.28,2.84-10.5,16.87-2.93,22.18
			c11.03,8.47,23.81-1.89,35.7,1.04c13.15,2.76,26.52,1.1,39.79,1.04c7.85-0.25,15.19,3.47,22.92,4.39
			c4.38-0.74,9.04-3.03,11.26-7.66C1198.99,24.02,1199.38,16.37,1194.07,13.09z"/>
		<path class="st1" d="M1751.79,10.9c-8.65,5.08-14.69,14.28-23.22,19.64c-19.01,12.35-38.92,23.2-60.03,30.2
			c-14.2,5.44-29.63,7.72-42.44,17.05c-6.01,4.08-9.55,11.12-13.13,17.63c-8.28,15.8-16.43,31.71-25.87,46.66
			c-12.94,20.06-31.95,33.34-47.1,50.92c-23.2,31.71-42.3,66.84-62.27,101.11c-6.6,9.81-15.06,17.72-22.72,26.43
			c-10.43,11.37-20.17,23.55-30.87,34.61c-4.9,4.95-8.7,12.44-7.19,20.08c1.35,7.53,9.07,12.3,15.4,9.25
			c7.43-2.78,9.26-12.22,12.23-19.32c2.51-7.4,8.03-12.62,13.32-17.47c10.04-8.87,19.39-19.01,26.31-31.18
			c8.43-14.78,19.66-27.26,27.45-42.56c9.23-18.03,21.07-34.07,31.61-51.11c13.38-20.19,30.82-36.22,47.81-52.35
			c10.96-10.54,19.24-24.4,24.64-39.43c4.7-12.48,10.19-25.43,20.26-33.54c13.05-11.37,30.15-12.44,45.21-18.58
			c18.34-7.64,37.11-15.36,52.68-29.1c8.05-7.47,18.31-9.92,27.81-14.06c7.31-2.85,11.25-14.51,5.73-21.4
			C1764.27,8.31,1756.86,9.27,1751.79,10.9z"/>
		<path class="st1" d="M1372.75,23.93c-6.16-5.12-14.02-3.02-20.95-1.85c-10.35,2.08-20.36-2.99-30.61-3.43
			c-10.6-0.85-21.64,1.69-31.8-2.81c-5.66-1.83-11.84-5.5-17.7-2.9c-4.3,2.45-7.76,7.31-8.18,12.86
			c1.15,8.94,9.42,15.06,17.17,13.67c7.35-1.13,14.82-2.69,22.26-1.11c11.71,2.41,23.63,0.91,35.46,1.36
			c11.3,0.26,20.74,11.5,32.43,8.2C1380.42,45.91,1381.15,28.3,1372.75,23.93z"/>
		<path class="st1" d="M193.08,27.48c-7.19,3.39-11.8,13.52-8.78,21.91c3.14,5.97,8.8,11.01,15.3,9.53
			c10.55-0.09,17.93-14.93,12.25-25.05C208.62,25.9,199.59,25.83,193.08,27.48z"/>
		<path class="st1" d="M167.16,128.7c-20.65,1.22-40.5-12.3-51.72-31.4c-7.5-12.93-15.59-25.48-25.99-35.64
			c-8.47-7.84-10.28-21.08-18.07-29.42c-3.59-4.78-9.79-3.54-14.63-2.74c-6.18,3.52-5.05,12.79-3.61,19.06
			C57.36,58,67.8,60.64,73.19,69.09c6.8,10.39,12.38,21.89,20.61,31.05c10.75,11.83,17.76,27.64,30.11,37.67
			c9.46,7.25,21.44,7.29,31.81,12.03c6.26,2.41,12.18,6.91,19.01,6.66c7.51,0.45,13.6-9.27,10.92-17.12
			C183.88,130.2,174.14,128.37,167.16,128.7z"/>
		<path class="st1" d="M621.13,38.12c-10.87,4.73-16.99,17.36-27.89,22.24c-13.65,7.09-24.89,18.77-38.36,26.15
			c-10.34,6.27-22.05,9.05-32.11,15.91c-8.29,5.49-13.61,15.47-22.64,19.73c-7.62,3.88-17.69,6.64-19.43,17.52
			c-2.71,11.88,11.13,18.85,19.05,12.63c6.59-5.48,10.39-14.17,17.03-19.62c20.16-15.43,44.69-21.68,64.42-37.89
			c12.25-9.57,23.09-22.68,38.2-26.28c7.66-2.07,17.22-6.42,18.11-16.6C638.35,42.16,629.08,34.67,621.13,38.12z"/>
		<path class="st1" d="M964.83,40.05c-9.03,2.88-10.98,14.49-14.21,22.98c-4.99,16.76-18.86,26.5-27.83,40.2
			c-17.78,21.84-37.02,42.08-55.42,63.26c-12,14.17-13.13,34.7-18.91,52.28c-3.35,11.46-10.35,21.7-19.8,27.46
			c-9.98,5.46-21.21,6.62-31.84,9.63c-12.05,3.36-24.11,7.33-36.57,8.2c-23.89-0.63-46.91-9.31-70.72-10.94
			c-16.61-2.69-33.4-1.23-50.09-1.63c-14.84-0.43-29.46,2.91-43.72,7.11c-11.05,3.5-24.45-2.19-33.64,7.51
			c-6.26,6.53-2.99,19.25,5.22,21.22c11.71,3.14,21.22-7.73,32.48-9.03c18.34-2.74,36.81-4.43,55.19-7.04
			c11.17-1.72,22.23,1.78,33.33,2.8c15.72,1.54,31.61,2.9,46.83,8c14.58,5.15,30.45,4.99,45.17,0.48
			c16.28-4.88,32.66-9.4,49.02-13.95c8.28-2.25,16.49-6.29,22.17-13.69c18.78-24.05,17.13-60.71,37.65-83.42
			c18.97-21.24,38.2-42.28,55.95-64.85c8.41-10.29,11.99-24.96,22.32-33.29c5.84-5.46,14.1-11.37,13.26-21.18
			C980.57,43.39,972.01,37.42,964.83,40.05z"/>
		<path class="st1" d="M910.94,44.21c-5.74,2.3-9.52,8.05-14.06,12.33c-7.9,8.03-18.68,11.59-25.81,20.7
			c-6.45,8.11-10.77,18.05-17.21,26.17c-4.2,5.82-9.1,14.33-4.65,21.64c3.16,8.16,13,7.09,18.49,2.76
			c3.78-4.43,4.81-10.81,6.72-16.41c3.42-12.77,13.54-20.88,21.61-29.8c7.9-8.81,21.82-7.66,27.61-19.06
			C929.08,53.62,920.08,40.44,910.94,44.21z"/>
		<path class="st1" d="M1860.14,50.9c-10.87-1.32-20.95-7.27-31.98-7.05c-7.47-0.04-15-0.46-22.36,0.91
			c-8.2,1.61-15.96,5.32-22.83,10.5c-27.48,20.29-54.57,42.37-85.9,54.52c-13.98,4.93-27.38,12.17-42.03,14.24
			c-7,1.15-17.05,5.08-16.53,14.8c-0.85,5.82,3.1,10.7,7.49,12.93c7.87,2.47,14.59-3.99,21.03-8.07c8.37-5.95,18.45-6.82,27.78-9.83
			c23.36-7.38,44.27-21.68,64.97-35.53c12.72-8.43,23.35-20.57,36.85-27.54c15.06-8.05,32.46-6.51,48.37-3.08
			c10.36,2.07,18.4,11.96,29.09,12.41c9.16,0.31,14.33-14.49,7.66-21.53C1876.38,51.48,1867.46,52.53,1860.14,50.9z"/>
		<path class="st1" d="M1010.8,51.03c-9.33,3.17-12.63,16.91-7.1,25.61c6.16,13.65,27.72,8.27,27.67-7.27
			C1032.99,56.91,1021.15,46.37,1010.8,51.03z"/>
		<path class="st1" d="M268.81,86.73c-9.87-5.64-12.04-19.35-20.05-27.08c-3.52-2.39-7.64-5.46-11.86-4.39
			c-6.63,1.96-12.57,11.06-8.41,18.45c3.1,10.32,13.73,12.19,20.92,17.56c12.19,6.75,12.98,26.54,26.21,31.69
			c8.56,4.68,19.47-7.44,15-17.16C287.66,94.61,276.61,92.07,268.81,86.73z"/>
		<path class="st1" d="M1396.65,54.87c-4.23,1.3-7.77,4.59-10.3,8.51c-1.46,6.51-2.07,15.22,3.08,19.97
			c3.74,3.83,9.22,3.36,13.92,2.89c8.58-0.96,14.4-13.02,10.69-21.7C1412.03,56.32,1403.42,52.87,1396.65,54.87z"/>
		<path class="st1" d="M148.63,57.23c-8.75,1.15-13.6,11.4-11.99,20.64c1.47,14.41,21.27,17.99,27.55,5.82
			C172.22,72.34,160.44,54.04,148.63,57.23z"/>
		<path class="st1" d="M1462.01,57.06c-8.88,2.02-13.32,11.39-17.58,19.38c-8.62,16.54-22.69,27.84-33.68,42.15
			c-6.22,8.27-12.37,16.6-18.26,25.16c-10.98,15.82-19.26,33.74-26.86,51.84c-9.07,24.11-13.54,50.05-17.51,75.74
			c-2.67,16.82-12.19,30.4-19.98,44.51c-5.45,9.31-4.55,20.75-4.53,31.34c-0.65,27.48,7.01,53.93,10.85,80.79
			c0.63,9.96-2.43,19.79-1.39,29.82c0.29,9.2,11.17,15.8,17.81,9.79c7.66-5.29,7.72-16.69,5.13-25.29
			c-4.51-16.14-4.08-33.29-7.91-49.59c-4.45-18.75-7.66-38.33-4.84-57.68c4.46-18.43,16.6-32.88,21.96-50.89
			c5.07-17.23,4.23-35.79,8.36-53.26c7.68-29.06,21.19-55.69,36.81-80.21c7.66-12.13,17.73-21.85,26.81-32.57
			c7.83-9.2,12.61-21.98,23.02-28.1c6.87-4.56,16.79-9.72,15.57-20.59C1476.49,61.4,1468.44,55.26,1462.01,57.06z"/>
		<path class="st1" d="M1121.13,63.16c-10.6,0.02-20.99,6.77-31.58,2.92c-8.93-2.25-17.51-8.85-26.92-6.82
			c-11.88,1.91-12.38,21.91-1.94,26.63c13.13,3.12,26.26-6.15,39.23-1.09c7.57,2.77,15.1,7.09,23.33,5.84
			c6.12,0.3,11.21-5.97,11.21-12.74C1135.43,69.65,1127.44,64.18,1121.13,63.16z"/>
		<path class="st1" d="M1167.72,59.53c-7.99,0.69-15.68,9.05-14.7,18.47c0.63,10.83,13.35,18.75,21.41,12.24
			c5.35-3.43,8.7-10.54,7.42-17.47C1181.02,65.09,1174.35,59.53,1167.72,59.53z"/>
		<path class="st1" d="M1322.64,130.62c-9.7-13.58-20.81-25.81-30.34-39.54c-5.74-8.29-8-19.17-14.78-26.56
			c-3.63-5.1-10.15-4.04-15.15-3.01c-4.85,3.58-8.09,11.03-5.17,17.25c3.67,7.92,11.05,12.14,16.8,17.82
			c8.67,7.93,12.6,20.28,20.01,29.48c6.2,8.25,13.81,14.87,21.12,21.81c8.13,7.6,11.1,20.55,20.29,26.8
			c4.9,1.63,10.96,1.3,14.86-2.85c2.73-3.86,4.75-9.48,2.21-14.11C1346.56,143.79,1330.64,142.39,1322.64,130.62z"/>
		<path class="st1" d="M1577.29,61.64c-11.29,5.35-13.96,20.37-20.93,30.45c-8.78,12.48-16.11,26.7-27.7,36.26
			c-5.52,4.75-12.15,10.46-12.01,19.19c-1.09,8.54,8.05,15.89,14.92,12.17c6.3-2.65,9.72-9.61,13.08-15.69
			c7.1-14,18.44-24.45,25.36-38.6c5.7-12.17,19.72-16.41,23.69-29.89C1594.94,65.74,1585.24,57.78,1577.29,61.64z"/>
		<path class="st1" d="M1508.21,63.75c-4.25,3.23-8.62,8.07-8.36,14.35c-1.3,10.41,8.22,19.21,17.07,16.91
			c11.3,1.32,19.53-16.47,11.86-25.98C1524.46,61.17,1515.14,61.33,1508.21,63.75z"/>
		<path class="st1" d="M1360.99,93.53c-9.89-5.66-15.23-17.32-23.66-24.94c-4.19-4.06-10.36-4.57-15.36-2.47
			c-5.37,4.06-8.06,13.06-3.55,19.12c6.64,9.61,19.05,9.57,26.69,17.77c5.66,6.19,8.33,14.98,13.77,21.4
			c4.65,5.17,12.6,6.15,17.66,1.11c4.76-3.43,3.98-10.65,3.1-16.04C1376.35,100.77,1367.68,97.84,1360.99,93.53z"/>
		<path class="st1" d="M486.37,77.46c-4.43-5.08-11.56-4.79-17.21-3.12c-11.15,3.45-13.77,22.22-4.57,29.73
			c8.67,7.44,22.41,1.15,25.5-10.18C492.75,88.18,490.33,81.5,486.37,77.46z"/>
		<path class="st1" d="M772.28,88.72c-1.46-7.38-8.55-13-15.11-10.42c-3.49,2.18-7.64,5.49-7.38,10.57
			c-1.21,10.32,4.84,18.99,6.74,28.67c2.06,10.98,2.41,22.55-0.27,33.44c-1.47,7.1-4.32,14.91-1.7,22.05
			c3.59,5.6,10.81,11.5,16.62,6.2c6.91-3.88,7.8-13.22,6.82-20.92C774.78,135.26,777.71,111.45,772.28,88.72z"/>
		<path class="st1" d="M210.84,100.09c-4.01-8.22-10.15-19.97-19.91-16.99c-6.91,1.61-11.9,10.65-7.95,17.97
			c3.57,10.92,15.48,11.41,22.41,18.3c4.88,6.83,7.25,15.95,13.83,21.24c5.96,5.84,17.02,3.32,19.77-5.26
			c2.67-5.84-0.83-12.35-4.47-16.45C227.11,111.84,215.44,110.91,210.84,100.09z"/>
		<path class="st1" d="M1899.83,87.34c-7.76,4.59-7.42,15.65-9.49,23.94c-1.51,9.36-6.41,17.25-11,24.98
			c-9.14,15.26-16.12,31.99-24.87,47.51c-10.6,18.88-27,32.03-42.21,45.75c-14.59,13.06-31.47,23.52-42.96,40.5
			c-10.49,14.76-21.72,29.24-35.66,39.91c-16.21,12.66-33.07,24.46-47.58,39.59c-15.53,15.18-30.49,32.34-38.69,54
			c-6.74,17.1-16.64,35.03-12.89,54.54c3.05,25.96,23.11,43.19,29.97,67.45c5.44,19.14,9.86,38.67,16.38,57.41
			c4.76,13.65,12.68,25.92,22.83,35.08c18.15,16.47,38.01,30.49,55.32,48.16c10.53,10.94,24.59,16.45,34.47,28.32
			c6.52,7.88,17.92,12.52,26.5,6.01c4.16-6.11,3.72-16.09-1.25-21.49c-5.66-4.23-12.76-4.28-19.09-6.44
			c-7.94-2.14-13.83-8.94-19.71-14.84c-11.14-12.26-24.37-21.66-36.45-32.66c-15.55-14.02-33.78-26.09-43.43-46.53
			c-9.08-17.89-10.43-39.04-18.22-57.54c-5.2-12.15-9.18-25.05-15.72-36.42c-5.89-10.79-13.17-21.94-12.48-35.31
			c-0.82-16.34,6.22-31.45,14.21-44.49c13.73-23.07,32.06-42.21,52.08-58.21c12.51-10.68,26.11-19.53,38.67-30.12
			c10.38-8.66,17.44-20.97,25.01-32.49c11.48-17.79,29.31-27.77,44.55-40.72c11.9-9.52,22.26-21.2,32.18-33.21
			c11.36-14.09,17.65-32.05,26.97-47.72c5.45-9.01,9.18-19.06,12.87-29.08c3.15-8.69,9.04-15.43,14.06-22.75
			c3.52-5.28,5.82-13.02,1.79-18.79C1913.09,84.84,1905.2,85.13,1899.83,87.34z"/>
		<path class="st1" d="M619.06,98.15c-11.36,6.93-10.83,24.74-21.19,32.79c-10.66,9.32-23.91,13-36.52,17.34
			c-12.67,4.1-22.5,15.35-35.58,18.25c-8.18,1.61-17.03,6.96-17.76,17.38c1.87,6.62,6.86,14.29,13.84,12.68
			c10.01-2.07,15.34-13.26,24.19-17.89c16.17-8,33.31-13.02,50.02-19.32c13.16-5.17,19.24-20.31,28.92-30.36
			c5.02-5.3,9.74-11.96,9.93-20.06C633.35,101.49,626.11,93.29,619.06,98.15z"/>
		<path class="st1" d="M1857.19,103.61c-9.85-6.82-21.31,2.89-31.62-1.58c-7.06-2.36-14.44-7.4-21.93-4.32
			c-9.49,2.77-10.4,18.71-1.8,23.4c10.58,4.97,22.5-4.64,32.89,1.85c7.02,2.87,15.21,9.09,22.41,3.34
			C1864.85,122.11,1864.76,107.89,1857.19,103.61z"/>
		<path class="st1" d="M980.2,100.51c-7.87,5.04-10.46,18.84-3.19,25.81c4.42,6.01,12.7,5.97,18.41,2.52
			c6.45-4.57,6.86-14.62,5.17-22.18C997.04,98.32,986.89,96.92,980.2,100.51z"/>
		<path class="st1" d="M1096.38,115.85c-13,0.89-26.48,5.19-39.14-0.38c-7.81-2.28-15.46-8.87-23.66-7.2
			c-5.1,2.69-11.58,7.66-9.94,15.02c0.85,10.14,10.92,14.89,18.93,13.61c13.46-2.3,27.63-3.58,40.65,1.97
			c6.82,1.89,14.44,7.49,21.25,2.67c4.1-2.58,7.96-7.6,7.31-13.24C1109.97,120.84,1103.3,115.01,1096.38,115.85z"/>
		<path class="st1" d="M1477.2,110.74c-7.24,3.43-10.9,14.84-7.01,22.64c3.87,10.07,17.73,11.37,23.85,3.43
			c6.05-5.64,5.36-16.56,0.94-23.13C1490.33,108.69,1482.91,108.54,1477.2,110.74z"/>
		<path class="st1" d="M1139.43,113.64c-10.77,4.08-12.11,22.96-1.83,28.71c9.04,8.05,24.78-0.91,23.16-14.33
			C1161.03,116.29,1148.39,108,1139.43,113.64z"/>
		<path class="st1" d="M1241.31,113.6c-10.3,4.93-10.85,24.24-0.44,29.3c8.33,5.95,21.51-1.07,21.16-12.74
			C1264.53,117.92,1250.61,107.06,1241.31,113.6z"/>
		<path class="st1" d="M81.17,125.1c-4.19-3.93-10.1-3.21-15.11-2.47c-9.45,3.01-11.3,19.88-4.34,26.74
			c5.33,7.53,16.76,6.51,22.17-0.33C87.56,141.74,87.7,130.48,81.17,125.1z"/>
		<path class="st1" d="M16.2,126.81c-4.51,1.61-8.33,5.56-10.55,10.23c-0.98,6.04-0.53,13.02,3.23,17.79
			c7.99,7.55,24.46,4.28,24.74-9.51C36,134.45,25.64,123.6,16.2,126.81z"/>
		<path class="st1" d="M1771.36,126.97c-10.4,4.71-16.36,16.69-26.39,22.18c-13.05,7.29-25.73,16.19-40.17,19.53
			c-20.32,4.6-40.84,7.8-61.37,10.63c-20.37,3.12-36.48,18.81-49.76,35.42c-7.81,10.27-22.91,11.74-27.11,25.52
			c-3.34,8.18,4.61,17.12,11.63,17.65c7.09-1.61,12.57-7.42,16.2-14.26c7.13-12.82,18.63-21.08,29.03-30.13
			c22.94-18.14,52.12-20.81,79.27-21.66c19.81-1.76,37.12-13.67,52.68-26.74c9.23-8.36,24.08-7.22,30.25-19.95
			C1791,135.5,1780.51,122.64,1771.36,126.97z"/>
		<path class="st1" d="M306.22,129.22c-9.31,6.06-8.62,23.81,0.94,29.17c8.8,6.73,23.09-3.19,20.99-15.17
			C328.96,130.46,315.2,124.62,306.22,129.22z"/>
		<path class="st1" d="M816.57,131.22c-14.54,1.31-16.81,25.03-4.51,31.88c8,7.29,22.99,3.54,24.18-9.09
			C838.64,141.09,826.79,131.57,816.57,131.22z"/>
		<path class="st1" d="M972.88,180.74c-4.15-9.39-3.98-20.17-6.25-30.14c-1.6-7.22-8.81-12.97-15.34-10.85
			c-4.7,1.58-8.65,6.4-8.36,12.19c-0.98,8.83,4.84,15.6,8.74,22.46c6.63,10.68,6.25,24.78,12.9,35.48
			c4.61,7.49,8.48,15.54,10.81,24.33c2.15,7.58,7.39,16.49,15.4,15.49c6.12,0.54,9.91-7.2,10.45-13.17
			c-2.06-13.48-14.5-19.9-18.55-32.23C979.71,196.3,976.25,188.54,972.88,180.74z"/>
		<path class="st1" d="M267.21,148.38c-7.2,1-12.48,6.97-17.47,12.3c-7.47,8.22-18.37,9.18-28.05,11.52
			c-13.13,2.41-26.06,6.12-38.93,9.83c-17.63,5.22-36.59,5.75-54.14-0.15c-10.73-3.3-17.69-15.11-28.86-17.12
			c-6.1-0.13-12.89,5.6-12,13.13c-0.57,9.7,7.66,16.02,15.27,17.43c10.96,2.3,21.01,7.87,31.71,11.14
			c12.46,1.67,25.23,1.17,37.54-1.74c17.69-3.82,35.54-6.64,53.12-11.16c11.35-2.81,21.45-9.76,32.76-12.74
			c7.69-2.36,17.5-4.63,20.43-14.35C282.15,157.81,274.88,148.58,267.21,148.38z"/>
		<path class="st1" d="M1450.14,148.38c-7.5,0.91-12.25,8.53-14.21,16.13c-2.73,9.7-7.49,18.38-13.28,26.14
			c-9.93,13.11-11.44,31.79-22.6,43.95c-6.16,6.31-8.48,20.42-0.01,25.5c3.25,2.63,8.03,3.28,11.21,0.11
			c7.13-5.1,7.91-15.35,10.05-23.71c2.41-11.01,9.68-19.32,14.5-28.97c4.57-8.47,7.42-18.36,14.06-25.22
			c5.26-6.16,12.67-12.04,12.67-21.55C1461.37,154.36,1456.08,148.3,1450.14,148.38z"/>
		<path class="st1" d="M1817.38,148.52c-10.13,2.58-15.85,18.25-8.63,27.35c7.46,6.88,22.31,5.34,25.42-6.31
			C1838.85,158.37,1827.8,144.26,1817.38,148.52z"/>
		<path class="st1" d="M1037.75,209.52c-3.72-11.29-10.69-21.01-12.87-32.94c-1.83-8.09-1.92-17.8-8.25-23.42
			c-3.29-4.26-9.04-4.15-13.35-2.3c-3.67,2.56-6.8,6.77-6.1,11.96c-0.89,8.05,4.92,13.77,8.97,19.45
			c8.65,10.65,10.94,25.32,16.24,38.04c3.52,8.42,5,17.6,5.37,26.84c0.18,7.18,3.35,14.24,9.2,17.52c5.8,4.57,13.75-1.52,15.37-8.38
			c2.4-7.44-1.58-14.89-4.6-21.27C1043.48,227.01,1040.61,218.23,1037.75,209.52z"/>
		<path class="st1" d="M1292.71,162.18c-4.04-5.51-10.95-7.64-16.86-5.15c-11.28,5.08-11.95,26.04-0.46,31.16
			c7.1,4.45,17.18-0.26,19.96-8.64C1295.81,173.81,1297.14,166.44,1292.71,162.18z"/>
		<path class="st1" d="M1238.19,167.18c-5.65-3.75-12.01-0.56-17.77,0.93c-15.96,5.77-32.85,1.3-49.17,3.45
			c-15.9,2.28-32.05,2.5-47.91-0.15c-10.92-1.69-21.78,0.82-32.63,1.78c-10.65,0.87-19.76-8.7-30.19-7.94
			c-4.51,1.87-9.03,5.44-10.65,10.72c-0.76,6.71,2.74,14.5,8.93,15.98c6.86,1.58,13.88,0,20.71-1.09
			c14.06-2.78,27.81,5.34,41.88,2.34c12.15-1.94,24.46-0.93,36.56,1c21.52,2.72,42.77-7.66,64.22-2.65
			c5.82,0.41,12.61,2.65,17.89-1.07C1247.74,185.36,1246.67,170.53,1238.19,167.18z"/>
		<path class="st1" d="M446.61,317.69c-13.84-21.1-27.56-42.39-42.92-62.11c-12.38-17.1-27.61-31.51-38.17-50.26
			c-4.99-8.38-5.18-18.77-8.14-27.99c-1.79-6.2-7.75-9.85-13.32-9.23c-5.56,0.57-9.01,6.51-10.43,12.09
			c1.51,10.46,8.22,18.43,12.49,27.54c5.03,10.12,7.87,22.01,15.67,30.08c5.03,5.17,10.6,9.65,15.37,15.17
			c10.34,10.96,17.65,24.85,26.97,36.82c9.91,12.81,19.9,25.7,27.3,40.61c6.34,13,16.76,23.49,20.1,38.24
			c2.11,6.88,3.59,16.05,10.68,18.55c7.06,4.53,14.97-3.61,15.91-11.57c-1.17-8.2-6.91-13.85-11.33-19.92
			C458.2,344.37,454.63,329.5,446.61,317.69z"/>
		<path class="st1" d="M1494.67,167.68c-7.7,2.89-10.94,11.81-13.31,19.77c-3.93,13.8-14.26,23.24-20.51,35.55
			c-5.07,9.14-7.35,19.97-13.31,28.52c-3.98,6.31-10.02,10.92-12.76,18.19c-1.45,5.98-0.85,14.2,4.43,17.6
			c3.71,0.89,7.66,0.91,11.39-0.13c7.47-5.06,8.32-15.6,11.09-24c2.93-10.16,9.68-17.94,14.81-26.7
			c7.12-11.68,10.83-26.03,20.5-35.57c4.99-6.12,12.87-11.48,12.61-20.84C1510.62,171.48,1501.72,163.58,1494.67,167.68z"/>
		<path class="st1" d="M53.93,175.41c-2.85-1.25-6.01-2.74-9-1.25c-11.58,1.8-15.67,20.14-7.47,28.67
			c4.84,6.08,14.46,6.3,19.58,0.58C64.98,196.61,63.48,179.57,53.93,175.41z"/>
		<path class="st1" d="M9.04,199c4.77-8.42-1.28-19.59-9.04-22.62v31.79C3.8,206.44,7.16,202.97,9.04,199z"/>
		<path class="st1" d="M1913.26,176.04c-4.05,1.61-8.33,3.9-10.2,8.55c-4.38,7.98-1.23,19.62,6.59,23.09
			c3.41,2.18,7.19,2.02,10.58,0.47v-31.78C1917.98,175.49,1915.58,175.26,1913.26,176.04z"/>
		<path class="st1" d="M916.26,182.28c-6.55,3.32-7.4,12.24-8.9,19.17c-2.44,16.43-11.41,30.11-17.13,45.14
			c-4.34,11.5-9.26,22.72-14.25,33.9c-7.51,16.76-10.24,35.46-16.46,52.78c-7.87,21.75-5.88,46.33-14.59,67.8
			c-4.43,12.11-12.01,22.6-21.37,30.29c-10.66,8.22-23.7,10.57-36.04,13.62c-11.84,3.14-24.51-0.54-35.93,4.99
			c-6.23,2.72-9.23,9.98-13.65,15.13c-5.3,0.65-10.27-2.95-15.46-3.86c-7.12-2.58-15.61,0.37-19.34,7.94
			c-6.93,10.94,5.47,25.87,15.96,22.46c10.17-1.76,13.19-14.51,20.13-21.31c6.55,1.04,13.09,5.33,19.8,2.92
			c9.89-3.3,19.61-8.6,30.22-7.58c18.44,1.39,36.45-7.2,50.62-20.06c11.69-10.83,18.51-26.59,24.27-42.01
			c6.25-16.65,5.41-35.08,9.31-52.37c3.85-21.03,13.4-39.8,20.48-59.51c8.43-20.99,15.4-42.66,23.99-63.54
			c3.86-9.81,10.79-17.54,14.67-27.3c2.15-5.06,1.7-11.68-2.05-15.58C927.22,180.34,920.98,181.07,916.26,182.28z"/>
		<path class="st1" d="M308.23,187.69c-3.71-5.3-10.62-5.19-15.75-3.03c-5.78,3.69-4.42,12.5-3.59,18.68
			c3.29,8.11,9.89,14.22,11.77,23.13c1.88,8.96,1.23,18.32,0.82,27.46c-1.4,15.11-2.45,30.36-6.14,45.03
			c-2.77,10.9-3.95,22.22-7.25,32.93c-2.69,8.85-10.02,16.09-9.11,26.1c-0.76,9.76,10.1,15.82,17.07,11.19
			c7.02-6.17,6.93-17.21,7.76-26.3c0.45-9.31,4.88-17.43,7.24-26.17c3.89-13.15,3.29-27.24,6.2-40.61
			c1.92-10.27,5.45-20.3,5.22-30.93c0.38-12.06-6.68-22.09-8.33-33.68C312.42,203.56,313.4,194.14,308.23,187.69z"/>
		<path class="st1" d="M1782.81,185.11c-7.57,3.03-12.29,10.85-18.68,15.87c-7.69,6.01-16.49,10.05-23.78,16.71
			c-8.17,6.8-13.35,16.84-19.01,26.09c-5.32,9.01-12.08,16.82-19.28,23.92c-17.18,15.58-38.63,24.89-53.44,43.79
			c-5.78,7.42-12.81,13.33-20.18,18.54c-6.1,4.15-11.1,12.89-7.57,20.86c3.25,7.25,11.7,8.72,17.73,5.6
			c6.68-5.66,9.95-14.73,15.34-21.73c22.9-27.63,56.36-40.89,77.46-70.76c11.39-16.6,23.62-33.03,39.62-44.18
			c6.72-4.5,14.62-6.08,21.41-10.46c3.85-2.2,5.82-7.22,5.89-11.94C1799.97,188.43,1789.61,181.14,1782.81,185.11z"/>
		<path class="st1" d="M810.93,188.88c-8.52,3.54-15.42,10.9-24.18,13.87c-14.78,4.67-30.44,5.66-45.59,2.87
			c-15.74-0.67-31.51-2-47.01-5.48c-12.25-2.92-24.79-0.6-37.16-1.8c-10.46-1.21-20.74-3.97-31.15-5.68
			c-11.05-1.72-21.98,1.65-32.59,4.71c-11.92,3.39-22.53,11.46-34.88,13.08c-7.49,1.21-17.37,1.54-21.03,10.54
			c-4.01,7.62,2.1,18.73,9.91,18.14c11.05,0.93,18.55-10.23,28.61-13.24c11.11-3.62,22.3-7.16,33.67-9.65
			c26.5-3.06,52.84,3.32,79.3,4.15c24.64,1.4,48.79,9.25,73.57,7.96c16.36-0.87,31.35-9.4,47.57-11.28
			c7.12-0.76,15.25-5.12,16.98-13.6C828.6,193.77,819.03,184.76,810.93,188.88z"/>
		<path class="st1" d="M1317.85,195.43c-12.53,1.98-15.82,21.99-6.64,30.53c8.56,7.06,22.65,1.09,23.89-11.24
			C1336.9,204.01,1327.26,192.87,1317.85,195.43z"/>
		<path class="st1" d="M91.15,222.26c-1.7-7.18-9.27-10.5-15.23-8.4c-3.61,2.12-6.87,5.64-8.28,10.03
			c-1.8,13.66,2.17,27.15,1.68,40.83c-0.57,22.51,1.75,45.09-1.51,67.46c-0.15,14.55-2.55,28.82-6.91,42.5
			c-3.22,8.11,1.12,18.32,8.43,21.03c8.85,2.32,15.76-8.94,14.93-18.03c-1.08-27.77,3.05-55.3,5.26-82.86
			c0.29-14.43-4.84-28.5-3.2-42.97C87.6,241.94,93.85,232.53,91.15,222.26z"/>
		<path class="st1" d="M1268.27,214.1c-4.46,1.25-8.71,3.19-13.09,4.71c-12.66,4.84-26.28,2.01-39.11,5.77
			c-12,3.65-23.91-6.27-35.76-1.47c-7.9,3.78-8.9,17.1-1.73,22.46c7.31,7.77,17.13,1.54,25.31-0.47c8.9-3.45,18.26,0,27.37-1.39
			c6.55-0.65,12.86-2.83,19.34-4.1c8.14-1.8,16.17,2.23,24.34,1.36c4.65-1.09,9.08-4.55,11.09-9.52c1-5.08,0.01-10.83-3.2-14.62
			C1278.88,212.85,1273.14,212.74,1268.27,214.1z"/>
		<path class="st1" d="M1136.14,332.56c-16.41-22.55-22.01-51.68-32.78-77.56c-3.25-9.12-3-19.19-5.7-28.46
			c-1.65-6.6-8.17-11.15-14.01-10.43c-5.63,1.41-10.1,7.27-9.59,13.93c-1.08,11.57,8.78,18.64,12.06,28.64
			c5.65,16.06,9.93,32.71,14.5,49.2c3.26,12.19,9.93,22.83,18.26,31.31c8.75,8.14,10.04,22.68,19.47,30.08
			c7,4.48,17.41-1.65,16.76-11.22C1155.41,345.08,1142.69,340.67,1136.14,332.56z"/>
		<path class="st1" d="M258.2,218.29c-6.34,1.94-12.19,5.49-18.61,7.05c-9.89,2.39-20.09,2.65-29.92,5.3
			c-10.16,2.39-20.22,7.22-30.78,5.44c-7.45-1.22-16.76-0.71-20.84,7.71c-4.98,6.71,0.14,17.49,7.4,18.32
			c7.61,1.65,14.73-2.12,21.64-5.1c8.32-3.73,17.41-3.39,26.14-5.06c12.23-1.52,23.82-7.87,36.37-6.64c8.37-0.71,19.8,3.45,25-6.51
			C281.68,227.65,268.66,213.02,258.2,218.29z"/>
		<path class="st1" d="M1172.26,289.65c-6.91-10.18-11.39-22.09-16.42-33.5c-4.13-8.88-3.91-19.21-7.05-28.43
			c-2.86-5.86-8.55-12.03-15-9.7c-7.16,1.87-11.15,12.14-7.69,19.41c3.97,9.57,11.58,16.67,14.62,26.87
			c3.87,12.26,9.56,23.74,12.74,36.31c1.98,7.49,3.86,16.65,11.05,19.88c6.95,4.44,16.17-3.78,15.1-12.35
			C1179.9,300.96,1175.65,295.18,1172.26,289.65z"/>
		<path class="st1" d="M1683.01,218.1c-7.92,3.32-13.8,10.68-21.45,14.65c-10.68,5.66-21.76,10.79-30.9,19.4
			c-11.4,10.14-19.71,24.22-32.14,32.94c-5.45,4.66-13.49,9.63-12.48,18.68c-1.06,8.05,6.4,15.6,13.39,13.61
			c7.75-2.01,11.97-10.7,15.71-17.86c5.77-12.61,17.26-19.52,26.48-28.46c12.25-9.81,24.19-21.53,39.3-25
			c6.79-1.89,15.15-4.28,17.5-12.84C1701.05,223.53,1691.16,214.36,1683.01,218.1z"/>
		<path class="st1" d="M1901.52,227.23c-3.19-4.31-8.71-3.79-13.02-2.47c-7.2,3.06-10.17,11.79-14.36,18.36
			c-4.72,8.92-12.67,14.5-19.45,21.2c-9.61,8.62-18.04,20.35-30.57,23.53c-7.66,2.74-18.25,3.02-21.79,12.72
			c-3.44,10.03,7.05,20.36,15.57,16.15c9.6-4.6,17.31-13.24,27.37-16.91c14.48-5.66,22.69-21.06,32.46-33.25
			c7.35-9.66,20.8-10.65,26.5-22.24C1905.94,238.69,1906.12,231.22,1901.52,227.23z"/>
		<path class="st1" d="M16.24,229.04c-7.4,3.95-11.54,15.15-7.66,23.62c2.93,7.33,10.85,11.26,17.69,9.27
			c9.89-2.65,15.86-17.23,9.91-27C32.56,226.47,23.05,227.15,16.24,229.04z"/>
		<path class="st1" d="M121.6,239.2c-10.49,3.45-13.84,19.92-8.62,29.93c2.58,7.2,10.46,9.51,16.62,7.55
			c6.56-3.94,10.3-12.26,10.62-20.44C139.14,246.44,131,236.19,121.6,239.2z"/>
		<path class="st1" d="M945.52,239.67c-4.9,1.76-9.08,6.55-9.7,12.41c-1.09,11.52,1.31,23.51-2.26,34.64
			c-4.57,16.73-14.31,30.64-20.8,46.38c-4.01,10.09-11.86,17.12-16.94,26.39c-3.4,5.86-2.88,14.37,1.76,19.19
			c3.76,3.14,9.79,3.73,13.27-0.26c5.09-4.62,6.8-11.97,8.99-18.57c4.94-16.06,16.71-27.5,24.01-42.02
			c4.98-8.74,7.72-18.84,8.6-29.14c0.82-10.76,4.61-20.73,7.06-31.06C961.9,248.63,953.76,237.56,945.52,239.67z"/>
		<path class="st1" d="M1306.4,252.53c-7.16,1.32-13.46,7.84-12.86,16.54c-1.3,8.25,4.13,16.19,10.88,18.58
			c9.56,2.5,18.72-7.85,17.62-18.59C1322.73,259.44,1314.77,250.97,1306.4,252.53z"/>
		<path class="st1" d="M1290.31,323.03c-2.97-11.82-12.31-19.66-16.01-31.1c-2.67-7.18-3.52-15.45-8.1-21.55
			c-3.57-3.58-9-5.32-13.51-3.09c-5.74,2.12-9.12,10.63-6.41,16.85c3.52,11.72,14.96,17.21,18.68,28.8
			c4.24,12.52,8.47,25.29,9.71,38.71c0.74,13.3,1.92,26.61,3.25,39.87c2.03,22.66,7.38,45.6,2.55,68.29
			c-1.12,12.79-12.56,21.57-11.4,34.86c0.01,10.41,12.94,15.47,19.2,8.42c5.59-5.33,5.93-14.13,7.16-21.68
			c0.93-8.98,3.57-17.52,5.3-26.28c3.53-34.12-5.81-67.49-6.93-101.43C1293.54,343.39,1292.83,332.97,1290.31,323.03z"/>
		<path class="st1" d="M1546.34,269.47c-5.69,3.11-10.32,9.42-9.04,16.95c-1.08,8.36,5.93,14.24,12.52,15.39
			c9.42,1.21,17.96-8.92,15.9-19.66C1565.85,271.05,1554.52,265.56,1546.34,269.47z"/>
		<path class="st1" d="M346.31,271.83c-5.97,2.3-7.66,10.38-7.2,16.74c0.14,9.31,8.39,15.93,16.09,16.11
			c4.85-1.32,9.23-4.99,11.8-9.85c1.05-6.84,1.16-14.84-3.01-20.43C359.15,269.86,351.99,269.36,346.31,271.83z"/>
		<path class="st1" d="M1236.88,329.86c-3.68-11.05-10.47-20.68-12.27-32.51c-1.31-6.3-1.55-12.97-4.09-18.86
			c-3.07-5.77-10.02-10.16-15.76-6.69c-7.16,3.43-8.69,14.71-4.9,21.73c4.13,8,10.2,14.76,12.94,23.68
			c3.75,11.74,7.91,23.35,11.07,35.36c3.4,12.57,1.7,25.85,3.67,38.67c0.75,12.79,0.7,25.63,1.69,38.42
			c-1.53,15.87,0.38,32.81-6.41,47.45c-2.99,7.69-9.04,16.63-4.3,25.03c2.77,6.77,10.15,7.16,15.72,5.46
			c5.03-2.63,6.74-9.2,6.86-14.98c0.33-10.03,1.68-19.97,4.17-29.58c5.37-19.3,3.87-39.91,1.98-59.71
			C1246.18,378.56,1244.92,353.22,1236.88,329.86z"/>
		<path class="st1" d="M993.47,273.96c-4.96,1.76-9.75,5.28-11.86,10.83c-3.53,7.8,1.05,18.45,8.6,20.28
			c10.3,4.01,25.87-2.5,26.17-16.49C1016.82,275.91,1002.65,269.71,993.47,273.96z"/>
		<path class="st1" d="M256.14,276.22c-7.23,2.52-14.17,6.58-21.86,6.99c-21.61,0.13-42.33,8.22-63.73,10.68
			c-15.72,1.58-28.98,12.03-43.91,16.69c-6.63,2.41-14.95,4.73-17.22,13.3c-3.48,7.92,1.32,19.3,9.59,19.1
			c8.43,0.98,13.54-7.77,19.21-13.17c6.11-6.53,14.36-9.23,22.35-11.24c23.99-5.88,48-11.83,72.32-15.65
			c11.24-1.36,22.6,0.69,33.79-0.93c6.16-3.17,11.47-11.88,7.8-19.4C271.21,275.06,262.58,273.15,256.14,276.22z"/>
		<path class="st1" d="M35.63,347.58c2.4-11.79,0.29-24.34,4.36-35.75c1.8-6.27,4.75-12.35,4.9-19.06
			c-1.28-8-9.79-17.27-17.05-12.03c-12.27,10.2-4.85,29.51-8.18,43.77c-4.92,19.43-2.13,39.69-3.48,59.55
			c-0.71,14.46,6.2,27.24,8.43,41.12c1.5,7.47,2.92,16.15,9.12,20.55c6.11,2.69,15.25,0.82,16.53-7.71
			c2.78-12.83-8.13-21.24-11.62-32.16C32.95,387.25,32.01,366.86,35.63,347.58z"/>
		<path class="st1" d="M1050.77,284.11c-7.3,2.63-10.57,13.13-7.3,20.73c3.53,11.34,17.55,13.7,25.45,6.93
			c4.34-4.64,4.36-12.41,2.88-18.49C1068.28,284.31,1058.6,281.21,1050.77,284.11z"/>
		<path class="st1" d="M1901.6,284.27c-6.03,1.69-11.22,6.49-14.13,12.63c-3.42,8.05-0.94,20.19,7.39,22.83
			c12.96,6.33,28.19-12.63,21.59-26.74C1914.31,286.72,1907.24,282.88,1901.6,284.27z"/>
		<path class="st1" d="M1396.74,289.02c-9.82,6.42-7.81,26.21,2.88,30.34c9.23,6.17,23.54-2.78,21.79-15.54
			C1421.36,290.1,1406.57,283.42,1396.74,289.02z"/>
		<path class="st1" d="M657.76,298.68c-6.37,3.63-9.64,13.74-5.45,20.73c4.84,11.41,21.52,11.68,26.32,0.11
			C685.35,306.58,668.56,290.08,657.76,298.68z"/>
		<path class="st1" d="M826.58,298.51c-7.68,3.21-13.8,10.07-21.83,12.37c-9.16,2.69-18.81,3.45-27.53,7.85
			c-9.93,4.56-17.65,13.37-27.29,18.52c-5.86,3.34-12.48,7.14-14.92,14.51c-2.32,8.2,4.1,17.92,11.85,16.65
			c8.71,0.11,12.98-9.7,18.31-15.84c9.04-10.01,21.82-13.35,33.03-19.12c10.88-5.73,22.98-6.3,34.62-8.55
			c7.43-1.32,12.21-10.59,10.72-18.62C840.52,299.18,833.13,295.61,826.58,298.51z"/>
		<path class="st1" d="M709.54,302.9c-9.56,4.1-12.21,21.06-3.42,27.57c4.16,3.08,9.59,4.64,14.28,2.05
			c9.68-2.8,12.31-18.99,5.02-26.15C721.42,301.39,714.88,301.74,709.54,302.9z"/>
		<path class="st1" d="M611.61,309.85c-13.79,7.69-29.5,11.26-44.8,9.03c-8.28-1.26-16.05-6.88-24.55-5.51
			c-4.9,2.47-10.72,7.25-10.06,14.11c0.08,6.1,4.47,11.39,9.55,12.97c8.25,1.2,16.36-2.05,24.64-1.91
			c18.31-0.87,37.09,2.43,55.01-3.21c8.29-2.45,10.65-13.91,7.77-22.05C625.06,307.49,617.31,307.88,611.61,309.85z"/>
		<path class="st1" d="M483.17,447.7c-7.72-5.79-11.52-15.78-17.92-23.05c-8.29-10.23-19.31-17.03-27.48-27.41
			c-11.43-14.91-20.18-32.08-31-47.53c-5.86-8.94-6.49-20.75-12.29-29.69c-3.03-3.05-7.49-5.77-11.6-4.32
			c-10.43,2.88-10.54,18.99-3.85,26.28c6.68,7.86,12.55,16.54,17.44,25.93c15.04,27,34.11,50.85,54.72,72.54
			c5.14,5.06,11.1,9.42,14.65,16.22c4.15,6.91,6.22,15.51,11.99,21.11c6.83,7.31,20.14-0.15,19.04-10.81
			C496.05,457.95,489.19,452.49,483.17,447.7z"/>
		<path class="st1" d="M1513.99,315.67c-3.9,2.89-7.01,7.29-8.24,12.41c-1.92,9.74,6.2,19.9,14.96,18.99
			c7.12-0.91,13.35-7.49,14.92-15.37c0.08-4.86-2.03-9.54-4.95-13C1526.62,313.31,1519.46,314.89,1513.99,315.67z"/>
		<path class="st1" d="M340.8,328.7c-10.35,4.64-10.62,18.49-11.28,29.13c-0.41,10.59-7.51,18.21-12.41,26.5
			c-9.68,15.32-13.96,34.03-23.61,49.39c-7.17,11.27-14.59,22.86-25.26,30.23c-6.82,4.79-14.71,12.61-11.95,22.77
			c0.94,8.47,9.97,10.23,16.01,8.22c6.45-3.46,9.7-11.15,13.8-17.3c4.05-6.93,9.56-12.46,14.52-18.48
			c6.04-7.51,9.45-17.03,13.54-25.94c4.66-10.32,11.02-19.53,16.05-29.64c6.03-11.97,6.68-26.76,14.46-37.73
			c4.85-7.55,12.04-15,11.48-25.11C355.99,332.36,347.89,325.36,340.8,328.7z"/>
		<path class="st1" d="M1608.92,373.41c-11.16-11.29-21.51-23.65-30.25-37.42c-3.71-6.12-10.45-9.79-16.95-7.77
			c-4.32,2.02-8.4,6.75-7.57,12.46c-0.74,8.81,6.3,14.26,12.3,17.94c10.43,6.44,19.57,15.35,27.1,25.72
			c4.24,6.31,6.46,14.06,11.05,20.14c6.31,7.69,22.02,4.9,21.27-7.53C1626.63,385.16,1615.63,379.83,1608.92,373.41z"/>
		<path class="st1" d="M1392.47,371.03c-2.86-10.54,3.22-21.66-0.9-31.96c-1.55-4.86-6.15-7.96-10.61-8.05
			c-4.84,0.15-9.35,3.52-11.05,8.71c-3.26,6.92,0.33,14.47,2.44,21.1c3.15,8.18,4.23,17.05,5.65,25.76
			c1.72,11.55,6.49,22.13,8.33,33.66c1.45,7.44,1.76,15.65,5.97,21.99c5.54,7.63,18.38,5.29,20.7-4.59
			c3.01-8.27-1.84-16.23-5.77-22.83C1399.09,401.94,1395.87,386.14,1392.47,371.03z"/>
		<path class="st1" d="M1128.82,395.28c-11.59-10.68-22.41-22.46-32.58-34.83c-7.38-8.54-16.76-15.17-27.34-16.91
			c-22.17-2.34-43.3-14.15-65.91-10.92c-12.46,2.02-27.08-0.56-36.79,10.54c-11.95,14.28-19.15,32.9-31.77,46.58
			c-11.13,12.24-24.42,22.64-39.66,26.93c-5.8,1.98-12.81,4.21-14.96,11.48c-3.86,7.51,0.57,20.44,9.33,18.75
			c7.34,1.09,12.46-5.51,17.47-10.39c7.72-7.8,17.76-11.44,26.13-18.12c16.28-11.94,27.29-30.53,38.24-48.18
			c5.47-8.92,14.18-14.65,23.43-17.13c9.72-3.34,19.66,0.6,29.32,2.3c16.65,4.17,34.56,3.66,49.83,13.26
			c14.17,7.89,22.69,23.72,35.13,34.23c8.11,6.84,15.16,15.98,17.85,27.24c3.07,13.98-0.19,28.88-6.76,40.95
			c-6.48,11.74-13.36,24.33-24.61,30.8c-5.54,3.58-12.23,6.15-15.66,12.63c-4.51,7.53,1.15,19.75,9.35,19.16
			c8.28,1.26,14.44-6.33,18.76-13.28c7.66-12.91,19.42-21.81,26.81-34.97c11.44-18.34,12.72-41.95,10.64-63.54
			C1143.2,410.83,1136.39,402.03,1128.82,395.28z"/>
		<path class="st1" d="M251.2,334.55c-8.71-0.91-16.98,5.97-25.71,3.02c-5.09-0.8-10.25-3.99-15.38-2.34
			c-8,1.89-13.84,14.02-6.86,20.97c5.43,7.18,13.98,5.21,21.08,3.39c9-2.58,17.76,3.03,26.78,2.08c5.09-1.61,11.09-5.95,11.41-12.48
			C263.48,341.67,256.66,336.68,251.2,334.55z"/>
		<path class="st1" d="M1895.13,349.23c-15.42-2.78-28.88-16.88-45.25-12.02c-11.06,2.1-21.98,5.66-33.27,5.53
			c-8.95,0.18-17.93-0.63-26.84,0.31c-8.89,1.36-17.4,5.26-24.97,10.61c-17.24,11.92-33.52,25.56-48.77,40.54
			c-9.07,8.74-14.4,21.18-23.02,30.36c-4.19,4.77-9.03,8.94-12.38,14.54c-1.61,5.77-1.28,13.02,2.51,17.69
			c5.78,5.33,15.48,2.63,18.72-4.9c4.81-10.72,8.28-22.85,16.86-30.71c10.92-10.03,20.28-22.11,32.02-31.04
			c15.23-13.19,32.65-24.87,52.3-25.94c18.67-0.54,37.12-5.26,55.82-4.48c9.72,1.02,20.26,2.58,27.9,10.14
			c5.33,4.66,10.77,10.57,17.85,11.18c7.68-1.65,15.3-12.57,9.72-20.84C1910.67,352.22,1902.1,350.92,1895.13,349.23z"/>
		<path class="st1" d="M1197.81,349.79c-1.47-6.77-8.45-11.12-14.26-8.6c-4.23,1.39-7.42,5.71-7.8,10.7
			c-0.94,10.1,1.23,20.24,0.23,30.38c-1.27,14.6-1.16,29.34,0.52,43.9c2.3,16.27,0.1,33.25-5.8,48.29
			c-2.29,5.88-3.95,12.67-1.94,18.97c2.39,7.81,12,11.01,17.63,5.42c7.16-5.06,6.19-15.47,6.12-23.65
			c-0.85-13.98,4.47-27.21,3.82-41.19c0.89-18.9-3.52-37.59-1.73-56.47C1195.52,368.28,1199.46,359.23,1197.81,349.79z"/>
		<path class="st1" d="M163.85,347.53c-12.08,3.43-14.32,24.4-3.48,31.08c8.93,6.71,20.84-1.98,23.11-12.61
			C184.97,354.36,173.84,343.51,163.85,347.53z"/>
		<path class="st1" d="M708.78,357.56c-10.73-8.18-23.2,0.89-34.8,0.09c-11.24,0.47-20.89-9.53-32.05-8.04
			c-3.19,1.15-6.57,2.76-8.41,6.06c-5.24,8.25,2.29,19.9,10.23,20.95c8.24,0.56,16.27-2.56,24.52-2.19
			c12.38-0.74,23.47,8.7,35.95,6.53C713.14,378.96,716.64,363.43,708.78,357.56z"/>
		<path class="st1" d="M812.8,358.19c-8.51,3.6-11.48,14.71-18.87,20.09c-14.69,10.7-31.94,15.73-48.97,19.17
			c-15.03,2.9-29.09,10.2-44.18,12.72c-19.38,1.89-39.37,1.69-57.89-5.73c-12.52-3.97-23.05-12.79-33.64-20.9
			c-9.07-7.1-20.32-8.42-31-9.27c-8.67-0.74-16.43-6.55-25.21-6.26c-4.65-0.07-9.87,2.29-11.47,7.62
			c-3.57,6.23,0.33,14.93,6.15,17.23c7.24,3.23,15.1,0.37,22.62,0.67c10.55-1.08,19.99,5.1,29.36,9.63
			c16.28,8.16,31.17,20.14,48.66,25.09c12.1,3.83,24.7,3.86,37.17,4.12c25.84,0.52,50.07-11.22,74.95-17.52
			c11.52-2.95,23.74-4.51,33.89-11.88c7.43-5.37,14.73-11.01,22.6-15.58c5.4-3.52,12.31-8.29,11.99-16.36
			C830.17,361.53,820.27,354.52,812.8,358.19z"/>
		<g>
			<path class="st1" d="M1596,572.61c-4.3-16.71-8.45-34.57-4.25-51.87c3.25-18.52,14.88-34.66,13.46-54.21
				c1.42-17.41-8.05-32.51-18.56-43.97c-11.47-13.13-23.67-25.5-36.83-36.42c-12.86-10.47-28.84-12.92-43.99-16.04
				c-4.99-0.93-10.1-2.58-15.11-1.3c-16.11,3.25-25.31,19.58-35.61,32.14c-6.34,7.31-10.68,16.52-13.54,26.17
				c-5.84,19.35-10.4,39.18-14.78,59.01c-2.86,13.11-7.46,25.76-9.04,39.2c-0.72,13.98-0.9,28.28,2.71,41.83
				c5.7,23,11.05,46.16,17.58,68.93c4.38,16.36,7.06,34.33,17.63,47.42c7.2,8.42,14.48,16.82,21.93,25
				c8.24,8.81,20.47,8.16,30.91,6.4c13-2.63,26.66-3.43,38.62-10.32c19.01-10.9,36-25.54,53.02-39.89
				c7.92-6.23,13.81-17.02,12.14-28.21C1608.43,614.71,1601.84,593.72,1596,572.61z M1575.41,660.51
				c-17.81,12.52-35.8,25.54-56.09,32.34c-14.13,4.77-30.79,1.32-41.16-10.98c-10.62-11.46-14.91-27.77-20.07-42.79
				c-5.99-17.47-9.45-35.86-13.51-53.95c-3.04-14.13-8.99-27.72-8.56-42.55c-1-16.47,5.18-31.75,8.07-47.56
				c5.45-28.24,12.23-56.84,25.51-81.79c6.35-12.84,18.19-21.27,30.93-23.45c6.8-1.31,13.51,1.5,19.86,3.99
				c18.72,7.87,33.79,23.18,48.55,37.89c9.41,9.4,17.55,22.35,17.4,37.09c-1.19,16.34-9.7,30.47-12.37,46.44
				c-4.75,22.71-0.9,46.33,4.75,68.35c3.85,15.47,12.34,29.49,13.28,45.82C1592.93,642.51,1584.94,653.98,1575.41,660.51z"/>
		</g>
		<path class="st1" d="M114.1,371.75c-5.82,4.41-9.33,13.17-6.53,20.84c1.77,10.31,12.83,13.73,20.76,11.12
			c7.2-4.86,11.21-16.19,6.64-24.74C131.5,370.36,121.12,367.89,114.1,371.75z"/>
		<path class="st1" d="M1013.57,381.54c-4.65-0.98-10.04-1.76-14.36,0.74c-4.25,3.3-8.06,8.65-7.57,14.87
			c-0.19,9.47,8.43,16.21,16.24,15.49c6.74-1.85,12.23-8.16,13.96-15.71C1021.51,390.68,1018.09,384.96,1013.57,381.54z"/>
		<path class="st1" d="M234.27,453.42c0.6-14.67-9.98-26.37-9.33-41.02c-0.12-7.09,0.2-14.62-2.92-21.05
			c-1.83-5.32-7.45-8.31-12.19-7.62c-4.25,1.15-8.75,4.21-9.29,9.61c-2.69,14.61,9.01,25.34,10.24,39.31
			c1.84,18.27,8.8,36.2,5.85,54.82c-1.79,14.78-3.61,29.6-7.45,43.9c-2.07,6.19-0.29,13.26,3.83,17.8
			c5.89,8.09,19.94,1.91,19.32-8.69c0.49-13.98-0.89-28.06,1.23-41.93C234.79,483.56,233.99,468.46,234.27,453.42z"/>
		<path class="st1" d="M443.39,482.08c-5.13-7.22-10.73-13.98-16.65-20.35c-9.56-10.28-16.62-23.07-26.03-33.53
			c-4.79-5.48-10.13-10.59-13.27-17.54c-3.11-6.91-4.53-14.67-8.15-21.28c-3.23-5.42-10.39-8.6-15.56-4.75
			c-5.14,2.39-6.79,8.58-5.97,14.37c-0.15,8.68,7.09,13.45,12.26,18.38c9.35,7.98,13.09,21.13,20.66,30.89
			c6.61,8.42,14.44,15.54,20.37,24.65c5.78,8.62,12.46,16.43,20.32,22.66c6.91,5.29,11.24,13.48,16.05,20.99
			c4.53,7.29,15.91,9.63,20.95,1.8c3.26-3.56,2.63-9.58,1.46-14.04C463.5,493.41,450.37,492.18,443.39,482.08z"/>
		<path class="st1" d="M256.37,389.64c-11.58,6.88-10.81,30.91,2.97,33.66c10.35,3.36,19.87-8.29,18.14-19.68
			C277.88,391.82,265.26,383.24,256.37,389.64z"/>
		<path class="st1" d="M1049.38,391.78c-4.62,2.87-7.77,8.31-8.9,14.04c0.38,11.11,11.02,20.9,20.65,16.52
			c7.72-2.61,11.52-13.73,7.61-21.6C1066.13,391.63,1056.58,389.9,1049.38,391.78z"/>
		<path class="st1" d="M28,584.89c9.4-12.66,15.25-29.71,12.5-46.29c-2.96-18.36-12.96-33.66-19.19-50.61
			C15.51,471.64,7.83,456.31,0,441.1V485c3.45,7.44,6.59,15.07,9.52,22.8c3.67,9.6,8.36,18.81,10.4,29.08
			c1.84,12.46,0.86,26.1-5.99,36.53c-3.95,6.25-8.7,11.52-13.94,16.12v25.99c3.01-2.07,5.93-4.32,8.71-6.83
			C16.23,601.97,21.75,593.01,28,584.89z"/>
		<path class="st1" d="M1875.34,400.27c-16.11-6.47-33.51-4.88-50.24-3.87c-14.99,2.05-30.11,5.48-43.68,13.22
			c-14.97,9.07-27.61,22.1-40.36,34.57c-7.7,7.42-12.27,17.89-19.23,26.05c-6.8,7.81-18.57,9.27-22.69,20.01
			c-5.74,9.14,3.79,23.72,13.32,19.53c8.45-2.5,11.39-12.66,15.11-20.41c3.34-8.05,10.06-13.13,16.28-18.14
			c12.04-9.37,20.29-23.63,32.51-32.83c15.56-13.24,35.14-18.14,54.12-20.75c17.74-1.54,36.89-2.19,52.91,8.09
			c13.87,8.47,20.41,25.7,27.63,40.58c3.14,6.18,6.25,12.4,9.2,18.7v-44.05c-3.37-6.45-6.83-12.84-10.35-19.15
			C1901.59,409.54,1887.71,405.08,1875.34,400.27z"/>
		<path class="st1" d="M1880.62,612.91c-13.55,5.97-26.13,15.73-41.01,16.91c-11.48,2.03-20.93-10.07-32.35-6.99
			c-6.8,2.08-10.12,12.59-5.2,18.59c7.55,10.68,21.21,7.25,31.75,9.65c16.42,4.15,30.67-8.04,45.21-14.39
			c13.62-6.74,28.42-12.38,41.24-21.2v-25.99C1908.46,599.79,1894.32,606.56,1880.62,612.91z"/>
		<path class="st1" d="M164.12,406.82c-9.26,7.49-14.96,19.32-24.46,26.54c-10.81,8.09-17.54,20.84-25.06,32.36
			c-11.52,17.63-20.97,36.85-32.95,54.1c-8.03,11.26-12.37,25.56-12.48,40.02c0.22,13.46,4.99,26.11,10.55,37.78
			c8.59,18.12,15.4,37.26,20.56,56.97c6.41,25.03,7.23,51.55,15.11,76.13c3.26,10.36,8.41,20.1,9.46,31.21
			c1.02,7.42-0.37,16.36,5.07,22.03c4.99,6.29,17.4,6.4,19.91-2.83c4.28-9.16-1.51-18.57-5.63-26.28
			c-6.63-11.01-9.97-23.87-13.39-36.46c-4.91-17.88-5.06-36.8-8.88-54.96c-3.97-18.95-9.48-37.59-17.44-54.88
			c-7.02-15.87-15.75-32.04-15.48-50.37c0.48-17.54,11.25-31.23,19.42-45.08c13.71-23.83,28.09-47.31,45.38-68.04
			c6.91-8.29,18.36-8.55,25.06-17.15c4.58-4.73,3.61-13.39,0.6-18.86C175.07,405.61,169.21,405.62,164.12,406.82z"/>
		<path class="st1" d="M97.83,419.06c-3.29-2-7.01-4.41-10.85-3.69c-9.93,1.32-16.72,14.65-11.75,24.76
			c4.8,13.3,24.37,11.14,27.63-2.43C103.6,431.24,103.56,422.71,97.83,419.06z"/>
		<path class="st1" d="M984.29,447.03c-0.48-7.97,1.8-17.21-2.88-24.07c-3.25-5.48-9.89-4.32-14.84-3.56
			c-5.03,3.19-8.22,9.83-6.44,16.32c2.88,11.41,10.83,20.9,10.81,33.34c-0.38,11.39-1.27,22.91-3.57,34.07
			c-8.09,30.47-28.39,54.71-51.42,71.97c-6.57,4.64-14.5,5.29-21.64,8.29c-5.03,2-9.1,7.38-9.52,13.48
			c-0.89,7.25,5.63,14.15,11.99,13.17c7.42,0.98,12.52-5.84,17.67-10.65c7.76-7.77,17.99-11.13,26.22-18.12
			c25.09-22.79,44.21-55.16,49.17-91.5C991.7,475.01,983.08,461.78,984.29,447.03z"/>
		<path class="st1" d="M607.54,445.95c-12.89-5.86-25.83-11.81-37.75-19.95c-4.3-2.47-9.14-5.97-14.13-4.38
			c-5.88,2.21-11.8,9.83-8.75,17.05c1.92,8.03,9.85,10.27,16.2,11.5c13.27,2.07,26.07,7.22,37.91,14.26
			c8.13,4.99,14.73,15.53,24.97,14.06c9.55,0.11,13.28-15.14,6.74-21.88C626,449.23,615.84,449.7,607.54,445.95z"/>
		<path class="st1" d="M1525.77,439.14c-7.99-8.05-16.72-22.05-28.98-16.99c-7.15,3.84-9.78,15.4-3.98,21.94
			c7.87,8.19,19.86,6.53,28.51,13.15c7.06,5.79,11.1,14.93,17.58,21.44c3.72,3.9,9.4,5.28,14.21,3.25
			c5.69-3.17,9.31-12.35,5.11-18.56C1550.89,450.23,1535.02,449.9,1525.77,439.14z"/>
		<path class="st1" d="M1083.68,430.58c-6.12,2.32-7.57,10.32-10.49,15.95c-6.16,15.95-18.15,27.41-28.9,39.29
			c-7.81,8.98-20.56,6.96-28.72,15.09c-4.47,3.97-3.53,11.19-2.77,16.78c2.11,4.19,6.57,5.88,10.62,6.28
			c8.2-0.22,14.71-6.75,20.69-12.39c6.35-6.64,13.69-11.91,20.13-18.47c9.22-9.29,14.18-22.85,24.27-31.18
			c5.96-5.22,13.35-11.72,12.23-21.35C1100.33,431.26,1090.58,426.9,1083.68,430.58z"/>
		<path class="st1" d="M1018.41,434.71c-9.45,3.12-13.05,17.43-7.16,26.05c3.78,6.18,11.4,5.66,17.21,4.53
			c8.15-2.56,9.89-13.84,7.92-21.91C1034.41,434.97,1025.08,431.67,1018.41,434.71z"/>
		<path class="st1" d="M346.09,436.73c-9.46,1.07-17.91,13.66-12.65,23.83c3.94,12.7,22.57,13,26.39,0.02
			C365.6,450.1,356.18,436.18,346.09,436.73z"/>
		<path class="st1" d="M1861.08,448.01c-21.26,4.23-42.07,11.46-63.6,14c-6.01,0.63-11.44,5.04-13.34,11.59
			c-2.81,5.45,1.5,12.01,5.66,14.84c6.72,3.97,14.01-0.45,20.11-3.87c10.26-6.25,21.68-10.48,33.41-10.7
			c7.68-0.42,15.44,1.11,23.07-0.25c6.74-1.52,10.2-10.5,8.32-17.54C1871.93,450.68,1866.56,447.36,1861.08,448.01z"/>
		<path class="st1" d="M926.26,454.13c-2.84,1.89-4.69,5.3-5.25,8.92c-1.79,11.68-1.08,24.18-5.99,35.01
			c-7.76,17.43-22.45,30.34-38.76,36.22c-6.2,2.34-13.58,5.08-16.08,12.7c-3.68,7.66,2.11,18.14,9.72,18.38
			c8.7,1.65,14.46-7.18,20.06-13.13c9.23-11.19,23.91-14.33,32.24-26.7c8.81-12.03,10.49-28.08,16.99-41.5
			c3.11-7.91,8.84-17.49,3.4-25.76C939.72,451.4,931.57,451.75,926.26,454.13z"/>
		<path class="st1" d="M677.42,464.9c-3.12-6.01-10.87-7.44-15.94-4.15c-2.82,2.45-5.85,5.71-5.5,10.14
			c-0.52,11.35,7.1,20.24,9.41,30.89c3.72,11.39,0.94,23.53,1.51,35.27c0.23,7.27,4.2,15.32,11.3,15.65
			c7.39,1.47,12.15-7.44,13.39-14.49c-1.75-15.09-11.52-27.79-11.11-43.37C679.85,484.89,682.67,473.73,677.42,464.9z"/>
		<path class="st1" d="M173.8,463.12c-9.35,5.77-10.5,23.4-0.8,29.38c9.14,7.85,22.43-3.23,21.98-15.13
			C195.35,465.88,182.46,457.15,173.8,463.12z"/>
		<path class="st1" d="M528.84,462.56c-7.02,4.53-9.42,13.65-11.84,21.75c-3.83,13.22-13.32,22.73-19.91,34.12
			c-7.09,11.96-14.81,23.59-24.87,32.56c-13.21,12.19-25.21,27.6-42.25,32.83c-18.76,6.06-38.76,5.68-57.14,13.46
			c-14.92,4.88-26.96,17-41.93,21.64c-5.78,2.17-12.89,4.34-15.16,11.59c-3.94,8.05,2.78,18.99,10.73,17.7
			c6.41,0.02,11.06-5.71,15.91-9.61c9.97-9.49,22.69-13.61,34.24-19.9c14.32-7.6,30.16-10.52,45.87-11.05
			c11.73-0.35,23.05-5.23,32.5-12.97c14.31-11.84,28.43-24.24,40.17-39.41c10.6-14.33,21.56-28.57,29.4-45.13
			c5.51-12.17,17.51-19.37,20.95-32.88C547.38,467.09,536.99,457.75,528.84,462.56z"/>
		<path class="st1" d="M66.81,466.46c-4.61-1.36-9.91-1.69-14.32,0.47c-9.31,6.47-9.46,25.45,1.42,30.19
			c7.75,4.57,17.21-1.35,20.06-10.07C77.17,479.34,72.45,470.78,66.81,466.46z"/>
		<path class="st1" d="M980.45,701.74c-8.74-7.92-20.26-1.04-29.96-5.12c-15.57-5.75-29.4-16.71-40.67-30
			c-12.6-14.71-25.5-29.06-38.39-43.44c-10.17-11.17-18.51-24.27-26.16-37.7c-9.48-16.67-13.88-38-8.6-57.28
			c2.24-10.79,9.49-19.14,17.28-25.3c8.74-6.84,19.95-5.73,29.61-9.76c6.08-2.45,9.74-10.83,7.43-17.7
			c-1.28-6.38-7.73-9.25-12.98-8.53c-8.1,1.74-14.58,7.98-21.89,11.88c-8.84,5.23-19.43,7.64-26.33,16.34
			c-7.28,9.74-9.49,22.67-11.89,34.79c-1.17,7.47-3.04,15.09-1.69,22.71c2.28,15.06,5.93,30.04,12.1,43.73
			c10.83,22.18,27.76,39.15,43.39,56.9c15.67,16.94,29.8,35.92,47.43,50.41c8.35,6.99,18.34,10.7,28.28,13.68
			c9.07,2.63,17.92,8.58,27.57,6.75C982.93,721.29,987.47,708.49,980.45,701.74z"/>
		<path class="st1" d="M1383.16,466.7c-6.08,1.69-10.73,7.95-10.83,15.09c-1.05,9.51,6.18,18.12,14.25,19.4
			c5.84-0.07,11.67-4.1,13.98-10.27C1406.51,479.3,1394.57,461.83,1383.16,466.7z"/>
		<path class="st1" d="M1544.03,511.84c-7.01-7.33-17.24-7.53-25.54-12.11c-11.39-5.1-18.4-16.95-27.34-25.7
			c-4.05-4.35-10.73-5.83-15.64-2.83c-7.3,4.43-7.53,16.65-1.83,22.71c8.9,7.64,20.91,8.29,29.86,15.91
			c9.16,6.86,16.04,17.03,25.42,23.49c5.88,4.66,13.98,1.56,17.69-4.86C1547.58,522.93,1548.38,515.81,1544.03,511.84z"/>
		<path class="st1" d="M390.14,485.71c-3.94-4.15-10.02-6.82-15.21-4.19c-7.45,3.01-13.27,12.75-9.71,21.57
			c3.91,12.39,21.07,14.8,26.92,3.09C394.57,499.82,395.28,490.62,390.14,485.71z"/>
		<path class="st1" d="M573.09,485.13c-8.95,2.41-12.94,15.6-8.1,24.16c5.63,13.39,25.98,8.53,27.46-5.84
			C594.8,491.35,583.15,480.9,573.09,485.13z"/>
		<path class="st1" d="M1374.59,527.62c-14.2-5.75-24.08-19.19-32.92-32.29c-3.65-5.66-9.33-10.65-15.86-8.25
			c-9.78,2.99-10.6,18.92-2.96,25.08c7.62,5.99,16.2,10.38,23.36,17.16c10.26,8.53,17.63,20.73,27.86,29.26
			c8.6,7.38,22.01-4.73,17.96-15.87C1390.3,533.48,1381.03,531.29,1374.59,527.62z"/>
		<path class="st1" d="M329.17,489.42c-4.17,1.09-7.99,3.47-11.33,6.47c-13.56,13.22-28.92,25.45-46.72,29.73
			c-5.95,1.74-13.17,4.3-14.86,11.94c-4.05,9.25,4.88,20.39,13.47,18.34c8.48-1.65,13.73-10.12,20.55-15.2
			c12.08-9.05,24.96-17.21,39.18-21.08c6.44-2.14,14.59-7.42,13.76-16.22C343.89,495.32,335.85,488.41,329.17,489.42z"/>
		<path class="st1" d="M1882.74,492c-7.68,4.15-13.94,11.74-22.76,12.96c-14.25,2.69-28.64,6.05-41.44,13.91
			c-7.91,5.1-16.75,7.55-25.42,10.28c-6.4,1.65-11.56,8.03-11.99,15.49c0.86,6.66,5.92,13.17,12.31,12.41
			c6.55,0.47,11.29-5.39,15.96-9.64c10.12-10.74,24.64-11.72,37.19-16.65c11.3-3.32,21.16-12.46,33.26-12.04
			c7.61-0.04,16.8-1.04,20.99-9.4c1.4-5.34,0.61-11.52-2.62-15.82C1893.76,490.12,1887.68,490.27,1882.74,492z"/>
		<path class="st1" d="M778.51,493.72c-9.91,2.07-17.66,14.42-12.45,25.19c5.88,11.05,21.45,11.35,27.49,0.35
			C802.65,508.41,790.02,490.49,778.51,493.72z"/>
		<path class="st1" d="M1757.86,493.61c-9.3,2.92-14.06,17.3-7.1,25.63c6.26,9.58,20.41,6.55,24.06-4.26
			C1779.61,503.48,1768.44,489.62,1757.86,493.61z"/>
		<path class="st1" d="M199.96,579.23c-7.42-16.49-13.26-34.44-24.87-47.92c-5.89-6.64-9.85-14.93-14.67-22.49
			c-3.98-6.04-11.6-5.84-17.5-4.52c-4.15,3.01-6.48,9.25-4.88,14.65c1.36,5.64,5.99,9.12,10.02,12.26
			c16.88,10.36,24.22,31.78,32.14,50.28c5.26,17.74,16.86,32.94,17.96,52.13c0.71,5.82-0.22,12.5,3.35,17.36
			c4.66,8.29,18.76,7.89,21.16-2.36c4.23-8.87-2.02-17.94-6.11-25.25C208,610.26,206.61,593.42,199.96,579.23z"/>
		<path class="st1" d="M623.04,504.55c-5.24,3.8-7.28,10.87-9.85,16.91c-5.21,14.22-17.24,23.18-23.21,36.87
			c-8.45,19.25-18.25,37.87-30.72,54.15c-20.47,30.47-51.56,48.63-73.2,77.83c-10.2,12.39-19.71,25.48-29.74,38.02
			c-9.79,11.37-19.76,22.55-29.67,33.79c-9.08,10.07-16.49,21.84-24.89,32.62c-11.85,16.91-26.44,30.89-39.53,46.49
			c-12.37,13.48-23.47,28.6-37.5,40.02c-13.16,10.94-28.31,18.26-41.66,28.87c-13.32,10.03-22.83,24.96-35.37,36.05
			c-11.86,12.8-24.98,23.94-38.07,35.06c-8.13,6.6-14.07,16.11-22.64,22.09c-4.32,3.19-9.08,5.57-13.28,9.01
			c-5.89,4.6-7.42,14.67-3.76,21.51c4.66,5.32,12.65,5.53,17.59,0.52c6.72-6.96,10.15-17.41,18.11-23
			c14.76-11.28,28.41-24.29,42.67-36.33c18.49-15.83,31.5-38.71,51.36-52.69c12.25-9.07,27.45-12.35,38.36-23.92
			c11.56-12.22,22.19-25.52,33.57-37.93c19.42-20.79,38.25-42.34,54.9-66.02c13.61-19.88,30.72-36.12,45.83-54.43
			c11.05-14.31,21.51-29.21,33.76-42.26c11.25-13.52,24.72-24.2,37.3-36.07c18.64-19.47,36.83-40.11,49.73-65.07
			c8.13-16.14,15.36-32.92,24.7-48.25c4.88-8.25,12.76-13.02,19.05-19.66c5.59-5.75,6.22-17.21,0.74-23.22
			C633.2,502.81,627.7,503.16,623.04,504.55z"/>
		<path class="st1" d="M1167.67,563.99c-2.35-7.64-5.32-15.31-5.18-23.55c-0.33-7.09,0.65-14.35-0.75-21.31
			c-2.9-4.51-7.7-9.41-12.9-8.6c-5.8,1.8-10.4,7.86-10.83,14.67c0.5,6.33,3.59,11.9,6.05,17.49c6.5,12.77,6.22,27.93,9.68,41.83
			c2.88,12-0.53,25.05,4.04,36.66c1.73,5.1,7.02,7.18,11.47,7.73c6.16-1.29,11.51-7.6,11.91-14.69c-1.04-6.86-3.64-13.24-5.65-19.75
			C1172.24,584.52,1170.83,573.95,1167.67,563.99z"/>
		<path class="st1" d="M1756.66,707.83c-15.86-17.14-34.2-30.93-51.66-45.86c-13.42-11.59-30.75-17.86-40.97-33.79
			c-9.89-16.8-12.01-37.29-17.58-56.05c-2.92-11.16-8.11-21.92-7.69-33.85c0.1-8.22,0-17.13-4.62-23.94
			c-3.57-3.17-8.75-3.72-12.87-1.76c-4.76,2.89-8.09,10.12-5.95,16.05c2.96,10.23,7.87,19.7,9.42,30.45
			c3.44,21.29,9.74,41.75,14.58,62.67c2.35,9.74,5.48,19.88,12.3,26.87c5.62,5.51,12.2,9.61,18.56,13.93
			c18.7,12.19,36.36,26.39,53.06,41.83c11.1,10.59,25.02,17.83,33.04,32.12c4.57,7.11,12.31,17.16,20.85,11.52
			c7.65-2.99,7.45-14.15,4.62-21.03C1775.5,717.54,1764.08,715.78,1756.66,707.83z"/>
		<path class="st1" d="M722.85,517.48c-9.78,6.14-11.37,23.4-3.05,31.88c4.49,4.19,11.05,4.1,16.43,2.56
			c9.37-5.79,10.64-20.29,5.99-30.14C737.62,515.8,729.16,514.27,722.85,517.48z"/>
		<path class="st1" d="M1218.73,562.69c-4.65-9.01-4.19-19.84-6.74-29.6c-1.87-6.11-7.19-11.44-13.12-11.17
			c-5.78-0.02-10.84,5.12-10.35,11.89c-1.5,10.81,6.11,18.7,11.07,26.76c7.87,11.37,9.49,26.19,15.44,38.67
			c2.92,6.82,10.73,10.65,16.99,7.47c7.01-2.25,9.49-13.06,5.7-19.59C1232.65,577.78,1223.76,572.06,1218.73,562.69z"/>
		<path class="st1" d="M1248.92,523.78c-9.45,3.12-13.21,17.34-6.93,25.74c6.97,10.12,24,6.01,25.6-7.18
			C1269.67,530.92,1258.79,519.15,1248.92,523.78z"/>
		<path class="st1" d="M95.14,1072.37c-6.59-34.92,8.36-69.21,5.74-104.21c-1.28-13.87-6.72-27.26-5.24-41.39
			c1.05-8.72,3.57-17.21,7.28-24.94c3.9-8.25,10.54-14.11,15.63-21.35c6.55-9.18,14.22-17.19,21.55-25.56
			c14.59-16.84,31.65-30.73,46.07-47.75c18.63-21.92,14.2-55.79,28.8-80.21c15.42-29.04,41.07-47.72,61.07-72.16
			c12.19-14.39,15.89-34.86,26.52-50.44c8.62-12.93,20.84-22.07,33.87-28.41c18.48-9.79,38.85-12.97,58.24-19.64
			c10.65-3.74,22.34,1,32.71-3.93c6.16-2.8,9.22-11.22,7.01-18.21c-2.67-5.19-8-8.66-13.32-8.14c-10.34,2.08-18.83,10.2-29.28,11.88
			c-14.5,2.58-29.32,3.74-43.23,9.5c-16.28,6.64-32.32,14.73-46.47,26.14c-10.88,8.38-16.62,22.29-22.53,35.05
			c-8.56,19.12-21.46,35.05-33.91,50.95c-9.41,11.96-21.91,19.99-31.77,31.36c-6.35,7.11-10.04,16.49-13.42,25.7
			c-5.07,13.89-12.18,26.84-15.89,41.36c-3.49,13.04-5.93,27.24-14.46,37.55c-9.89,13.62-24.1,21.8-34.58,34.72
			c-10.62,12.59-22.11,24.27-32.26,37.35c-7.49,11.81-15.31,23.42-22.04,35.83c-7.94,15.58-3.3,33.64-1.64,50.26
			c1.87,20.48,1.94,41.32-1.32,61.66c-2.18,12.41-1.05,25.2-3,37.65c-0.8,7.97-3.26,15.56-4.17,23.51c-0.27,1.9-0.19,3.82,0.16,5.65
			h24.29C95.76,1078.89,95.34,1075.47,95.14,1072.37z"/>
		<path class="st1" d="M1307.35,527.57c-4.09-0.98-8.48-1.09-12.46,0.35c-12.29,5.37-8.43,30.06,5.1,29.19
			c8.47,2.21,15.15-5.95,16.31-14.78C1315.45,536.28,1312.45,530.16,1307.35,527.57z"/>
		<path class="st1" d="M1481.9,527.62c-4.01-1.13-8.37-1-12.23,0.63c-6.08,2.11-8.51,9.74-8.89,16.27
			c1.6,9.68,9.98,18.75,19.15,16.47c6.93-1.58,11.1-9.07,12.66-16.36C1491.56,537.64,1488.08,530.18,1481.9,527.62z"/>
		<path class="st1" d="M549.85,529.89c-6.97,2.2-9.52,10.47-12.04,17.22c-6.03,18.32-19.98,30.84-31.38,44.75
			c-15.36,18.41-36.37,29.47-50.92,48.81c-9.55,13.95-15.52,30.92-27.06,43.17c-14.91,15.73-33.64,27.06-45.38,46.42
			c-7.45,13.08-13.9,27.15-23.81,38.18c-9.59,11.68-21.07,20.99-30.85,32.45c-10.79,10.16-20.52,21.7-31.87,31.12
			c-16.45,14.37-35.18,24.92-51.42,39.61c-19.46,17.66-37.57,37.13-55.88,56.25c-10.17,9.41-18.55,21.02-29.02,30.07
			c-10.3,10.68-23.93,18.52-29.58,33.77c-5.33,12.35-1.53,26.54-5.41,39.28c-2.51,9.5-7.28,19.06-5.11,29.3
			c2.5,9.01,14.06,11.92,19.76,4.95c6.49-6.86,4.24-17.63,3.1-26.35c-2.45-14.93,1.94-30.08,8.55-42.88
			c7.66-14.42,21.12-22.62,31.99-33.43c22.62-22.2,44.18-45.69,66.94-67.69c22.68-21.94,50.57-35.92,72.17-59.42
			c11.39-10.23,20.99-22.66,32.28-32.99c9.6-9.42,18.3-19.92,25.92-31.4c9.4-13.26,17.03-28.19,28.09-39.87
			c9.68-11.55,21.36-20.68,30.96-32.34c13.09-14.4,22.27-32.54,34.46-47.83c6.72-8.49,15-15.06,22.96-21.92
			c12.98-11.15,25.56-23.05,36.27-37c6.74-9.16,11.28-20.22,18.86-28.6c4.09-4.73,9.1-8.83,11.6-14.98
			c0.61-4.56,0.71-9.34-0.37-13.8C561.51,528.86,554.56,528.08,549.85,529.89z"/>
		<path class="st1" d="M1764.77,572.8c-9.27-9.79-18.83-19.57-25.62-31.81c-3.12-6.04-9.79-10.9-16-8.76
			c-9.27,2.72-10.83,18.25-3.41,24.16c5.89,5.66,12.81,9.94,18.22,16.3c7.19,8.58,16.27,14.84,22.88,24.05
			c4.38,5.9,8.18,12.68,14.03,16.91c4.62,1.2,10.15,1.04,13.96-2.61c3.94-4.41,4.73-11.72,1.39-16.87
			C1784.18,583.85,1772.63,580.88,1764.77,572.8z"/>
		<path class="st1" d="M1899.82,538.51c-6.27,2.63-10.94,8.18-16.17,12.66c-5.52,4.79-12.42,6.75-18.87,9.34
			c-9.3,3.45-18.22,8.53-28.08,9.51c-5.99,1.14-12.29,0.87-17.97,3.39c-8.39,4.01-8.56,22.22,1.36,23.92
			c11.66,3.17,21.22-7.4,32.13-9.9c10.79-2.74,21.27-6.93,30.67-13.6c9.61-6.95,24.49-4.55,30.27-17.54
			C1918.28,547.17,1908.52,534.32,1899.82,538.51z"/>
		<path class="st1" d="M177.05,670.1c-1.4-12.15-5.73-23.49-9.5-34.86c-5.6-15.73-10.24-32.07-18.45-46.4
			c-5.52-9.51-7.87-20.57-10.85-31.27c-1.61-6.36-7.25-10.74-13.12-9.76c-4.83,0.09-10.01,4.15-9.34,10.18
			c-2.03,14.33,11.14,22.03,15.1,34.12c10.66,30.04,25.39,59.18,27.75,92.04c0.98,11.28-6.44,21.86-4.05,32.96
			c1.47,9.83,14.61,13.04,19.5,4.79c5.47-6.36,3.75-15.58,2.59-23.4C175.07,689.02,178.47,679.56,177.05,670.1z"/>
		<path class="st1" d="M1123.96,561.15c-10.96-7.38-23.61,1.47-35.18-1.58c-13.46-2.91-26.4-9.45-40.28-9.16
			c-9.82-0.29-19.86,1.83-29.41-1.36c-6.95-2.09-14.77-5.1-21.66-1.45c-8.39,5.68-5.47,20.23,3.15,23.66
			c10.66,2.25,21.22-3.21,31.94-1.37c14.88,2.45,29.7,6.33,44.85,6.08c9.1-0.15,17.93,2.8,26.36,6.51
			c5.65,2.09,11.96,5.59,17.69,1.72C1129.61,580.61,1131.49,566.73,1123.96,561.15z"/>
		<path class="st1" d="M1159.49,654.88c-8.55-3-15.78,4.64-22.41,9.48c-8,6.53-18.34,6.4-27.18,10.74
			c-6.01,2.72-11.06,7.47-15.52,12.66c-8.09,9.42-17.88,17.19-28.94,21.42c-14.03,5.64-29.32,5.75-43.24,11.86
			c-16.34,7.25-28.71,22.4-44.93,29.93c-13.12,6.31-28.23,10.32-42.1,4.55c-16.72-6.86-30.82-19.9-43.67-33.48
			c-16.45-18.32-32.61-36.97-49.2-55.12c-10.96-10.7-21.4-22.11-31.43-33.92c-9.04-10.65-13.23-25-17.76-38.53
			c-4.05-11.63,0.3-24.76-4.36-36.22c-2.29-5.17-7.25-9.4-12.49-8.96c-7.01,0.76-12.65,8.69-11.37,16.58
			c1.79,9.18,8.24,16.08,10.27,25.19c2.67,11.7,2.13,24.38,7.09,35.38c5.35,11.98,13.31,22.35,22.45,30.89
			c10.75,9.49,19.5,21.46,30.22,31.04c16.84,17.81,32.61,36.91,49.13,55.1c17.76,20.06,40.71,36.53,66.37,38.04
			c27.4-3.47,49.83-23.31,74.02-36.42c14.63-8.47,30.9-11.94,46.67-16.6c8.33-2.39,16.51-6.29,22.99-12.84
			c10.68-10.7,22.06-20.86,35.2-27.41c7.72-3.9,16.27-3.82,24.52-4.84c7.13-0.71,12.49-7.69,14.09-15.22
			C1166.99,662.63,1163.73,657.77,1159.49,654.88z"/>
		<path class="st1" d="M1529.62,559.15c-10.75,7.2-19.62,18.01-31.62,22.83c-7.92,3.76-17.85,4.28-23.59,12.33
			c-5.09,6.44-2.86,18.7,4.96,20.95c7.64,3.86,14.35-3.17,19.24-8.92c9.38-11.09,22.04-18.01,35.4-20.37
			c7.85-1.22,16.98-6.99,16.83-17.11C1550.03,557.68,1537.15,553.34,1529.62,559.15z"/>
		<path class="st1" d="M640.5,563.23c-8.8,8.09-5.88,22.96-10.54,33.63c-12.79,28.86-33.37,51.91-50.62,77.33
			c-12.56,16.65-29.86,27.13-44.85,40.54c-6.78,6.1-12,13.95-17.65,21.29c-6.97,8.98-19.47,11.97-22.9,24.37
			c-3.94,9.36,6.11,19.95,14.35,16.33c10.77-3.41,12.75-17.71,19.8-25.89c13.79-16.63,30.59-29.53,47.35-42.01
			c13.94-10.31,22.36-26.89,32.61-41.23c8.9-12.99,19.75-24.18,27.9-37.86c7.1-11.66,9.56-25.97,16.62-37.67
			c4.4-7.05,7.3-15.82,4.95-24.4C653.59,562.12,646.1,558.59,640.5,563.23z"/>
		<path class="st1" d="M1327.68,567.09c-13.1,5.86-9.85,32.67,4.95,32.34c9.87,1.76,19.43-8.6,17.36-19.88
			C1348.98,567.92,1336.43,561.41,1327.68,567.09z"/>
		<path class="st1" d="M242.95,571.98c-14.25,1.74-17.77,27.08-4.69,33.32c7.87,5.57,18.68-0.98,21.1-10.46
			C263.41,583.8,253.13,569.85,242.95,571.98z"/>
		<path class="st1" d="M688.63,572.15c-8.29,5.32-7.96,17.45-7.8,26.85c0.76,13.04-3.59,25.48-8.67,36.92
			c-4.24,9.25-11.06,16.41-16.84,24.37c-6.16,7.47-11.2,16.49-19.21,21.7c-6.38,4.93-15.52,9.07-16.41,18.99
			c-1.46,10.18,8.65,18.45,16.86,14.02c10.53-7.14,13.73-21.81,22.41-31.04c10.45-11.3,22.72-20.81,31-34.42
			c7.53-13.24,4.24-29.91,9.31-44.08c2.71-8.2,7.45-16.56,5.4-25.67C702.08,572.68,694.91,569.51,688.63,572.15z"/>
		<path class="st1" d="M1270.19,576.32c-5.7,4.15-10.88,13.13-6.86,20.64c3.34,8.79,13.87,14.11,21.37,8.53
			c8.29-4.66,9.72-18.66,3.82-26.19C1283.49,574.67,1276.22,574.78,1270.19,576.32z"/>
		<path class="st1" d="M866.34,774.38c-15.9-18.21-29.07-39.47-46.73-55.69c-11.4-12.41-23.41-24.11-35.35-35.86
			c-8.97-9.05-19.84-15.11-29.11-23.63c-7.42-6.71-9.45-17.86-10.6-27.93c-0.63-12.04,3.63-23.46,5.26-35.2
			c1.65-8.74-5.84-18.34-13.55-17.94c-6.5,2.39-11.91,10.36-10.25,18.3c1.7,11.88,2.21,24.07,0.52,36
			c-1.04,9.03-2.58,18.9,1.35,27.37c3.86,9.75,12.63,14.82,20.05,20.55c22.91,16.95,43.62,37.26,63.45,58.5
			c15.42,13,25.6,31.8,38.96,47.14c7.25,8.36,11.43,20.44,20.95,26.07c7.8,4.68,19.3-2.69,17.54-13.26
			C887.62,785.25,873.55,782.69,866.34,774.38z"/>
		<path class="st1" d="M1383.38,582.57c-10.1,2.68-11.52,18.36-6.4,26.84c6.35,8.79,22.06,7.64,24.85-4.52
			C1406.67,592.23,1394.78,578.23,1383.38,582.57z"/>
		<path class="st1" d="M1112.32,614.82c-13.84,3.84-27.29-3.21-40.9-4.99c-22.5-4.3-45.45-3.65-67.95-7.85
			c-12.64-1.65-21.12-18.25-34.86-12.97c-4.72,3.06-8.73,9.4-6.3,15.69c2.59,9.96,13.08,11.41,20.85,11.7
			c14.01,0.42,26.21,10.34,40.24,10.39c8.99,0.26,17.97-0.47,26.97,0.2c14.26,1.31,27.96,6.64,42.17,8.53
			c11.36,1.56,22.72,5.68,34.27,3.77c7.51-1.22,12.22-13.08,7.3-19.97C1129.4,611.05,1119.49,613.97,1112.32,614.82z"/>
		<path class="st1" d="M92.51,756.99c-7.8-24.85-15.63-49.9-19.19-76.07c-1.61-12.15-4.5-24.05-8.85-35.32
			c-4.72-11.09-0.65-24.11-5.43-35.12c-2.58-4.64-7.25-9.14-12.38-8.29c-5.17,0.96-10.73,5.26-9.59,11.96
			c-1.6,12.72,8.56,21.29,10.87,32.9c2.43,12.17,3.07,24.74,5.73,36.89c4.01,18.25,7.06,36.88,13.09,54.49
			c5.99,16.78,10.55,34.14,15.71,51.26c3.75,12.81-1.02,29.93,9.4,39.47c5.21,2.28,13.12,2.62,16.38-3.69
			c5.07-7.76,1.5-17.88-2.5-25.15C98.32,787.21,97.16,771.36,92.51,756.99z"/>
		<path class="st1" d="M1550.26,608.03c-9.04,3.45-13.49,14.04-21.25,19.64c-8.17,6.97-18.85,6.3-28.23,9.29
			c-6.05,2.58-12,10.76-8.85,18.27c1.8,7.53,9.98,9.81,15.96,7.8c10.68-3.61,17.61-14.8,28.08-18.99
			c8.37-3.95,18.6-4.75,24.97-12.84c2.97-4.12,5.74-10.31,2.73-15.28C1561.23,610.54,1555.72,606.22,1550.26,608.03z"/>
		<path class="st1" d="M1302.43,618.66c-8.51,4.48-8.85,16.73-8.75,25.92c0.55,11.03-3.56,21.24-5.95,31.73
			c-6.29,26.19-6.94,53.95-16.01,79.3c-3.48,9.45-5.77,19.99-12.29,27.5c-4.7,5.6-10.01,11.12-12.25,18.64
			c-1.65,5.79,1.57,11.92,5.7,15.24c4.81,1,11.28,2.07,14.78-2.85c5.73-8.58,5.56-20.18,10.79-29.04
			c4.47-7.89,10.77-14.58,13.64-23.54c3.11-9.74,4.24-20.1,5.55-30.29c2.59-23.33,8.43-45.97,11.56-69.19
			c1.5-12.75,11.81-23.54,8.37-36.93C1316.09,617.6,1307.82,616.81,1302.43,618.66z"/>
		<path class="st1" d="M1059.97,654.67c-9.65,2.39-18.64,8.36-28.75,8.25c-17.05,0-33.97-4.56-49.46-12.52
			c-10.72-5.66-23.39-8.07-31.47-18.65c-6.03-7.18-14.77-15.04-23.96-10.31c-6.38,3.54-8.1,13.65-3.53,19.68
			c5.97,8.76,16.64,8.92,24.85,13.47c9.98,5.48,19.57,11.9,30.1,16.09c13.13,5.17,25.57,14.43,40,13.89
			c11.91,0.42,23.35-6.29,35.29-3.71c7.84,1.89,18.38-0.71,20.97-10.46C1076.75,661.2,1067.72,652.54,1059.97,654.67z"/>
		<path class="st1" d="M1447.63,981.16c-16.99-16.25-34.81-32.6-45.62-55.09c-10.98-21.75-21.79-43.9-28.31-67.93
			c-5.84-20.9-3.01-43.66-10.3-64.14c-5.58-18.14-18.44-33.79-17.65-53.98c-1.25-24.05,9.65-45.77,11.95-69.27
			c1.02-12.35,6.79-23.2,9.1-35.14c1.47-9.98-7.95-18.63-16.24-14.6c-4.75,1.69-7.92,7.16-7.96,12.68
			c-0.57,10.25,0.94,20.79-1.79,30.78c-7.06,26.1-12.96,52.82-14.82,80.1c-0.48,13.78,5.13,26.48,11.55,37.76
			c7.01,12.05,10.66,26.15,12.04,40.41c1.39,15.36,4.38,30.47,7.87,45.38c3.72,16.69,11.13,31.88,17.74,47.27
			c10.4,21.95,22.64,43.21,38.77,60.38c6.08,6.86,11.95,14.17,19.45,19.12c7.58,4.97,14.58,10.94,21.04,17.63
			c5.55,5.97,16.17,7.02,20.95-0.6c3.33-3.69,2.86-10.38-0.25-14.02C1468.36,988.06,1455.76,988.95,1447.63,981.16z"/>
		<path class="st1" d="M1200.68,625.19c-7.42,4.61-7.99,15.11-7.68,23.6c1,18.45-6.67,35.23-11.96,52.13
			c-6.91,18.79-9.93,38.93-15.4,58.25c-4.62,17.83-10.96,35.16-13.19,53.69c-1.28,13.13-10.34,23-12.53,35.7
			c1.25,5.32,3.49,11.57,8.75,13.08c6.3,2.61,12.52-2.84,14.91-9.18c3.71-10.59,1.34-22.46,5.18-33.01
			c4.13-12.09,6.82-24.67,9.6-37.2c7.16-27.41,14.84-54.67,23.2-81.64c3.34-10.76,5.07-22,7.47-33.03
			c2.54-11.74,10.16-22.57,7.62-35.24C1214.2,625.26,1206.67,622.78,1200.68,625.19z"/>
		<path class="st1" d="M1257.47,624.72c-2.86-0.42-5.97-0.65-8.59,0.89c-6.41,4.5-8.05,13.98-6.79,21.86
			c1.84,9.9-1.4,19.59-3.79,28.97c-4.62,17.43-7.1,35.53-12.83,52.58c-4.23,12.52-7.85,25.28-11.15,38.18
			c-2.9,11.61-11.33,20.17-14.21,31.75c-0.15,5.44,2.5,11.12,6.59,14.09c4.9,0.85,10.95,1.07,14.55-3.54
			c4.72-6.69,4.53-15.71,5.5-23.76c0.9-8.53,4.94-15.95,8.14-23.53c4.76-10.81,7.58-22.49,10.84-33.9
			c4.66-17.89,9.4-35.86,11.39-54.43c1.09-11.01,6.2-20.64,8.78-31.14C1267.79,635.66,1264.59,625.81,1257.47,624.72z"/>
		<path class="st1" d="M409.58,633.81c-10.6,3.58-16.04,15.69-25.38,21.55C372.4,663,359.37,668,346.2,671.59
			c-10.98,3.36-22.53,0.35-33.56,3.17c-6.26,1.4-12.34,3.99-17.54,8.27c-12.8,10.61-23.93,23.51-35.05,36.24
			c-7.24,8.47-12.93,18.64-21.46,25.65c-5.92,5.01-13.23,11.41-11.97,20.92c0.25,8.25,9.41,13.35,15.53,9.36
			c9.55-4.54,10.83-18.02,17.8-25.67c10.39-12.13,20.86-24.2,31.66-35.88c14.96-15.82,35.59-23.53,55.9-23.24
			c8.18-0.04,16.75,0.91,24.48-2.87c12.46-5.1,20.55-18.34,33.04-23.38c6.2-3.34,14.54-5.23,17.31-13.28
			C426.42,642.49,416.96,631.96,409.58,633.81z"/>
		<path class="st1" d="M1402.4,636.56c-8.26,2.17-11.44,12.33-11.09,20.95c0.57,16.04-6.98,30.31-9,45.91
			c-1.31,12.97-10.95,23.22-10,36.61c-0.23,6.19,5.18,11.16,10.26,11.88c6.18,1.41,12.79-4.82,12.51-11.99
			c0.41-10.38-0.14-20.99,2.92-30.96c5.37-17.32,10.36-34.81,17.46-51.37C1420.13,647.83,1412.6,633.66,1402.4,636.56z"/>
		<path class="st1" d="M26.22,655.77c-0.33-8.47-9.26-14.35-16.05-11.24c-3.79,1.57-7.04,4.13-10.17,6.91v25.18
			c5.96-1.84,12.11-2.99,17.95-5.29C23.48,669.12,27.01,662.3,26.22,655.77z"/>
		<path class="st1" d="M1908.23,661.24c-8.13,4.79-17.18,7.78-26.37,7.81c-5.26,0.33-11.21-0.58-15.52,3.58
			c-4.6,3.9-5.56,11.16-3.94,17.09c3.85,7.09,12.08,8.79,18.64,5.97c13.19-5.39,25.12-14.28,38.59-18.9c0.19-0.07,0.4-0.12,0.6-0.19
			v-25.14C1916.35,654.9,1912.62,658.66,1908.23,661.24z"/>
		<path class="st1" d="M1753.6,776.47c-16.23-17.36-34.24-32.38-51.85-47.83c-16.31-14.47-33.01-28.43-51.14-39.87
			c-6.46-4.3-14.26-6.01-21.66-4.34c-10.45,3.3-18.38,12.3-27.26,18.87c-11.97,8.74-20.95,22.38-34.64,28.02
			c-6.91,3.14-14.81,9.65-12.9,19.3c-0.59,6.99,5.9,10.29,11.02,11.27c8.55-0.42,13.98-8.6,19.19-15.17
			c7.16-9.42,16.8-15.65,24.81-24c5.85-6.1,12.26-12.08,20.2-14.28c10.1-3.58,20.16,3.06,28.23,9.4
			c12.98,11.44,26.21,22.51,39.46,33.59c14.31,11.88,27.61,25.2,41.97,37c8.06,6.36,11.51,17.27,18.23,25.03
			c4.2,5.44,12.89,6.16,17.26,0.65c4.24-3.97,3.63-11.14,2.36-16.49C1771.56,787.59,1760.85,784.18,1753.6,776.47z"/>
		<path class="st1" d="M801.37,774.06c-10.08-5.62-15.34-17.49-24.18-24.83c-10.76-9.58-21.74-18.79-32.41-28.48
			c-11.86-10.87-26.25-17.19-40.04-24.22c-6.33-3.19-13.6-5.77-20.43-3.14c-8.1,2.74-12.6,14.91-6.41,22.44
			c8.7,10.05,21.93,1.29,32.09,7.11c25.12,12.57,43.9,36.33,66.9,52.76c9.76,6.31,14.63,18.05,21.67,27.39
			c4.09,3.63,10.31,7.75,15.31,3.88c5.17-2.89,9.1-9.41,6.97-16.04C818.09,781.22,808.15,778.97,801.37,774.06z"/>
		<path class="st1" d="M10.11,701.5c-6.79,3.32-11.77,13.19-8.45,21.24c2.74,9.37,13.46,13.76,21.31,10.38
			c8.41-3.07,14.01-15.76,8.6-24.53C27.34,700.16,17.55,699.56,10.11,701.5z"/>
		<path class="st1" d="M1742.89,1033.75c-7.65-5.12-14.36-11.88-22.47-16.06c-17.13-8.44-35.03-14.58-52.9-20.55
			c-14.71-4.86-28.15-15.09-36.59-29.69c-5.52-9.81-9.12-21.06-16.13-29.71c-24.64-28.02-57.74-46.14-77.73-79.34
			c-9.61-15.37-19.39-30.71-27.15-47.4c-7.61-16.19-19.05-29.38-27.42-44.99c-6.63-12.46-16.34-22.11-26.24-31.15
			c-7.91-7.2-9.08-19.57-15.49-27.99c-3.52-5.38-10.23-4.23-15.3-3.25c-9.71,7.58-4.95,23.2,3.1,29.89
			c9.23,7.64,15.76,18.41,23.96,27.28c5.75,6.49,11.69,12.83,17.31,19.51c9.26,11.18,14.92,25.29,22.11,38.11
			c14.03,24.96,26.58,51.44,44.61,73.13c18.1,17.19,36.55,33.88,54.52,51.24c13.04,14.54,23.67,31.6,33.45,49.05
			c4.17,7.44,10.5,13.24,17.85,16.23c10.53,4.32,21.33,7.83,31.62,12.95c18.76,9.25,38.96,14.76,56.78,26.45
			c7.96,5.12,12.95,14.35,20.47,20.14c6.11,4.61,15.03,2.25,18.46-5.19c0.98-5.57,0.76-12.3-2.97-16.56
			C1759.52,1040.06,1750.39,1038.85,1742.89,1033.75z"/>
		<path class="st1" d="M2.92,1008.25c2.93-8.66-0.1-17.87-1.73-26.43c-0.65-2.75-1-5.53-1.19-8.33v39.31
			C1.34,1011.67,2.4,1010.23,2.92,1008.25z"/>
		<path class="st1" d="M7.47,778.87c0.89-6.96-3.01-11.82-7.46-15.93v26.72C4.27,788.21,7.7,784.47,7.47,778.87z"/>
		<path class="st1" d="M1920.01,967.96c1.32-21.75-5.59-42.68-14.13-61.74c-4.7-10.94-10.01-21.7-17.46-30.56
			c-15.27-19.36-36.82-30.29-52.92-48.59c-8.8-9.37-15.82-21.05-19.39-34.16c-3.91-17.1,0.9-36.2,12.08-48.48
			c6.26-6.15,14.73-8.42,22.81-9.18c15.19,0.54,26.81,12.7,38.44,22.24c8.66,6.75,11,19.08,17.36,27.95
			c3.08,4.6,8.65,5.75,13.42,4.18v-26.66c-4.04-3.8-8.62-7.02-12.18-11.35c-5.55-6.8-9.64-15.22-16.47-20.55
			c-7.39-5.9-16.53-7.55-24.85-11.09c-8.03-2.95-16.21-7.73-24.89-6.06c-10.06,2.1-17.82,10.18-25.5,17.19
			c-12.7,10.96-20.41,29.24-19.8,47.29c2.07,16.25,2.9,34.46,13.49,47.07c11.32,13.22,20.71,28.99,34.8,38.82
			c13.12,9.29,27.49,17.99,35.65,33.59c10.58,19.66,17.56,41.83,21.91,64.26c2.66,12.73-0.9,25.41-1.9,38.07
			c-0.55,8.31,4.85,15.17,12.05,16.27c2.62-0.81,5.48-1.95,7.68-3.84v-38.31C1920.01,972.23,1919.91,970.11,1920.01,967.96z"/>
		<path class="st1" d="M340.47,716.3c-6.25,2.65-10.39,8.86-15.04,13.95c-5.09,5.93-11.29,10.36-17.13,15.24
			c-14.1,11.33-24.66,27.1-37.58,39.91c-11.29,10.83-25.13,17.08-38.44,23.98c-10.12,5.23-18.03,14.22-25.69,23.07
			c-15.68,16.3-31.09,32.9-47.16,48.7c-9.9,9.16-16.36,21.96-25.73,31.69c-3.87,4.26-8.25,7.98-11.55,12.86
			c-3.42,4.34-3.15,11.05-1.23,16.13c2.51,6.18,9.97,6.51,14.92,4.37c8.29-5.19,9.6-16.86,15.19-24.65
			c21.04-26.94,46.87-48.23,68.93-73.99c19.51-21.35,46.77-29.84,66.81-50.41c5.28-5.6,10.54-11.23,16.13-16.43
			c8.7-8.25,15.86-18.3,24.45-26.65c8.29-7.94,21.23-9.14,26.67-20.79C357.24,723.85,348.83,713.65,340.47,716.3z"/>
		<path class="st1" d="M1131.52,716.39c-5.74,3.36-8.81,10.2-10.04,17.1c-6.15,29.13-15.53,57.23-21.6,86.36
			c-2.35,10.81-10.02,21.79-5.52,33.16c2.77,9.23,14.91,9.54,19.35,1.85c5.36-6.47,3.31-15.87,3.72-23.83
			c-0.44-10.96,4.19-20.88,6.67-31.21c4.17-15.2,6.38-31.08,11.67-45.86c3.48-9.76,13.54-16.91,11.85-28.51
			C1146.29,717.58,1137.89,713.31,1131.52,716.39z"/>
		<path class="st1" d="M720.69,767.6c-8.37-4.1-18.01-2.54-26.29-7c-11.14-5.88-22.01-12.72-34.09-15.8
			c-11.81-3.75-24.15-3.1-36.12-5.66c-10.57-1.87-21.68-4.37-32.14-0.82c-8.32,3.8-13.83,12.41-21.72,17.05
			c-7.64,4.73-17.51,6.77-22.26,15.93c-1.38,4.21-1.09,9.05-0.05,13.35c3.1,7.06,11.85,7.55,17.5,4.42
			c8.75-6.73,12.66-19.51,22.66-24.5c11.85-7.36,25.83-7.58,38.88-5.66c20.56,4.26,40.67,11.28,59.74,20.99
			c7.7,4.01,13.94,11.14,22.12,14.02c4.76,0.71,10.6,1.58,14.52-2.39C730.46,785.86,728.55,771.32,720.69,767.6z"/>
		<path class="st1" d="M1513.62,739.96c-4.69,3.06-9.22,8.47-8.17,15.09c-0.08,9.85,8.81,17.38,17.17,15.97
			c9.45-0.58,15.71-14.15,10.68-23.2C1530.48,739.09,1520.54,737.24,1513.62,739.96z"/>
		<path class="st1" d="M1793.53,851.44c-15.19,0.31-30.4-2.67-44.69-8.47c-14.58-6.16-23.96-20.95-34.8-32.72
			c-10.46-12.97-23.47-22.75-35.95-33.01c-10.06-8.25-21.94-13.8-30.29-24.56c-5.59-6.47-14.2-14.91-22.5-10.09
			c-4.24,3.36-7.47,9.49-5.69,15.43c0.95,7.09,7.47,10.09,12.7,12.41c7.12,2.79,13.94,6.66,19.71,12.24
			c12.44,11.61,26.73,20.28,39.53,31.29c11.71,9.18,19.51,22.83,29.07,34.44c10.64,13.22,26.55,18.77,41.85,20.33
			c10.43,0.93,20.03,5.75,29.88,9.31c8.55,4.01,19.32-7.07,15.34-17.01C1806,854.2,1799.38,850.95,1793.53,851.44z"/>
		<path class="st1" d="M58.38,828.24c-3.8-12.55-8.85-24.96-9.87-38.26c-1.12-10.61,4.99-22.27-1.13-31.88
			c-2.77-5.6-9.12-4.68-13.84-3.99c-4.51,1.47-6.18,7.58-7.23,12.22c-0.08,6.69,2.59,12.92,3.83,19.37
			c2.5,9.14,0.74,18.85,2.43,28.13c2.36,14.24,13.23,24.18,16.17,38.2c2.36,8.72,2.22,20.64,11,24.7
			c8.69,5.77,19.81-6.4,16.34-16.49C72.78,847.84,61.95,840.5,58.38,828.24z"/>
		<path class="st1" d="M1082.52,755.69c-7.73-3.17-14.58,3.73-20.39,8.49c-8.93,7.84-20.18,10.59-30.26,15.87
			c-16.95,9.16-33.87,18.52-51.37,26.28c-7.73,3.61-15.66,8.09-20.7,15.91c-4.43,6.75-7.58,14.44-11.48,21.57
			c-4.84,9.53-10.91,18.23-15.23,28.1c-6.31,15.76-7.35,33.37-6.93,50.44c-0.56,14.38-1.08,30.31-9.27,42.17
			c-10.25,13.04-26.78,15.23-38.71,25.67c-7.87,7.03-15.89,15.13-19.19,26.19c-2.67,8.18-4.55,17.01-9.6,23.87
			c-4.1,6.31-10.3,12.39-9.68,20.97c-1.23,12.79,16.15,17.83,22.15,8.2c5.74-8.44,3.37-19.95,6.48-29.49
			c5.8-17.78,17.73-33.18,33.14-40.98c13.39-7.73,31.04-11.94,37.08-29.58c5.52-19.88,5.8-41.11,6.91-61.77
			c1.15-12.08,4.68-23.72,9.56-34.5c6.44-14.47,12.42-29.91,23.4-40.8c8.45-8.47,19.3-12.61,29.91-16.36
			c21.93-7.6,39.68-26.78,62.83-30.58c8.74-1.32,18.06-6.6,19.88-17.27C1089.87,762.94,1087.58,756.97,1082.52,755.69z"/>
		<path class="st1" d="M1400.52,764.83c-9.18,3.01-12.25,16.34-8.33,25.32c3.8,6.14,11.21,10.48,17.69,6.95
			c9.59-3.07,15.72-17.14,8.82-26.45C1414.82,763.66,1406.91,763.5,1400.52,764.83z"/>
		<path class="st1" d="M29.13,938.49c1.51,19.88,3.22,39.76,2.59,59.77c0.44,11.24-3.78,21.68-5.54,32.58
			c-1.09,6.98,0.22,16.54,7.23,18.81c8.9,4.32,17.59-6.73,16.41-16.54c-1.27-12.57-2.1-25.33-0.42-37.89
			c1.96-13.48,1.31-27.19-0.31-40.65c-0.94-16.93-1.57-34.46-8.09-50.04c-5.66-13.63-13.15-26.17-19.28-39.52
			C15.3,852.34,9.75,838.27,0,828.4v36.28c4.3,7.92,8,16.33,12.27,24.22C20.47,904.09,26.95,920.76,29.13,938.49z"/>
		<path class="st1" d="M1919.48,827.68c-17.66-16.14-42.37-24.38-53.25-48.59c-2.85-6.49-8.41-11.27-14.86-11.85
			c-9.41,0.31-13.21,13.02-8.63,21.18c6.03,8.6,15.3,13,22.06,20.75c6.83,7.71,14.59,14.31,22.87,19.97
			c13.02,8.8,24.66,20.74,32.56,35.46v-36.12C1919.97,828.21,1919.74,827.93,1919.48,827.68z"/>
		<path class="st1" d="M1672.51,837.81c-11.63-3.43-20.74-12.61-30.51-19.97c-10.64-8.81-23.89-14.73-30.86-28.1
			c-3.64-7.11-9.38-13.77-17.07-14.2c-7.23,1.2-14.39,10.81-9.98,18.85c2.84,8.92,11.54,11.84,18.11,16.3
			c10.81,6.07,17.73,17.86,27.79,25.12c9.27,7.42,20.22,11.5,29.71,18.54c7.72,5.86,15.74,15.06,25.98,11.77
			c7.12-2.05,6.53-12.19,4.79-18.45C1686.47,841.01,1678.67,840.3,1672.51,837.81z"/>
		<path class="st1" d="M360,1036.39c-5.52-11.72-2.37-25.45,2.29-36.78c10.3-23.96,8.93-53.09,24.14-74.53
			c14.76-19.46,32.74-35.55,46.95-55.6c10.68-12.59,20.78-25.81,29.97-39.8c5.59-8.96,14.84-13.57,20.95-21.9
			c4.5-5.51,4.38-15.09-0.27-20.37c-3.8-2.72-8.75-3.08-12.9-1.29c-6.67,2.47-9.08,10.58-12.22,16.84
			c-3.67,8.38-9.71,14.93-15.3,21.66c-10.32,12.26-19.47,25.74-30.12,37.65c-15.04,19.84-33.25,36.28-47.88,56.54
			c-6.29,9.04-8.67,20.5-9.8,31.71c-1.99,18.1-7.58,35.41-14.4,51.84c-3.34,8.86-7.42,18.3-5.67,28.19
			c2.62,11.01,9.6,19.6,16.42,27.63c6.3,8.32,12.5,16.84,19.92,23.97h28.02c-5.78-6.51-11.63-12.92-18.06-18.63
			C374.09,1055.21,365.48,1047.14,360,1036.39z"/>
		<path class="st1" d="M1544.73,786.61c-11.85,3.76-13.13,24.87-2.07,30.67c8.96,6.88,21.86-2.54,21.26-14.35
			C1564.64,791.89,1553.91,782.53,1544.73,786.61z"/>
		<path class="st1" d="M677.07,821.45c-10.73-18.03-31.24-21.01-48.41-26c-8.29-1.94-16.28-8.87-24.9-6.75
			c-7.2,1.91-13.04,12.24-7.54,19.45c6.31,10.43,18.49,6.31,27.86,7.49c10.88,1.67,22.31,5.04,30.86,13.22
			c9.18,9.27,6.87,24.4,6.7,36.77c-0.23,13.87-11.1,24.96-9.07,39.02c2.36,5.01,6.72,9.36,11.77,10.41
			c6.27-1.2,11.75-7.2,12.37-14.45c0.93-9.45-2.7-18.82-0.48-28.13C679.27,855.95,684.43,837.42,677.07,821.45z"/>
		<path class="st1" d="M751.53,795.28c-6.86,3.41-10.3,11.46-15.21,17.36c-6.53,8.54-17.21,12.06-22.31,22.18
			c-7.06,13.95-6.11,30.64-7.68,46.09c-1.04,10.61-8.18,19.52-7.21,30.51c-0.56,6.94,5.28,13.17,11.39,12.33
			c7.32,0.98,11.93-7.84,12.89-14.98c0.11-8.88-2.84-17.78-0.6-26.61c3.57-17.71,7.1-37.2,19.27-50.19
			c8.36-8.38,24.81-7.42,26.67-22.66C771.15,798.62,759.6,790.51,751.53,795.28z"/>
		<path class="st1" d="M1304.41,796.75c-4.85,1.39-8.6,5.82-9.93,11.23c-3.67,10.41,4.62,24.81,15.06,22.6
			c9.83,1.07,14.52-12.61,12.53-21.77C1320.95,799.67,1312.06,793.76,1304.41,796.75z"/>
		<path class="st1" d="M1486.72,874.25c-4.42-8.27-7.49-17.36-12.14-25.48c-4.88-9.18-11.56-17.43-13.94-28.02
			c-2.15-7.62-2.92-16.8-9.16-21.79c-2.88-2.92-7.09-3.61-10.66-2.14c-5.92,1.28-7.76,8.83-6.93,14.73
			c0.57,7.98,6.49,13.22,10.7,18.95c6.8,8.63,8.81,20.33,13.71,30.23c5.05,11.07,13.6,19.75,17.59,31.49
			c2.5,6.53,3.95,13.89,8.33,19.27c3.46,4.84,9.7,4.3,14.58,3.3c4.43-3.17,8.43-9.54,6.35-15.62
			C1501.79,888.51,1491.69,883.67,1486.72,874.25z"/>
		<path class="st1" d="M616.82,850.62c-16.79-4.08-29.78-17.71-45.07-25.63c-11.48-6.25-25.12-7.05-35.16-16.6
			c-6.18-6.25-14.85-11.16-23.02-6.71c-8.06,5.6-6.53,19.88,1.76,24.16c9.98,4.38,21.3,3.45,31.04,8.92
			c15.87,8.73,31.39,18.27,47.54,26.32c8.06,3.93,14.11,11.33,21.12,17.05c4.46,4.17,10.79,3.88,16.13,2.56
			c4.7-3.84,8.24-11.22,4.75-17.41C633.12,854.28,623.93,852.67,616.82,850.62z"/>
		<path class="st1" d="M912.93,805.93c-7.47,2.36-11.92,10.5-12.98,18.79c-0.14,9.85,7.85,21.4,17.36,17.36
			c11.85-3.34,16.8-21.38,9.82-32.16C923.3,806.32,917.83,803.11,912.93,805.93z"/>
		<path class="st1" d="M1065.5,817.75c-3.55-0.71-7.35-0.78-10.68,0.87c-10.08,6.64-7.81,22.24-9.35,33.43
			c-5.51,34.24-22.3,65.39-23.62,100.63c0.15,14.89,5.5,28.82,10.04,42.53c2.48,6.73,5.06,14.61,11.29,17.97
			c7.68,4.82,19.43-1.89,18.18-12.57c-1.45-13.35-15.63-18.43-18.26-31.27c-5.13-16.16-0.79-33.27,3.8-48.85
			c5.3-18.32,9.7-36.92,13.84-55.6c2.13-10.32,7.51-19.19,11.01-28.93C1074.41,829.22,1071.08,821.02,1065.5,817.75z"/>
		<path class="st1" d="M1440.84,893.37c-4.99-10.92-9.68-22.02-15.71-32.27c-5.51-9.18-5.55-20.7-9.45-30.6
			c-1.98-5.75-8.17-8.79-13.27-7.55c-4.88,1.76-8.7,6.84-9.46,12.52c1.28,9.01,7.23,15.73,11.66,22.94
			c5.14,8.11,6.82,18.14,10.9,26.89c4.53,10.43,12.52,18.7,15.4,30.08c2.02,6.12,2.66,13.39,7.24,17.94
			c3.4,3.36,8.37,6.62,12.89,3.9c7.2-2.08,10.02-12.37,6.26-19.23C1452.47,909.23,1444.97,902.68,1440.84,893.37z"/>
		<path class="st1" d="M897.06,880.5c-2.69-12.41-11.06-21.84-19.77-29.3c-11.36-9.49-23.77-18.75-38.13-20.77
			c-8.09-0.69-16.27-0.52-24.29,0.8c-10.91,1.99-22.23,3.64-32.03,9.85c-10.57,6.49-18.96,17.34-22.88,30.22
			c-3.29,11.22-8.93,21.24-12.83,32.16c-3.53,8.79,3.64,18.77,11.36,20.22c10.34-2.36,13.61-14.89,13.73-25.32
			c0.04-18.19,11.05-34.92,25.46-42.28c10.95-6.41,23.66-4.95,35.52-4.39c13.26,2.18,26.1,8.98,35.66,19.66
			c11.14,13.87,13.88,35.7,6.3,52.44c-3.15,7.73-6.7,18.67-0.44,25.61c5.55,7.8,17.32,3.19,19.94-5.49
			c3.53-8.98-0.18-18.62,0.08-27.86C895.52,904.22,900.09,892.36,897.06,880.5z"/>
		<path class="st1" d="M1855.16,904.68c-9.64-5.28-20.69-1.8-30.93-2.5c-20.86-1.43-41.05,10.12-61.92,5.23
			c-17.17-2.3-32.35-13-49.45-15.49c-16-1.21-32.02,0.49-48.03-0.49c-15.63-2.01-30.83-8.9-43.12-20.06
			c-8.55-7.81-18.31-13.89-25.92-22.91c-4.62-5.08-8.66-10.92-13.98-15.11c-3.83-1.74-8.63-1.78-12.4,0.09
			c-3.78,2.61-6.87,7.2-5.77,12.48c0.7,8.66,8.14,13.02,14.46,16c13.02,5.93,21.94,18.73,33.1,27.8
			c9.05,7.36,18.16,15.38,29.17,18.63c14.24,4.66,29.16,1.25,43.69,2.79c14.36,1.83,28.98,2.8,42.83,7.82
			c13.12,4.17,25.71,12.11,39.72,11.17c13.73,0.29,26.73-5.9,40.41-6.6c8.67-0.4,17.61-1.54,26.11,1.26
			c5.24,1.52,10.28,4.1,15.76,4.73c3.94-0.98,7.94-2.74,10.81-6.09C1860.75,917.05,1861.18,908.08,1855.16,904.68z"/>
		<path class="st1" d="M1278.14,845.21c-7.57-4.99-16.19,0.63-24.23-0.18c-9.5-0.67-18.96-2.25-28.46-2.83
			c-10.88-0.93-21.66-8.38-32.54-4.6c-8.55,4.39-8.48,19.43,0.18,23.63c9.78,4.15,20.1-2.02,30.12,0.24
			c12.18,2.19,24.71,2.3,36.55,6.64c6.23,1.89,13.57,4.57,19.61,0.56C1287.13,864.1,1286.28,848.75,1278.14,845.21z"/>
		<path class="st1" d="M490.74,843.35c-5.56,3.19-7.68,10.34-10.58,16.11c-2.96,7.1-7.96,12.66-12.7,18.27
			c-14.17,17.25-27.06,35.86-41.59,52.76c-10.42,11.19-19.12,24.61-24.48,39.75c-4.72,13.08-4.2,27.61-7.96,41.02
			c-1.49,7.69-5.66,16.14-1.51,23.72c2.77,9.27,14.73,10.26,20.33,3.93c3.8-7.31,1.9-16.27,1.19-24.22
			c-3.15-15.54,3.11-30.8,9-44.47c9.12-17.32,22.49-31.1,34.61-45.71c9.5-12.48,18.64-25.32,27.38-38.52
			c5.45-8.44,14.01-13.04,20.46-20.28c4.21-4.57,3.95-11.91,2.5-17.75C503.91,841.95,496.25,839.57,490.74,843.35z"/>
		<path class="st1" d="M1003.59,845.63c-6.3,4.39-9.16,12.44-10.92,20.21c-2.93,12.46-9.89,23.02-13.26,35.31
			c-3.15,11.15-4.53,22.83-5.88,34.42c-1.19,10.9,0.52,22.08-1.83,32.83c-1.02,6.15-3.11,12.33-2.15,18.64
			c1.96,6.4,6.63,14.06,13.47,12.93c4.38-0.04,9.19-2.3,11.02-7.11c3.29-6.51,0.7-14.04-0.75-20.68
			c-2.86-10.32-1.96-21.27-1.19-31.86c1.95-17.66,5.11-35.37,11.21-51.84c3.8-11.05,13.96-17.71,16.51-29.42
			C1020.58,849.62,1011.54,841.55,1003.59,845.63z"/>
		<path class="st1" d="M1316.15,854.01c-8.51,2.3-15.61,13.76-11.43,23.33c3.19,13.02,21.49,13.78,26.48,1.95
			C1337.83,868,1327.67,851.44,1316.15,854.01z"/>
		<path class="st1" d="M744.63,944.63c-11,0.07-20.99,8.22-32.22,6.26c-20.55-3.52-42.53-2.17-61.45-13.37
			c-12.31-6.6-22.02-17.91-34.3-24.63c-17.05-9.54-33.91-19.53-51.18-28.61c-8-4.12-14.2-11.3-21.03-17.32
			c-3.25-3.08-7.81-3.78-11.75-2.16c-7.46,1.96-10.16,11.59-6.79,18.81c3.23,7.08,10.54,9.12,16.76,11.18
			c7.1,2.12,13.69,5.9,19.95,10.2c19.05,13.04,39.62,22.94,58.95,35.44c10.94,6.94,20.06,17.38,31.87,22.63
			c10.4,4.41,21.66,4.66,32.56,6.36c13.58,1.96,27.34-0.52,40.94,1.65c7.53,1,15.59,3.09,22.92,0.04
			C760.15,965.16,756.03,945.26,744.63,944.63z"/>
		<path class="st1" d="M833.14,889.77c-7.81-2.94-15.23-11.37-23.95-7.97c-6.25,2.72-8.89,11.23-5.97,17.89
			c4,7.55,12.33,8.4,18.87,11.5c6.65,2.78,12.1,8.75,19.19,10.29c7.2,0.18,14.02-7.94,11.67-16.24
			C851.54,894.28,840.41,893.39,833.14,889.77z"/>
		<path class="st1" d="M1233.1,893.59c-11.86-1.58-23.95,2.11-35.73-0.93c-27.48-7.07-55.79-5.01-83.7-5.31
			c-9.46,0.3-18.64-6.26-28-3.21c-4.75,1.83-8.26,6.51-9.27,12.01c0.71,7.27,5.66,14.4,12.52,14.71c7.8,0.18,15.07-3.89,22.86-4.3
			c11.58-1.22,22.98,2.36,34.56,2.1c7.35-0.11,14.73,0.18,22.02,1.41c11.39,1.76,23.06-0.69,34.34,2.25
			c10.04,2.16,19.43,8.73,29.97,7.15c4.04,0.24,7.23-3.25,8.9-7.1C1245.82,905.22,1240.39,894.35,1233.1,893.59z"/>
		<path class="st1" d="M1272.03,897.15c-11.25,5.06-11.44,25.74-0.31,30.93c11.06,6.82,26.07-8.53,21.14-21.66
			C1290.18,897.11,1279.56,893.24,1272.03,897.15z"/>
		<path class="st1" d="M507.54,905.07c-3.71,1.2-7.31,3.72-8.71,7.96c-3.72,9.47-5.05,20.41-11.51,28.28
			c-8.58,10.54-16.86,21.42-25.24,32.16c-6.31,8.2-15.63,12.57-21.72,21.03c-2.7,3.25-1.85,8.09-1.88,12.15
			c-0.1,6.25,6.46,8.7,10.88,9.98c8.09-1.65,12.65-9.62,16.43-17c6.46-12.82,18.64-19.59,27.06-30.42
			c7.85-9.63,11.54-22.57,19.45-32.16c4.15-5.5,9.82-11.12,9.04-19.1C522.73,909.77,514.04,902.75,507.54,905.07z"/>
		<path class="st1" d="M1331.39,907.52c-8.74,5.82-11.05,17.92-17.54,26.07c-8.47,10.68-18.76,19.45-26.2,31.16
			c-4.4,6.69-7.96,14.02-12.64,20.46c-6.25,8.33-17.66,10.72-21.41,21.53c-4.95,9.79,6.49,22.22,15.16,17.75
			c10.26-4.53,12.57-18.08,19.11-26.83c11.24-15.49,23.85-29.69,33.78-46.36c5.24-9.7,15.38-12.95,22.58-20.15
			c4.38-4.08,4.75-11.2,3.49-17C1345.32,907.02,1337.23,904.29,1331.39,907.52z"/>
		<path class="st1" d="M1598.17,997.64c-6.12-4.79-13.41-7.62-18.93-13.37c-4.66-4.93-8.13-11.05-12.51-16.23
			c-7.81-9.94-17.82-17.74-23.92-29.28c-3.46-5.62-6.26-12.95-12.56-15c-3.57-0.63-7.47-0.96-10.79,0.82
			c-4.76,3.28-5.37,10.96-4.12,16.6c3.29,7.2,10.01,10.92,15.61,15.45c13.02,9.82,19.9,26.48,31.24,38.26
			c6.05,6.21,10.95,13.63,16.46,20.42c5.65,6.69,17.97,9.34,22.58,0.02C1605.1,1009.81,1603.08,1001.39,1598.17,997.64z"/>
		<path class="st1" d="M787.76,928.81c-7.81,4.59-10.94,16.63-4.99,24.53c3.94,7.62,12.61,7.31,19.28,5.49
			c3.82-3.06,7.1-7.6,7.96-12.89c0.12-5.06-2.13-9.81-4.72-13.74C800.87,927.18,793.34,926.27,787.76,928.81z"/>
		<path class="st1" d="M604.97,965.66c-18.16-1.32-34.61-12.78-46.07-28.32c-4.19-6.69-11.99-6.91-18.4-5.15
			c-6.3,5.64-5.96,17.89,0.44,23.31c4.01,3.12,8.71,4.82,13.17,7.05c10.01,4.52,16.87,14.84,27,19.14
			c11.02,4.82,22.35,12.03,34.58,9.27c4.57-3.39,8.95-11.11,4.95-16.81C617.85,967.31,610.94,965.84,604.97,965.66z"/>
		<path class="st1" d="M1076.18,934.3c-4.57,1.94-7.42,7.2-9.07,12.15c-2.44,10.63,6.57,20.88,15.74,21.1
			c9.83-1.61,18.23-15.6,11.67-25.7C1091.25,933.84,1083.07,932.39,1076.18,934.3z"/>
		<path class="st1" d="M1151.61,976.88c-5.82-11.2-4.17-25.22-9.74-36.46c-3.1-6.19-10.06-7.69-15.72-6.08
			c-7.25,2.28-8.15,12.93-6.27,19.84c4.46,10.39,13.15,17.65,17.46,28.21c4.69,10.23,4.57,22.42,9.63,32.47
			c3.53,7.27,11.95,7.69,18.16,5.23c6.05-4.79,6.64-15.4,2.11-21.68C1162.11,991.14,1155.49,985.19,1151.61,976.88z"/>
		<path class="st1" d="M1213.6,987.39c-4.51-8.09-9.97-15.78-12.31-25.11c-2.36-7.82-3.1-16.87-8.52-22.91
			c-3.56-4.82-9.89-3.88-14.69-2.69c-7.34,3.58-8.22,14.62-3.85,21.35c5.26,8.42,13.6,14.28,16.92,24.29
			c4.34,12.63,9.5,24.89,15.91,36.37c10.81,18.89,14.39,41.21,15.26,63.47h19.06c-0.23-9.59-1.28-19.12-3.41-28.5
			C1232.74,1030.4,1225.29,1007.52,1213.6,987.39z"/>
		<path class="st1" d="M1872.15,1012.51c-8.41,0.29-16.31,4.68-24.79,4.37c-22.21-0.11-46.19-1.8-64.78-17.19
			c-13.13-9.58-21.64-25.52-35.73-33.53c-17.89-10.51-37.83-15.37-57.53-19.25c-11.36-2.14-20.85-14.33-32.99-10.2
			c-4.7,2.92-7.92,8.91-6.18,15.02c2.39,4.54,6.04,8.94,10.88,9.81c9.6,2.32,19.65,2.21,28.92,6.31
			c15.94,6.71,33.56,8.55,48.17,19.08c17.95,12.77,33.14,30.04,51.75,41.72c17.84,9.6,38.11,9.79,57.48,9.27
			c8.74-0.65,17.14,3.77,25.86,2.91c7.77-0.43,12.71-10.27,11.02-18.32C1881.56,1017.59,1877.18,1013.63,1872.15,1012.51z"/>
		<path class="st1" d="M242.07,1050.6c11.8-8.94,21.33-21.35,34.01-28.84c9.01-5.75,19.3-9.25,27-17.32
			c8.06-8.96,10.4-22.31,18.18-31.56c4.3-6.04,11.56-11.35,10.64-20.14c0.34-7.98-7.49-14.62-14.2-11.97
			c-11.11,4.1-11.06,19.48-16.16,29.3c-10.72,19.9-29.99,30.25-46.62,42.66c-19.32,14.15-35.37,33.77-56.55,44.64
			c-14.01,7.08-27.23,15.81-40.34,24.77h37.43c5.86-3.28,11.74-6.55,17.26-10.53C222.5,1064.6,232.49,1057.96,242.07,1050.6z"/>
		<path class="st1" d="M1241.2,940.66c-9.5,2.41-16.99,16.06-11.1,26.04c5.6,11.35,22.91,10.46,26.82-2.14
			C1262.43,952.83,1252.01,939.19,1241.2,940.66z"/>
		<path class="st1" d="M1477.46,940.64c-5.05,2.36-8.47,8.47-9.41,14.4c0.65,10.5,10.01,20.01,19.51,16.76
			c8.63-2.32,12.7-14.84,8.32-23.27C1492.72,940.79,1484.17,939.05,1477.46,940.64z"/>
		<path class="st1" d="M837.93,949.19c-11.25,2.34-15.48,19.79-7.49,28.57c6.72,9.68,23.1,5.82,25.5-6.4
			C860.05,959.31,849.13,945.14,837.93,949.19z"/>
		<path class="st1" d="M1859.32,955.61c-16.09,6.08-34.05,5.57-49.87-1.34c-4.8-1.65-9.97-4.62-15-2.58
			c-7.7,2.61-10.68,14-5.35,20.81c6.05,6.99,15.61,6.04,23.58,6.1c17.37-0.43,34.72,1.47,51.92,4.04c8.8,1.1,17.37-7.86,14.71-18.08
			C1877.93,954.5,1866.46,952.25,1859.32,955.61z"/>
		<path class="st1" d="M1356.57,953.6c-12.06,7.55-9.46,26.93-20.65,35.31c-7.3,5.66-16.56,9.16-21.07,18.43
			c-0.94,4.37-1.47,9.87,1.58,13.41c4.94,7.75,15.4,6.04,21.14,0.43c5.75-7.36,7.35-17.47,11.86-25.67
			c5.74-8.87,16.08-11.93,21.75-20.91c3.34-5.21,3.35-12.57,0-17.76C1367.72,951.97,1361.41,952.6,1356.57,953.6z"/>
		<path class="st1" d="M530.8,979.59c-7.91,3.43-12.48,12.02-18.37,18.38c-16.94,17.47-34.58,34.64-55.26,46.25
			c-8.67,4.86-18.96,2.92-27.7,7.49c-8.29,4.82-8.77,20.88,0.25,25.09c7.62,4.57,15.21-2.47,21.1-7.36
			c9.04-8.6,21.21-10.25,31.26-16.76c14.73-9.57,26.36-23.85,39.48-35.81c7.47-7.1,19.49-7.55,24.41-17.88
			C551.8,988.93,540.01,975.04,530.8,979.59z"/>
		<path class="st1" d="M804.08,998.45c-9.08-3.08-15.04-12.11-23.29-16.82c-4.38-1.92-9.52-2.06-13.84,0.02
			c-4.53,3.34-8.1,10.72-4.16,16.25c5.43,11.88,18.63,9.51,28.17,13.24c9.85,3.17,14.25,15.28,23.35,19.75
			c4.84,1.25,11.25,2.14,14.86-2.69c4.65-4.84,4.55-13.82,0.01-18.7C823.09,1000.93,812.51,1001.7,804.08,998.45z"/>
		<path class="st1" d="M1526.6,989.69c-3.85-2.5-8.37-5.15-12.9-4.15c-11.11,1.3-17.4,17.78-9.19,26.97
			c7.01,9.48,20.93,7.89,26.81-2.21C1532.82,1003.32,1532.97,993.7,1526.6,989.69z"/>
		<path class="st1" d="M1095.12,987.69c-7.99,3.14-14.81,14.28-9.82,23.48c4.42,13.22,24.08,13.59,28.23-0.07
			C1119.86,998.89,1106.32,983.14,1095.12,987.69z"/>
		<path class="st1" d="M1383.28,996.74c-9.27,3.84-12.05,18.52-5.66,26.74c3.26,5.08,9.41,4.66,14.35,4.21
			c6.55-0.48,11.02-7.75,12.46-14.39C1406.07,1000.93,1392.8,991.56,1383.28,996.74z"/>
		<path class="st1" d="M815.07,1075.27c-13.27-20.1-34.86-28.75-52.8-42.1c-13.46-8.85-25-22.29-40.64-26.26
			c-19.76-5.1-40.17-5.6-60.32-5.88c-12,0.47-22.96,6.36-33.72,11.77c-14.74,7.44-31.15,7.42-46.76,10.85
			c-9.22,1.98-18.91,1.56-27.76,5.46c-5.54,2.19-8.56,8.6-9.6,14.76c0.67,7.31,7.01,12.93,13.32,13.04c9.8-2,17.5-10.41,27.42-12.17
			c16.38-3.3,32.93-6.06,48.72-12.3c15.3-6.06,31.2-13.81,47.81-10.81c15.9,3.01,32.78,2.72,47.47,11.17
			c10.94,5.66,19.57,15.42,29.7,22.55c10.53,7.82,23.01,12.22,32.13,22.35c1.46,1.43,2.86,2.92,4.23,4.45h25.47
			C818.2,1079.78,816.67,1077.45,815.07,1075.27z"/>
		<path class="st1" d="M988.82,1080.25c-11,0.6-21.51-4.6-32.5-4.06c-11.71,1.23-23.28,3.84-34.88,5.96h87.81
			C1002.95,1079.47,995.42,1080.44,988.82,1080.25z"/>
		<path class="st1" d="M1084.18,1042.69c-7.87-1.58-15.82,0.37-23.73,0.24c-24.1-1.28-45.36-17.94-69.62-18.03
			c-10.06-0.8-20.03-2.86-29.84-5.49c-6.37-1.47-13.04-4.06-19.47-1.54c-9.03,2.67-17.18,8.09-26.29,10.41
			c-5.73,1.76-12.01,2.39-16.9,6.49c-3.91,4.26-5.41,11.33-3.26,17.05c1.79,4.68,6.8,6.38,10.98,6.51
			c10.12-1.65,16.27-12.7,26.07-15.28c20.51-6.42,41.73-0.33,62.12,3.63c19.01,3.43,36.71,13.33,56.09,14.49
			c9.03,0.46,17.14,5.19,25.68,7.96c6.03,2.08,12.93-0.54,16.61-6.31C1094.98,1054.9,1091.63,1045.03,1084.18,1042.69z"/>
		<path class="st1" d="M1658.26,1040.59c-11.36-2.3-22.64,1.92-33.89,3.06c-18.55,1.26-37.32,5.39-55.82,0.98
			c-10.25-2.52-20.84-3.41-31.23-1.5c-17.58,3.03-35.31,0.69-52.98,1.17c-15.52-0.07-31.99,1.74-46.26-6.6
			c-6.1-3.76-13.26-5.53-20.03-3.43c-7.27,3.86-9.12,16.65-2.37,22.09c6.59,7.07,16.3,4.53,24.52,4.95
			c12.9-0.76,25.45,3.69,38.29,4.12c28.86,0.18,57.74-0.33,86.61,0.18c19.45,2.54,39.33,3.52,58.62-1.09
			c8.56-2.43,17.21,0.11,25.79,1.02c5.5,0.71,12.45-1.19,14.47-7.77C1667.11,1051.47,1663.33,1043.75,1658.26,1040.59z"/>
		<path class="st1" d="M1138.36,1039.97c-3.26-1.91-6.86-4.37-10.64-3.73c-8.84,1.43-16.99,13.24-12.33,22.96
			c2.11,6.22,7.54,11.3,13.71,10.68c6.07,0.6,11.11-4.4,14.29-9.74C1144.46,1053.23,1144.69,1043.8,1138.36,1039.97z"/>
		<path class="st1" d="M1177.69,1038.17c-3.19,0.91-6.16,2.78-8.47,5.42c-4.65,4.64-3.3,12.61-2.65,18.79
			c3.42,5.77,9.45,10.57,15.9,9.42c7.68-1.5,13.21-10.5,11.96-19.17C1193.78,1043.62,1185.17,1037.43,1177.69,1038.17z"/>
		<path class="st1" d="M5.59,1056.93c0.26-5.52-2.06-10.4-5.58-13.59v25.42C3.26,1066.04,5.52,1061.92,5.59,1056.93z"/>
		<path class="st1" d="M1905.65,1040.64c-10.2,3.12-12.55,19.79-4.99,27.43c5.51,5.06,13.99,5.46,19.57,0.84v-25.52
			C1916.32,1039.66,1910.89,1038.04,1905.65,1040.64z"/>
		<path class="st1" d="M309.61,1058.51c-6.27-7.58-14.2-18.05-24.52-13.44c-8.24,2.14-9.89,13.26-6.68,20.7
			c5.4,8.11,15.14,8.63,22.5,13.35c1.46,0.88,2.8,1.92,4.09,3.02h27.42C325.1,1073.96,316.46,1067.31,309.61,1058.51z"/>
		<path class="st1" d="M1383.85,1053.39c-12.04-1.54-24.31,0.48-36.31-2.1c-15.82-1.41-31.81,0.52-47.51-2.86
			c-8.77-0.96-17.33-5.34-26.22-3.83c-4.99,1.72-8.6,6.94-9.83,12.52c0.08,7.11,5.37,13.3,11.44,14.6
			c6.03,0.54,11.84-1.94,17.73-2.99c7.95-1.99,15.96,0.87,23.89,1.58c10.91,2.21,21.98,1.24,32.99,1.52
			c9.65,0.02,18.4,5.21,27.57,7.88c5.17,1.8,10.54-2.16,13.45-6.77C1396.09,1065.89,1389.98,1056.35,1383.85,1053.39z"/>
		<path class="st1" d="M680.36,1057c-1.99-7.16-9.19-10.28-15.29-8.2c-7.96,3.82-8.74,14.73-6.74,23.02
			c0.74,3.42,1.17,6.86,1.4,10.31h17.63C678.86,1073.78,682.09,1065.62,680.36,1057z"/>
		<path class="st1" d="M726.76,1064.3c-2.82-6.4-9.75-8.87-15.59-6.8c-4.38,2.34-6.93,7.6-7.99,12.72c0.19,4.07,1.05,8,2.02,11.92
			h21.61C727.73,1076.21,728.06,1070.2,726.76,1064.3z"/>
		<path class="st1" d="M534.92,1066.71c-3.29-8.4-12.93-8.79-19.76-7.07c-4.62,2.97-9.7,7.94-9.22,14.56
			c-0.31,2.79,0.23,5.52,1.34,7.95h27.29C536.81,1077.45,537.29,1071.67,534.92,1066.71z"/>
		<path class="st1" d="M637.2,1075c-3.15-4.97-8.51-10.36-14.31-8.73c-6.11,1.8-11.47,5.66-16.99,8.96
			c-5.41,3.34-11.37,5.02-17.26,6.91h48.63C637.7,1079.78,637.7,1077.31,637.2,1075z"/>
		<path class="st1" d="M1715.99,1068.6c-3.56-4.41-9.49-3.66-14.11-2.58c-8.13,3.84-14.26,11.39-21.93,16.13h39.25
			C1720.37,1077.33,1719.54,1071.96,1715.99,1068.6z"/>
		<path class="st1" d="M1851.16,1073.76c-14.71-3.67-29.88-0.36-44.65-3.45c-5.35-0.78-11-1.87-16.15,0.45
			c-4.21,1.57-6.91,6.47-7.09,11.38h91.65C1867.43,1078.03,1859.6,1074.85,1851.16,1073.76z"/>
		<path class="st1" d="M27.61,1072.93c-4.15,1.4-6.95,4.97-8.4,9.21h26.96C43.43,1074.4,34.6,1069.25,27.61,1072.93z"/>
		<path class="st1" d="M240.96,1082.15h2.05C242.34,1082.09,241.66,1082.1,240.96,1082.15z"/>
	</g>
</g>
</svg>
