<?xml version="1.0" encoding="utf-8"?>
<!-- Generator: Adobe Illustrator 23.0.1, SVG Export Plug-In . SVG Version: 6.00 Build 0)  -->
<svg version="1.1" id="Capa_1" xmlns="http://www.w3.org/2000/svg" xmlns:xlink="http://www.w3.org/1999/xlink" x="0px" y="0px"
	 viewBox="0 0 282.88 284.47" style="enable-background:new 0 0 282.88 284.47;" xml:space="preserve">
<style type="text/css">
	.st0{fill:#1B75BB;}
</style>
<g>
	<g>
		<rect x="58.65" y="144.66" class="st0" width="54.45" height="14.44"/>
		<rect x="171.19" y="125.38" class="st0" width="54.45" height="14.44"/>
		<path class="st0" d="M153.71,44.74h14.44C168.14,20.07,148.07,0,123.4,0v14.44C140.11,14.44,153.71,28.03,153.71,44.74z"/>
		<path class="st0" d="M235.94,270.04v14.44c24.67,0,44.74-20.07,44.74-44.74h-14.44C266.25,256.44,252.65,270.04,235.94,270.04z"/>
		<path class="st0" d="M259.53,82.49c0.91,0.12,1.83,0.21,2.78,0.21c11.34,0,20.56-9.23,20.56-20.57c0-11.34-9.22-20.57-20.56-20.57
			s-20.57,9.23-20.57,20.57c0,5.17,1.93,9.88,5.09,13.5l-15.11,26.89h-66.63L140.32,59.6c3.5-3.97,5.63-9.16,5.63-14.86
			c0-12.43-10.12-22.54-22.56-22.54c-9.9,0-18.31,6.43-21.33,15.32H52.54l-5.47-9.58c0.35-0.66,0.71-1.31,0.97-2.03
			c1.48-4.03,1.29-8.39-0.52-12.28c-1.81-3.88-5.02-6.83-9.04-8.3c-4.03-1.48-8.39-1.29-12.27,0.52c-3.89,1.81-6.84,5.02-8.3,9.03
			c-1.48,4.03-1.3,8.38,0.51,12.27c1.8,3.89,5.02,6.85,9.05,8.32c1.8,0.66,3.66,0.98,5.52,0.98c0.74,0,1.46-0.14,2.19-0.24l4.85,8.5
			L2.48,109.73l37.55,65.02l-16.65,29.26c-0.93-0.13-1.86-0.22-2.82-0.22C9.22,203.8,0,213.03,0,224.37
			c0,11.34,9.22,20.56,20.56,20.56c11.35,0,20.58-9.22,20.58-20.56c0-5.15-1.92-9.85-5.06-13.47l16.47-28.95h66.65l33.28,57.64
			l-5.53,8.9c-0.46-0.04-0.9-0.14-1.38-0.14c-8.85,0-16.05,7.2-16.05,16.04c0,8.85,7.2,16.05,16.05,16.05
			c8.85,0,16.05-7.2,16.05-16.05c0-3.05-0.9-5.88-2.39-8.32l5.67-9.13h49.7c3.02,8.9,11.43,15.32,21.34,15.32
			c12.43,0,22.54-10.11,22.54-22.54c0-5.69-2.14-10.89-5.63-14.86l28.95-50.14l-37.56-65.05L259.53,82.49z M262.31,54.02
			c4.48,0,8.11,3.63,8.11,8.11c0,4.48-3.63,8.11-8.11,8.11s-8.11-3.63-8.11-8.11C254.21,57.65,257.83,54.02,262.31,54.02z
			 M32.97,26.54c-3.39,0-6.13-2.75-6.13-6.13s2.75-6.13,6.13-6.13c3.39,0,6.13,2.75,6.13,6.13S36.35,26.54,32.97,26.54z
			 M20.57,232.47c-4.48,0-8.11-3.63-8.11-8.11c0-4.48,3.63-8.11,8.11-8.11s8.11,3.63,8.11,8.11
			C28.68,228.84,25.05,232.47,20.57,232.47z M145.77,270.52c-3.39,0-6.13-2.75-6.13-6.13s2.75-6.13,6.13-6.13s6.13,2.75,6.13,6.13
			S149.16,270.52,145.77,270.52z M123.4,36.63c4.48,0,8.12,3.64,8.12,8.11c0,4.47-3.64,8.11-8.12,8.11c-4.47,0-8.1-3.64-8.1-8.11
			C115.29,40.27,118.93,36.63,123.4,36.63z M52.52,167.51l-33.36-57.78l33.36-57.78h49.55c3.02,8.9,11.43,15.33,21.33,15.33
			c1.52,0,3-0.16,4.44-0.44l24.74,42.86l-33.38,57.81H52.52z M235.94,247.83c-4.47,0-8.11-3.64-8.11-8.11s3.64-8.11,8.11-8.11
			c4.47,0,8.11,3.64,8.11,8.11S240.41,247.83,235.94,247.83z M265.13,174.73l-24.77,42.89c-1.43-0.29-2.91-0.44-4.42-0.44
			c-9.9,0-18.32,6.43-21.34,15.32h-49.55l-33.34-57.75l33.38-57.81h66.69L265.13,174.73z"/>
	</g>
</g>
</svg>
