<?xml version="1.0" encoding="utf-8"?>
<!-- Generator: Adobe Illustrator 23.0.1, SVG Export Plug-In . SVG Version: 6.00 Build 0)  -->
<svg version="1.1" id="Capa_1" xmlns="http://www.w3.org/2000/svg" xmlns:xlink="http://www.w3.org/1999/xlink" x="0px" y="0px"
	 viewBox="0 0 1058.74 284.47" style="enable-background:new 0 0 1058.74 284.47;" xml:space="preserve">
<g>
	<g>
		<path d="M350.87,130.27c-6.74-3.62-12.03-8.64-15.88-15.07c-3.86-6.42-5.78-13.68-5.78-21.78s1.92-15.36,5.78-21.78
			c3.85-6.42,9.14-11.44,15.88-15.06c6.74-3.62,14.31-5.43,22.71-5.43c7.09,0,13.49,1.24,19.21,3.74
			c5.72,2.49,10.53,6.07,14.42,10.74l-12.14,11.21c-5.53-6.38-12.38-9.58-20.55-9.58c-5.06,0-9.58,1.11-13.55,3.33
			c-3.97,2.22-7.07,5.32-9.28,9.28c-2.22,3.97-3.33,8.49-3.33,13.55s1.11,9.58,3.33,13.55c2.22,3.97,5.32,7.07,9.28,9.28
			c3.97,2.22,8.49,3.33,13.55,3.33c8.17,0,15.02-3.23,20.55-9.69l12.14,11.21c-3.89,4.75-8.72,8.37-14.48,10.86
			c-5.76,2.49-12.18,3.74-19.27,3.74C365.13,135.7,357.6,133.89,350.87,130.27z"/>
		<path d="M419.94,52.55h18.92v81.75h-18.92V52.55z"/>
		<path d="M521.54,119.12v15.18h-63.3V52.55h61.78v15.18h-42.97v17.75H515v14.72h-37.95v18.92H521.54z"/>
		<path d="M611.58,52.55v81.75h-15.53l-40.76-49.63v49.63H536.6V52.55h15.65l40.64,49.63V52.55H611.58z"/>
		<path d="M647.49,130.27c-6.74-3.62-12.03-8.64-15.88-15.07c-3.86-6.42-5.78-13.68-5.78-21.78s1.92-15.36,5.78-21.78
			c3.86-6.42,9.14-11.44,15.88-15.06c6.74-3.62,14.31-5.43,22.71-5.43c7.08,0,13.49,1.24,19.21,3.74
			c5.72,2.49,10.53,6.07,14.42,10.74l-12.15,11.21c-5.53-6.38-12.38-9.58-20.55-9.58c-5.06,0-9.58,1.11-13.55,3.33
			c-3.97,2.22-7.07,5.32-9.28,9.28c-2.22,3.97-3.33,8.49-3.33,13.55s1.12,9.58,3.33,13.55c2.22,3.97,5.32,7.07,9.28,9.28
			c3.97,2.22,8.49,3.33,13.55,3.33c8.17,0,15.02-3.23,20.55-9.69l12.15,11.21c-3.89,4.75-8.72,8.37-14.48,10.86
			c-5.76,2.49-12.18,3.74-19.26,3.74C661.76,135.7,654.23,133.89,647.49,130.27z"/>
		<path d="M716.56,52.55h18.92v81.75h-18.92V52.55z"/>
		<path d="M808.7,116.78h-37.95l-7.24,17.52h-19.39l36.44-81.75h18.69l36.55,81.75h-19.85L808.7,116.78z M802.75,102.41l-12.97-31.3
			l-12.96,31.3H802.75z"/>
	</g>
	<g>
		<path d="M388.76,224.01H350.8l-7.24,17.52h-19.39l36.44-81.75h18.69l36.55,81.75H396L388.76,224.01z M382.8,209.65l-12.96-31.3
			l-12.96,31.3H382.8z"/>
		<path d="M476.46,241.53l-15.76-22.78h-0.94h-16.47v22.78h-18.92v-81.75h35.39c7.24,0,13.53,1.21,18.86,3.62
			c5.33,2.42,9.44,5.84,12.32,10.27c2.88,4.45,4.32,9.7,4.32,15.76c0,6.07-1.46,11.32-4.38,15.71c-2.92,4.4-7.07,7.77-12.44,10.11
			l18.33,26.28H476.46z M471.67,178.87c-2.96-2.45-7.28-3.68-12.96-3.68h-15.41v28.49h15.41c5.68,0,10-1.24,12.96-3.73
			c2.96-2.5,4.44-6,4.44-10.52C476.11,184.85,474.63,181.33,471.67,178.87z"/>
		<path d="M565.45,199.37h17.29v33.17c-4.44,3.35-9.58,5.92-15.42,7.71c-5.84,1.79-11.72,2.69-17.63,2.69
			c-8.49,0-16.12-1.81-22.89-5.43c-6.77-3.63-12.09-8.65-15.94-15.07c-3.86-6.42-5.78-13.68-5.78-21.77c0-8.1,1.92-15.36,5.78-21.78
			c3.85-6.42,9.2-11.44,16.06-15.06c6.85-3.63,14.56-5.43,23.12-5.43c7.16,0,13.66,1.21,19.5,3.63c5.84,2.41,10.74,5.91,14.72,10.51
			l-12.15,11.21c-5.84-6.14-12.89-9.22-21.14-9.22c-5.22,0-9.85,1.09-13.9,3.27c-4.05,2.17-7.2,5.25-9.46,9.22
			c-2.26,3.97-3.39,8.52-3.39,13.67c0,5.06,1.13,9.57,3.39,13.54c2.26,3.98,5.39,7.06,9.4,9.28c4.01,2.22,8.58,3.33,13.72,3.33
			c5.45,0,10.35-1.17,14.71-3.51V199.37z"/>
		<path d="M663.54,226.34v15.18h-63.3v-81.75h61.78v15.18h-42.97v17.75h37.95v14.72h-37.95v18.91H663.54z"/>
		<path d="M753.58,159.78v81.75h-15.53l-40.76-49.64v49.64H678.6v-81.75h15.65l40.65,49.63v-49.63H753.58z"/>
		<path d="M789.9,175.19h-26.16v-15.41h71.24v15.41h-26.16v66.33H789.9V175.19z"/>
		<path d="M845.14,159.78h18.92v81.75h-18.92V159.78z"/>
		<path d="M958.42,159.78v81.75h-15.53l-40.76-49.64v49.64h-18.68v-81.75h15.65l40.64,49.63v-49.63H958.42z"/>
		<path d="M1031.64,224.01h-37.95l-7.24,17.52h-19.39l36.44-81.75h18.69l36.55,81.75h-19.85L1031.64,224.01z M1025.69,209.65
			l-12.97-31.3l-12.96,31.3H1025.69z"/>
	</g>
	<g>
		<rect x="58.65" y="144.66" width="54.45" height="14.44"/>
		<rect x="171.19" y="125.38" width="54.45" height="14.44"/>
		<path d="M153.71,44.74h14.44C168.14,20.07,148.07,0,123.4,0v14.44C140.11,14.44,153.71,28.03,153.71,44.74z"/>
		<path d="M235.94,270.04v14.44c24.67,0,44.74-20.07,44.74-44.74h-14.44C266.25,256.44,252.65,270.04,235.94,270.04z"/>
		<path d="M259.53,82.49c0.91,0.12,1.83,0.21,2.78,0.21c11.34,0,20.56-9.23,20.56-20.57c0-11.34-9.22-20.57-20.56-20.57
			s-20.57,9.23-20.57,20.57c0,5.17,1.93,9.88,5.09,13.5l-15.11,26.89h-66.63L140.32,59.6c3.5-3.97,5.63-9.16,5.63-14.86
			c0-12.43-10.12-22.54-22.56-22.54c-9.9,0-18.31,6.43-21.33,15.32H52.54l-5.47-9.58c0.35-0.66,0.71-1.31,0.97-2.03
			c1.48-4.03,1.29-8.39-0.52-12.28c-1.81-3.88-5.02-6.83-9.04-8.3c-4.03-1.48-8.39-1.29-12.27,0.52c-3.89,1.81-6.84,5.02-8.3,9.03
			c-1.48,4.03-1.3,8.38,0.51,12.27c1.8,3.89,5.02,6.85,9.05,8.32c1.8,0.66,3.66,0.98,5.52,0.98c0.74,0,1.46-0.14,2.19-0.24l4.85,8.5
			L2.48,109.73l37.55,65.02l-16.65,29.26c-0.93-0.13-1.86-0.22-2.82-0.22C9.22,203.8,0,213.03,0,224.37
			c0,11.34,9.22,20.56,20.56,20.56c11.35,0,20.58-9.22,20.58-20.56c0-5.15-1.92-9.85-5.06-13.47l16.47-28.95h66.65l33.28,57.64
			l-5.53,8.9c-0.46-0.04-0.9-0.14-1.38-0.14c-8.85,0-16.05,7.2-16.05,16.04c0,8.85,7.2,16.05,16.05,16.05
			c8.85,0,16.05-7.2,16.05-16.05c0-3.05-0.9-5.88-2.39-8.32l5.67-9.13h49.7c3.02,8.9,11.43,15.32,21.34,15.32
			c12.43,0,22.54-10.11,22.54-22.54c0-5.69-2.14-10.89-5.63-14.86l28.95-50.14l-37.56-65.05L259.53,82.49z M262.31,54.02
			c4.48,0,8.11,3.63,8.11,8.11c0,4.48-3.63,8.11-8.11,8.11s-8.11-3.63-8.11-8.11C254.21,57.65,257.83,54.02,262.31,54.02z
			 M32.97,26.54c-3.39,0-6.13-2.75-6.13-6.13s2.75-6.13,6.13-6.13c3.39,0,6.13,2.75,6.13,6.13S36.35,26.54,32.97,26.54z
			 M20.57,232.47c-4.48,0-8.11-3.63-8.11-8.11c0-4.48,3.63-8.11,8.11-8.11s8.11,3.63,8.11,8.11
			C28.68,228.84,25.05,232.47,20.57,232.47z M145.77,270.52c-3.39,0-6.13-2.75-6.13-6.13s2.75-6.13,6.13-6.13s6.13,2.75,6.13,6.13
			S149.16,270.52,145.77,270.52z M123.4,36.63c4.48,0,8.12,3.64,8.12,8.11c0,4.47-3.64,8.11-8.12,8.11c-4.47,0-8.1-3.64-8.1-8.11
			C115.29,40.27,118.93,36.63,123.4,36.63z M52.52,167.51l-33.36-57.78l33.36-57.78h49.55c3.02,8.9,11.43,15.33,21.33,15.33
			c1.52,0,3-0.16,4.44-0.44l24.74,42.86l-33.38,57.81H52.52z M235.94,247.83c-4.47,0-8.11-3.64-8.11-8.11s3.64-8.11,8.11-8.11
			c4.47,0,8.11,3.64,8.11,8.11S240.41,247.83,235.94,247.83z M265.13,174.73l-24.77,42.89c-1.43-0.29-2.91-0.44-4.42-0.44
			c-9.9,0-18.32,6.43-21.34,15.32h-49.55l-33.34-57.75l33.38-57.81h66.69L265.13,174.73z"/>
	</g>
</g>
</svg>
