<?xml version="1.0" encoding="utf-8"?>
<!-- Generator: Adobe Illustrator 23.0.2, SVG Export Plug-In . SVG Version: 6.00 Build 0)  -->
<svg version="1.1" id="Capa_1" focusable="false" xmlns="http://www.w3.org/2000/svg" xmlns:xlink="http://www.w3.org/1999/xlink"
	 x="0px" y="0px" viewBox="0 0 384 512" style="enable-background:new 0 0 384 512;" xml:space="preserve">
<style type="text/css">
	.st0{fill:#1B75BB;}
	.st1{fill:#FFFFFF;}
</style>
<path class="st0" d="M172.3,501.7C27,291,0,269.4,0,192C0,86,86,0,192,0s192,86,192,192c0,77.4-27,99-172.3,309.7
	C202.2,515.4,181.8,515.4,172.3,501.7L172.3,501.7z"/>
<g>
	<path class="st1" d="M288.1,250.7c4.2,6.9,5.7,14.2,4.5,21.9c-1.2,7.7-4.7,14.1-10.6,19.4c-5.9,5.3-12.9,7.9-21,7.9H123
		c-8.1,0-15.1-2.6-21-7.7c-5.9-5.1-9.4-11.6-10.6-19.4c-1.2-7.8,0.3-15.2,4.5-22.1l52.8-84.8V97.8h-3.6c-3,0-5.6-1.1-7.7-3.2
		c-2.1-2.1-3.2-4.7-3.2-7.7v-7.2c0-3,1.1-5.6,3.2-7.7c2.1-2.1,4.7-3.2,7.7-3.2h93.8c3,0,5.6,1.1,7.7,3.2c2.1,2.1,3.2,4.7,3.2,7.7V87
		c0,3-1.1,5.6-3.2,7.7c-2.1,2.1-4.7,3.2-7.7,3.2h-3.6v68.1L288.1,250.7z M153.2,213.3h77.6l-21.7-35.2c-1.8-2.4-2.7-5.1-2.7-8.1
		V97.8h-28.9V170c0,3-0.9,5.7-2.7,8.1L153.2,213.3z"/>
</g>
</svg>
